<svg xmlns="http://www.w3.org/2000/svg" viewBox="0 0 68.32 68.32"><defs><clipPath id="a" clipPathUnits="userSpaceOnUse"><path d="M-441.33 181.17H396.9v-422.4h-838.23Z"/></clipPath><clipPath id="b" clipPathUnits="userSpaceOnUse"><path d="M-418.68 190.28h838.22V-232.1h-838.22Z"/></clipPath><clipPath id="c" clipPathUnits="userSpaceOnUse"><path d="M-410.77 171.87h838.22v-422.4h-838.22Z"/></clipPath><clipPath id="d" clipPathUnits="userSpaceOnUse"><path d="M-418.68 190.28h838.22V-232.1h-838.22Z"/></clipPath><clipPath id="e" clipPathUnits="userSpaceOnUse"><path d="M-426.07 190.28h838.23V-232.1h-838.23Z"/></clipPath><clipPath id="f" clipPathUnits="userSpaceOnUse"><path d="M-423.6 187.82h838.22v-422.4H-423.6Z"/></clipPath></defs><g fill="none" stroke="currentColor" stroke-miterlimit="10" class="eit-icon"><path d="M0 0a25.12 25.12 0 1 0-50.24 0A25.12 25.12 0 0 0 0 0Z" class="eit-icon-circle" clip-path="url(#a)" transform="matrix(1.33333 0 0 -1.33333 67.653 34.16)"/><path stroke-linecap="round" stroke-linejoin="round" d="M0 0h-12.06v6.46a4.96 4.96 0 0 0 4.96 4.96h7.06a4.96 4.96 0 0 0 4.96-4.96V4.92" clip-path="url(#b)" transform="matrix(1.33333 0 0 -1.33333 37.465 46.313)"/><path stroke-linecap="round" stroke-linejoin="round" d="M0 0a4.34 4.34 0 1 0 8.68 0A4.34 4.34 0 0 0 0 0" clip-path="url(#c)" transform="matrix(1.33333 0 0 -1.33333 26.917 21.759)"/><path stroke-linecap="round" stroke-linejoin="round" d="M0 0a4.92 4.92 0 1 0 9.84 0A4.92 4.92 0 0 0 0 0" clip-path="url(#d)" transform="matrix(1.33333 0 0 -1.33333 37.465 46.313)"/><path stroke-linecap="round" stroke-linejoin="round" d="M0 0h-4.93" clip-path="url(#e)" transform="matrix(1.33333 0 0 -1.33333 47.31 46.313)"/><path stroke-linecap="round" stroke-linejoin="round" d="M0 0v-4.93" clip-path="url(#f)" transform="matrix(1.33333 0 0 -1.33333 44.023 43.027)"/></g></svg>