<svg xmlns="http://www.w3.org/2000/svg" viewBox="0 0 68.32 68.32"><defs><clipPath id="a" clipPathUnits="userSpaceOnUse"><path d="M-740.35 365.32H97.88V-57.07h-838.23Z"/></clipPath><clipPath id="b" clipPathUnits="userSpaceOnUse"><path d="M-721.27 351.6h838.23V-70.79h-838.23Z"/></clipPath><clipPath id="c" clipPathUnits="userSpaceOnUse"><path d="M-728.35 358.68h838.23V-63.7h-838.23Z"/></clipPath><clipPath id="d" clipPathUnits="userSpaceOnUse"><path d="M-709.27 378.76h838.23V-43.63h-838.23Z"/></clipPath><clipPath id="e" clipPathUnits="userSpaceOnUse"><path d="M-702.19 371.68h838.23V-50.7h-838.23Z"/></clipPath></defs><g fill="none" stroke="currentColor" stroke-miterlimit="10" class="eit-icon"><path d="M0 0a25.12 25.12 0 1 0-50.24 0A25.12 25.12 0 0 0 0 0Z" class="eit-icon-circle" clip-path="url(#a)" transform="matrix(1.33333 0 0 -1.33333 67.653 34.16)"/><path stroke-linecap="round" stroke-linejoin="round" d="m0 0 7.08-7.08L0-14.16" clip-path="url(#b)" transform="matrix(1.33333 0 0 -1.33333 42.212 15.866)"/><path stroke-linecap="round" stroke-linejoin="round" d="M0 0h-26.16" clip-path="url(#c)" transform="matrix(1.33333 0 0 -1.33333 51.653 25.307)"/><path stroke-linecap="round" stroke-linejoin="round" d="m0 0-7.08 7.08L0 14.16" clip-path="url(#d)" transform="matrix(1.33333 0 0 -1.33333 26.212 52.082)"/><path stroke-linecap="round" stroke-linejoin="round" d="M0 0h26.16" clip-path="url(#e)" transform="matrix(1.33333 0 0 -1.33333 16.77 42.64)"/></g></svg>