<svg xmlns="http://www.w3.org/2000/svg" viewBox="0 0 68.32 68.32"><defs><clipPath id="y" clipPathUnits="userSpaceOnUse"><path d="M-261.936 181.237h838.23v-422.39h-838.23Z"/></clipPath><clipPath id="a" clipPathUnits="userSpaceOnUse"><path d="M-189.535 180.365h838.23v-422.39h-838.23Z"/></clipPath><clipPath id="b" clipPathUnits="userSpaceOnUse"><path d="M-191.646 186.408h838.23v-422.39h-838.23Z"/></clipPath><clipPath id="c" clipPathUnits="userSpaceOnUse"><path d="M-196.32 183.355h838.23v-422.39h-838.23Z"/></clipPath><clipPath id="d" clipPathUnits="userSpaceOnUse"><path d="M-188.148 184.803h838.23v-422.39h-838.23Z"/></clipPath><clipPath id="e" clipPathUnits="userSpaceOnUse"><path d="M-189.307 188.628h838.23v-422.39h-838.23Z"/></clipPath><clipPath id="f" clipPathUnits="userSpaceOnUse"><path d="M-188.668 190.134h838.23v-422.39h-838.23Z"/></clipPath><clipPath id="g" clipPathUnits="userSpaceOnUse"><path d="M-198.425 180.365h838.23v-422.39h-838.23Z"/></clipPath><clipPath id="h" clipPathUnits="userSpaceOnUse"><path d="M-196.313 186.408h838.23v-422.39h-838.23Z"/></clipPath><clipPath id="i" clipPathUnits="userSpaceOnUse"><path d="M-199.811 184.803h838.23v-422.39h-838.23Z"/></clipPath><clipPath id="j" clipPathUnits="userSpaceOnUse"><path d="M-198.653 188.628h838.23v-422.39h-838.23Z"/></clipPath><clipPath id="k" clipPathUnits="userSpaceOnUse"><path d="M-199.292 190.134h838.23v-422.39h-838.23Z"/></clipPath><clipPath id="l" clipPathUnits="userSpaceOnUse"><path d="M-201.57 196.309h838.23v-422.39h-838.23Z"/></clipPath><clipPath id="m" clipPathUnits="userSpaceOnUse"><path d="M-188.68 170.222h838.23v-422.39h-838.23Z"/></clipPath><clipPath id="n" clipPathUnits="userSpaceOnUse"><path d="M-199.273 170.222h838.23v-422.39h-838.23Z"/></clipPath><clipPath id="o" clipPathUnits="userSpaceOnUse"><path d="M-193.983 168.442h838.23v-422.39h-838.23Z"/></clipPath><clipPath id="p" clipPathUnits="userSpaceOnUse"><path d="M-193.983 201.163h838.23v-422.39h-838.23Z"/></clipPath><clipPath id="q" clipPathUnits="userSpaceOnUse"><path d="M-189.982 196.309h838.23v-422.39h-838.23Z"/></clipPath><clipPath id="r" clipPathUnits="userSpaceOnUse"><path d="M-200.576 196.309h838.23v-422.39h-838.23Z"/></clipPath><clipPath id="s" clipPathUnits="userSpaceOnUse"><path d="M-208.564 179.506h838.23v-422.39h-838.23Z"/></clipPath><clipPath id="t" clipPathUnits="userSpaceOnUse"><path d="M-208.564 190.1h838.23v-422.39h-838.23Z"/></clipPath><clipPath id="u" clipPathUnits="userSpaceOnUse"><path d="M-182.477 180.809h838.23v-422.39h-838.23Z"/></clipPath><clipPath id="v" clipPathUnits="userSpaceOnUse"><path d="M-182.477 191.403h838.23v-422.39h-838.23Z"/></clipPath><clipPath id="w" clipPathUnits="userSpaceOnUse"><path d="M-210.345 184.803h838.23v-422.39h-838.23Z"/></clipPath><clipPath id="x" clipPathUnits="userSpaceOnUse"><path d="M-177.622 184.803h838.23v-422.39h-838.23Z"/></clipPath></defs><g class="eit-icon"><path d="M0 0q-.22.45-.23 1a2.34 2.34 0 1 0 4.68 0" clip-path="url(#a)" style="fill:none;stroke:currentColor;stroke-width:1;stroke-linecap:butt;stroke-linejoin:miter;stroke-miterlimit:10;stroke-dasharray:none;stroke-opacity:1" transform="matrix(1.33333 0 0 -1.33333 28.228 28.242)"/><path d="M0 0a2.34 2.34 0 0 0 2.34-2.34" clip-path="url(#b)" style="fill:none;stroke:currentColor;stroke-width:1;stroke-linecap:butt;stroke-linejoin:miter;stroke-miterlimit:10;stroke-dasharray:none;stroke-opacity:1" transform="matrix(1.33333 0 0 -1.33333 31.044 36.299)"/><path d="M0 0a2.34 2.34 0 0 1-2.34-2.34" clip-path="url(#c)" style="fill:none;stroke:currentColor;stroke-width:1;stroke-linecap:butt;stroke-linejoin:miter;stroke-miterlimit:10;stroke-dasharray:none;stroke-opacity:1" transform="matrix(1.33333 0 0 -1.33333 37.275 32.229)"/><path d="M0 0a2.34 2.34 0 1 0 2.76 3.58" clip-path="url(#d)" style="fill:none;stroke:currentColor;stroke-width:1;stroke-linecap:butt;stroke-linejoin:miter;stroke-miterlimit:10;stroke-dasharray:none;stroke-opacity:1" transform="matrix(1.33333 0 0 -1.33333 26.379 34.16)"/><path d="M0 0a2.65 2.65 0 0 1 2.01-4.41c1.47 0 2.67 1.2 2.67 2.66v8.02" clip-path="url(#e)" style="fill:none;stroke:currentColor;stroke-width:1;stroke-linecap:butt;stroke-linejoin:miter;stroke-miterlimit:10;stroke-dasharray:none;stroke-opacity:1" transform="matrix(1.33333 0 0 -1.33333 27.924 39.26)"/><path d="M0 0a3.05 3.05 0 0 0 1.19 5.86" clip-path="url(#f)" style="fill:none;stroke:currentColor;stroke-width:1;stroke-linecap:butt;stroke-linejoin:miter;stroke-miterlimit:10;stroke-dasharray:none;stroke-opacity:1" transform="matrix(1.33333 0 0 -1.33333 27.072 41.268)"/><path d="M0 0q.22.45.23 1a2.34 2.34 0 1 1-4.68 0" clip-path="url(#g)" style="fill:none;stroke:currentColor;stroke-width:1;stroke-linecap:butt;stroke-linejoin:miter;stroke-miterlimit:10;stroke-dasharray:none;stroke-opacity:1" transform="matrix(1.33333 0 0 -1.33333 40.081 28.242)"/><path d="M0 0a2.34 2.34 0 0 1-2.34-2.34" clip-path="url(#h)" style="fill:none;stroke:currentColor;stroke-width:1;stroke-linecap:butt;stroke-linejoin:miter;stroke-miterlimit:10;stroke-dasharray:none;stroke-opacity:1" transform="matrix(1.33333 0 0 -1.33333 37.266 36.299)"/><path d="M0 0a2.34 2.34 0 1 1-2.76 3.58" clip-path="url(#i)" style="fill:none;stroke:currentColor;stroke-width:1;stroke-linecap:butt;stroke-linejoin:miter;stroke-miterlimit:10;stroke-dasharray:none;stroke-opacity:1" transform="matrix(1.33333 0 0 -1.33333 41.93 34.16)"/><path d="M0 0a2.65 2.65 0 0 0-2.01-4.41 2.66 2.66 0 0 0-2.67 2.66v8.02" clip-path="url(#j)" style="fill:none;stroke:currentColor;stroke-width:1;stroke-linecap:butt;stroke-linejoin:miter;stroke-miterlimit:10;stroke-dasharray:none;stroke-opacity:1" transform="matrix(1.33333 0 0 -1.33333 40.385 39.26)"/><path d="M0 0a3.05 3.05 0 0 1-1.19 5.86" clip-path="url(#k)" style="fill:none;stroke:currentColor;stroke-width:1;stroke-linecap:butt;stroke-linejoin:miter;stroke-miterlimit:10;stroke-dasharray:none;stroke-opacity:1" transform="matrix(1.33333 0 0 -1.33333 41.238 41.268)"/><path d="M0 0h-15.19a3.9 3.9 0 0 0-3.9 3.91V19.1A3.9 3.9 0 0 0-15.2 23H0a3.9 3.9 0 0 0 3.91-3.91V3.9A3.9 3.9 0 0 0 0 0Z" clip-path="url(#l)" style="fill:none;stroke:currentColor;stroke-width:1;stroke-linecap:butt;stroke-linejoin:miter;stroke-miterlimit:10;stroke-dasharray:none;stroke-opacity:1" transform="matrix(1.33333 0 0 -1.33333 44.274 49.501)"/><path d="M0 0a1.3 1.3 0 0 1-1.3-1.3v-1.77h2.6v1.77C1.3-.58.72 0 0 0Z" clip-path="url(#m)" style="fill:none;stroke:currentColor;stroke-width:1;stroke-linecap:butt;stroke-linejoin:miter;stroke-miterlimit:10;stroke-dasharray:none;stroke-opacity:1" transform="matrix(1.33333 0 0 -1.33333 27.088 14.719)"/><path d="M0 0a1.3 1.3 0 0 1-1.3-1.3v-1.77h2.6v1.77C1.3-.58.72 0 0 0Z" clip-path="url(#n)" style="fill:none;stroke:currentColor;stroke-width:1;stroke-linecap:butt;stroke-linejoin:miter;stroke-miterlimit:10;stroke-dasharray:none;stroke-opacity:1" transform="matrix(1.33333 0 0 -1.33333 41.213 14.719)"/><path d="M0 0a1.3 1.3 0 0 1-1.3-1.3v-3.55h2.6v3.55C1.3-.58.72 0 0 0Z" clip-path="url(#o)" style="fill:none;stroke:currentColor;stroke-width:1;stroke-linecap:butt;stroke-linejoin:miter;stroke-miterlimit:10;stroke-dasharray:none;stroke-opacity:1" transform="matrix(1.33333 0 0 -1.33333 34.159 12.346)"/><path d="M0 0c.72 0 1.3.58 1.3 1.3v3.55h-2.6V1.3C-1.3.58-.72 0 0 0Z" clip-path="url(#p)" style="fill:none;stroke:currentColor;stroke-width:1;stroke-linecap:butt;stroke-linejoin:miter;stroke-miterlimit:10;stroke-dasharray:none;stroke-opacity:1" transform="matrix(1.33333 0 0 -1.33333 34.159 55.974)"/><path d="M0 0h-2.6v-1.77a1.3 1.3 0 0 1 2.6 0z" clip-path="url(#q)" style="fill:none;stroke:currentColor;stroke-width:1;stroke-linecap:butt;stroke-linejoin:miter;stroke-miterlimit:10;stroke-dasharray:none;stroke-opacity:1" transform="matrix(1.33333 0 0 -1.33333 28.825 49.501)"/><path d="M0 0h-2.6v-1.77a1.3 1.3 0 0 1 2.6 0z" clip-path="url(#r)" style="fill:none;stroke:currentColor;stroke-width:1;stroke-linecap:butt;stroke-linejoin:miter;stroke-miterlimit:10;stroke-dasharray:none;stroke-opacity:1" transform="matrix(1.33333 0 0 -1.33333 42.95 49.501)"/><path d="M0 0c0 .72-.58 1.3-1.3 1.3h-1.77v-2.6h1.77C-.58-1.3 0-.72 0 0Z" clip-path="url(#s)" style="fill:none;stroke:currentColor;stroke-width:1;stroke-linecap:butt;stroke-linejoin:miter;stroke-miterlimit:10;stroke-dasharray:none;stroke-opacity:1" transform="matrix(1.33333 0 0 -1.33333 53.601 27.098)"/><path d="M0 0c0 .72-.58 1.3-1.3 1.3h-1.77v-2.6h1.77C-.58-1.3 0-.72 0 0Z" clip-path="url(#t)" style="fill:none;stroke:currentColor;stroke-width:1;stroke-linecap:butt;stroke-linejoin:miter;stroke-miterlimit:10;stroke-dasharray:none;stroke-opacity:1" transform="matrix(1.33333 0 0 -1.33333 53.601 41.223)"/><path d="M0 0v2.6h-1.77a1.3 1.3 0 0 1 0-2.6Z" clip-path="url(#u)" style="fill:none;stroke:currentColor;stroke-width:1;stroke-linecap:butt;stroke-linejoin:miter;stroke-miterlimit:10;stroke-dasharray:none;stroke-opacity:1" transform="matrix(1.33333 0 0 -1.33333 18.818 28.835)"/><path d="M0 0v2.6h-1.77a1.3 1.3 0 0 1 0-2.6Z" clip-path="url(#v)" style="fill:none;stroke:currentColor;stroke-width:1;stroke-linecap:butt;stroke-linejoin:miter;stroke-miterlimit:10;stroke-dasharray:none;stroke-opacity:1" transform="matrix(1.33333 0 0 -1.33333 18.818 42.96)"/><path d="M0 0c0 .72-.58 1.3-1.3 1.3h-3.55v-2.6h3.55C-.58-1.3 0-.72 0 0Z" clip-path="url(#w)" style="fill:none;stroke:currentColor;stroke-width:1;stroke-linecap:butt;stroke-linejoin:miter;stroke-miterlimit:10;stroke-dasharray:none;stroke-opacity:1" transform="matrix(1.33333 0 0 -1.33333 55.975 34.16)"/><path d="M0 0c0-.72.58-1.3 1.3-1.3h3.56v2.6H1.3A1.3 1.3 0 0 1 0 0Z" clip-path="url(#x)" style="fill:none;stroke:currentColor;stroke-width:1;stroke-linecap:butt;stroke-linejoin:miter;stroke-miterlimit:10;stroke-dasharray:none;stroke-opacity:1" transform="matrix(1.33333 0 0 -1.33333 12.345 34.16)"/><path fill="none" stroke="currentColor" stroke-miterlimit="10" d="M0 0a25.12 25.12 0 1 0-50.24 0A25.12 25.12 0 0 0 0 0Z" class="eit-icon-circle" clip-path="url(#y)" transform="matrix(1.33333 0 0 -1.33333 67.654 34.16)"/></g></svg>