<?xml version="1.0" encoding="UTF-8" standalone="no"?>
<svg
   id="svg536"
   viewBox="0 0 68.32 68.32"
   version="1.1"
   sodipodi:docname="artificial_intelligence.svg"
   inkscape:version="1.4.2 (ebf0e940, 2025-05-08)"
   xmlns:inkscape="http://www.inkscape.org/namespaces/inkscape"
   xmlns:sodipodi="http://sodipodi.sourceforge.net/DTD/sodipodi-0.dtd"
   xmlns="http://www.w3.org/2000/svg"
   xmlns:svg="http://www.w3.org/2000/svg">
  <sodipodi:namedview
     id="namedview1"
     pagecolor="#ffffff"
     bordercolor="#000000"
     borderopacity="0.25"
     inkscape:showpageshadow="2"
     inkscape:pageopacity="0.0"
     inkscape:pagecheckerboard="0"
     inkscape:deskcolor="#d1d1d1"
     showgrid="false"
     inkscape:zoom="12.441452"
     inkscape:cx="34.16"
     inkscape:cy="34.200188"
     inkscape:window-width="1920"
     inkscape:window-height="1080"
     inkscape:window-x="0"
     inkscape:window-y="0"
     inkscape:window-maximized="0"
     inkscape:current-layer="svg536" />
  <defs
     id="defs530">
    <clipPath
       id="a"
       clipPathUnits="userSpaceOnUse">
      <path
         id="path23"
         d="M0 422.39h838.23V0H0Z"
         transform="translate(-261.936 -241.153)" />
    </clipPath>
    <clipPath
       id="clipPath44-1"
       clipPathUnits="userSpaceOnUse">
      <path
         id="path44-5"
         d="M0 422.39h838.23V0H0Z"
         transform="translate(-189.535 -242.025)" />
    </clipPath>
    <clipPath
       id="clipPath46-5"
       clipPathUnits="userSpaceOnUse">
      <path
         id="path46-5"
         d="M0 422.39h838.23V0H0Z"
         transform="translate(-191.646 -235.982)" />
    </clipPath>
    <clipPath
       id="clipPath48-8"
       clipPathUnits="userSpaceOnUse">
      <path
         id="path48-2"
         d="M0 422.39h838.23V0H0Z"
         transform="translate(-196.32 -239.035)" />
    </clipPath>
    <clipPath
       id="clipPath50-9"
       clipPathUnits="userSpaceOnUse">
      <path
         id="path50-8"
         d="M0 422.39h838.23V0H0Z"
         transform="translate(-188.148 -237.587)" />
    </clipPath>
    <clipPath
       id="clipPath52-2"
       clipPathUnits="userSpaceOnUse">
      <path
         id="path52-0"
         d="M0 422.39h838.23V0H0Z"
         transform="translate(-189.307 -233.762)" />
    </clipPath>
    <clipPath
       id="clipPath54-7"
       clipPathUnits="userSpaceOnUse">
      <path
         id="path54-4"
         d="M0 422.39h838.23V0H0Z"
         transform="translate(-188.668 -232.256)" />
    </clipPath>
    <clipPath
       id="clipPath56-8"
       clipPathUnits="userSpaceOnUse">
      <path
         id="path56-5"
         d="M0 422.39h838.23V0H0Z"
         transform="translate(-198.425 -242.025)" />
    </clipPath>
    <clipPath
       id="clipPath58-8"
       clipPathUnits="userSpaceOnUse">
      <path
         id="path58-3"
         d="M0 422.39h838.23V0H0Z"
         transform="translate(-196.313 -235.982)" />
    </clipPath>
    <clipPath
       id="clipPath60-0"
       clipPathUnits="userSpaceOnUse">
      <path
         id="path60-6"
         d="M0 422.39h838.23V0H0Z"
         transform="translate(-199.811 -237.587)" />
    </clipPath>
    <clipPath
       id="clipPath62-2"
       clipPathUnits="userSpaceOnUse">
      <path
         id="path62-2"
         d="M0 422.39h838.23V0H0Z"
         transform="translate(-198.653 -233.762)" />
    </clipPath>
    <clipPath
       id="clipPath64-5"
       clipPathUnits="userSpaceOnUse">
      <path
         id="path64-2"
         d="M0 422.39h838.23V0H0Z"
         transform="translate(-199.292 -232.256)" />
    </clipPath>
    <clipPath
       id="clipPath66-2"
       clipPathUnits="userSpaceOnUse">
      <path
         id="path66-7"
         d="M0 422.39h838.23V0H0Z"
         transform="translate(-201.57 -226.081)" />
    </clipPath>
    <clipPath
       id="clipPath68-1"
       clipPathUnits="userSpaceOnUse">
      <path
         id="path68-5"
         d="M0 422.39h838.23V0H0Z"
         transform="translate(-188.68 -252.168)" />
    </clipPath>
    <clipPath
       id="clipPath70-2"
       clipPathUnits="userSpaceOnUse">
      <path
         id="path70-1"
         d="M0 422.39h838.23V0H0Z"
         transform="translate(-199.273 -252.168)" />
    </clipPath>
    <clipPath
       id="clipPath72-1"
       clipPathUnits="userSpaceOnUse">
      <path
         id="path72-0"
         d="M0 422.39h838.23V0H0Z"
         transform="translate(-193.983 -253.948)" />
    </clipPath>
    <clipPath
       id="clipPath74-1"
       clipPathUnits="userSpaceOnUse">
      <path
         id="path74-8"
         d="M0 422.39h838.23V0H0Z"
         transform="translate(-193.983 -221.227)" />
    </clipPath>
    <clipPath
       id="clipPath76-7"
       clipPathUnits="userSpaceOnUse">
      <path
         id="path76-6"
         d="M0 422.39h838.23V0H0Z"
         transform="translate(-189.982 -226.081)" />
    </clipPath>
    <clipPath
       id="clipPath78-0"
       clipPathUnits="userSpaceOnUse">
      <path
         id="path78-0"
         d="M0 422.39h838.23V0H0Z"
         transform="translate(-200.576 -226.081)" />
    </clipPath>
    <clipPath
       id="clipPath80-9"
       clipPathUnits="userSpaceOnUse">
      <path
         id="path80-5"
         d="M0 422.39h838.23V0H0Z"
         transform="translate(-208.564 -242.884)" />
    </clipPath>
    <clipPath
       id="clipPath82-6"
       clipPathUnits="userSpaceOnUse">
      <path
         id="path82-2"
         d="M0 422.39h838.23V0H0Z"
         transform="translate(-208.564 -232.29)" />
    </clipPath>
    <clipPath
       id="clipPath84-8"
       clipPathUnits="userSpaceOnUse">
      <path
         id="path84-5"
         d="M0 422.39h838.23V0H0Z"
         transform="translate(-182.477 -241.581)" />
    </clipPath>
    <clipPath
       id="clipPath86-9"
       clipPathUnits="userSpaceOnUse">
      <path
         id="path86-4"
         d="M0 422.39h838.23V0H0Z"
         transform="translate(-182.477 -230.987)" />
    </clipPath>
    <clipPath
       id="clipPath88-3"
       clipPathUnits="userSpaceOnUse">
      <path
         id="path88-9"
         d="M0 422.39h838.23V0H0Z"
         transform="translate(-210.345 -237.587)" />
    </clipPath>
    <clipPath
       id="clipPath90-0"
       clipPathUnits="userSpaceOnUse">
      <path
         id="path90-5"
         d="M0 422.39h838.23V0H0Z"
         transform="translate(-177.622 -237.587)" />
    </clipPath>
  </defs>
  <g
     id="g354"
     class="eit-icon"
     transform="translate(-224.485,-212.244)">
    <path
       id="path43-6"
       d="M0 0q-.22.45-.23 1a2.34 2.34 0 1 0 4.68 0"
       clip-path="url(#clipPath44-1)"
       style="fill:none;stroke:currentColor;stroke-width:1;stroke-linecap:butt;stroke-linejoin:miter;stroke-miterlimit:10;stroke-dasharray:none;stroke-opacity:1"
       transform="matrix(1.33333 0 0 -1.33333 252.713 240.486)" />
    <path
       id="path45-3"
       d="M0 0a2.34 2.34 0 0 0 2.34-2.34"
       clip-path="url(#clipPath46-5)"
       style="fill:none;stroke:currentColor;stroke-width:1;stroke-linecap:butt;stroke-linejoin:miter;stroke-miterlimit:10;stroke-dasharray:none;stroke-opacity:1"
       transform="matrix(1.33333 0 0 -1.33333 255.529 248.543)" />
    <path
       id="path47-6"
       d="M0 0a2.34 2.34 0 0 1-2.34-2.34"
       clip-path="url(#clipPath48-8)"
       style="fill:none;stroke:currentColor;stroke-width:1;stroke-linecap:butt;stroke-linejoin:miter;stroke-miterlimit:10;stroke-dasharray:none;stroke-opacity:1"
       transform="matrix(1.33333 0 0 -1.33333 261.76 244.473)" />
    <path
       id="path49-3"
       d="M0 0a2.34 2.34 0 1 0 2.76 3.58"
       clip-path="url(#clipPath50-9)"
       style="fill:none;stroke:currentColor;stroke-width:1;stroke-linecap:butt;stroke-linejoin:miter;stroke-miterlimit:10;stroke-dasharray:none;stroke-opacity:1"
       transform="matrix(1.33333 0 0 -1.33333 250.864 246.404)" />
    <path
       id="path51-0"
       d="M0 0a2.65 2.65 0 0 1 2.01-4.41c1.47 0 2.67 1.2 2.67 2.66v8.02"
       clip-path="url(#clipPath52-2)"
       style="fill:none;stroke:currentColor;stroke-width:1;stroke-linecap:butt;stroke-linejoin:miter;stroke-miterlimit:10;stroke-dasharray:none;stroke-opacity:1"
       transform="matrix(1.33333 0 0 -1.33333 252.409 251.504)" />
    <path
       id="path53-8"
       d="M0 0a3.05 3.05 0 0 0 1.19 5.86"
       clip-path="url(#clipPath54-7)"
       style="fill:none;stroke:currentColor;stroke-width:1;stroke-linecap:butt;stroke-linejoin:miter;stroke-miterlimit:10;stroke-dasharray:none;stroke-opacity:1"
       transform="matrix(1.33333 0 0 -1.33333 251.557 253.512)" />
    <path
       id="path55-4"
       d="M0 0q.22.45.23 1a2.34 2.34 0 1 1-4.68 0"
       clip-path="url(#clipPath56-8)"
       style="fill:none;stroke:currentColor;stroke-width:1;stroke-linecap:butt;stroke-linejoin:miter;stroke-miterlimit:10;stroke-dasharray:none;stroke-opacity:1"
       transform="matrix(1.33333 0 0 -1.33333 264.566 240.486)" />
    <path
       id="path57-0"
       d="M0 0a2.34 2.34 0 0 1-2.34-2.34"
       clip-path="url(#clipPath58-8)"
       style="fill:none;stroke:currentColor;stroke-width:1;stroke-linecap:butt;stroke-linejoin:miter;stroke-miterlimit:10;stroke-dasharray:none;stroke-opacity:1"
       transform="matrix(1.33333 0 0 -1.33333 261.751 248.543)" />
    <path
       id="path59-4"
       d="M0 0a2.34 2.34 0 1 1-2.76 3.58"
       clip-path="url(#clipPath60-0)"
       style="fill:none;stroke:currentColor;stroke-width:1;stroke-linecap:butt;stroke-linejoin:miter;stroke-miterlimit:10;stroke-dasharray:none;stroke-opacity:1"
       transform="matrix(1.33333 0 0 -1.33333 266.415 246.404)" />
    <path
       id="path61-6"
       d="M0 0a2.65 2.65 0 0 0-2.01-4.41 2.66 2.66 0 0 0-2.67 2.66v8.02"
       clip-path="url(#clipPath62-2)"
       style="fill:none;stroke:currentColor;stroke-width:1;stroke-linecap:butt;stroke-linejoin:miter;stroke-miterlimit:10;stroke-dasharray:none;stroke-opacity:1"
       transform="matrix(1.33333 0 0 -1.33333 264.87 251.504)" />
    <path
       id="path63-4"
       d="M0 0a3.05 3.05 0 0 1-1.19 5.86"
       clip-path="url(#clipPath64-5)"
       style="fill:none;stroke:currentColor;stroke-width:1;stroke-linecap:butt;stroke-linejoin:miter;stroke-miterlimit:10;stroke-dasharray:none;stroke-opacity:1"
       transform="matrix(1.33333 0 0 -1.33333 265.723 253.512)" />
    <path
       id="path65-6"
       d="M0 0h-15.19a3.9 3.9 0 0 0-3.9 3.91V19.1A3.9 3.9 0 0 0-15.2 23H0a3.9 3.9 0 0 0 3.91-3.91V3.9A3.9 3.9 0 0 0 0 0Z"
       clip-path="url(#clipPath66-2)"
       style="fill:none;stroke:currentColor;stroke-width:1;stroke-linecap:butt;stroke-linejoin:miter;stroke-miterlimit:10;stroke-dasharray:none;stroke-opacity:1"
       transform="matrix(1.33333 0 0 -1.33333 268.759 261.745)" />
    <path
       id="path67-4"
       d="M0 0a1.3 1.3 0 0 1-1.3-1.3v-1.77h2.6v1.77C1.3-.58.72 0 0 0Z"
       clip-path="url(#clipPath68-1)"
       style="fill:none;stroke:currentColor;stroke-width:1;stroke-linecap:butt;stroke-linejoin:miter;stroke-miterlimit:10;stroke-dasharray:none;stroke-opacity:1"
       transform="matrix(1.33333 0 0 -1.33333 251.573 226.963)" />
    <path
       id="path69-3"
       d="M0 0a1.3 1.3 0 0 1-1.3-1.3v-1.77h2.6v1.77C1.3-.58.72 0 0 0Z"
       clip-path="url(#clipPath70-2)"
       style="fill:none;stroke:currentColor;stroke-width:1;stroke-linecap:butt;stroke-linejoin:miter;stroke-miterlimit:10;stroke-dasharray:none;stroke-opacity:1"
       transform="matrix(1.33333 0 0 -1.33333 265.698 226.963)" />
    <path
       id="path71-8"
       d="M0 0a1.3 1.3 0 0 1-1.3-1.3v-3.55h2.6v3.55C1.3-.58.72 0 0 0Z"
       clip-path="url(#clipPath72-1)"
       style="fill:none;stroke:currentColor;stroke-width:1;stroke-linecap:butt;stroke-linejoin:miter;stroke-miterlimit:10;stroke-dasharray:none;stroke-opacity:1"
       transform="matrix(1.33333 0 0 -1.33333 258.644 224.59)" />
    <path
       id="path73-4"
       d="M0 0c.72 0 1.3.58 1.3 1.3v3.55h-2.6V1.3C-1.3.58-.72 0 0 0Z"
       clip-path="url(#clipPath74-1)"
       style="fill:none;stroke:currentColor;stroke-width:1;stroke-linecap:butt;stroke-linejoin:miter;stroke-miterlimit:10;stroke-dasharray:none;stroke-opacity:1"
       transform="matrix(1.33333 0 0 -1.33333 258.644 268.218)" />
    <path
       id="path75-0"
       d="M0 0h-2.6v-1.77a1.3 1.3 0 0 1 2.6 0z"
       clip-path="url(#clipPath76-7)"
       style="fill:none;stroke:currentColor;stroke-width:1;stroke-linecap:butt;stroke-linejoin:miter;stroke-miterlimit:10;stroke-dasharray:none;stroke-opacity:1"
       transform="matrix(1.33333 0 0 -1.33333 253.31 261.745)" />
    <path
       id="path77-0"
       d="M0 0h-2.6v-1.77a1.3 1.3 0 0 1 2.6 0z"
       clip-path="url(#clipPath78-0)"
       style="fill:none;stroke:currentColor;stroke-width:1;stroke-linecap:butt;stroke-linejoin:miter;stroke-miterlimit:10;stroke-dasharray:none;stroke-opacity:1"
       transform="matrix(1.33333 0 0 -1.33333 267.435 261.745)" />
    <path
       id="path79-9"
       d="M0 0c0 .72-.58 1.3-1.3 1.3h-1.77v-2.6h1.77C-.58-1.3 0-.72 0 0Z"
       clip-path="url(#clipPath80-9)"
       style="fill:none;stroke:currentColor;stroke-width:1;stroke-linecap:butt;stroke-linejoin:miter;stroke-miterlimit:10;stroke-dasharray:none;stroke-opacity:1"
       transform="matrix(1.33333 0 0 -1.33333 278.086 239.342)" />
    <path
       id="path81-3"
       d="M0 0c0 .72-.58 1.3-1.3 1.3h-1.77v-2.6h1.77C-.58-1.3 0-.72 0 0Z"
       clip-path="url(#clipPath82-6)"
       style="fill:none;stroke:currentColor;stroke-width:1;stroke-linecap:butt;stroke-linejoin:miter;stroke-miterlimit:10;stroke-dasharray:none;stroke-opacity:1"
       transform="matrix(1.33333 0 0 -1.33333 278.086 253.467)" />
    <path
       id="path83-7"
       d="M0 0v2.6h-1.77a1.3 1.3 0 0 1 0-2.6Z"
       clip-path="url(#clipPath84-8)"
       style="fill:none;stroke:currentColor;stroke-width:1;stroke-linecap:butt;stroke-linejoin:miter;stroke-miterlimit:10;stroke-dasharray:none;stroke-opacity:1"
       transform="matrix(1.33333 0 0 -1.33333 243.303 241.079)" />
    <path
       id="path85-5"
       d="M0 0v2.6h-1.77a1.3 1.3 0 0 1 0-2.6Z"
       clip-path="url(#clipPath86-9)"
       style="fill:none;stroke:currentColor;stroke-width:1;stroke-linecap:butt;stroke-linejoin:miter;stroke-miterlimit:10;stroke-dasharray:none;stroke-opacity:1"
       transform="matrix(1.33333 0 0 -1.33333 243.303 255.204)" />
    <path
       id="path87-7"
       d="M0 0c0 .72-.58 1.3-1.3 1.3h-3.55v-2.6h3.55C-.58-1.3 0-.72 0 0Z"
       clip-path="url(#clipPath88-3)"
       style="fill:none;stroke:currentColor;stroke-width:1;stroke-linecap:butt;stroke-linejoin:miter;stroke-miterlimit:10;stroke-dasharray:none;stroke-opacity:1"
       transform="matrix(1.33333 0 0 -1.33333 280.46 246.404)" />
    <path
       id="path89-2"
       d="M0 0c0-.72.58-1.3 1.3-1.3h3.56v2.6H1.3A1.3 1.3 0 0 1 0 0Z"
       clip-path="url(#clipPath90-0)"
       style="fill:none;stroke:currentColor;stroke-width:1;stroke-linecap:butt;stroke-linejoin:miter;stroke-miterlimit:10;stroke-dasharray:none;stroke-opacity:1"
       transform="matrix(1.33333 0 0 -1.33333 236.83 246.404)" />
    <path
       id="path531"
       fill="none"
       stroke="currentColor"
       stroke-dasharray="none"
       stroke-linecap="butt"
       stroke-linejoin="miter"
       stroke-miterlimit="10"
       stroke-opacity="1"
       stroke-width="1"
       d="M0 0a25.12 25.12 0 1 0-50.24 0A25.12 25.12 0 0 0 0 0Z"
       class="eit-icon-circle"
       clip-path="url(#a)"
       transform="matrix(1.33333,0,0,-1.33333,292.139,246.404)" />
  </g>
</svg>
