<svg xmlns="http://www.w3.org/2000/svg" viewBox="0 0 68.32 68.319"><defs><clipPath id="a" clipPathUnits="userSpaceOnUse"><path d="M-381.4 365.25h838.23V-57.14H-381.4Z"/></clipPath><clipPath id="b" clipPathUnits="userSpaceOnUse"><path d="M-349.68 365.25h838.23V-57.14h-838.23Z"/></clipPath><clipPath id="c" clipPathUnits="userSpaceOnUse"><path d="M-352.98 370.97h838.23V-51.42h-838.23Z"/></clipPath><clipPath id="d" clipPathUnits="userSpaceOnUse"><path d="M-352.98 359.53h838.23V-62.86h-838.23Z"/></clipPath><clipPath id="e" clipPathUnits="userSpaceOnUse"><path d="M-350.84 351.56H487.4V-70.83h-838.23Z"/></clipPath><clipPath id="f" clipPathUnits="userSpaceOnUse"><path d="M-368.47 368.5h838.23V-53.9h-838.23Z"/></clipPath><clipPath id="g" clipPathUnits="userSpaceOnUse"><path d="M-344.8 375.48h838.22v-422.4h-838.23Z"/></clipPath></defs><g class="eit-icon"><path fill="none" stroke="currentColor" stroke-miterlimit="10" d="M0 0a25.12 25.12 0 1 0-50.24 0A25.12 25.12 0 0 0 0 0Z" class="eit-icon-circle" clip-path="url(#a)" transform="matrix(1.33333 0 0 -1.33333 67.653 34.16)"/><path fill="none" stroke="currentColor" stroke-miterlimit="10" d="M0 0c0 9.38 2.96 16.98 6.6 16.98 3.65 0 6.6-7.6 6.6-16.98 0-9.37-2.95-16.98-6.6-16.98S0-9.38 0 0Z" clip-path="url(#b)" transform="matrix(1.33333 0 0 -1.33333 25.36 34.16)"/><path fill="none" stroke="currentColor" stroke-miterlimit="10" d="M0 0c-8.12 4.69-13.22 11.05-11.4 14.2 1.82 3.16 9.88 1.92 18-2.76C14.72 6.74 19.83.39 18-2.77 16.18-5.93 8.12-4.69 0 0Z" clip-path="url(#c)" transform="matrix(1.33333 0 0 -1.33333 29.762 41.784)"/><path fill="none" stroke="currentColor" stroke-miterlimit="10" d="M0 0c8.12 4.69 16.18 5.93 18 2.77s-3.28-9.52-11.4-14.2c-8.12-4.7-16.18-5.93-18-2.78C-13.22-11.05-8.12-4.69 0 0Z" clip-path="url(#d)" transform="matrix(1.33333 0 0 -1.33333 29.762 26.535)"/><path fill="currentColor" d="M0 0a1.52 1.52 0 1 0 3.05 0A1.52 1.52 0 0 0 0 0" clip-path="url(#e)" transform="matrix(1.33333 0 0 -1.33333 26.903 15.905)"/><path fill="currentColor" d="M0 0a1.52 1.52 0 1 0 3.05 0A1.52 1.52 0 0 0 0 0" clip-path="url(#f)" transform="matrix(1.33333 0 0 -1.33333 50.412 38.486)"/><path fill="currentColor" d="M0 0a1.52 1.52 0 1 0 3.05 0A1.52 1.52 0 0 0 0 0" clip-path="url(#g)" transform="matrix(1.33333 0 0 -1.33333 18.862 47.794)"/></g></svg>