<svg xmlns="http://www.w3.org/2000/svg" viewBox="0 0 68.32 68.32"><defs><clipPath id="a" clipPathUnits="userSpaceOnUse"><path d="M-620.68 242.11h838.23v-422.39h-838.23Z"/></clipPath><clipPath id="b" clipPathUnits="userSpaceOnUse"><path d="M0 422.39h838.23V0H0Z"/></clipPath><clipPath id="c" clipPathUnits="userSpaceOnUse"><path d="M-595.6 249.72h838.23v-422.39H-595.6Z"/></clipPath><clipPath id="d" clipPathUnits="userSpaceOnUse"><path d="M-592 249.72h838.23v-422.39H-592Z"/></clipPath><clipPath id="e" clipPathUnits="userSpaceOnUse"><path d="M-599.2 249.72h838.24v-422.39H-599.2Z"/></clipPath><clipPath id="f" clipPathUnits="userSpaceOnUse"><path d="M-602.79 249.72h838.23v-422.39H-602.8Z"/></clipPath><clipPath id="g" clipPathUnits="userSpaceOnUse"><path d="M-588.4 249.72h838.23v-422.39H-588.4Z"/></clipPath></defs><g fill="none" stroke="currentColor" stroke-miterlimit="10" class="eit-icon"><path d="M0 0a25.12 25.12 0 1 0-50.24 0A25.12 25.12 0 0 0 0 0Z" class="eit-icon-circle" clip-path="url(#a)" transform="matrix(1.33333 0 0 -1.33333 67.653 34.16)"/><path stroke-linecap="round" stroke-linejoin="round" d="M583.84 191.82h23.5v-23.5h-23.5z" clip-path="url(#b)" transform="matrix(1.33333 0 0 -1.33333 -759.915 274.532)"/><path stroke-linecap="round" stroke-linejoin="round" d="M0 0v8.08" clip-path="url(#c)" transform="matrix(1.33333 0 0 -1.33333 34.213 44.306)"/><path stroke-linecap="round" stroke-linejoin="round" d="M0 0v8.08" clip-path="url(#d)" transform="matrix(1.33333 0 0 -1.33333 29.418 44.306)"/><path stroke-linecap="round" stroke-linejoin="round" d="M0 0v11.24" clip-path="url(#e)" transform="matrix(1.33333 0 0 -1.33333 39.008 44.306)"/><path stroke-linecap="round" stroke-linejoin="round" d="M0 0v14.4" clip-path="url(#f)" transform="matrix(1.33333 0 0 -1.33333 43.803 44.306)"/><path stroke-linecap="round" stroke-linejoin="round" d="M0 0v3.86" clip-path="url(#g)" transform="matrix(1.33333 0 0 -1.33333 24.622 44.306)"/></g></svg>