<svg xmlns="http://www.w3.org/2000/svg" viewBox="0 0 68.32 68.32"><defs><clipPath id="a" clipPathUnits="userSpaceOnUse"><path d="M-740.3 181.36H97.91v-422.4h-838.23Z"/></clipPath><clipPath id="b" clipPathUnits="userSpaceOnUse"><path d="M0 422.39h838.23V0H0Z"/></clipPath><clipPath id="c" clipPathUnits="userSpaceOnUse"><path d="M0 422.39h838.23V0H0Z"/></clipPath><clipPath id="d" clipPathUnits="userSpaceOnUse"><path d="M-720.16 176.69h838.23v-422.4h-838.23Z"/></clipPath></defs><g fill="none" stroke="currentColor" stroke-miterlimit="10" class="eit-icon"><path d="M0 0a25.12 25.12 0 1 0-50.24 0A25.12 25.12 0 0 0 0 0Z" class="eit-icon-circle" clip-path="url(#a)" transform="matrix(1.33333 0 0 -1.33333 67.653 34.16)"/><path stroke-linecap="round" stroke-linejoin="round" d="M729.37 233.47h-27.1v15.4h27.1z" clip-path="url(#b)" transform="matrix(1.33333 0 0 -1.33333 -919.425 355.538)"/><path stroke-linecap="round" stroke-linejoin="round" d="M699.17 243.44h3.1v-4.6h-3.1z" clip-path="url(#c)" transform="matrix(1.33333 0 0 -1.33333 -919.425 355.538)"/><path stroke-linecap="round" stroke-linejoin="round" d="m0 0-7.12-1.87.83-3.15-3.64-4.32 7.7 2.02-.82 3.15z" clip-path="url(#d)" transform="matrix(1.33333 0 0 -1.33333 40.782 27.933)"/></g></svg>