<svg xmlns="http://www.w3.org/2000/svg" viewBox="0 0 68.32 68.32"><defs><clipPath id="a" clipPathUnits="userSpaceOnUse"><path d="M-680.51 59.2h838.23v-422.4h-838.23Z"/></clipPath><clipPath id="b" clipPathUnits="userSpaceOnUse"><path d="M-643.92 48.8h838.23v-422.4h-838.23Z"/></clipPath><clipPath id="c" clipPathUnits="userSpaceOnUse"><path d="M-648.02 47.43h838.23v-422.39h-838.23Z"/></clipPath><clipPath id="d" clipPathUnits="userSpaceOnUse"><path d="M-648.02 50.16h838.23v-422.39h-838.23Z"/></clipPath><clipPath id="e" clipPathUnits="userSpaceOnUse"><path d="M-648.02 52.9h838.23v-422.4h-838.23Z"/></clipPath></defs><g fill="none" stroke="currentColor" stroke-miterlimit="10" class="eit-icon"><path d="M0 0a25.12 25.12 0 1 0-50.24 0A25.12 25.12 0 0 0 0 0Z" class="eit-icon-circle" clip-path="url(#a)" transform="matrix(1.33333 0 0 -1.33333 67.653 34.16)"/><path stroke-linecap="round" stroke-linejoin="round" d="M0 0v-19.87a4.1 4.1 0 0 1 4.1-4.1h18.85V-4.1H4.1A4.1 4.1 0 0 0 0 0a4.1 4.1 0 0 0 4.1 4.1h18.85" clip-path="url(#b)" transform="matrix(1.33333 0 0 -1.33333 18.862 20.302)"/><path stroke-linecap="round" stroke-linejoin="round" d="M0 0h18.85" clip-path="url(#c)" transform="matrix(1.33333 0 0 -1.33333 24.324 18.48)"/><path stroke-linecap="round" stroke-linejoin="round" d="M0 0h18.85" clip-path="url(#d)" transform="matrix(1.33333 0 0 -1.33333 24.324 22.122)"/><path stroke-linecap="round" stroke-linejoin="round" d="M0 0v-19.87" clip-path="url(#e)" transform="matrix(1.33333 0 0 -1.33333 24.324 25.764)"/></g></svg>