<svg xmlns="http://www.w3.org/2000/svg" viewBox="0 0 68.32 68.32"><defs><clipPath id="a" clipPathUnits="userSpaceOnUse"><path d="M-201.88 242.26h838.23v-422.4h-838.23Z"/></clipPath><clipPath id="b" clipPathUnits="userSpaceOnUse"><path d="M-166.28 240.8h838.23v-422.4h-838.23Z"/></clipPath><clipPath id="c" clipPathUnits="userSpaceOnUse"><path d="M-174.41 253.46h838.23v-422.4h-838.23Z"/></clipPath><clipPath id="d" clipPathUnits="userSpaceOnUse"><path d="M-181.69 240.8h838.23v-422.4H-181.7Z"/></clipPath><clipPath id="e" clipPathUnits="userSpaceOnUse"><path d="M-189.82 253.46H648.4v-422.4h-838.23Z"/></clipPath><clipPath id="f" clipPathUnits="userSpaceOnUse"><path d="M-176.76 237.57h838.22v-422.39h-838.22Z"/></clipPath><clipPath id="g" clipPathUnits="userSpaceOnUse"><path d="M-178.1 233.54h838.23v-422.4H-178.1Z"/></clipPath><clipPath id="h" clipPathUnits="userSpaceOnUse"><path d="M-178.1 239.49h838.23v-422.4H-178.1Z"/></clipPath><clipPath id="i" clipPathUnits="userSpaceOnUse"><path d="M-178.1 241.33h838.23v-422.4H-178.1Z"/></clipPath><clipPath id="j" clipPathUnits="userSpaceOnUse"><path d="M-181.12 229.18h838.23v-422.39h-838.23Z"/></clipPath><clipPath id="k" clipPathUnits="userSpaceOnUse"><path d="M-172.4 229.18h838.22v-422.39H-172.4Z"/></clipPath><clipPath id="l" clipPathUnits="userSpaceOnUse"><path d="M-182.93 233.54H655.3v-422.4h-838.23Z"/></clipPath><clipPath id="m" clipPathUnits="userSpaceOnUse"><path d="M-168.53 233.54H669.7v-422.4h-838.23Z"/></clipPath><clipPath id="n" clipPathUnits="userSpaceOnUse"><path d="M-176.76 227.37h838.22v-422.39h-838.22Z"/></clipPath><clipPath id="o" clipPathUnits="userSpaceOnUse"><path d="M-172.73 233.54H665.5v-422.4h-838.23Z"/></clipPath></defs><g fill="none" stroke="currentColor" stroke-miterlimit="10" class="eit-icon"><path d="M0 0a25.12 25.12 0 1 0-50.24 0A25.12 25.12 0 0 0 0 0Z" class="eit-icon-circle" clip-path="url(#a)" transform="matrix(1.33333 0 0 -1.33333 67.653 34.16)"/><path stroke-linecap="round" stroke-linejoin="round" d="M0 0a2.78 2.78 0 1 0 5.56 0A2.78 2.78 0 0 0 0 0" clip-path="url(#b)" transform="matrix(1.33333 0 0 -1.33333 20.18 32.204)"/><path stroke-linecap="round" stroke-linejoin="round" d="M0 0h-10.7v3.91a3.9 3.9 0 0 0 3.9 3.92h2.87A3.9 3.9 0 0 0 0 3.91Z" clip-path="url(#c)" transform="matrix(1.33333 0 0 -1.33333 31.024 49.09)"/><path stroke-linecap="round" stroke-linejoin="round" d="M0 0a2.78 2.78 0 1 0 5.56 0A2.78 2.78 0 0 0 0 0" clip-path="url(#d)" transform="matrix(1.33333 0 0 -1.33333 40.73 32.204)"/><path stroke-linecap="round" stroke-linejoin="round" d="M0 0h-10.7v3.91a3.9 3.9 0 0 0 3.9 3.92h2.87A3.9 3.9 0 0 0 0 3.91Z" clip-path="url(#e)" transform="matrix(1.33333 0 0 -1.33333 51.573 49.09)"/><path stroke-linecap="round" stroke-linejoin="round" d="M0 0v4.03" clip-path="url(#f)" transform="matrix(1.33333 0 0 -1.33333 34.16 27.909)"/><path stroke-linecap="round" stroke-linejoin="round" d="M0 0h-2.67" clip-path="url(#g)" transform="matrix(1.33333 0 0 -1.33333 35.937 22.53)"/><path stroke-linecap="round" stroke-linejoin="round" d="M0 0h-2.67" clip-path="url(#h)" transform="matrix(1.33333 0 0 -1.33333 35.938 30.465)"/><path stroke-linecap="round" stroke-linejoin="round" d="M0 0h-2.67" clip-path="url(#i)" transform="matrix(1.33333 0 0 -1.33333 35.938 32.915)"/><path stroke-linecap="round" stroke-linejoin="round" d="m0 0 1.47 1.47" clip-path="url(#j)" transform="matrix(1.33333 0 0 -1.33333 39.97 16.72)"/><path stroke-linecap="round" stroke-linejoin="round" d="m0 0-1.47 1.47" clip-path="url(#k)" transform="matrix(1.33333 0 0 -1.33333 28.35 16.72)"/><path stroke-linecap="round" stroke-linejoin="round" d="M0 0h2.07" clip-path="url(#l)" transform="matrix(1.33333 0 0 -1.33333 42.377 22.53)"/><path stroke-linecap="round" stroke-linejoin="round" d="M0 0h2.07" clip-path="url(#m)" transform="matrix(1.33333 0 0 -1.33333 23.179 22.53)"/><path stroke-linecap="round" stroke-linejoin="round" d="M0 0v2.07" clip-path="url(#n)" transform="matrix(1.33333 0 0 -1.33333 34.16 14.314)"/><path stroke-linecap="round" stroke-linejoin="round" d="M0 0a4.03 4.03 0 1 0 8.07 0A4.03 4.03 0 0 0 0 0" clip-path="url(#o)" transform="matrix(1.33333 0 0 -1.33333 28.782 22.53)"/></g></svg>