<svg xmlns="http://www.w3.org/2000/svg" viewBox="0 0 68.32 68.319"><defs><clipPath id="a" clipPathUnits="userSpaceOnUse"><path d="M-151.64 364.3h838.23V-58.09h-838.23Z"/></clipPath><clipPath id="b" clipPathUnits="userSpaceOnUse"><path d="M-170.71 354.8h838.23V-67.59h-838.23Z"/></clipPath><clipPath id="c" clipPathUnits="userSpaceOnUse"><path d="M-176.8 366.06h838.22V-56.33H-176.8Z"/></clipPath><clipPath id="d" clipPathUnits="userSpaceOnUse"><path d="M-179.3 354.8h838.23V-67.59H-179.3Z"/></clipPath><clipPath id="e" clipPathUnits="userSpaceOnUse"><path d="M-174.07 354.8h838.23V-67.59h-838.23Z"/></clipPath></defs><g fill="none" stroke="currentColor" stroke-miterlimit="10" class="eit-icon"><path d="M0 0a25.12 25.12 0 1 0 50.24 0A25.12 25.12 0 0 0 0 0Z" class="eit-icon-circle" clip-path="url(#a)" transform="matrix(1.33333 0 0 -1.33333 .667 34.16)"/><path stroke-linecap="round" stroke-linejoin="round" d="M0 0v-5.17c0-3.35 2.74-6.1 6.1-6.1s6.09 2.75 6.09 6.1V0Z" clip-path="url(#b)" transform="matrix(1.33333 0 0 -1.33333 26.09 21.488)"/><path stroke-linecap="round" stroke-linejoin="round" d="M0 0v-11.44a3.13 3.13 0 0 0-6.26 0v5.09" clip-path="url(#c)" transform="matrix(1.33333 0 0 -1.33333 34.216 36.504)"/><path stroke-linecap="round" stroke-linejoin="round" d="M0 0v5.39" clip-path="url(#d)" transform="matrix(1.33333 0 0 -1.33333 37.539 21.488)"/><path stroke-linecap="round" stroke-linejoin="round" d="M0 0v5.39" clip-path="url(#e)" transform="matrix(1.33333 0 0 -1.33333 30.568 21.488)"/></g></svg>