<svg xmlns="http://www.w3.org/2000/svg" viewBox="0 0 68.32 68.32"><defs><clipPath id="a" clipPathUnits="userSpaceOnUse"><path d="M-740.35 303.9H97.88v-422.4h-838.23Z"/></clipPath><clipPath id="b" clipPathUnits="userSpaceOnUse"><path d="M-704.36 297.97h838.22v-422.39h-838.22Z"/></clipPath><clipPath id="c" clipPathUnits="userSpaceOnUse"><path d="M-705.9 301.53h838.22v-422.4H-705.9Z"/></clipPath><clipPath id="d" clipPathUnits="userSpaceOnUse"><path d="M-724.6 309.34h838.22v-422.39h-838.23Z"/></clipPath><clipPath id="e" clipPathUnits="userSpaceOnUse"><path d="M-702.72 293.1H135.5v-422.39h-838.23Z"/></clipPath><clipPath id="f" clipPathUnits="userSpaceOnUse"><path d="M-712.66 293.1h838.23v-422.39h-838.23Z"/></clipPath></defs><g fill="none" stroke="currentColor" stroke-miterlimit="10" class="eit-icon"><path d="M0 0a25.12 25.12 0 1 0-50.24 0A25.12 25.12 0 0 0 0 0Z" class="eit-icon-circle" clip-path="url(#a)" transform="matrix(1.33333 0 0 -1.33333 67.653 34.16)"/><path stroke-linecap="round" stroke-linejoin="round" d="M0 0h16.4a3.86 3.86 0 0 0 3.84-3.85v-9.73a3.86 3.86 0 0 0-3.85-3.86H0a3.86 3.86 0 0 0-3.85 3.86v9.73A3.87 3.87 0 0 0 0 0" clip-path="url(#b)" transform="matrix(1.33333 0 0 -1.33333 19.675 26.27)"/><path stroke-linecap="round" stroke-linejoin="round" d="M0 0h7.73c.99 0 1.8-.81 1.8-1.8v-2.66c0-.99-.81-1.8-1.8-1.8H0c-.99 0-1.8.81-1.8 1.8v2.66C-1.8-.81-1 0 0 0" clip-path="url(#c)" transform="matrix(1.33333 0 0 -1.33333 21.731 31.008)"/><path stroke-linecap="round" stroke-linejoin="round" d="m0 0 7.67-3.25V9.2L0 5.96" clip-path="url(#d)" transform="matrix(1.33333 0 0 -1.33333 46.666 41.43)"/><path stroke-linecap="round" stroke-linejoin="round" d="M0 0a4.87 4.87 0 1 1 9.74 0A4.87 4.87 0 0 1 0 0" clip-path="url(#e)" transform="matrix(1.33333 0 0 -1.33333 17.484 19.776)"/><path stroke-linecap="round" stroke-linejoin="round" d="M0 0a4.87 4.87 0 1 1 9.74 0A4.87 4.87 0 0 1 0 0" clip-path="url(#f)" transform="matrix(1.33333 0 0 -1.33333 30.733 19.776)"/></g></svg>