<svg xmlns="http://www.w3.org/2000/svg" id="svg536" viewBox="0 0 68.32 68.32"><defs id="defs530"><clipPath id="a" clipPathUnits="userSpaceOnUse"><path id="path23" d="M0 422.39h838.23V0H0Z" transform="translate(-261.936 -241.153)"/></clipPath><clipPath id="clipPath159-1" clipPathUnits="userSpaceOnUse"><path id="path159-7" d="M0 422.39h838.23V0H0Z"/></clipPath><clipPath id="clipPath161-6" clipPathUnits="userSpaceOnUse"><path id="path161-7" d="M0 422.39h838.23V0H0Z"/></clipPath><clipPath id="clipPath163-1" clipPathUnits="userSpaceOnUse"><path id="path163-4" d="M0 422.39h838.23V0H0Z"/></clipPath><clipPath id="clipPath165" clipPathUnits="userSpaceOnUse"><path id="path165-8" d="M0 422.39h838.23V0H0Z"/></clipPath><clipPath id="clipPath167" clipPathUnits="userSpaceOnUse"><path id="path167-1" d="M0 422.39h838.23V0H0Z" transform="translate(-199.903 -118.052)"/></clipPath><clipPath id="clipPath169-8" clipPathUnits="userSpaceOnUse"><path id="path169-5" d="M0 422.39h838.23V0H0Z" transform="translate(-204.886 -130.14)"/></clipPath><clipPath id="clipPath171-3" clipPathUnits="userSpaceOnUse"><path id="path171-1" d="M0 422.39h838.23V0H0Z" transform="translate(-199.422 -128.27)"/></clipPath><clipPath id="clipPath173-9" clipPathUnits="userSpaceOnUse"><path id="path173-3" d="M0 422.39h838.23V0H0Z" transform="translate(-192.12 -112.965)"/></clipPath><clipPath id="clipPath175-9" clipPathUnits="userSpaceOnUse"><path id="path175-1" d="M0 422.39h838.23V0H0Z" transform="translate(-194.73 -120.373)"/></clipPath><clipPath id="clipPath177-0" clipPathUnits="userSpaceOnUse"><path id="path177-4" d="M0 422.39h838.23V0H0Z" transform="translate(-193.169 -125.241)"/></clipPath></defs><g id="g356" class="eit-icon" transform="translate(-223.364 -369.477)"><path id="path158-9" d="M186.5 108.53h-5.6v-3.29h5.6z" clip-path="url(#clipPath159-1)" style="fill:none;stroke:currentColor;stroke-width:1;stroke-linecap:butt;stroke-linejoin:miter;stroke-miterlimit:10;stroke-dasharray:none;stroke-opacity:1" transform="matrix(1.33333 0 0 -1.33333 0 563.187)"/><path id="path160-0" d="M192.12 110.85h-5.61v-5.6h5.61z" clip-path="url(#clipPath161-6)" style="fill:none;stroke:currentColor;stroke-width:1;stroke-linecap:butt;stroke-linejoin:miter;stroke-miterlimit:10;stroke-dasharray:none;stroke-opacity:1" transform="matrix(1.33333 0 0 -1.33333 0 563.187)"/><path id="path162-0" d="M197.73 113.86h-5.61v-8.62h5.61z" clip-path="url(#clipPath163-1)" style="fill:none;stroke:currentColor;stroke-width:1;stroke-linecap:butt;stroke-linejoin:miter;stroke-miterlimit:10;stroke-dasharray:none;stroke-opacity:1" transform="matrix(1.33333 0 0 -1.33333 0 563.187)"/><path id="path164-0" d="M203.35 118.05h-5.62v-12.8h5.62z" clip-path="url(#clipPath165)" style="fill:none;stroke:currentColor;stroke-width:1;stroke-linecap:butt;stroke-linejoin:miter;stroke-miterlimit:10;stroke-dasharray:none;stroke-opacity:1" transform="matrix(1.33333 0 0 -1.33333 0 563.187)"/><path id="path166-3" d="M0 0v16.53" clip-path="url(#clipPath167)" style="fill:none;stroke:currentColor;stroke-width:1;stroke-linecap:butt;stroke-linejoin:miter;stroke-miterlimit:10;stroke-dasharray:none;stroke-opacity:1" transform="matrix(1.33333 0 0 -1.33333 266.538 405.784)"/><path id="path168-2" d="M0 0h-4.98v3.72H0l-1.41-1.86Z" clip-path="url(#clipPath169-8)" style="fill:none;stroke:currentColor;stroke-width:1;stroke-linecap:butt;stroke-linejoin:miter;stroke-miterlimit:10;stroke-dasharray:none;stroke-opacity:1" transform="matrix(1.33333 0 0 -1.33333 273.18 389.666)"/><path id="path170-8" d="m0 0-6.03-3.38-1.64-5.32 2.98.8 1.1 3.5-.9-.65 4.38 3.52c.37.3.6.76.6 1.25A.33.33 0 0 1 0 0Z" clip-path="url(#clipPath171-3)" style="fill:none;stroke:currentColor;stroke-width:1;stroke-linecap:butt;stroke-linejoin:round;stroke-miterlimit:10;stroke-dasharray:none;stroke-opacity:1" transform="matrix(1.33333 0 0 -1.33333 265.896 392.16)"/><path id="path172-2" d="m0 0-1.67-2.11h-.98L-.92 1.6q.24.51.28 1.07l.28 3.93 2.97.8-.63-4.26a3 3 0 0 0-.62-1.43L.7.9" clip-path="url(#clipPath173-9)" style="fill:none;stroke:currentColor;stroke-width:1;stroke-linecap:butt;stroke-linejoin:round;stroke-miterlimit:10;stroke-dasharray:none;stroke-opacity:1" transform="matrix(1.33333 0 0 -1.33333 256.16 412.567)"/><path id="path174-4" d="m0 0 1.97-2.2c.29-.32.42-.75.38-1.18L2-6.5H.99l-.4 2.9a.4.4 0 0 1-.22.33l-.8.42" clip-path="url(#clipPath175-9)" style="fill:none;stroke:currentColor;stroke-width:1;stroke-linecap:butt;stroke-linejoin:round;stroke-miterlimit:10;stroke-dasharray:none;stroke-opacity:1" transform="matrix(1.33333 0 0 -1.33333 259.64 402.69)"/><path id="path176-8" d="m0 0-.66.99a1.15 1.15 0 1 0 1.99 1.13l.27-.57q.17-.33.17-.7v-.3L.56-.14A.4.4 0 0 0 0 0Z" clip-path="url(#clipPath177-0)" style="fill:none;stroke:currentColor;stroke-width:1;stroke-linecap:butt;stroke-linejoin:miter;stroke-miterlimit:10;stroke-dasharray:none;stroke-opacity:1" transform="matrix(1.33333 0 0 -1.33333 257.558 396.198)"/><path id="path531" fill="none" stroke="currentColor" stroke-dasharray="none" stroke-linecap="butt" stroke-linejoin="miter" stroke-miterlimit="10" stroke-opacity="1" stroke-width="1" d="M0 0a25.12 25.12 0 1 0-50.24 0A25.12 25.12 0 0 0 0 0Z" class="eit-icon-circle" clip-path="url(#a)" transform="matrix(1.33333 0 0 -1.33333 291.018 403.637)"/></g></svg>