<svg xmlns="http://www.w3.org/2000/svg" viewBox="0 0 68.319 68.32"><defs><clipPath id="a" clipPathUnits="userSpaceOnUse"><path d="M-620.72 119.67h838.23v-422.4h-838.23Z"/></clipPath><clipPath id="b" clipPathUnits="userSpaceOnUse"><path d="M0 422.39h838.23V0H0Z"/></clipPath><clipPath id="c" clipPathUnits="userSpaceOnUse"><path d="M-596.71 111.51h838.23v-422.39h-838.23Z"/></clipPath><clipPath id="d" clipPathUnits="userSpaceOnUse"><path d="M-583.85 124.33h838.23v-422.4h-838.23Z"/></clipPath></defs><g fill="none" stroke="currentColor" stroke-miterlimit="10" class="eit-icon"><path d="M0 0a25.12 25.12 0 1 0-50.24 0A25.12 25.12 0 0 0 0 0Z" class="eit-icon-circle" clip-path="url(#a)" transform="matrix(1.33333 0 0 -1.33333 67.652 34.16)"/><path stroke-linecap="round" stroke-linejoin="round" d="M583.84 314.48h23.5v-23.5h-23.5z" clip-path="url(#b)" transform="matrix(1.33333 0 0 -1.33333 -759.968 437.792)"/><path stroke-linecap="round" stroke-linejoin="round" d="M0 0h7.04v-7.04" clip-path="url(#c)" transform="matrix(1.33333 0 0 -1.33333 35.647 23.289)"/><path stroke-linecap="round" stroke-linejoin="round" d="m0 0 7.42 6.59 3.3-3.03 9.18 9.25" clip-path="url(#d)" transform="matrix(1.33333 0 0 -1.33333 18.5 40.374)"/></g></svg>