<svg xmlns="http://www.w3.org/2000/svg" viewBox="0 0 68.32 68.32"><defs><clipPath id="a" clipPathUnits="userSpaceOnUse"><path d="M-261.94 120.21H576.3v-422.39h-838.23Z"/></clipPath><clipPath id="b" clipPathUnits="userSpaceOnUse"><path d="M-224.48 117.38h838.23v-422.4h-838.23Z"/></clipPath><clipPath id="c" clipPathUnits="userSpaceOnUse"><path d="M-232.61 130.04h838.23v-422.39h-838.23Z"/></clipPath><clipPath id="d" clipPathUnits="userSpaceOnUse"><path d="M-227.26 114.6h838.23v-422.4h-838.23Z"/></clipPath><clipPath id="e" clipPathUnits="userSpaceOnUse"><path d="M-229.83 122.37H608.4v-422.39h-838.23Z"/></clipPath></defs><g fill="none" stroke="currentColor" stroke-miterlimit="10" class="eit-icon"><path d="M0 0a25.12 25.12 0 1 0-50.24 0A25.12 25.12 0 0 0 0 0Z" class="eit-icon-circle" clip-path="url(#a)" transform="matrix(1.33333 0 0 -1.33333 67.653 34.16)"/><path stroke-linecap="round" stroke-linejoin="round" d="M0 0a2.78 2.78 0 1 0 5.56 0A2.78 2.78 0 0 0 0 0" clip-path="url(#b)" transform="matrix(1.33333 0 0 -1.33333 17.71 30.374)"/><path stroke-linecap="round" stroke-linejoin="round" d="M0 0h-10.7v3.91A3.9 3.9 0 0 0-6.8 7.83h2.87A3.9 3.9 0 0 0 0 3.91Z" clip-path="url(#c)" transform="matrix(1.33333 0 0 -1.33333 28.554 47.262)"/><path stroke-linecap="round" stroke-linejoin="round" d="M0 0v4.67h21.96v-17.14H5.36" clip-path="url(#d)" transform="matrix(1.33333 0 0 -1.33333 21.416 26.67)"/><path stroke-linecap="round" stroke-linejoin="round" d="m0 0 7.4 5.1 3.61-3.71 11.97 8.06" clip-path="url(#e)" transform="matrix(1.33333 0 0 -1.33333 24.84 37.04)"/></g></svg>