<svg xmlns="http://www.w3.org/2000/svg" viewBox="0 0 68.32 68.32"><defs><clipPath id="a" clipPathUnits="userSpaceOnUse"><path d="M-321.73 59.33h838.22v-422.39h-838.22Z"/></clipPath><clipPath id="b" clipPathUnits="userSpaceOnUse"><path d="M-282.49 59.33h838.23v-422.39H-282.5Z"/></clipPath><clipPath id="c" clipPathUnits="userSpaceOnUse"><path d="M-289.35 59.33h838.22v-422.39h-838.22Z"/></clipPath><clipPath id="d" clipPathUnits="userSpaceOnUse"><path d="M-296.68 45.14h838.23v-422.4h-838.23Z"/></clipPath><clipPath id="e" clipPathUnits="userSpaceOnUse"><path d="M-310.1 54.67h838.24v-422.39H-310.1Z"/></clipPath><clipPath id="f" clipPathUnits="userSpaceOnUse"><path d="M-310.1 64.06h838.24v-422.39H-310.1Z"/></clipPath><clipPath id="g" clipPathUnits="userSpaceOnUse"><path d="M-282.11 70.21h838.23v-422.39h-838.23Z"/></clipPath></defs><g fill="none" stroke="currentColor" stroke-miterlimit="10" class="eit-icon"><path d="M0 0a25.12 25.12 0 1 0-50.24 0A25.12 25.12 0 0 0 0 0Z" class="eit-icon-circle" clip-path="url(#a)" transform="matrix(1.33333 0 0 -1.33333 67.653 34.16)"/><path stroke-linecap="round" stroke-linejoin="round" d="M0 0a14.2 14.2 0 1 0 28.38 0A14.2 14.2 0 0 0 0 0" clip-path="url(#b)" transform="matrix(1.33333 0 0 -1.33333 15.328 34.16)"/><path stroke-linecap="round" stroke-linejoin="round" d="M0 0c0 7.84 3.28 14.2 7.33 14.2S14.66 7.83 14.66 0s-3.28-14.2-7.33-14.2S0-7.83 0 0" clip-path="url(#c)" transform="matrix(1.33333 0 0 -1.33333 24.48 34.16)"/><path stroke-linecap="round" stroke-linejoin="round" d="M0 0v-28.39" clip-path="url(#d)" transform="matrix(1.33333 0 0 -1.33333 34.252 15.236)"/><path stroke-linecap="round" stroke-linejoin="round" d="M0 0h-26.82" clip-path="url(#e)" transform="matrix(1.33333 0 0 -1.33333 52.132 27.946)"/><path stroke-linecap="round" stroke-linejoin="round" d="M0 0h-26.82" clip-path="url(#f)" transform="matrix(1.33333 0 0 -1.33333 52.132 40.468)"/><path stroke-linecap="round" stroke-linejoin="round" d="m0 0 14.57 12 3.6-3.71 12.98 10.06" clip-path="url(#g)" transform="matrix(1.33333 0 0 -1.33333 14.824 48.665)"/></g></svg>