<svg xmlns="http://www.w3.org/2000/svg" viewBox="0 0 68.32 68.32"><defs><clipPath id="a" clipPathUnits="userSpaceOnUse"><path d="M-560.92 181.17h838.23v-422.4h-838.23Z"/></clipPath><clipPath id="b" clipPathUnits="userSpaceOnUse"><path d="M-543.94 189.64H294.3v-422.39h-838.23Z"/></clipPath><clipPath id="c" clipPathUnits="userSpaceOnUse"><path d="M-533.02 177.67h838.23v-422.39h-838.23Z"/></clipPath><clipPath id="d" clipPathUnits="userSpaceOnUse"><path d="M-538.45 190h838.23v-422.38h-838.23Z"/></clipPath></defs><g fill="none" stroke="currentColor" stroke-miterlimit="10" class="eit-icon"><path d="M0 0a25.12 25.12 0 1 0-50.24 0A25.12 25.12 0 0 0 0 0Z" class="eit-icon-circle" clip-path="url(#a)" transform="matrix(1.33333 0 0 -1.33333 67.653 34.16)"/><path stroke-linecap="round" stroke-linejoin="round" d="M0 0v-5.85L-5.49-.36h-8.12a9.23 9.23 0 0 0-9.2 9.2c0 5.06 4.14 9.2 9.2 9.2h11.06c5.06 0 9.2-4.14 9.2-9.2A9.2 9.2 0 0 0 0 0" clip-path="url(#b)" transform="matrix(1.33333 0 0 -1.33333 45.009 45.461)"/><path stroke-linecap="round" stroke-linejoin="round" d="M0 0a2.78 2.78 0 1 0 5.56 0A2.78 2.78 0 0 0 0 0" clip-path="url(#c)" transform="matrix(1.33333 0 0 -1.33333 30.454 29.5)"/><path stroke-linecap="round" stroke-linejoin="round" d="M0 0h-8v3.59A3.9 3.9 0 0 0-4.08 7.5h2.86A3.9 3.9 0 0 0 2.7 3.59V2.15" clip-path="url(#d)" transform="matrix(1.33333 0 0 -1.33333 37.691 45.948)"/></g></svg>