<svg xmlns="http://www.w3.org/2000/svg" viewBox="0 0 68.32 68.32"><defs><clipPath id="a" clipPathUnits="userSpaceOnUse"><path d="M-441.33 59.2H396.9v-422.4h-838.23Z"/></clipPath><clipPath id="b" clipPathUnits="userSpaceOnUse"><path d="M-419.18 70.38h838.23v-422.4h-838.23Z"/></clipPath><clipPath id="c" clipPathUnits="userSpaceOnUse"><path d="M-406.37 51.98h838.23v-422.4h-838.23Z"/></clipPath><clipPath id="d" clipPathUnits="userSpaceOnUse"><path d="M-421.92 56.18H416.3v-422.39h-838.22Z"/></clipPath></defs><g fill="none" stroke="currentColor" stroke-miterlimit="10" class="eit-icon"><path d="M0 0a25.12 25.12 0 1 0-50.24 0A25.12 25.12 0 0 0 0 0Z" class="eit-icon-circle" clip-path="url(#a)" transform="matrix(1.33333 0 0 -1.33333 67.653 34.16)"/><path stroke-linecap="round" stroke-linejoin="round" d="M0 0h-16.98v6.46a4.96 4.96 0 0 0 4.96 4.96h7.06A4.96 4.96 0 0 0 0 6.46Z" clip-path="url(#b)" transform="matrix(1.33333 0 0 -1.33333 38.119 49.07)"/><path stroke-linecap="round" stroke-linejoin="round" d="M0 0a4.32 4.32 0 1 0 8.64 0A4.32 4.32 0 0 0 0 0" clip-path="url(#c)" transform="matrix(1.33333 0 0 -1.33333 21.038 24.542)"/><path stroke-linecap="round" stroke-linejoin="round" d="M0 0v-3.17L2.97-.2h3.4a5 5 0 0 1 4.97 4.98 5 5 0 0 1-4.98 4.98H1.38A5 5 0 0 1-3.6 4.78 5 5 0 0 1 0 0" clip-path="url(#d)" transform="matrix(1.33333 0 0 -1.33333 41.784 30.143)"/></g></svg>