<svg xmlns="http://www.w3.org/2000/svg" viewBox="0 0 68.32 68.32"><defs><clipPath id="a" clipPathUnits="userSpaceOnUse"><path d="M-321.73 181.24h838.22v-422.4h-838.22Z"/></clipPath><clipPath id="b" clipPathUnits="userSpaceOnUse"><path d="M-282.01 181.24h838.23v-422.4h-838.23Z"/></clipPath><clipPath id="c" clipPathUnits="userSpaceOnUse"><path d="M-296.61 169.42H541.6v-422.39H-296.6Z"/></clipPath><clipPath id="d" clipPathUnits="userSpaceOnUse"><path d="M-296.61 190.32H541.6v-422.39H-296.6Z"/></clipPath><clipPath id="e" clipPathUnits="userSpaceOnUse"><path d="M-284.8 181.24h838.23v-422.4H-284.8Z"/></clipPath><clipPath id="f" clipPathUnits="userSpaceOnUse"><path d="M-305.7 181.24h838.23v-422.4H-305.7Z"/></clipPath><clipPath id="g" clipPathUnits="userSpaceOnUse"><path d="M-291.78 176.98h838.23V-245.4h-838.23Z"/></clipPath><clipPath id="h" clipPathUnits="userSpaceOnUse"><path d="M-295.03 181.24H543.2v-422.4h-838.23Z"/></clipPath></defs><g class="eit-icon"><path fill="none" stroke="currentColor" stroke-miterlimit="10" d="M0 0a25.12 25.12 0 1 0-50.24 0A25.12 25.12 0 0 0 0 0Z" class="eit-icon-circle" clip-path="url(#a)" transform="matrix(1.33333 0 0 -1.33333 67.653 34.16)"/><path fill="none" stroke="currentColor" stroke-linecap="round" stroke-linejoin="round" stroke-miterlimit="10" d="M0 0a14.6 14.6 0 1 0 29.2 0A14.6 14.6 0 0 0 0 0" clip-path="url(#b)" transform="matrix(1.33333 0 0 -1.33333 14.69 34.16)"/><path fill="none" stroke="currentColor" stroke-linecap="round" stroke-linejoin="round" stroke-miterlimit="10" d="M0 0v-2.73" clip-path="url(#c)" transform="matrix(1.33333 0 0 -1.33333 34.16 18.409)"/><path fill="none" stroke="currentColor" stroke-linecap="round" stroke-linejoin="round" stroke-miterlimit="10" d="M0 0v-2.73" clip-path="url(#d)" transform="matrix(1.33333 0 0 -1.33333 34.16 46.271)"/><path fill="none" stroke="currentColor" stroke-linecap="round" stroke-linejoin="round" stroke-miterlimit="10" d="M0 0h2.73" clip-path="url(#e)" transform="matrix(1.33333 0 0 -1.33333 18.409 34.16)"/><path fill="none" stroke="currentColor" stroke-linecap="round" stroke-linejoin="round" stroke-miterlimit="10" d="M0 0h2.73" clip-path="url(#f)" transform="matrix(1.33333 0 0 -1.33333 46.271 34.16)"/><path fill="none" stroke="currentColor" stroke-linecap="round" stroke-linejoin="round" stroke-miterlimit="10" d="m0 0 4.83-4.83 7.86 7.85" clip-path="url(#g)" transform="matrix(1.33333 0 0 -1.33333 27.717 28.489)"/><path fill="currentColor" d="M0 0a1.58 1.58 0 1 0 3.16 0A1.58 1.58 0 0 0 0 0" clip-path="url(#h)" transform="matrix(1.33333 0 0 -1.33333 32.05 34.16)"/></g></svg>