<svg xmlns="http://www.w3.org/2000/svg" viewBox="0 0 68.319 68.32"><defs><clipPath id="a" clipPathUnits="userSpaceOnUse"><path d="M-800.1 59.2H38.12v-422.4H-800.1Z"/></clipPath><clipPath id="b" clipPathUnits="userSpaceOnUse"><path d="M-781.56 54.58H56.67V-367.8h-838.23Z"/></clipPath><clipPath id="c" clipPathUnits="userSpaceOnUse"><path d="M-774.35 65.35H63.88v-422.39h-838.23Z"/></clipPath><clipPath id="d" clipPathUnits="userSpaceOnUse"><path d="M0 422.39h838.23V0H0Z"/></clipPath><clipPath id="e" clipPathUnits="userSpaceOnUse"><path d="M-788.77 65.35H49.46v-422.39h-838.23Z"/></clipPath><clipPath id="f" clipPathUnits="userSpaceOnUse"><path d="M-784.99 67.36H53.24v-422.4H-785Z"/></clipPath><clipPath id="g" clipPathUnits="userSpaceOnUse"><path d="M-777.88 64.3H60.35v-422.4h-838.23Z"/></clipPath><clipPath id="h" clipPathUnits="userSpaceOnUse"><path d="M-777.88 66.41H60.35v-422.39h-838.23Z"/></clipPath></defs><g fill="none" stroke="currentColor" stroke-miterlimit="10" class="eit-icon"><path d="M0 0a25.12 25.12 0 1 0-50.24 0A25.12 25.12 0 0 0 0 0Z" class="eit-icon-circle" clip-path="url(#a)" transform="matrix(1.33333 0 0 -1.33333 67.652 34.16)"/><path stroke-linecap="round" stroke-linejoin="round" d="M0 0v-3.56a7.2 7.2 0 0 1-6.21-3.56h-11.05V0Z" clip-path="url(#b)" transform="matrix(1.33333 0 0 -1.33333 42.922 28.013)"/><path stroke-linecap="round" stroke-linejoin="round" d="M0 0c0-1.26.33-2.44.89-3.48h-4.65a6.3 6.3 0 0 0-6.29 6.3v.83H1A7 7 0 0 1 0 0" clip-path="url(#c)" transform="matrix(1.33333 0 0 -1.33333 33.308 42.373)"/><path stroke-linecap="round" stroke-linejoin="round" d="M781.56 367.8H764.3v7.14h17.26z" clip-path="url(#d)" transform="matrix(1.33333 0 0 -1.33333 -999.154 518.423)"/><path stroke-linecap="round" stroke-linejoin="round" d="M0 0a7.21 7.21 0 1 0-14.42 0A7.21 7.21 0 0 0 0 0" clip-path="url(#e)" transform="matrix(1.33333 0 0 -1.33333 52.535 42.373)"/><path stroke-linecap="round" stroke-linejoin="round" d="M0 0a3.95 3.95 0 0 0-7.37 2A3.96 3.96 0 0 0 .06 3.93" clip-path="url(#f)" transform="matrix(1.33333 0 0 -1.33333 47.497 45.047)"/><path stroke-linecap="round" stroke-linejoin="round" d="M0 0h4.9" clip-path="url(#g)" transform="matrix(1.33333 0 0 -1.33333 38.015 40.957)"/><path stroke-linecap="round" stroke-linejoin="round" d="M0 0h4.9" clip-path="url(#h)" transform="matrix(1.33333 0 0 -1.33333 38.015 43.789)"/></g></svg>