<svg xmlns="http://www.w3.org/2000/svg" viewBox="0 0 68.32 68.32"><defs><clipPath id="a" clipPathUnits="userSpaceOnUse"><path d="M-261.68 242.26h838.23v-422.4h-838.23Z"/></clipPath><clipPath id="b" clipPathUnits="userSpaceOnUse"><path d="M-236.67 234.19h838.22v-422.4h-838.22Z"/></clipPath><clipPath id="c" clipPathUnits="userSpaceOnUse"><path d="M-244.32 243.64h838.23v-422.4h-838.23Z"/></clipPath><clipPath id="d" clipPathUnits="userSpaceOnUse"><path d="M-225.42 226.54h838.23v-422.4h-838.23Z"/></clipPath></defs><g fill="none" stroke="currentColor" stroke-miterlimit="10" class="eit-icon"><path d="M0 0a25.12 25.12 0 1 0-50.24 0A25.12 25.12 0 0 0 0 0Z" class="eit-icon-circle" clip-path="url(#a)" transform="matrix(1.33333 0 0 -1.33333 67.653 34.16)"/><path stroke-linecap="round" stroke-linejoin="round" d="M0 0c4.2 0 7.65-3.44 7.65-7.65v-7.88c0-4.2-3.44-7.65-7.65-7.65a7.67 7.67 0 0 0-7.65 7.65v7.88C-7.65-3.44-4.2 0 0 0" clip-path="url(#b)" transform="matrix(1.33333 0 0 -1.33333 34.311 23.395)"/><path stroke-linecap="round" stroke-linejoin="round" d="M0 0h-15.3" clip-path="url(#c)" transform="matrix(1.33333 0 0 -1.33333 44.505 35.997)"/><path stroke-linecap="round" stroke-linejoin="round" d="M0 0v-2.81a2.81 2.81 0 1 1 5.63 0 2.81 2.81 0 0 0 5.62 0V-17.1" clip-path="url(#d)" transform="matrix(1.33333 0 0 -1.33333 19.307 13.198)"/></g></svg>