<svg xmlns="http://www.w3.org/2000/svg" viewBox="0 0 68.319 68.32"><defs><clipPath id="a" clipPathUnits="userSpaceOnUse"><path d="M-740.39 242.6H97.84v-422.4h-838.23Z"/></clipPath><clipPath id="b" clipPathUnits="userSpaceOnUse"><path d="M0 422.39h838.23V0H0Z"/></clipPath><clipPath id="c" clipPathUnits="userSpaceOnUse"><path d="M-701.43 245.56H136.8v-422.39h-838.23Z"/></clipPath><clipPath id="d" clipPathUnits="userSpaceOnUse"><path d="M0 422.39h838.23V0H0Z"/></clipPath><clipPath id="e" clipPathUnits="userSpaceOnUse"><path d="M-725.03 255.44H113.2v-422.4h-838.23Z"/></clipPath></defs><g fill="none" stroke="currentColor" stroke-miterlimit="10" class="eit-icon"><path d="M0 0a25.12 25.12 0 1 0-50.24 0A25.12 25.12 0 0 0 0 0Z" class="eit-icon-circle" clip-path="url(#a)" transform="matrix(1.33333 0 0 -1.33333 67.652 34.16)"/><path stroke-linecap="round" stroke-linejoin="round" d="M701.37 191.31h27.8v-19.04h-27.8Z" clip-path="url(#b)" transform="matrix(1.33333 0 0 -1.33333 -919.53 273.881)"/><path stroke-linecap="round" stroke-linejoin="round" d="M0 0h27.68" clip-path="url(#c)" transform="matrix(1.33333 0 0 -1.33333 15.712 38.115)"/><path stroke-linecap="round" stroke-linejoin="round" d="M711.47 172.27h7.6v-5.32h-7.6z" clip-path="url(#d)" transform="matrix(1.33333 0 0 -1.33333 -919.53 273.881)"/><path stroke-linecap="round" stroke-linejoin="round" d="M0 0h-19.53" clip-path="url(#e)" transform="matrix(1.33333 0 0 -1.33333 47.18 51.28)"/></g></svg>