<svg xmlns="http://www.w3.org/2000/svg" viewBox="0 0 68.32 68.32"><defs><clipPath id="a" clipPathUnits="userSpaceOnUse"><path d="M-680.6 242.46h838.24v-422.4H-680.6Z"/></clipPath><clipPath id="b" clipPathUnits="userSpaceOnUse"><path d="M-645.02 230H193.2v-422.39h-838.23Z"/></clipPath><clipPath id="c" clipPathUnits="userSpaceOnUse"><path d="M-655.47 250.08h838.23v-422.4h-838.23Z"/></clipPath><clipPath id="d" clipPathUnits="userSpaceOnUse"><path d="M-662.12 250.08H176.1v-422.4h-838.23Z"/></clipPath><clipPath id="e" clipPathUnits="userSpaceOnUse"><path d="M-648.82 250.08H189.4v-422.4h-838.23Z"/></clipPath><clipPath id="f" clipPathUnits="userSpaceOnUse"><path d="M-651.22 237.94H187v-422.4h-838.23Z"/></clipPath><clipPath id="g" clipPathUnits="userSpaceOnUse"><path d="M-657.87 247.05h838.23v-422.4h-838.23Z"/></clipPath><clipPath id="h" clipPathUnits="userSpaceOnUse"><path d="M-664.52 242.46H173.7v-422.4h-838.23Z"/></clipPath></defs><g fill="none" stroke="currentColor" stroke-miterlimit="10" class="eit-icon"><path d="M0 0a25.12 25.12 0 1 0-50.24 0A25.12 25.12 0 0 0 0 0Z" class="eit-icon-circle" clip-path="url(#a)" transform="matrix(1.33333 0 0 -1.33333 67.653 34.16)"/><path stroke-linecap="round" stroke-linejoin="round" d="M0 0h20.9a2.85 2.85 0 0 0 2.85-2.85v-19.21a2.85 2.85 0 0 0-2.85-2.85H0a2.85 2.85 0 0 0-2.85 2.85v19.21A2.85 2.85 0 0 0 0 0" clip-path="url(#b)" transform="matrix(1.33333 0 0 -1.33333 20.226 17.552)"/><path stroke-linecap="round" stroke-linejoin="round" d="M0 0v15.23" clip-path="url(#c)" transform="matrix(1.33333 0 0 -1.33333 34.16 44.315)"/><path stroke-linecap="round" stroke-linejoin="round" d="M0 0v15.23" clip-path="url(#d)" transform="matrix(1.33333 0 0 -1.33333 43.026 44.315)"/><path stroke-linecap="round" stroke-linejoin="round" d="M0 0v15.23" clip-path="url(#e)" transform="matrix(1.33333 0 0 -1.33333 25.294 44.315)"/><path stroke-linecap="round" stroke-linejoin="round" d="M0 0h-4.8" clip-path="url(#f)" transform="matrix(1.33333 0 0 -1.33333 28.494 28.13)"/><path stroke-linecap="round" stroke-linejoin="round" d="M0 0h-4.8" clip-path="url(#g)" transform="matrix(1.33333 0 0 -1.33333 37.36 40.28)"/><path stroke-linecap="round" stroke-linejoin="round" d="M0 0h-4.8" clip-path="url(#h)" transform="matrix(1.33333 0 0 -1.33333 46.226 34.16)"/></g></svg>