<svg xmlns="http://www.w3.org/2000/svg" viewBox="0 0 68.32 68.32"><defs><clipPath id="a" clipPathUnits="userSpaceOnUse"><path d="M-680.51 120.22h838.23v-422.39h-838.23Z"/></clipPath><clipPath id="c" clipPathUnits="userSpaceOnUse"><path d="M-659.1 122.25h838.23v-422.39H-659.1Z"/></clipPath><clipPath id="d" clipPathUnits="userSpaceOnUse"><path d="M-651.42 118.94h838.23v-422.4h-838.23Z"/></clipPath><clipPath id="e" clipPathUnits="userSpaceOnUse"><path d="M-651.42 121.23h838.23v-422.39h-838.23Z"/></clipPath><clipPath id="f" clipPathUnits="userSpaceOnUse"><path d="M-668.07 105.67h838.23v-422.39h-838.23Z"/></clipPath><clipPath id="g" clipPathUnits="userSpaceOnUse"><path d="M-669.92 115.94h838.23v-422.4h-838.23Z"/></clipPath></defs><g fill="none" stroke="currentColor" stroke-miterlimit="10" class="eit-icon"><path d="M0 0a25.12 25.12 0 1 0-50.24 0A25.12 25.12 0 0 0 0 0Z" class="eit-icon-circle" clip-path="url(#a)" transform="matrix(1.33333 0 0 -1.33333 67.653 34.16)"/><path stroke-linecap="round" stroke-linejoin="round" d="M0 0a4.28 4.28 0 1 0 .06 4.23" clip-path="url(#c)" transform="matrix(1.33333 0 0 -1.33333 39.104 36.863)"/><path stroke-linecap="round" stroke-linejoin="round" d="M0 0h5.3" clip-path="url(#d)" transform="matrix(1.33333 0 0 -1.33333 28.86 32.445)"/><path stroke-linecap="round" stroke-linejoin="round" d="M0 0h5.3" clip-path="url(#e)" transform="matrix(1.33333 0 0 -1.33333 28.86 35.504)"/><path stroke-linecap="round" stroke-linejoin="round" d="M0 0v-5.76h-5.76" clip-path="url(#f)" transform="matrix(1.33333 0 0 -1.33333 51.063 14.754)"/><path stroke-linecap="round" stroke-linejoin="round" d="M0 0a15.1 15.1 0 1 0-3.85 6.53l2-2.03-2 2.03A15.1 15.1 0 0 1-29-8.45" clip-path="url(#g)" transform="matrix(1.33333 0 0 -1.33333 53.524 28.442)"/></g></svg>