<svg xmlns="http://www.w3.org/2000/svg" viewBox="0 0 68.319 68.32"><defs><clipPath id="a" clipPathUnits="userSpaceOnUse"><path d="M-560.84 303.75h838.23v-422.39h-838.23Z"/></clipPath><clipPath id="b" clipPathUnits="userSpaceOnUse"><path d="M-538.2 312.87h838.23v-422.4H-538.2Z"/></clipPath><clipPath id="c" clipPathUnits="userSpaceOnUse"><path d="M-530.29 294.45h838.23v-422.39H-530.3Z"/></clipPath><clipPath id="d" clipPathUnits="userSpaceOnUse"><path d="M-538.2 312.87h838.23v-422.4H-538.2Z"/></clipPath><clipPath id="e" clipPathUnits="userSpaceOnUse"><path d="M-544.86 311.12h838.23v-422.39h-838.23Z"/></clipPath><clipPath id="f" clipPathUnits="userSpaceOnUse"><path d="M-541.38 311.12h838.23v-422.39h-838.23Z"/></clipPath></defs><g fill="none" stroke="currentColor" stroke-miterlimit="10" class="eit-icon"><path d="M0 0a25.12 25.12 0 1 0-50.24 0A25.12 25.12 0 0 0 0 0Z" class="eit-icon-circle" clip-path="url(#a)" transform="matrix(1.33333 0 0 -1.33333 67.652 34.16)"/><path stroke-linecap="round" stroke-linejoin="round" d="M0 0h-12.06v6.46a4.96 4.96 0 0 0 4.96 4.96h7.06a4.96 4.96 0 0 0 4.96-4.96V4.92" clip-path="url(#b)" transform="matrix(1.33333 0 0 -1.33333 37.465 46.312)"/><path stroke-linecap="round" stroke-linejoin="round" d="M0 0a4.34 4.34 0 1 0 8.68 0A4.34 4.34 0 0 0 0 0" clip-path="url(#c)" transform="matrix(1.33333 0 0 -1.33333 26.916 21.759)"/><path stroke-linecap="round" stroke-linejoin="round" d="M0 0a4.92 4.92 0 1 0 9.84 0A4.92 4.92 0 0 0 0 0" clip-path="url(#d)" transform="matrix(1.33333 0 0 -1.33333 37.465 46.312)"/><path stroke-linecap="round" stroke-linejoin="round" d="m0 0-3.49-3.48" clip-path="url(#e)" transform="matrix(1.33333 0 0 -1.33333 46.347 43.99)"/><path stroke-linecap="round" stroke-linejoin="round" d="m0 0 3.49-3.48" clip-path="url(#f)" transform="matrix(1.33333 0 0 -1.33333 41.699 43.99)"/></g></svg>