<svg xmlns="http://www.w3.org/2000/svg" viewBox="0 0 68.32 68.32"><defs><clipPath id="a" clipPathUnits="userSpaceOnUse"><path d="M-261.94 59.2H576.3v-422.4h-838.23Z"/></clipPath><clipPath id="b" clipPathUnits="userSpaceOnUse"><path d="M-225.86 54.17h838.23v-422.39h-838.23Z"/></clipPath><clipPath id="c" clipPathUnits="userSpaceOnUse"><path d="M-220.88 59.15h838.23v-422.4h-838.23Z"/></clipPath><clipPath id="d" clipPathUnits="userSpaceOnUse"><path d="M-231.84 48.23h838.23v-422.39h-838.23Z"/></clipPath><clipPath id="e" clipPathUnits="userSpaceOnUse"><path d="M-236.82 72.33h838.23v-422.39h-838.23Z"/></clipPath><clipPath id="f" clipPathUnits="userSpaceOnUse"><path d="M-247.78 54.17h838.23v-422.39h-838.23Z"/></clipPath><clipPath id="g" clipPathUnits="userSpaceOnUse"><path d="M-252.75 59.15h838.23v-422.4h-838.23Z"/></clipPath></defs><g fill="none" stroke="currentColor" stroke-miterlimit="10" class="eit-icon"><path d="M0 0a25.12 25.12 0 1 0-50.24 0A25.12 25.12 0 0 0 0 0Z" class="eit-icon-circle" clip-path="url(#a)" transform="matrix(1.33333 0 0 -1.33333 67.653 34.16)"/><path stroke-linecap="round" stroke-linejoin="round" d="m0 0-4.98-4.98L0-9.95" clip-path="url(#b)" transform="matrix(1.33333 0 0 -1.33333 19.547 27.467)"/><path stroke-linecap="round" stroke-linejoin="round" d="M0 0h2.75c7.28 0 13.19-5.9 13.19-13.19" clip-path="url(#c)" transform="matrix(1.33333 0 0 -1.33333 12.912 34.101)"/><path stroke-linecap="round" stroke-linejoin="round" d="m0 0 4.98 4.98L9.95 0" clip-path="url(#d)" transform="matrix(1.33333 0 0 -1.33333 27.525 19.547)"/><path stroke-linecap="round" stroke-linejoin="round" d="M0 0v28.72" clip-path="url(#e)" transform="matrix(1.33333 0 0 -1.33333 34.16 51.682)"/><path stroke-linecap="round" stroke-linejoin="round" d="m0 0 4.98-4.98L0-9.95" clip-path="url(#f)" transform="matrix(1.33333 0 0 -1.33333 48.773 27.467)"/><path stroke-linecap="round" stroke-linejoin="round" d="M0 0h-2.75c-7.28 0-13.19-5.9-13.19-13.19" clip-path="url(#g)" transform="matrix(1.33333 0 0 -1.33333 55.408 34.101)"/></g></svg>