<svg xmlns="http://www.w3.org/2000/svg" viewBox="0 0 68.32 68.32"><defs><clipPath id="a" clipPathUnits="userSpaceOnUse"><path d="M-82.29 303.28h838.23V-119.1H-82.3Z"/></clipPath><clipPath id="b" clipPathUnits="userSpaceOnUse"><path d="M-46.05 306.27h838.23v-422.4H-46.05Z"/></clipPath><clipPath id="c" clipPathUnits="userSpaceOnUse"><path d="M-64.07 308.5h838.22v-422.4H-64.07Z"/></clipPath></defs><g fill="none" stroke="currentColor" stroke-miterlimit="10" class="eit-icon"><path d="M0 0a25.12 25.12 0 1 0-50.24 0A25.12 25.12 0 0 0 0 0Z" class="eit-icon-circle" clip-path="url(#a)" transform="matrix(1.33333 0 0 -1.33333 67.653 34.16)"/><path stroke-linecap="round" stroke-linejoin="round" d="M0 0c0 8.62 11.12 19.16 11.12 19.16S22.25 8.62 22.25 0c0-6.72-4.98-12.16-11.13-12.16C4.98-12.16 0-6.72 0 0" clip-path="url(#b)" transform="matrix(1.33333 0 0 -1.33333 19.33 38.143)"/><path stroke-linecap="round" stroke-linejoin="round" d="M0 0c-.9-3.23-3.65-5.59-6.9-5.59" clip-path="url(#c)" transform="matrix(1.33333 0 0 -1.33333 43.364 41.108)"/></g></svg>