<svg xmlns="http://www.w3.org/2000/svg" viewBox="0 0 68.32 68.32"><defs><clipPath id="a" clipPathUnits="userSpaceOnUse"><path d="M-261.936 181.237h838.23v-422.39h-838.23Z"/></clipPath><clipPath id="b" clipPathUnits="userSpaceOnUse"><path d="M-490.09 119.742h838.23v-422.39h-838.23Z"/></clipPath><clipPath id="c" clipPathUnits="userSpaceOnUse"><path d="M-487.851 121.98h838.23v-422.39h-838.23Z"/></clipPath><clipPath id="d" clipPathUnits="userSpaceOnUse"><path d="M-487.851 117.503h838.23v-422.39h-838.23Z"/></clipPath><clipPath id="e" clipPathUnits="userSpaceOnUse"><path d="M-498.004 118.656h838.23v-422.39h-838.23Z"/></clipPath><clipPath id="f" clipPathUnits="userSpaceOnUse"><path d="M-500.33 121.088H337.9v-422.39h-838.23Z"/></clipPath><clipPath id="g" clipPathUnits="userSpaceOnUse"><path d="M-498.004 123.52h838.23v-422.39h-838.23Z"/></clipPath><clipPath id="h" clipPathUnits="userSpaceOnUse"><path d="M-502.393 125.953h838.23v-422.39h-838.23Z"/></clipPath><clipPath id="j" clipPathUnits="userSpaceOnUse"><path d="M-496.1 125.953h838.23v-422.39H-496.1Z"/></clipPath></defs><g class="eit-icon"><path fill="none" stroke="currentColor" stroke-miterlimit="10" d="M0 0a25.12 25.12 0 1 0-50.24 0A25.12 25.12 0 0 0 0 0Z" class="eit-icon-circle" clip-path="url(#a)" transform="matrix(1.33333 0 0 -1.33333 67.654 34.16)"/><path d="M0 0a2.24 2.24 0 1 0-4.48 0A2.24 2.24 0 0 0 0 0Z" clip-path="url(#b)" style="fill:none;stroke:currentColor;stroke-width:1;stroke-linecap:butt;stroke-linejoin:miter;stroke-miterlimit:10;stroke-dasharray:none;stroke-opacity:1" transform="matrix(1.33333 0 0 -1.33333 24.713 26.604)"/><path d="M0 0h-1.5a2.44 2.44 0 0 1-2.43-2.58l.25-4.31c.05-.76.68-1.35 1.44-1.35v5.21-10.94a1.12 1.12 0 0 1 2.24 0v6.6-6.6a1.12 1.12 0 0 1 2.24 0v11.23c0 .23.12.44.32.55L6.57.4c.35.22.55.6.55 1.01 0 .28-.27.46-.53.36L2.35.13A2 2 0 0 0 1.67 0Z" clip-path="url(#c)" style="fill:none;stroke:currentColor;stroke-width:1;stroke-linecap:butt;stroke-linejoin:miter;stroke-miterlimit:10;stroke-dasharray:none;stroke-opacity:1" transform="matrix(1.33333 0 0 -1.33333 21.729 29.589)"/><path d="M0 0v3.76h22.58v-17.12H2.48" clip-path="url(#d)" style="fill:none;stroke:currentColor;stroke-width:1;stroke-linecap:butt;stroke-linejoin:miter;stroke-miterlimit:10;stroke-dasharray:none;stroke-opacity:1" transform="matrix(1.33333 0 0 -1.33333 21.729 23.62)"/><path d="M0 0h8.78" clip-path="url(#e)" style="fill:none;stroke:currentColor;stroke-width:1;stroke-linecap:butt;stroke-linejoin:miter;stroke-miterlimit:10;stroke-dasharray:none;stroke-opacity:1" transform="matrix(1.33333 0 0 -1.33333 35.265 25.157)"/><path d="M0 0h6.45" clip-path="url(#f)" style="fill:none;stroke:currentColor;stroke-width:1;stroke-linecap:butt;stroke-linejoin:miter;stroke-miterlimit:10;stroke-dasharray:none;stroke-opacity:1" transform="matrix(1.33333 0 0 -1.33333 38.368 28.4)"/><path d="M0 0h8.78" clip-path="url(#g)" style="fill:none;stroke:currentColor;stroke-width:1;stroke-linecap:butt;stroke-linejoin:miter;stroke-miterlimit:10;stroke-dasharray:none;stroke-opacity:1" transform="matrix(1.33333 0 0 -1.33333 35.265 31.644)"/><path d="M0 0h4.39" clip-path="url(#h)" style="fill:none;stroke:currentColor;stroke-width:1;stroke-linecap:butt;stroke-linejoin:miter;stroke-miterlimit:10;stroke-dasharray:none;stroke-opacity:1" transform="matrix(1.33333 0 0 -1.33333 41.118 34.887)"/><path d="M0 0h4.39" clip-path="url(#j)" style="fill:none;stroke:currentColor;stroke-width:1;stroke-linecap:butt;stroke-linejoin:miter;stroke-miterlimit:10;stroke-dasharray:none;stroke-opacity:1" transform="matrix(1.33333 0 0 -1.33333 32.726 34.887)"/></g></svg>