<?xml version="1.0" encoding="UTF-8" standalone="no"?>
<svg
   id="svg536"
   viewBox="0 0 68.32 68.32"
   version="1.1"
   sodipodi:docname="education.svg"
   inkscape:version="1.4.2 (ebf0e940, 2025-05-08)"
   xmlns:inkscape="http://www.inkscape.org/namespaces/inkscape"
   xmlns:sodipodi="http://sodipodi.sourceforge.net/DTD/sodipodi-0.dtd"
   xmlns="http://www.w3.org/2000/svg"
   xmlns:svg="http://www.w3.org/2000/svg">
  <sodipodi:namedview
     id="namedview1"
     pagecolor="#ffffff"
     bordercolor="#000000"
     borderopacity="0.25"
     inkscape:showpageshadow="2"
     inkscape:pageopacity="0.0"
     inkscape:pagecheckerboard="0"
     inkscape:deskcolor="#d1d1d1"
     inkscape:zoom="12.177986"
     inkscape:cx="34.16"
     inkscape:cy="34.118942"
     inkscape:window-width="1920"
     inkscape:window-height="1080"
     inkscape:window-x="0"
     inkscape:window-y="0"
     inkscape:window-maximized="0"
     inkscape:current-layer="svg536" />
  <defs
     id="defs530">
    <clipPath
       id="a"
       clipPathUnits="userSpaceOnUse">
      <path
         id="path23"
         d="M0 422.39h838.23V0H0Z"
         transform="translate(-261.936 -241.153)" />
    </clipPath>
    <clipPath
       id="clipPath179-2"
       clipPathUnits="userSpaceOnUse">
      <path
         id="path179-1"
         d="M0 422.39h838.23V0H0Z"
         transform="translate(-490.09 -302.648)" />
    </clipPath>
    <clipPath
       id="clipPath181-4"
       clipPathUnits="userSpaceOnUse">
      <path
         id="path181-0"
         d="M0 422.39h838.23V0H0Z"
         transform="translate(-487.851 -300.41)" />
    </clipPath>
    <clipPath
       id="clipPath183-0"
       clipPathUnits="userSpaceOnUse">
      <path
         id="path183-8"
         d="M0 422.39h838.23V0H0Z"
         transform="translate(-487.851 -304.887)" />
    </clipPath>
    <clipPath
       id="clipPath185-7"
       clipPathUnits="userSpaceOnUse">
      <path
         id="path185-3"
         d="M0 422.39h838.23V0H0Z"
         transform="translate(-498.004 -303.734)" />
    </clipPath>
    <clipPath
       id="clipPath187-8"
       clipPathUnits="userSpaceOnUse">
      <path
         id="path187-4"
         d="M0 422.39h838.23V0H0Z"
         transform="translate(-500.33 -301.302)" />
    </clipPath>
    <clipPath
       id="clipPath189-5"
       clipPathUnits="userSpaceOnUse">
      <path
         id="path189-2"
         d="M0 422.39h838.23V0H0Z"
         transform="translate(-498.004 -298.87)" />
    </clipPath>
    <clipPath
       id="clipPath191-9"
       clipPathUnits="userSpaceOnUse">
      <path
         id="path191-0"
         d="M0 422.39h838.23V0H0Z"
         transform="translate(-502.393 -296.437)" />
    </clipPath>
    <clipPath
       id="clipPath193-9"
       clipPathUnits="userSpaceOnUse">
      <path
         id="path193-8"
         d="M0 422.39h838.23V0H0Z"
         transform="translate(-496.1 -296.437)" />
    </clipPath>
  </defs>
  <g
     id="g357"
     class="eit-icon"
     transform="translate(-628.74,-133.051)">
    <path
       id="path178-0"
       d="M0 0a2.24 2.24 0 1 0-4.48 0A2.24 2.24 0 0 0 0 0Z"
       clip-path="url(#clipPath179-2)"
       style="fill:none;stroke:currentColor;stroke-width:1;stroke-linecap:butt;stroke-linejoin:miter;stroke-miterlimit:10;stroke-dasharray:none;stroke-opacity:1"
       transform="matrix(1.33333 0 0 -1.33333 653.453 159.655)" />
    <path
       id="path180-5"
       d="M0 0h-1.5a2.44 2.44 0 0 1-2.43-2.58l.25-4.31c.05-.76.68-1.35 1.44-1.35v5.21-10.94a1.12 1.12 0 0 1 2.24 0v6.6-6.6a1.12 1.12 0 0 1 2.24 0v11.23c0 .23.12.44.32.55L6.57.4c.35.22.55.6.55 1.01 0 .28-.27.46-.53.36L2.35.13A2 2 0 0 0 1.67 0Z"
       clip-path="url(#clipPath181-4)"
       style="fill:none;stroke:currentColor;stroke-width:1;stroke-linecap:butt;stroke-linejoin:miter;stroke-miterlimit:10;stroke-dasharray:none;stroke-opacity:1"
       transform="matrix(1.33333 0 0 -1.33333 650.469 162.64)" />
    <path
       id="path182-3"
       d="M0 0v3.76h22.58v-17.12H2.48"
       clip-path="url(#clipPath183-0)"
       style="fill:none;stroke:currentColor;stroke-width:1;stroke-linecap:butt;stroke-linejoin:miter;stroke-miterlimit:10;stroke-dasharray:none;stroke-opacity:1"
       transform="matrix(1.33333 0 0 -1.33333 650.469 156.671)" />
    <path
       id="path184-5"
       d="M0 0h8.78"
       clip-path="url(#clipPath185-7)"
       style="fill:none;stroke:currentColor;stroke-width:1;stroke-linecap:butt;stroke-linejoin:miter;stroke-miterlimit:10;stroke-dasharray:none;stroke-opacity:1"
       transform="matrix(1.33333 0 0 -1.33333 664.005 158.208)" />
    <path
       id="path186-5"
       d="M0 0h6.45"
       clip-path="url(#clipPath187-8)"
       style="fill:none;stroke:currentColor;stroke-width:1;stroke-linecap:butt;stroke-linejoin:miter;stroke-miterlimit:10;stroke-dasharray:none;stroke-opacity:1"
       transform="matrix(1.33333 0 0 -1.33333 667.108 161.451)" />
    <path
       id="path188-4"
       d="M0 0h8.78"
       clip-path="url(#clipPath189-5)"
       style="fill:none;stroke:currentColor;stroke-width:1;stroke-linecap:butt;stroke-linejoin:miter;stroke-miterlimit:10;stroke-dasharray:none;stroke-opacity:1"
       transform="matrix(1.33333 0 0 -1.33333 664.005 164.695)" />
    <path
       id="path190-5"
       d="M0 0h4.39"
       clip-path="url(#clipPath191-9)"
       style="fill:none;stroke:currentColor;stroke-width:1;stroke-linecap:butt;stroke-linejoin:miter;stroke-miterlimit:10;stroke-dasharray:none;stroke-opacity:1"
       transform="matrix(1.33333 0 0 -1.33333 669.858 167.938)" />
    <path
       id="path192-1"
       d="M0 0h4.39"
       clip-path="url(#clipPath193-9)"
       style="fill:none;stroke:currentColor;stroke-width:1;stroke-linecap:butt;stroke-linejoin:miter;stroke-miterlimit:10;stroke-dasharray:none;stroke-opacity:1"
       transform="matrix(1.33333 0 0 -1.33333 661.466 167.938)" />
    <path
       id="path531"
       fill="none"
       stroke="currentColor"
       stroke-dasharray="none"
       stroke-linecap="butt"
       stroke-linejoin="miter"
       stroke-miterlimit="10"
       stroke-opacity="1"
       stroke-width="1"
       d="M0 0a25.12 25.12 0 1 0-50.24 0A25.12 25.12 0 0 0 0 0Z"
       class="eit-icon-circle"
       clip-path="url(#a)"
       transform="matrix(1.33333,0,0,-1.33333,696.394,167.211)" />
  </g>
</svg>
