<svg xmlns="http://www.w3.org/2000/svg" viewBox="0 0 68.32 68.32"><defs><clipPath id="a" clipPathUnits="userSpaceOnUse"><path d="M-501.12 303.9H337.1v-422.4h-838.23Z"/></clipPath><clipPath id="b" clipPathUnits="userSpaceOnUse"><path d="M-465.86 318.89h838.22v-422.4h-838.22Z"/></clipPath><clipPath id="c" clipPathUnits="userSpaceOnUse"><path d="M-465.86 307.12h838.22v-422.39h-838.22Z"/></clipPath><clipPath id="d" clipPathUnits="userSpaceOnUse"><path d="M-485.46 300.38h838.22V-122h-838.22Z"/></clipPath><clipPath id="e" clipPathUnits="userSpaceOnUse"><path d="M-473.11 293.18H365.1V-129.2H-473.1Z"/></clipPath><clipPath id="f" clipPathUnits="userSpaceOnUse"><path d="M-480.37 293.18h838.23V-129.2h-838.23Z"/></clipPath></defs><g fill="none" stroke="currentColor" stroke-miterlimit="10" class="eit-icon"><path d="M0 0a25.12 25.12 0 1 0-50.24 0A25.12 25.12 0 0 0 0 0Z" class="eit-icon-circle" clip-path="url(#a)" transform="matrix(1.33333 0 0 -1.33333 67.653 34.16)"/><path stroke-linecap="round" stroke-linejoin="round" d="M0 0v28.68" clip-path="url(#b)" transform="matrix(1.33333 0 0 -1.33333 20.642 54.157)"/><path stroke-linecap="round" stroke-linejoin="round" d="M0 0h23.13L19.6 6.95l3.53 7H0" clip-path="url(#c)" transform="matrix(1.33333 0 0 -1.33333 20.642 38.47)"/><path stroke-linecap="round" stroke-linejoin="round" d="M0 0h-19.6" clip-path="url(#d)" transform="matrix(1.33333 0 0 -1.33333 46.775 29.483)"/><path stroke-linecap="round" stroke-linejoin="round" d="M0 0v-13.83" clip-path="url(#e)" transform="matrix(1.33333 0 0 -1.33333 30.31 19.881)"/><path stroke-linecap="round" stroke-linejoin="round" d="M0 0v-13.83" clip-path="url(#f)" transform="matrix(1.33333 0 0 -1.33333 39.978 19.881)"/></g></svg>