<svg xmlns="http://www.w3.org/2000/svg" viewBox="0 0 68.32 68.32"><defs><clipPath id="a" clipPathUnits="userSpaceOnUse"><path d="M-740.3 120.36H97.91v-422.39h-838.23Z"/></clipPath><clipPath id="b" clipPathUnits="userSpaceOnUse"><path d="M-711.84 107.93H126.4v-422.39h-838.23Z"/></clipPath><clipPath id="c" clipPathUnits="userSpaceOnUse"><path d="M-708.19 122.7h838.23v-422.38h-838.23Z"/></clipPath><clipPath id="d" clipPathUnits="userSpaceOnUse"><path d="M-711.84 104.98H126.4V-317.4h-838.23Z"/></clipPath></defs><g fill="none" stroke="currentColor" stroke-miterlimit="10" class="eit-icon"><path d="M0 0a25.12 25.12 0 1 0-50.24 0A25.12 25.12 0 0 0 0 0Z" class="eit-icon-circle" clip-path="url(#a)" transform="matrix(1.33333 0 0 -1.33333 67.653 34.16)"/><path stroke-linecap="round" stroke-linejoin="round" d="M0 0v-9.56l-7.6-10.85a2.76 2.76 0 0 1 2.27-4.34h17.36a2.76 2.76 0 0 1 2.27 4.34L6.7-9.56V0" clip-path="url(#b)" transform="matrix(1.33333 0 0 -1.33333 29.688 17.586)"/><path stroke-linecap="round" stroke-linejoin="round" d="M0 0h14" clip-path="url(#c)" transform="matrix(1.33333 0 0 -1.33333 24.825 37.286)"/><path stroke-linecap="round" stroke-linejoin="round" d="M0 0h6.7" clip-path="url(#d)" transform="matrix(1.33333 0 0 -1.33333 29.688 13.654)"/></g></svg>