<svg xmlns="http://www.w3.org/2000/svg" viewBox="0 0 68.32 68.32"><defs><clipPath id="a" clipPathUnits="userSpaceOnUse"><path d="M-441.33 120.08H396.9V-302.3h-838.23Z"/></clipPath><clipPath id="b" clipPathUnits="userSpaceOnUse"><path d="M-411.23 109.52H427v-422.39h-838.23Z"/></clipPath><clipPath id="c" clipPathUnits="userSpaceOnUse"><path d="M-416.2 127.95h838.22v-422.4H-416.2Z"/></clipPath><clipPath id="d" clipPathUnits="userSpaceOnUse"><path d="M-413.43 130.73H424.8v-422.4h-838.23Z"/></clipPath><clipPath id="e" clipPathUnits="userSpaceOnUse"><path d="M-404.43 130.73H433.8v-422.4h-838.23Z"/></clipPath><clipPath id="f" clipPathUnits="userSpaceOnUse"><path d="M-422.43 130.73H415.8v-422.4h-838.23Z"/></clipPath><clipPath id="g" clipPathUnits="userSpaceOnUse"><path d="M-425.2 127.95h838.22v-422.4H-425.2Z"/></clipPath></defs><g fill="none" stroke="currentColor" stroke-miterlimit="10" class="eit-icon"><path d="M0 0a25.12 25.12 0 1 0-50.24 0A25.12 25.12 0 0 0 0 0Z" class="eit-icon-circle" clip-path="url(#a)" transform="matrix(1.33333 0 0 -1.33333 67.653 34.16)"/><path stroke-linecap="round" stroke-linejoin="round" d="m0 0 4.98 4.98L9.95 0" clip-path="url(#b)" transform="matrix(1.33333 0 0 -1.33333 27.525 20.077)"/><path stroke-linecap="round" stroke-linejoin="round" d="M0 0v23.04" clip-path="url(#c)" transform="matrix(1.33333 0 0 -1.33333 34.16 44.642)"/><path stroke-linecap="round" stroke-linejoin="round" d="M0 0a2.78 2.78 0 1 0 5.56 0A2.78 2.78 0 0 0 0 0" clip-path="url(#d)" transform="matrix(1.33333 0 0 -1.33333 30.454 48.348)"/><path stroke-linecap="round" stroke-linejoin="round" d="M0 0a2.78 2.78 0 1 0 5.56 0A2.78 2.78 0 0 0 0 0" clip-path="url(#e)" transform="matrix(1.33333 0 0 -1.33333 18.454 48.348)"/><path stroke-linecap="round" stroke-linejoin="round" d="M0 0a2.78 2.78 0 1 0 5.56 0A2.78 2.78 0 0 0 0 0" clip-path="url(#f)" transform="matrix(1.33333 0 0 -1.33333 42.454 48.348)"/><path stroke-linecap="round" stroke-linejoin="round" d="M0 0v7.02l-9 4-9-4V0" clip-path="url(#g)" transform="matrix(1.33333 0 0 -1.33333 46.16 44.642)"/></g></svg>