<svg xmlns="http://www.w3.org/2000/svg" viewBox="0 0 68.319 68.32"><defs><clipPath id="a" clipPathUnits="userSpaceOnUse"><path d="M-800.1 120.22H38.12v-422.39H-800.1Z"/></clipPath><clipPath id="b" clipPathUnits="userSpaceOnUse"><path d="M-770.51 111.88H67.7v-422.4h-838.2Z"/></clipPath><clipPath id="c" clipPathUnits="userSpaceOnUse"><path d="M-782.95 121.41H55.27v-422.39h-838.22Z"/></clipPath><clipPath id="d" clipPathUnits="userSpaceOnUse"><path d="M-783.03 117.3H55.2v-422.4h-838.23Z"/></clipPath><clipPath id="e" clipPathUnits="userSpaceOnUse"><path d="M-783.03 125.53H55.2v-422.39h-838.23Z"/></clipPath></defs><g fill="none" stroke="currentColor" stroke-miterlimit="10" class="eit-icon"><path d="M0 0a25.12 25.12 0 1 0-50.24 0A25.12 25.12 0 0 0 0 0Z" class="eit-icon-circle" clip-path="url(#a)" transform="matrix(1.33333 0 0 -1.33333 67.652 34.16)"/><path stroke-linecap="round" stroke-linejoin="round" d="M0 0v1.32c0 1.07-.87 1.93-1.93 1.93h-5.32A1.93 1.93 0 0 1-9.2 1.32v-20.27h27.32V0Z" clip-path="url(#b)" transform="matrix(1.33333 0 0 -1.33333 28.198 23.031)"/><path stroke-linecap="round" stroke-linejoin="round" d="M0 0h-16.1" clip-path="url(#c)" transform="matrix(1.33333 0 0 -1.33333 44.785 35.747)"/><path stroke-linecap="round" stroke-linejoin="round" d="M0 0h-16.1" clip-path="url(#d)" transform="matrix(1.33333 0 0 -1.33333 44.886 30.258)"/><path stroke-linecap="round" stroke-linejoin="round" d="M0 0h-16.1" clip-path="url(#e)" transform="matrix(1.33333 0 0 -1.33333 44.886 41.237)"/></g></svg>