<svg xmlns="http://www.w3.org/2000/svg" viewBox="0 0 68.32 68.32"><defs><clipPath id="a" clipPathUnits="userSpaceOnUse"><path d="M-740.3 59.33H97.91v-422.39h-838.23Z"/></clipPath><clipPath id="b" clipPathUnits="userSpaceOnUse"><path d="M-711.83 69.6H126.4v-422.4h-838.23Z"/></clipPath><clipPath id="c" clipPathUnits="userSpaceOnUse"><path d="M-712.2 56.34h838.23v-422.4h-838.22Z"/></clipPath></defs><g fill="none" stroke="currentColor" stroke-miterlimit="10" class="eit-icon"><path d="M0 0a25.12 25.12 0 1 0-50.24 0A25.12 25.12 0 0 0 0 0Z" class="eit-icon-circle" clip-path="url(#a)" transform="matrix(1.33333 0 0 -1.33333 67.653 34.16)"/><path stroke-linecap="round" stroke-linejoin="round" d="M0 0q.25-.36.25-.81v-3.42h6.22v3.42c0 .59.36 1.12.92 1.35h.01c.55.23 1.18.1 1.6-.31l2.41-2.42 4.4 4.4-2.41 2.42a1.5 1.5 0 0 0-.32 1.6v.01c.23.55.77.91 1.36.91h3.42v6.23h-3.42c-.6 0-1.13.36-1.35.91v.02c-.23.54-.11 1.17.3 1.59l2.42 2.42-4.4 4.4L9 20.3a1.5 1.5 0 0 0-1.6-.32L7.4 20c-.56.23-.92.76-.92 1.36v3.42H.25v-3.42c0-.6-.36-1.13-.91-1.36h-.02a1.5 1.5 0 0 0-1.6.31l-2.41 2.42-4.4-4.4 2.42-2.42c.41-.42.54-1.05.31-1.6v-.01a1.5 1.5 0 0 0-1.36-.91h-3.42V7.15h3.42c.6 0 1.13-.36 1.35-.9l.01-.03c.23-.54.1-1.17-.31-1.59L-9.1 2.21l4.4-4.4L-2.27.23c.41.42 1.04.54 1.59.31h.02Q-.25.36 0 0" clip-path="url(#b)" transform="matrix(1.33333 0 0 -1.33333 29.678 47.847)"/><path stroke-linecap="round" stroke-linejoin="round" d="M0 0a4.24 4.24 0 1 0 5.99-5.99A4.24 4.24 0 0 0 0 0" clip-path="url(#c)" transform="matrix(1.33333 0 0 -1.33333 30.166 30.166)"/></g></svg>