<svg xmlns="http://www.w3.org/2000/svg" viewBox="0 0 68.32 68.32"><defs><clipPath id="a" clipPathUnits="userSpaceOnUse"><path d="M-142.34 181.29h838.22v-422.4h-838.22Z"/></clipPath><clipPath id="b" clipPathUnits="userSpaceOnUse"><path d="M-119.36 183.46h838.23v-422.39h-838.23Z"/></clipPath><clipPath id="c" clipPathUnits="userSpaceOnUse"><path d="M-119.62 174.1h838.23v-422.4h-838.23Z"/></clipPath><clipPath id="d" clipPathUnits="userSpaceOnUse"><path d="M-107.26 187.58h838.23v-422.4h-838.23Z"/></clipPath><clipPath id="e" clipPathUnits="userSpaceOnUse"><path d="M-115.52 187.07h838.23v-422.39h-838.23Z"/></clipPath></defs><g fill="none" stroke="currentColor" stroke-miterlimit="10" class="eit-icon"><path d="M0 0a25.12 25.12 0 1 0-50.24 0A25.12 25.12 0 0 0 0 0Z" class="eit-icon-circle" clip-path="url(#a)" transform="matrix(1.33333 0 0 -1.33333 67.653 34.16)"/><path stroke-linecap="round" stroke-linejoin="round" d="M0 0q.17-.26.18-.58v-2.41h4.4v2.41c0 .42.25.8.64.96q0 0 0 0c.4.16.84.08 1.13-.22l1.71-1.7 3.1 3.1-1.7 1.71c-.3.3-.38.74-.22 1.12v.02c.16.39.54.64.96.64h2.42v4.4H10.2c-.42 0-.8.25-.96.64v.01c-.16.4-.07.83.22 1.13l1.7 1.7-3.1 3.11-1.7-1.7a1 1 0 0 0-1.14-.22c-.4.16-.65.53-.65.96v2.41H.17v-2.41a1 1 0 0 0-.65-.97 1 1 0 0 0-1.12.23l-1.71 1.7-3.11-3.1 1.7-1.71c.3-.3.39-.74.23-1.13q0 0 0 0a1 1 0 0 0-.96-.65h-2.42v-4.4h2.42c.42 0 .8-.25.95-.64v-.02c.17-.38.08-.82-.21-1.12l-1.71-1.7 3.1-3.11L-1.6.16c.3.3.74.38 1.13.23l.01-.01Q-.17.26 0 0" clip-path="url(#b)" transform="matrix(1.33333 0 0 -1.33333 37.009 37.058)"/><path stroke-linecap="round" stroke-linejoin="round" d="M0 0a3 3 0 1 0 4.23-4.23A3 3 0 0 0 0 0" clip-path="url(#c)" transform="matrix(1.33333 0 0 -1.33333 37.353 24.572)"/><path stroke-linecap="round" stroke-linejoin="round" d="M0 0a2.2 2.2 0 1 0 3.1-3.1A2.2 2.2 0 0 0 0 0" clip-path="url(#d)" transform="matrix(1.33333 0 0 -1.33333 20.878 42.545)"/><path stroke-linecap="round" stroke-linejoin="round" d="M0 0h-.1a4.55 4.55 0 0 0-4.54 4.55v.1h-4.12v-.1A4.55 4.55 0 0 0-13.3 0h-.1v-4.12h.1a4.55 4.55 0 0 0 4.55-4.55v-.09h4.12v.1A4.55 4.55 0 0 0-.1-4.13H0Z" clip-path="url(#e)" transform="matrix(1.33333 0 0 -1.33333 31.884 41.873)"/></g></svg>