<svg xmlns="http://www.w3.org/2000/svg" viewBox="0 0 68.32 68.32"><defs><clipPath id="a" clipPathUnits="userSpaceOnUse"><path d="M-202.14 120.21h838.23v-422.39h-838.23Z"/></clipPath><clipPath id="b" clipPathUnits="userSpaceOnUse"><path d="M-166.6 113.35h838.23v-422.39H-166.6Z"/></clipPath><clipPath id="c" clipPathUnits="userSpaceOnUse"><path d="M-171.34 115.54h838.23v-422.39h-838.23Z"/></clipPath><clipPath id="d" clipPathUnits="userSpaceOnUse"><path d="M-180.93 108.07H657.3v-422.39h-838.23Z"/></clipPath><clipPath id="e" clipPathUnits="userSpaceOnUse"><path d="M-187.16 118.94h838.23v-422.4h-838.23Z"/></clipPath><clipPath id="f" clipPathUnits="userSpaceOnUse"><path d="M-184.16 125.43h838.23v-422.4h-838.23Z"/></clipPath><clipPath id="g" clipPathUnits="userSpaceOnUse"><path d="M-182.31 105.08H655.9V-317.3h-838.2Z"/></clipPath><clipPath id="h" clipPathUnits="userSpaceOnUse"><path d="M-176.4 131.99h838.22v-422.4H-176.4Z"/></clipPath><clipPath id="i" clipPathUnits="userSpaceOnUse"><path d="M-173.23 136.16h838.22v-422.39h-838.22Z"/></clipPath></defs><g fill="none" stroke="currentColor" stroke-miterlimit="10" class="eit-icon"><path d="M0 0a25.12 25.12 0 1 0-50.24 0A25.12 25.12 0 0 0 0 0Z" class="eit-icon-circle" clip-path="url(#a)" transform="matrix(1.33333 0 0 -1.33333 67.653 34.16)"/><path stroke-linecap="round" stroke-linejoin="round" d="M0 0a10.8 10.8 0 1 0 19.62-9.05A10.8 10.8 0 0 0 0 0" clip-path="url(#b)" transform="matrix(1.33333 0 0 -1.33333 20.262 25.014)"/><path stroke-linecap="round" stroke-linejoin="round" d="M0 0c2.5 5.42 6.8 8.76 9.6 7.47 2.79-1.3 3.03-6.73.53-12.15s-6.8-8.76-9.6-7.47C-2.25-10.85-2.5-5.42 0 0" clip-path="url(#c)" transform="matrix(1.33333 0 0 -1.33333 26.587 27.933)"/><path stroke-linecap="round" stroke-linejoin="round" d="m0 0-9.05-19.62" clip-path="url(#d)" transform="matrix(1.33333 0 0 -1.33333 39.376 17.973)"/><path stroke-linecap="round" stroke-linejoin="round" d="m0 0-18.53 8.56" clip-path="url(#e)" transform="matrix(1.33333 0 0 -1.33333 47.677 32.46)"/><path stroke-linecap="round" stroke-linejoin="round" d="m0 0-18.53 8.56" clip-path="url(#f)" transform="matrix(1.33333 0 0 -1.33333 43.683 41.113)"/><path stroke-linecap="round" stroke-linejoin="round" d="M0 0a14.1 14.1 0 1 0-11.82-25.6" clip-path="url(#g)" transform="matrix(1.33333 0 0 -1.33333 41.22 13.982)"/><path stroke-linecap="round" stroke-linejoin="round" d="M0 0v-4.18" clip-path="url(#h)" transform="matrix(1.33333 0 0 -1.33333 33.34 49.855)"/><path stroke-linecap="round" stroke-linejoin="round" d="M0 0h6.34" clip-path="url(#i)" transform="matrix(1.33333 0 0 -1.33333 29.111 55.424)"/></g></svg>