<svg xmlns="http://www.w3.org/2000/svg" viewBox="0 0 68.319 68.32"><defs><clipPath id="a" clipPathUnits="userSpaceOnUse"><path d="M-620.72 59.33h838.23v-422.39h-838.23Z"/></clipPath><clipPath id="b" clipPathUnits="userSpaceOnUse"><path d="M-595.6 47.3h838.23v-422.39H-595.6Z"/></clipPath><clipPath id="c" clipPathUnits="userSpaceOnUse"><path d="M-605.17 58.74h838.23v-422.4h-838.23Z"/></clipPath><clipPath id="d" clipPathUnits="userSpaceOnUse"><path d="M-610.08 56.59h838.23v-422.4h-838.23Z"/></clipPath><clipPath id="e" clipPathUnits="userSpaceOnUse"><path d="M-608.15 64.72h838.23v-422.4h-838.23Z"/></clipPath></defs><g fill="none" stroke="currentColor" stroke-miterlimit="10"><path d="M0 0a25.12 25.12 0 1 0-50.24 0A25.12 25.12 0 0 0 0 0Z" class="eit-icon-circle" clip-path="url(#a)" transform="matrix(1.33333 0 0 -1.33333 67.652 34.16)"/><g stroke-linecap="round" stroke-linejoin="round" class="eit-icon"><path d="m0 0 17.37-7.9L0-15.77-17.37-7.9z" clip-path="url(#b)" transform="matrix(1.33333 0 0 -1.33333 34.16 18.12)"/><path d="M0 0v-7.76c0-1.16-1.03-2.1-2.3-2.1h-14.54c-1.27 0-2.3.94-2.3 2.1V0" clip-path="url(#c)" transform="matrix(1.33333 0 0 -1.33333 46.92 33.364)"/><path d="M0 0v-6.2" clip-path="url(#d)" transform="matrix(1.33333 0 0 -1.33333 53.466 30.498)"/><path d="M0 0a1.92 1.92 0 1 1 3.84 0A1.92 1.92 0 0 1 0 0" clip-path="url(#e)" transform="matrix(1.33333 0 0 -1.33333 50.902 41.338)"/></g></g></svg>