<svg xmlns="http://www.w3.org/2000/svg" viewBox="0 0 68.32 68.32"><defs><clipPath id="a" clipPathUnits="userSpaceOnUse"><path d="M-82.29 242.26h838.23v-422.4H-82.3Z"/></clipPath><clipPath id="b" clipPathUnits="userSpaceOnUse"><path d="M-53.7 234.16h838.22v-422.4H-53.71Z"/></clipPath><clipPath id="c" clipPathUnits="userSpaceOnUse"><path d="M-63.9 249.58h838.23V-172.8H-63.9Z"/></clipPath><clipPath id="d" clipPathUnits="userSpaceOnUse"><path d="M-64.73 236.92H773.5v-422.4H-64.73Z"/></clipPath><clipPath id="e" clipPathUnits="userSpaceOnUse"><path d="M-63.72 242.54H774.5v-422.4H-63.72Z"/></clipPath><clipPath id="f" clipPathUnits="userSpaceOnUse"><path d="M-44.09 236.92h838.23v-422.4H-44.1Z"/></clipPath><clipPath id="g" clipPathUnits="userSpaceOnUse"><path d="M-50.48 249.58h838.22V-172.8H-50.48Z"/></clipPath></defs><g fill="none" stroke="currentColor" stroke-miterlimit="10" class="eit-icon"><path d="M0 0a25.12 25.12 0 1 0-50.24 0A25.12 25.12 0 0 0 0 0Z" class="eit-icon-circle" clip-path="url(#a)" transform="matrix(1.33333 0 0 -1.33333 67.653 34.16)"/><path stroke-linecap="round" stroke-linejoin="round" d="M0 0a3.48 3.48 0 1 0 6.96 0A3.48 3.48 0 0 0 0 0" clip-path="url(#b)" transform="matrix(1.33333 0 0 -1.33333 29.545 23.359)"/><path stroke-linecap="round" stroke-linejoin="round" d="M0 0h-13.41v5.9A3.9 3.9 0 0 0-9.5 9.8h5.57A3.9 3.9 0 0 0 0 5.9Z" clip-path="url(#c)" transform="matrix(1.33333 0 0 -1.33333 43.127 43.926)"/><path stroke-linecap="round" stroke-linejoin="round" d="M0 0a2.78 2.78 0 1 0 5.56 0A2.78 2.78 0 0 0 0 0" clip-path="url(#d)" transform="matrix(1.33333 0 0 -1.33333 44.243 27.039)"/><path stroke-linecap="round" stroke-linejoin="round" d="M0 0c.66.5 1.47.79 2.36.79h2.86a3.9 3.9 0 0 0 3.92-3.92v-3.92H.17" clip-path="url(#e)" transform="matrix(1.33333 0 0 -1.33333 42.896 34.53)"/><path stroke-linecap="round" stroke-linejoin="round" d="M0 0a2.78 2.78 0 1 0 5.56 0A2.78 2.78 0 0 0 0 0" clip-path="url(#f)" transform="matrix(1.33333 0 0 -1.33333 16.72 27.039)"/><path stroke-linecap="round" stroke-linejoin="round" d="M0 0h-8.97v3.91a3.9 3.9 0 0 0 3.92 3.92h2.87c.88 0 1.7-.29 2.35-.78" clip-path="url(#g)" transform="matrix(1.33333 0 0 -1.33333 25.245 43.926)"/></g></svg>