<svg xmlns="http://www.w3.org/2000/svg" viewBox="0 0 68.32 68.319"><defs><clipPath id="a" clipPathUnits="userSpaceOnUse"><path d="M-560.98 365.25h838.23V-57.14h-838.23Z"/></clipPath><clipPath id="b" clipPathUnits="userSpaceOnUse"><path d="M-522.64 371.82H315.6V-50.57h-838.23Z"/></clipPath><clipPath id="c" clipPathUnits="userSpaceOnUse"><path d="M-540.46 364.77h838.23v-422.4h-838.23Z"/></clipPath><clipPath id="d" clipPathUnits="userSpaceOnUse"><path d="M-528.86 364.77h838.23v-422.4h-838.23Z"/></clipPath><clipPath id="e" clipPathUnits="userSpaceOnUse"><path d="M-530.3 364.77h838.23v-422.4H-530.3Z"/></clipPath><clipPath id="f" clipPathUnits="userSpaceOnUse"><path d="M-541.4 364.77h838.22v-422.4h-838.23Z"/></clipPath><clipPath id="g" clipPathUnits="userSpaceOnUse"><path d="M-521.11 363.97h838.23V-58.42h-838.23Z"/></clipPath><clipPath id="h" clipPathUnits="userSpaceOnUse"><path d="M-547.55 363.97h838.23V-58.42h-838.23Z"/></clipPath></defs><g class="eit-icon"><path fill="none" stroke="currentColor" stroke-miterlimit="10" d="M0 0a25.12 25.12 0 1 0-50.24 0A25.12 25.12 0 0 0 0 0Z" class="eit-icon-circle" clip-path="url(#a)" transform="matrix(1.33333 0 0 -1.33333 67.653 34.16)"/><path fill="none" stroke="currentColor" stroke-linecap="round" stroke-linejoin="round" stroke-miterlimit="10" stroke-width=".9" d="M0 0v9.33c0 7.27 5.95 13.22 13.22 13.22S26.44 16.6 26.44 9.33V0" clip-path="url(#b)" transform="matrix(1.33333 0 0 -1.33333 16.536 42.92)"/><path fill="none" stroke="currentColor" stroke-linecap="round" stroke-linejoin="round" stroke-miterlimit="10" stroke-width=".9" d="M0 0h2.03a4.26 4.26 0 0 0 4.24-4.25v-5.62a4.26 4.26 0 0 0-4.24-4.24H0c-1.22 0-2.22 1-2.22 2.21v9.68C-2.22-1-1.22 0 0 0" clip-path="url(#c)" transform="matrix(1.33333 0 0 -1.33333 40.295 33.51)"/><path fill="none" stroke="currentColor" stroke-linecap="round" stroke-linejoin="round" stroke-miterlimit="10" stroke-width=".9" d="M0 0h2.03c1.22 0 2.22-1 2.22-2.22v-9.68c0-1.22-1-2.21-2.22-2.21H0a4.26 4.26 0 0 0-4.25 4.24v5.62A4.26 4.26 0 0 0 0 0" clip-path="url(#d)" transform="matrix(1.33333 0 0 -1.33333 24.83 33.51)"/><path fill="none" stroke="currentColor" stroke-linecap="round" stroke-linejoin="round" stroke-miterlimit="10" stroke-width=".9" d="M0 0v-14.11" clip-path="url(#e)" transform="matrix(1.33333 0 0 -1.33333 26.756 33.51)"/><path fill="none" stroke="currentColor" stroke-linecap="round" stroke-linejoin="round" stroke-miterlimit="10" stroke-width=".9" d="M0 0v-14.11" clip-path="url(#f)" transform="matrix(1.33333 0 0 -1.33333 41.563 33.51)"/><path fill="currentColor" d="M0 0a1.52 1.52 0 1 0 3.05 0A1.52 1.52 0 0 0 0 0" clip-path="url(#g)" transform="matrix(1.33333 0 0 -1.33333 14.502 32.454)"/><path fill="currentColor" d="M0 0a1.52 1.52 0 1 0 3.05 0A1.52 1.52 0 0 0 0 0" clip-path="url(#h)" transform="matrix(1.33333 0 0 -1.33333 49.75 32.454)"/></g></svg>