<svg xmlns="http://www.w3.org/2000/svg" viewBox="0 0 68.319 68.32"><defs><clipPath id="a" clipPathUnits="userSpaceOnUse"><path d="M-620.72 303.75h838.23v-422.39h-838.23Z"/></clipPath><clipPath id="b" clipPathUnits="userSpaceOnUse"><path d="M-585.5 305.68h838.22v-422.4H-585.5Z"/></clipPath><clipPath id="c" clipPathUnits="userSpaceOnUse"><path d="M-598.94 294.38H239.3v-422.4h-838.23Z"/></clipPath></defs><g fill="none" stroke="currentColor" stroke-miterlimit="10" class="eit-icon"><path d="M0 0a25.12 25.12 0 1 0-50.24 0A25.12 25.12 0 0 0 0 0Z" class="eit-icon-circle" clip-path="url(#a)" transform="matrix(1.33333 0 0 -1.33333 67.652 34.16)"/><path stroke-linecap="round" stroke-linejoin="round" d="M0 0a11.42 11.42 0 0 0 8.47 17.3c6.9.77 12.74-4.61 12.74-11.36v-.69a17 17 0 0 1 1.56-6.64 1 1 0 0 0-.67-1.36l-1.86-.46.12-3.64a2.7 2.7 0 0 0-2.68-2.76h-4.3l-1.72-5.1L.73-11.68l.66 3.8C1.87-5.17 1.43-2.35 0 0" clip-path="url(#b)" transform="matrix(1.33333 0 0 -1.33333 20.704 36.729)"/><path stroke-linecap="round" stroke-linejoin="round" d="m0 0-6.37-3.68 1.63-2.82-2.38-5.13 6.9 3.98-1.62 2.82z" clip-path="url(#c)" transform="matrix(1.33333 0 0 -1.33333 38.614 21.66)"/></g></svg>