<svg xmlns="http://www.w3.org/2000/svg" viewBox="0 0 68.32 68.32"><defs><clipPath id="a" clipPathUnits="userSpaceOnUse"><path d="M-202.14 181.24h838.23v-422.4h-838.23Z"/></clipPath><clipPath id="b" clipPathUnits="userSpaceOnUse"><path d="M-191.43 178.78H646.8V-243.6h-838.23Z"/></clipPath><clipPath id="c" clipPathUnits="userSpaceOnUse"><path d="M-183.95 183.4h838.23V-239h-838.23Z"/></clipPath></defs><g fill="none" stroke="currentColor" stroke-miterlimit="10" class="eit-icon"><path d="M0 0a25.12 25.12 0 1 0-50.24 0A25.12 25.12 0 0 0 0 0Z" class="eit-icon-circle" clip-path="url(#a)" transform="matrix(1.33333 0 0 -1.33333 67.653 34.16)"/><path stroke-linecap="round" stroke-linejoin="round" d="M0 0c0 5.93-4.53 8.72-7.2 8.72s-4.94-1.1-7.21-4.13c-2.27 3.03-4.54 4.13-7.2 4.13-2.68 0-7.21-2.79-7.21-8.72 0 0-.28-2.94 3.01-6.23 3.29-3.28 11.4-11.1 11.4-11.1s8.1 7.81 11.4 11.1C.27-2.93 0 0 0 0" clip-path="url(#b)" transform="matrix(1.33333 0 0 -1.33333 53.374 30.887)"/><path stroke-linecap="round" stroke-linejoin="round" d="m0 0-2.57 4.67-4.36-6.45-4.36 6.45-2.4-4.37h-6.22" clip-path="url(#c)" transform="matrix(1.33333 0 0 -1.33333 43.4 37.032)"/></g></svg>