<svg xmlns="http://www.w3.org/2000/svg" viewBox="0 0 68.32 68.32"><defs><clipPath id="a" clipPathUnits="userSpaceOnUse"><path d="M-560.92 242.39h838.23V-180h-838.23Z"/></clipPath><clipPath id="b" clipPathUnits="userSpaceOnUse"><path d="M-528.63 235.08H309.6v-422.4h-838.23Z"/></clipPath><clipPath id="c" clipPathUnits="userSpaceOnUse"><path d="M-528.63 253.03H309.6v-422.4h-838.23Z"/></clipPath><clipPath id="d" clipPathUnits="userSpaceOnUse"><path d="M-530.37 246.13h838.22v-422.4h-838.22Z"/></clipPath><clipPath id="e" clipPathUnits="userSpaceOnUse"><path d="M-541.22 238.4H297V-184h-838.22Z"/></clipPath><clipPath id="f" clipPathUnits="userSpaceOnUse"><path d="M-535.8 242.22h838.23v-422.4H-535.8Z"/></clipPath></defs><g fill="none" stroke="currentColor" stroke-miterlimit="10" class="eit-icon"><path d="M0 0a25.12 25.12 0 1 0-50.24 0A25.12 25.12 0 0 0 0 0Z" class="eit-icon-circle" clip-path="url(#a)" transform="matrix(1.33333 0 0 -1.33333 67.653 34.16)"/><path stroke-linecap="round" stroke-linejoin="round" d="M0 0h14.34" clip-path="url(#b)" transform="matrix(1.33333 0 0 -1.33333 24.6 24.409)"/><path stroke-linecap="round" stroke-linejoin="round" d="m0 0 7.17 2.9L14.34 0" clip-path="url(#c)" transform="matrix(1.33333 0 0 -1.33333 24.6 48.342)"/><path stroke-linecap="round" stroke-linejoin="round" d="m0 0 5.43 3.83L10.85 0a4.1 4.1 0 0 0 1.75-3.37v-7.6H-1.75v7.6C-1.75-2.03-1.1-.77 0 0" clip-path="url(#d)" transform="matrix(1.33333 0 0 -1.33333 26.927 39.142)"/><path stroke-linecap="round" stroke-linejoin="round" d="m0 0-5.42-3.83L-10.85 0a4.1 4.1 0 0 0-1.74 3.37v7.6H1.75v-7.6C1.75 2.03 1.09.77 0 0" clip-path="url(#e)" transform="matrix(1.33333 0 0 -1.33333 41.393 28.83)"/><path stroke-linecap="round" stroke-linejoin="round" d="M0 0v-7.9" clip-path="url(#f)" transform="matrix(1.33333 0 0 -1.33333 34.16 33.93)"/></g></svg>