<svg xmlns="http://www.w3.org/2000/svg" viewBox="0 0 68.32 68.32"><defs><clipPath id="a" clipPathUnits="userSpaceOnUse"><path d="M-680.51 181.22h838.23v-422.4h-838.23Z"/></clipPath><clipPath id="b" clipPathUnits="userSpaceOnUse"><path d="M0 422.39h838.23V0H0Z"/></clipPath><clipPath id="c" clipPathUnits="userSpaceOnUse"><path d="M-646.9 177.03h838.22v-422.39h-838.23Z"/></clipPath><clipPath id="d" clipPathUnits="userSpaceOnUse"><path d="M-653.25 186.9h838.23v-422.38h-838.23Z"/></clipPath><clipPath id="e" clipPathUnits="userSpaceOnUse"><path d="M-656.8 177.64h838.23v-422.4H-656.8Z"/></clipPath><clipPath id="f" clipPathUnits="userSpaceOnUse"><path d="M-656.8 181.22h838.23v-422.4H-656.8Z"/></clipPath><clipPath id="g" clipPathUnits="userSpaceOnUse"><path d="M-656.8 184.8h838.23v-422.4H-656.8Z"/></clipPath></defs><g fill="none" stroke="currentColor" stroke-miterlimit="10" class="eit-icon"><path d="M0 0a25.12 25.12 0 1 0-50.24 0A25.12 25.12 0 0 0 0 0Z" class="eit-icon-circle" clip-path="url(#a)" transform="matrix(1.33333 0 0 -1.33333 67.653 34.16)"/><path stroke-linecap="round" stroke-linejoin="round" d="M640.3 251.32h30.2v-20.3h-30.2z" clip-path="url(#b)" transform="matrix(1.33333 0 0 -1.33333 -839.696 355.723)"/><path stroke-linecap="round" stroke-linejoin="round" stroke-width=".95" d="M0 0a2.17 2.17 0 1 0 4.33 0A2.17 2.17 0 0 0 0 0" clip-path="url(#c)" transform="matrix(1.33333 0 0 -1.33333 22.847 28.581)"/><path stroke-linecap="round" stroke-linejoin="round" stroke-width=".95" d="M0 0h-8.35v2.19A3.9 3.9 0 0 0-4.43 6.1h.5A3.9 3.9 0 0 0 0 2.19Z" clip-path="url(#d)" transform="matrix(1.33333 0 0 -1.33333 31.303 41.75)"/><path stroke-linecap="round" stroke-linejoin="round" stroke-width=".95" d="M0 0h9.37" clip-path="url(#e)" transform="matrix(1.33333 0 0 -1.33333 36.032 29.386)"/><path stroke-linecap="round" stroke-linejoin="round" stroke-width=".95" d="M0 0h9.37" clip-path="url(#f)" transform="matrix(1.33333 0 0 -1.33333 36.032 34.16)"/><path stroke-linecap="round" stroke-linejoin="round" stroke-width=".95" d="M0 0h9.37" clip-path="url(#g)" transform="matrix(1.33333 0 0 -1.33333 36.032 38.933)"/></g></svg>