<svg xmlns="http://www.w3.org/2000/svg" viewBox="0 0 68.32 68.32"><defs><clipPath id="a" clipPathUnits="userSpaceOnUse"><path d="M-261.936 181.237h838.23v-422.39h-838.23Z"/></clipPath><clipPath id="b" clipPathUnits="userSpaceOnUse"><path d="M-497.14 172.316h838.23v-422.39h-838.23Z"/></clipPath><clipPath id="c" clipPathUnits="userSpaceOnUse"><path d="M-501.713 187.954h838.23v-422.39h-838.23Z"/></clipPath><clipPath id="d" clipPathUnits="userSpaceOnUse"><path d="M-497.14 180.36h838.23v-422.39h-838.23Z"/></clipPath><clipPath id="e" clipPathUnits="userSpaceOnUse"><path d="M-494.118 190.712h838.23v-422.39h-838.23Z"/></clipPath><clipPath id="f" clipPathUnits="userSpaceOnUse"><path d="M-491.809 181.112h838.23v-422.39h-838.23Z"/></clipPath><clipPath id="g" clipPathUnits="userSpaceOnUse"><path d="M-502.468 181.112h838.23v-422.39h-838.23Z"/></clipPath><clipPath id="h" clipPathUnits="userSpaceOnUse"><path d="M-486.76 178.548h838.23v-422.39h-838.23Z"/></clipPath><clipPath id="i" clipPathUnits="userSpaceOnUse"><path d="M-505.924 193.867h838.23v-422.39h-838.23Z"/></clipPath><clipPath id="j" clipPathUnits="userSpaceOnUse"><path d="M-497.14 192.42h838.23v-422.39h-838.23Z"/></clipPath><clipPath id="k" clipPathUnits="userSpaceOnUse"><path d="M-494.928 192.42h838.23v-422.39h-838.23Z"/></clipPath><clipPath id="l" clipPathUnits="userSpaceOnUse"><path d="M-499.351 192.42h838.23v-422.39h-838.23Z"/></clipPath><clipPath id="m" clipPathUnits="userSpaceOnUse"><path d="M-483.857 206.004h838.23v-422.39h-838.23Z"/></clipPath><clipPath id="n" clipPathUnits="userSpaceOnUse"><path d="M-501.555 201.872h838.23v-422.39h-838.23Z"/></clipPath><clipPath id="o" clipPathUnits="userSpaceOnUse"><path d="M-505.11 204.454h838.23v-422.39h-838.23Z"/></clipPath><clipPath id="q" clipPathUnits="userSpaceOnUse"><path d="M-492.361 205.007h838.23v-422.39h-838.23Z"/></clipPath></defs><g class="eit-icon"><path fill="none" stroke="currentColor" stroke-miterlimit="10" d="M0 0a25.12 25.12 0 1 0-50.24 0A25.12 25.12 0 0 0 0 0Z" class="eit-icon-circle" clip-path="url(#a)" transform="matrix(1.33333 0 0 -1.33333 67.654 34.16)"/><path d="M0 0a2.16 2.16 0 1 1 0-4.33A2.16 2.16 0 0 1 0 0m0-1a1.17 1.17 0 1 0 0-2.33A1.17 1.17 0 0 0 0-1" clip-path="url(#b)" style="fill:currentColor;fill-opacity:1;fill-rule:nonzero;stroke:none" transform="matrix(1.33333 0 0 -1.33333 33.593 17.44)"/><path d="m0 0 1.04 9.07a11.2 11.2 0 0 1-2.13 7.96l-2.84 3.82a.8.8 0 0 1-1.29 0l-2.83-3.82a11.2 11.2 0 0 1-2.14-7.96L-9.15 0Z" clip-path="url(#c)" style="fill:none;stroke:currentColor;stroke-width:1;stroke-linecap:butt;stroke-linejoin:miter;stroke-miterlimit:10;stroke-dasharray:none;stroke-opacity:1" transform="matrix(1.33333 0 0 -1.33333 39.69 38.291)"/><path d="M0 0v-4.25" clip-path="url(#d)" style="fill:none;stroke:currentColor;stroke-width:1;stroke-linecap:butt;stroke-linejoin:miter;stroke-miterlimit:10;stroke-dasharray:none;stroke-opacity:1" transform="matrix(1.33333 0 0 -1.33333 33.593 28.166)"/><path d="M0 0h6.04c.45 0 .79.4.71.85l-.33 1.9h-6.8L-.7.86A.72.72 0 0 1 0 0Z" clip-path="url(#e)" style="fill:none;stroke:currentColor;stroke-width:1;stroke-linecap:butt;stroke-linejoin:miter;stroke-miterlimit:10;stroke-dasharray:none;stroke-opacity:1" transform="matrix(1.33333 0 0 -1.33333 29.564 41.969)"/><path d="m0 0-2.74-2.27a1.5 1.5 0 0 1-.55-1.16v-4.41c0-.26.28-.43.5-.3l3.5 1.92" clip-path="url(#f)" style="fill:none;stroke:currentColor;stroke-width:1;stroke-linecap:butt;stroke-linejoin:miter;stroke-miterlimit:10;stroke-dasharray:none;stroke-opacity:1" transform="matrix(1.33333 0 0 -1.33333 26.485 29.168)"/><path d="m0 0 2.74-2.27c.35-.28.55-.71.55-1.16v-4.41a.34.34 0 0 0-.5-.3l-3.5 1.92" clip-path="url(#g)" style="fill:none;stroke:currentColor;stroke-width:1;stroke-linecap:butt;stroke-linejoin:miter;stroke-miterlimit:10;stroke-dasharray:none;stroke-opacity:1" transform="matrix(1.33333 0 0 -1.33333 40.697 29.168)"/><path d="M0 0a.94.94 0 1 0-1.88 0A.94.94 0 0 0 0 0Z" clip-path="url(#h)" style="fill:none;stroke:currentColor;stroke-width:1;stroke-linecap:butt;stroke-linejoin:miter;stroke-miterlimit:10;stroke-dasharray:none;stroke-opacity:1" transform="matrix(1.33333 0 0 -1.33333 19.753 25.75)"/><path d="M0 0a.94.94 0 1 0-1.88 0A.94.94 0 0 0 0 0Z" clip-path="url(#i)" style="fill:none;stroke:currentColor;stroke-width:1;stroke-linecap:butt;stroke-linejoin:miter;stroke-miterlimit:10;stroke-dasharray:none;stroke-opacity:1" transform="matrix(1.33333 0 0 -1.33333 45.305 46.175)"/><path d="M0 0v-4.68" clip-path="url(#j)" style="fill:none;stroke:currentColor;stroke-width:1;stroke-linecap:butt;stroke-linejoin:miter;stroke-miterlimit:10;stroke-dasharray:none;stroke-opacity:1" transform="matrix(1.33333 0 0 -1.33333 33.593 44.246)"/><path d="M0 0v-3.15" clip-path="url(#k)" style="fill:none;stroke:currentColor;stroke-width:1;stroke-linecap:butt;stroke-linejoin:miter;stroke-miterlimit:10;stroke-dasharray:none;stroke-opacity:1" transform="matrix(1.33333 0 0 -1.33333 30.643 44.246)"/><path d="M0 0v-3.15" clip-path="url(#l)" style="fill:none;stroke:currentColor;stroke-width:1;stroke-linecap:butt;stroke-linejoin:miter;stroke-miterlimit:10;stroke-dasharray:none;stroke-opacity:1" transform="matrix(1.33333 0 0 -1.33333 36.542 44.246)"/><path d="M0 0a4.83 4.83 0 0 0 8.24 3.34" clip-path="url(#m)" style="fill:none;stroke:currentColor;stroke-width:1;stroke-linecap:butt;stroke-linejoin:miter;stroke-miterlimit:10;stroke-dasharray:none;stroke-opacity:1" transform="matrix(1.33333 0 0 -1.33333 15.883 62.358)"/><path d="M0 0a2.8 2.8 0 0 0 5.36-1.35" clip-path="url(#n)" style="fill:none;stroke:currentColor;stroke-width:1;stroke-linecap:butt;stroke-linejoin:miter;stroke-miterlimit:10;stroke-dasharray:none;stroke-opacity:1" transform="matrix(1.33333 0 0 -1.33333 39.48 56.849)"/><path d="M0 0a4.42 4.42 0 0 0 6.99-.46" clip-path="url(#o)" style="fill:none;stroke:currentColor;stroke-width:1;stroke-linecap:butt;stroke-linejoin:miter;stroke-miterlimit:10;stroke-dasharray:none;stroke-opacity:1" transform="matrix(1.33333 0 0 -1.33333 44.22 60.292)"/><path d="M0 0a4.8 4.8 0 0 0 4.6 6.28A4.8 4.8 0 0 0 9.4.98" clip-path="url(#q)" style="fill:none;stroke:currentColor;stroke-width:1;stroke-linecap:butt;stroke-linejoin:miter;stroke-miterlimit:10;stroke-dasharray:none;stroke-opacity:1" transform="matrix(1.33333 0 0 -1.33333 27.222 61.029)"/></g></svg>