<svg xmlns="http://www.w3.org/2000/svg" id="svg536" viewBox="0 0 68.32 68.32"><defs id="defs530"><clipPath id="a" clipPathUnits="userSpaceOnUse"><path id="path23" d="M0 422.39h838.23V0H0Z" transform="translate(-261.936 -241.153)"/></clipPath><clipPath id="clipPath195-7" clipPathUnits="userSpaceOnUse"><path id="path195-5" d="M0 422.39h838.23V0H0Z" transform="translate(-497.14 -250.074)"/></clipPath><clipPath id="clipPath197-8" clipPathUnits="userSpaceOnUse"><path id="path197-4" d="M0 422.39h838.23V0H0Z" transform="translate(-501.713 -234.436)"/></clipPath><clipPath id="clipPath199-2" clipPathUnits="userSpaceOnUse"><path id="path199-5" d="M0 422.39h838.23V0H0Z" transform="translate(-497.14 -242.03)"/></clipPath><clipPath id="clipPath201-0" clipPathUnits="userSpaceOnUse"><path id="path201-7" d="M0 422.39h838.23V0H0Z" transform="translate(-494.118 -231.678)"/></clipPath><clipPath id="clipPath203-0" clipPathUnits="userSpaceOnUse"><path id="path203-7" d="M0 422.39h838.23V0H0Z" transform="translate(-491.809 -241.278)"/></clipPath><clipPath id="clipPath205-6" clipPathUnits="userSpaceOnUse"><path id="path205-8" d="M0 422.39h838.23V0H0Z" transform="translate(-502.468 -241.278)"/></clipPath><clipPath id="clipPath207-2" clipPathUnits="userSpaceOnUse"><path id="path207-3" d="M0 422.39h838.23V0H0Z" transform="translate(-486.76 -243.842)"/></clipPath><clipPath id="clipPath209-9" clipPathUnits="userSpaceOnUse"><path id="path209-0" d="M0 422.39h838.23V0H0Z" transform="translate(-505.924 -228.523)"/></clipPath><clipPath id="clipPath211-3" clipPathUnits="userSpaceOnUse"><path id="path211-8" d="M0 422.39h838.23V0H0Z" transform="translate(-497.14 -229.97)"/></clipPath><clipPath id="clipPath213-3" clipPathUnits="userSpaceOnUse"><path id="path213-1" d="M0 422.39h838.23V0H0Z" transform="translate(-494.928 -229.97)"/></clipPath><clipPath id="clipPath215-0" clipPathUnits="userSpaceOnUse"><path id="path215-0" d="M0 422.39h838.23V0H0Z" transform="translate(-499.351 -229.97)"/></clipPath><clipPath id="clipPath217-8" clipPathUnits="userSpaceOnUse"><path id="path217-0" d="M0 422.39h838.23V0H0Z" transform="translate(-483.857 -216.386)"/></clipPath><clipPath id="clipPath219-4" clipPathUnits="userSpaceOnUse"><path id="path219-7" d="M0 422.39h838.23V0H0Z" transform="translate(-501.555 -220.518)"/></clipPath><clipPath id="clipPath221-6" clipPathUnits="userSpaceOnUse"><path id="path221-1" d="M0 422.39h838.23V0H0Z" transform="translate(-505.11 -217.936)"/></clipPath><clipPath id="clipPath223-6" clipPathUnits="userSpaceOnUse"><path id="path223-1" d="M0 422.39h838.23V0H0Z" transform="translate(-492.361 -217.383)"/></clipPath></defs><g id="g358" class="eit-icon" transform="translate(-629.26 -212.314)"><path id="path194-4" d="M0 0a2.16 2.16 0 1 1 0-4.33A2.16 2.16 0 0 1 0 0m0-1a1.17 1.17 0 1 0 0-2.33A1.17 1.17 0 0 0 0-1" clip-path="url(#clipPath195-7)" style="fill:currentColor;fill-opacity:1;fill-rule:nonzero;stroke:none" transform="matrix(1.33333 0 0 -1.33333 662.853 229.754)"/><path id="path196-9" d="m0 0 1.04 9.07a11.2 11.2 0 0 1-2.13 7.96l-2.84 3.82a.8.8 0 0 1-1.29 0l-2.83-3.82a11.2 11.2 0 0 1-2.14-7.96L-9.15 0Z" clip-path="url(#clipPath197-8)" style="fill:none;stroke:currentColor;stroke-width:1;stroke-linecap:butt;stroke-linejoin:miter;stroke-miterlimit:10;stroke-dasharray:none;stroke-opacity:1" transform="matrix(1.33333 0 0 -1.33333 668.95 250.605)"/><path id="path198-6" d="M0 0v-4.25" clip-path="url(#clipPath199-2)" style="fill:none;stroke:currentColor;stroke-width:1;stroke-linecap:butt;stroke-linejoin:miter;stroke-miterlimit:10;stroke-dasharray:none;stroke-opacity:1" transform="matrix(1.33333 0 0 -1.33333 662.853 240.48)"/><path id="path200-4" d="M0 0h6.04c.45 0 .79.4.71.85l-.33 1.9h-6.8L-.7.86A.72.72 0 0 1 0 0Z" clip-path="url(#clipPath201-0)" style="fill:none;stroke:currentColor;stroke-width:1;stroke-linecap:butt;stroke-linejoin:miter;stroke-miterlimit:10;stroke-dasharray:none;stroke-opacity:1" transform="matrix(1.33333 0 0 -1.33333 658.824 254.283)"/><path id="path202-2" d="m0 0-2.74-2.27a1.5 1.5 0 0 1-.55-1.16v-4.41c0-.26.28-.43.5-.3l3.5 1.92" clip-path="url(#clipPath203-0)" style="fill:none;stroke:currentColor;stroke-width:1;stroke-linecap:butt;stroke-linejoin:miter;stroke-miterlimit:10;stroke-dasharray:none;stroke-opacity:1" transform="matrix(1.33333 0 0 -1.33333 655.745 241.482)"/><path id="path204-8" d="m0 0 2.74-2.27c.35-.28.55-.71.55-1.16v-4.41a.34.34 0 0 0-.5-.3l-3.5 1.92" clip-path="url(#clipPath205-6)" style="fill:none;stroke:currentColor;stroke-width:1;stroke-linecap:butt;stroke-linejoin:miter;stroke-miterlimit:10;stroke-dasharray:none;stroke-opacity:1" transform="matrix(1.33333 0 0 -1.33333 669.957 241.482)"/><path id="path206-4" d="M0 0a.94.94 0 1 0-1.88 0A.94.94 0 0 0 0 0Z" clip-path="url(#clipPath207-2)" style="fill:none;stroke:currentColor;stroke-width:1;stroke-linecap:butt;stroke-linejoin:miter;stroke-miterlimit:10;stroke-dasharray:none;stroke-opacity:1" transform="matrix(1.33333 0 0 -1.33333 649.013 238.064)"/><path id="path208-4" d="M0 0a.94.94 0 1 0-1.88 0A.94.94 0 0 0 0 0Z" clip-path="url(#clipPath209-9)" style="fill:none;stroke:currentColor;stroke-width:1;stroke-linecap:butt;stroke-linejoin:miter;stroke-miterlimit:10;stroke-dasharray:none;stroke-opacity:1" transform="matrix(1.33333 0 0 -1.33333 674.565 258.489)"/><path id="path210-9" d="M0 0v-4.68" clip-path="url(#clipPath211-3)" style="fill:none;stroke:currentColor;stroke-width:1;stroke-linecap:butt;stroke-linejoin:miter;stroke-miterlimit:10;stroke-dasharray:none;stroke-opacity:1" transform="matrix(1.33333 0 0 -1.33333 662.853 256.56)"/><path id="path212-8" d="M0 0v-3.15" clip-path="url(#clipPath213-3)" style="fill:none;stroke:currentColor;stroke-width:1;stroke-linecap:butt;stroke-linejoin:miter;stroke-miterlimit:10;stroke-dasharray:none;stroke-opacity:1" transform="matrix(1.33333 0 0 -1.33333 659.903 256.56)"/><path id="path214-1" d="M0 0v-3.15" clip-path="url(#clipPath215-0)" style="fill:none;stroke:currentColor;stroke-width:1;stroke-linecap:butt;stroke-linejoin:miter;stroke-miterlimit:10;stroke-dasharray:none;stroke-opacity:1" transform="matrix(1.33333 0 0 -1.33333 665.802 256.56)"/><path id="path216-0" d="M0 0a4.83 4.83 0 0 0 8.24 3.34" clip-path="url(#clipPath217-8)" style="fill:none;stroke:currentColor;stroke-width:1;stroke-linecap:butt;stroke-linejoin:miter;stroke-miterlimit:10;stroke-dasharray:none;stroke-opacity:1" transform="matrix(1.33333 0 0 -1.33333 645.143 274.672)"/><path id="path218-3" d="M0 0a2.8 2.8 0 0 0 5.36-1.35" clip-path="url(#clipPath219-4)" style="fill:none;stroke:currentColor;stroke-width:1;stroke-linecap:butt;stroke-linejoin:miter;stroke-miterlimit:10;stroke-dasharray:none;stroke-opacity:1" transform="matrix(1.33333 0 0 -1.33333 668.74 269.163)"/><path id="path220-7" d="M0 0a4.42 4.42 0 0 0 6.99-.46" clip-path="url(#clipPath221-6)" style="fill:none;stroke:currentColor;stroke-width:1;stroke-linecap:butt;stroke-linejoin:miter;stroke-miterlimit:10;stroke-dasharray:none;stroke-opacity:1" transform="matrix(1.33333 0 0 -1.33333 673.48 272.606)"/><path id="path222-4" d="M0 0a4.8 4.8 0 0 0 4.6 6.28A4.8 4.8 0 0 0 9.4.98" clip-path="url(#clipPath223-6)" style="fill:none;stroke:currentColor;stroke-width:1;stroke-linecap:butt;stroke-linejoin:miter;stroke-miterlimit:10;stroke-dasharray:none;stroke-opacity:1" transform="matrix(1.33333 0 0 -1.33333 656.482 273.343)"/><path id="path531" fill="none" stroke="currentColor" stroke-dasharray="none" stroke-linecap="butt" stroke-linejoin="miter" stroke-miterlimit="10" stroke-opacity="1" stroke-width="1" d="M0 0a25.12 25.12 0 1 0-50.24 0A25.12 25.12 0 0 0 0 0Z" class="eit-icon-circle" clip-path="url(#a)" transform="matrix(1.33333 0 0 -1.33333 696.914 246.474)"/></g></svg>