<svg xmlns="http://www.w3.org/2000/svg" viewBox="0 0 68.32 68.32"><defs><clipPath id="a" clipPathUnits="userSpaceOnUse"><path d="M-142.34 59.2h838.22v-422.4h-838.22Z"/></clipPath><clipPath id="b" clipPathUnits="userSpaceOnUse"><path d="M-127.95 48.1h838.22v-422.39h-838.22Z"/></clipPath><clipPath id="c" clipPathUnits="userSpaceOnUse"><path d="M-127.95 48.1h838.22v-422.39h-838.22Z"/></clipPath><clipPath id="d" clipPathUnits="userSpaceOnUse"><path d="M-111.01 51.44H727.2v-422.39H-111Z"/></clipPath><clipPath id="e" clipPathUnits="userSpaceOnUse"><path d="M-127.1 58.43h838.23v-422.39H-127.1Z"/></clipPath></defs><g fill="none" stroke="currentColor" stroke-miterlimit="10" class="eit-icon"><path d="M0 0a25.12 25.12 0 1 0-50.24 0A25.12 25.12 0 0 0 0 0Z" class="eit-icon-circle" clip-path="url(#a)" transform="matrix(1.33333 0 0 -1.33333 67.653 34.16)"/><path stroke-linecap="round" stroke-linejoin="round" d="M0 0s-13.1.18-18.68-4.53-4.11-11.57-.76-15.01 11.33-5.27 16.4 2.87C-.32-12.05.1-3.71 0 0" clip-path="url(#b)" transform="matrix(1.33333 0 0 -1.33333 48.468 19.375)"/><path stroke-linecap="round" stroke-linejoin="round" d="m0 0-21.95-22.05" clip-path="url(#c)" transform="matrix(1.33333 0 0 -1.33333 48.468 19.375)"/><path stroke-linecap="round" stroke-linejoin="round" d="m0 0 .38-13.3 13.28-.4" clip-path="url(#d)" transform="matrix(1.33333 0 0 -1.33333 25.882 23.828)"/><path stroke-linecap="round" stroke-linejoin="round" d="m0 0-9.13.3-.27 9.01" clip-path="url(#e)" transform="matrix(1.33333 0 0 -1.33333 47.327 33.143)"/></g></svg>