<svg xmlns="http://www.w3.org/2000/svg" viewBox="0 0 68.32 68.32"><defs><clipPath id="a" clipPathUnits="userSpaceOnUse"><path d="M-800.14 365.18H38.08V-57.2h-838.22Z"/></clipPath><clipPath id="b" clipPathUnits="userSpaceOnUse"><path d="M-767.02 370.68H71.2v-422.4h-838.22Z"/></clipPath><clipPath id="c" clipPathUnits="userSpaceOnUse"><path d="M0 422.39h838.23V0H0Z"/></clipPath><clipPath id="d" clipPathUnits="userSpaceOnUse"><path d="M-778.6 382.61H59.63V-39.78H-778.6Z"/></clipPath><clipPath id="e" clipPathUnits="userSpaceOnUse"><path d="M-777.8 370.68H60.41v-422.4h-838.23Z"/></clipPath><clipPath id="f" clipPathUnits="userSpaceOnUse"><path d="M-776.48 362.89H61.75v-422.4h-838.23Z"/></clipPath><clipPath id="g" clipPathUnits="userSpaceOnUse"><path d="M-762.97 362.4H75.26V-60h-838.23Z"/></clipPath><clipPath id="h" clipPathUnits="userSpaceOnUse"><path d="M-789.95 362.4H48.28V-60h-838.23Z"/></clipPath><clipPath id="i" clipPathUnits="userSpaceOnUse"><path d="M-785.23 351.99H53v-422.4h-838.23Z"/></clipPath><clipPath id="j" clipPathUnits="userSpaceOnUse"><path d="M-766.15 354.71H72.08V-67.68h-838.23Z"/></clipPath><clipPath id="k" clipPathUnits="userSpaceOnUse"><path d="M-774.53 348H63.7V-74.4h-838.23Z"/></clipPath></defs><g class="eit-icon"><path fill="none" stroke="currentColor" stroke-miterlimit="10" d="M0 0a25.12 25.12 0 1 0-50.24 0A25.12 25.12 0 0 0 0 0Z" class="eit-icon-circle" clip-path="url(#a)" transform="matrix(1.33333 0 0 -1.33333 67.653 34.16)"/><path fill="none" stroke="currentColor" stroke-linecap="round" stroke-linejoin="round" stroke-miterlimit="10" d="M0 0v8.99c0 4.4 3.6 8 8 8s8-3.6 8-8V0" clip-path="url(#b)" transform="matrix(1.33333 0 0 -1.33333 23.493 41.485)"/><path fill="none" stroke="currentColor" stroke-linecap="round" stroke-linejoin="round" stroke-miterlimit="10" d="M783.03 45.2h-16v6.51h16z" clip-path="url(#c)" transform="matrix(1.33333 0 0 -1.33333 -999.207 110.436)"/><path fill="none" stroke="currentColor" stroke-linecap="round" stroke-linejoin="round" stroke-miterlimit="10" d="M0 0v5.43h-7.15V0" clip-path="url(#d)" transform="matrix(1.33333 0 0 -1.33333 38.924 57.398)"/><path fill="none" stroke="currentColor" stroke-linecap="round" stroke-linejoin="round" stroke-miterlimit="10" d="M0 0v5.79h-5.57V0" clip-path="url(#e)" transform="matrix(1.33333 0 0 -1.33333 37.872 41.485)"/><path fill="none" stroke="currentColor" stroke-linecap="round" stroke-linejoin="round" stroke-miterlimit="10" d="M0 0h-2.92" clip-path="url(#f)" transform="matrix(1.33333 0 0 -1.33333 36.104 31.101)"/><path fill="currentColor" d="M0 0h-2.87a.5.5 0 0 1-.49-.5c0-.27.22-.49.5-.49H0c.27 0 .5.22.5.5A.5.5 0 0 1 0 0" clip-path="url(#g)" transform="matrix(1.33333 0 0 -1.33333 18.087 30.443)"/><path fill="currentColor" d="M0 0h-2.87a.5.5 0 1 1 0-.99H0A.5.5 0 0 1 0 0" clip-path="url(#h)" transform="matrix(1.33333 0 0 -1.33333 54.056 30.443)"/><path fill="currentColor" d="m0 0-2.03-2.03a.49.49 0 0 1 .35-.84.5.5 0 0 1 .35.14L.7-.7A.5.5 0 1 1 0 0" clip-path="url(#i)" transform="matrix(1.33333 0 0 -1.33333 47.763 16.568)"/><path fill="currentColor" d="M0 0a.5.5 0 0 1 .7 0C.89.2.89.5.7.7l-2.03 2.03c-.2.19-.5.19-.7 0a.5.5 0 0 1 0-.7z" clip-path="url(#j)" transform="matrix(1.33333 0 0 -1.33333 22.329 20.2)"/><path fill="currentColor" d="M0 0v-2.87c0-.27.22-.49.5-.49a.5.5 0 0 1 .49.5V0A.5.5 0 1 1 0 0" clip-path="url(#k)" transform="matrix(1.33333 0 0 -1.33333 33.502 11.243)"/></g></svg>