<svg xmlns="http://www.w3.org/2000/svg" viewBox="0 0 68.32 68.32"><defs><clipPath id="a" clipPathUnits="userSpaceOnUse"><path d="M-202.14 59.33h838.23v-422.39h-838.23Z"/></clipPath><clipPath id="b" clipPathUnits="userSpaceOnUse"><path d="M-177.02 47.96h838.23v-422.39h-838.23Z"/></clipPath><clipPath id="c" clipPathUnits="userSpaceOnUse"><path d="M-180.19 68.62h838.23v-422.4h-838.23Z"/></clipPath><clipPath id="d" clipPathUnits="userSpaceOnUse"><path d="M-180.19 70.88h838.23V-351.5h-838.23Z"/></clipPath><clipPath id="e" clipPathUnits="userSpaceOnUse"><path d="M-180.19 73.15h838.23v-422.4h-838.23Z"/></clipPath><clipPath id="f" clipPathUnits="userSpaceOnUse"><path d="M-178.73 75.41H659.5v-422.39h-838.23Z"/></clipPath><clipPath id="g" clipPathUnits="userSpaceOnUse"><path d="M-164.97 57.16h838.23v-422.4h-838.23Z"/></clipPath><clipPath id="h" clipPathUnits="userSpaceOnUse"><path d="M-191.94 57.16h838.23v-422.4h-838.23Z"/></clipPath><clipPath id="i" clipPathUnits="userSpaceOnUse"><path d="M-168.15 65.83h838.23v-422.4h-838.23Z"/></clipPath><clipPath id="j" clipPathUnits="userSpaceOnUse"><path d="M-187.22 46.75H651v-422.39h-838.23Z"/></clipPath><clipPath id="k" clipPathUnits="userSpaceOnUse"><path d="M-185.9 65.83h838.24v-422.4H-185.9Z"/></clipPath><clipPath id="l" clipPathUnits="userSpaceOnUse"><path d="M-168.15 49.48h838.23v-422.4h-838.23Z"/></clipPath><clipPath id="m" clipPathUnits="userSpaceOnUse"><path d="M-176.53 42.76H661.7v-422.4h-838.23Z"/></clipPath></defs><g class="eit-icon"><path fill="none" stroke="currentColor" stroke-miterlimit="10" d="M0 0a25.12 25.12 0 1 0-50.24 0A25.12 25.12 0 0 0 0 0Z" class="eit-icon-circle" clip-path="url(#a)" transform="matrix(1.33333 0 0 -1.33333 67.653 34.16)"/><path fill="currentColor" d="M0 0a9.7 9.7 0 0 1 0-19.37A9.7 9.7 0 0 1 0 0m.5-18.36v8.18h2.35a.5.5 0 0 1 0 .99h-5.7a.5.5 0 0 1 0-.99H-.5v-8.18a8.7 8.7 0 1 0 .98 0" clip-path="url(#b)" transform="matrix(1.33333 0 0 -1.33333 34.16 19.003)"/><path fill="currentColor" d="M0 0h-6.33a.5.5 0 1 1 0-.99H0A.5.5 0 0 1 0 0" clip-path="url(#c)" transform="matrix(1.33333 0 0 -1.33333 38.38 46.54)"/><path fill="currentColor" d="M0 0h-6.33a.5.5 0 0 1 0-.99H0A.5.5 0 0 1 0 0" clip-path="url(#d)" transform="matrix(1.33333 0 0 -1.33333 38.38 49.56)"/><path fill="currentColor" d="M0 0h-6.33a.5.5 0 1 1 0-.99H0A.5.5 0 0 1 0 0" clip-path="url(#e)" transform="matrix(1.33333 0 0 -1.33333 38.38 52.58)"/><path fill="currentColor" d="M0 0h-3.41a.5.5 0 1 1 0-.99H0A.5.5 0 1 1 0 0" clip-path="url(#f)" transform="matrix(1.33333 0 0 -1.33333 36.436 55.601)"/><path fill="currentColor" d="M0 0h-2.87a.5.5 0 1 1 0-.99H0A.5.5 0 0 1 0 0" clip-path="url(#g)" transform="matrix(1.33333 0 0 -1.33333 18.088 31.26)"/><path fill="currentColor" d="M0 0h-2.87a.5.5 0 1 1 0-.99H0A.5.5 0 0 1 0 0" clip-path="url(#h)" transform="matrix(1.33333 0 0 -1.33333 54.056 31.26)"/><path fill="currentColor" d="m0 0-2.03-2.03a.5.5 0 0 1 .35-.84.5.5 0 0 1 .35.14L.7-.7A.5.5 0 1 1 0 0" clip-path="url(#i)" transform="matrix(1.33333 0 0 -1.33333 22.33 42.818)"/><path fill="currentColor" d="m0 0-2.03-2.03a.5.5 0 0 1 .35-.84.5.5 0 0 1 .35.14L.7-.7A.5.5 0 1 1 0 0" clip-path="url(#j)" transform="matrix(1.33333 0 0 -1.33333 47.763 17.385)"/><path fill="currentColor" d="M0 0a.5.5 0 1 1-.7-.7l2.03-2.02a.5.5 0 0 1 .7.7z" clip-path="url(#k)" transform="matrix(1.33333 0 0 -1.33333 45.99 42.818)"/><path fill="currentColor" d="M0 0q.15-.15.35-.14T.7 0C.89.2.89.5.7.7l-2.03 2.03a.5.5 0 1 1-.7-.7z" clip-path="url(#l)" transform="matrix(1.33333 0 0 -1.33333 22.33 21.017)"/><path fill="currentColor" d="M0 0v-2.87a.5.5 0 1 1 .99 0V0A.5.5 0 1 1 0 0" clip-path="url(#m)" transform="matrix(1.33333 0 0 -1.33333 33.502 12.06)"/></g></svg>