<svg xmlns="http://www.w3.org/2000/svg" viewBox="0 0 68.32 68.32"><defs><clipPath id="a" clipPathUnits="userSpaceOnUse"><path d="M-261.94 181.24H576.3v-422.4h-838.23Z"/></clipPath><clipPath id="c" clipPathUnits="userSpaceOnUse"><path d="M-225.73 166.64h838.22v-422.4h-838.22Z"/></clipPath><clipPath id="d" clipPathUnits="userSpaceOnUse"><path d="M-247.9 195.84h838.23v-422.4H-247.9Z"/></clipPath><clipPath id="e" clipPathUnits="userSpaceOnUse"><path d="M-247.9 188.8h838.23v-422.39H-247.9Z"/></clipPath><clipPath id="f" clipPathUnits="userSpaceOnUse"><path d="M-225.73 173.67h838.22v-422.39h-838.22Z"/></clipPath></defs><g fill="none" stroke="currentColor" stroke-miterlimit="10" class="eit-icon"><path d="M0 0a25.12 25.12 0 1 0-50.24 0A25.12 25.12 0 0 0 0 0Z" class="eit-icon-circle" clip-path="url(#a)" transform="matrix(1.33333 0 0 -1.33333 67.653 34.16)"/><path stroke-linecap="round" stroke-linejoin="round" d="M0 0v-7.04h7.04" clip-path="url(#c)" transform="matrix(1.33333 0 0 -1.33333 19.383 14.69)"/><path stroke-linecap="round" stroke-linejoin="round" d="M0 0v7.04h-7.04" clip-path="url(#d)" transform="matrix(1.33333 0 0 -1.33333 48.938 53.629)"/><path stroke-linecap="round" stroke-linejoin="round" d="m0 0-1.75-1.77a13.2 13.2 0 0 0-21.99 13.1" clip-path="url(#e)" transform="matrix(1.33333 0 0 -1.33333 48.938 44.246)"/><path stroke-linecap="round" stroke-linejoin="round" d="m0 0 1.75 1.77a13.2 13.2 0 0 0 21.99-13.1" clip-path="url(#f)" transform="matrix(1.33333 0 0 -1.33333 19.383 24.074)"/></g></svg>