<svg xmlns="http://www.w3.org/2000/svg" id="svg536" viewBox="0 0 68.32 68.32"><defs id="defs530"><clipPath id="a" clipPathUnits="userSpaceOnUse"><path id="path23" d="M0 422.39h838.23V0H0Z" transform="translate(-261.936 -241.153)"/></clipPath><clipPath id="clipPath4-8" clipPathUnits="userSpaceOnUse"><path id="path4-4" d="M0 422.39h838.23V0H0Z" transform="translate(-189.57 -309.87)"/></clipPath><clipPath id="clipPath6-8" clipPathUnits="userSpaceOnUse"><path id="path6-0" d="M0 422.39h838.23V0H0Z" transform="translate(-182.302 -293.638)"/></clipPath><clipPath id="clipPath8-4" clipPathUnits="userSpaceOnUse"><path id="path8-6" d="M0 422.39h838.23V0H0Z" transform="translate(-186.313 -302.663)"/></clipPath><clipPath id="clipPath10-0" clipPathUnits="userSpaceOnUse"><path id="path10-3" d="M0 422.39h838.23V0H0Z" transform="translate(-189.193 -289.94)"/></clipPath><clipPath id="clipPath12-2" clipPathUnits="userSpaceOnUse"><path id="path12-6" d="M0 422.39h838.23V0H0Z" transform="translate(-192.777 -288.077)"/></clipPath><clipPath id="clipPath14-9" clipPathUnits="userSpaceOnUse"><path id="path14-4" d="M0 422.39h838.23V0H0Z" transform="translate(-181.401 -299.22)"/></clipPath><clipPath id="clipPath16-1" clipPathUnits="userSpaceOnUse"><path id="path16-3" d="M0 422.39h838.23V0H0Z" transform="translate(-189.434 -302.072)"/></clipPath><clipPath id="clipPath18-7" clipPathUnits="userSpaceOnUse"><path id="path18-8" d="M0 422.39h838.23V0H0Z" transform="translate(-193.54 -294.43)"/></clipPath><clipPath id="clipPath20-8" clipPathUnits="userSpaceOnUse"><path id="path20-3" d="M0 422.39h838.23V0H0Z" transform="translate(-186.357 -294.733)"/></clipPath><clipPath id="clipPath22-8" clipPathUnits="userSpaceOnUse"><path id="path22-1" d="M0 422.39h838.23V0H0Z" transform="translate(-196.044 -301.438)"/></clipPath><clipPath id="clipPath24" clipPathUnits="userSpaceOnUse"><path id="path24-5" d="M0 422.39h838.23V0H0Z" transform="translate(-198.431 -298.772)"/></clipPath><clipPath id="clipPath26-3" clipPathUnits="userSpaceOnUse"><path id="path26-5" d="M0 422.39h838.23V0H0Z" transform="translate(-207.918 -301.207)"/></clipPath><clipPath id="clipPath28-4" clipPathUnits="userSpaceOnUse"><path id="path28-3" d="M0 422.39h838.23V0H0Z" transform="translate(-202.143 -307.451)"/></clipPath><clipPath id="clipPath30-6" clipPathUnits="userSpaceOnUse"><path id="path30-5" d="M0 422.39h838.23V0H0Z" transform="translate(-198.431 -295.982)"/></clipPath><clipPath id="clipPath32-9" clipPathUnits="userSpaceOnUse"><path id="path32-5" d="M0 422.39h838.23V0H0Z" transform="translate(-207.918 -293.546)"/></clipPath><clipPath id="clipPath34-4" clipPathUnits="userSpaceOnUse"><path id="path34-9" d="M0 422.39h838.23V0H0Z" transform="translate(-198.431 -301.438)"/></clipPath><clipPath id="clipPath36-1" clipPathUnits="userSpaceOnUse"><path id="path36-7" d="M0 422.39h838.23V0H0Z" transform="translate(-202.143 -287.302)"/></clipPath><clipPath id="clipPath38-5" clipPathUnits="userSpaceOnUse"><path id="path38-5" d="M0 422.39h838.23V0H0Z" transform="translate(-198.431 -293.315)"/></clipPath></defs><path id="path531" fill="none" stroke="currentColor" stroke-dasharray="none" stroke-linecap="butt" stroke-linejoin="miter" stroke-miterlimit="10" stroke-opacity="1" stroke-width="1" d="M0 0a25.12 25.12 0 1 0-50.24 0A25.12 25.12 0 0 0 0 0Z" class="eit-icon-circle" clip-path="url(#a)" transform="matrix(1.33333 0 0 -1.33333 67.653 34.16)"/><g id="g353" class="eit-icon" style="fill:none" transform="translate(-224.484 -132.525)"><path id="path3-4" d="M0 0a3.13 3.13 0 0 0 6.06-1.1v-22.78A3.13 3.13 0 0 0 .9-26.26" clip-path="url(#clipPath4-8)" style="fill:none;stroke:currentColor;stroke-width:1;stroke-linecap:butt;stroke-linejoin:miter;stroke-miterlimit:10;stroke-dasharray:none;stroke-opacity:1" transform="matrix(1.33333 0 0 -1.33333 252.76 150.028)"/><path id="path5-1" d="M0 0a3.13 3.13 0 1 0 3.1 5.22" clip-path="url(#clipPath6-8)" style="fill:none;stroke:currentColor;stroke-width:1;stroke-linecap:butt;stroke-linejoin:miter;stroke-miterlimit:10;stroke-dasharray:none;stroke-opacity:1" transform="matrix(1.33333 0 0 -1.33333 243.069 171.67)"/><path id="path7-8" d="M0 0a3.99 3.99 0 1 0 5.17 3.8" clip-path="url(#clipPath8-4)" style="fill:none;stroke:currentColor;stroke-width:1;stroke-linecap:butt;stroke-linejoin:miter;stroke-miterlimit:10;stroke-dasharray:none;stroke-opacity:1" transform="matrix(1.33333 0 0 -1.33333 248.418 159.636)"/><path id="path9-8" d="M0 0a3.99 3.99 0 1 0-6.9 3.7" clip-path="url(#clipPath10-0)" style="fill:none;stroke:currentColor;stroke-width:1;stroke-linecap:butt;stroke-linejoin:miter;stroke-miterlimit:10;stroke-dasharray:none;stroke-opacity:1" transform="matrix(1.33333 0 0 -1.33333 252.258 176.6)"/><path id="path11-3" d="M0 0q.1-.45.11-.95a3.98 3.98 0 1 0-7.97 0" clip-path="url(#clipPath12-2)" style="fill:none;stroke:currentColor;stroke-width:1;stroke-linecap:butt;stroke-linejoin:miter;stroke-miterlimit:10;stroke-dasharray:none;stroke-opacity:1" transform="matrix(1.33333 0 0 -1.33333 257.036 179.084)"/><path id="path13-5" d="M0 0a3.97 3.97 0 0 0 2.43 5.7" clip-path="url(#clipPath14-9)" style="fill:none;stroke:currentColor;stroke-width:1;stroke-linecap:butt;stroke-linejoin:miter;stroke-miterlimit:10;stroke-dasharray:none;stroke-opacity:1" transform="matrix(1.33333 0 0 -1.33333 241.868 164.226)"/><path id="path15-2" d="M0 0c1.13 0 2.05-.92 2.05-2.05" clip-path="url(#clipPath16-1)" style="fill:none;stroke:currentColor;stroke-width:1;stroke-linecap:butt;stroke-linejoin:miter;stroke-miterlimit:10;stroke-dasharray:none;stroke-opacity:1" transform="matrix(1.33333 0 0 -1.33333 252.578 160.424)"/><path id="path17-2" d="M0 0c-1.13 0-2.05.92-2.05 2.05" clip-path="url(#clipPath18-7)" style="fill:none;stroke:currentColor;stroke-width:1;stroke-linecap:butt;stroke-linejoin:miter;stroke-miterlimit:10;stroke-dasharray:none;stroke-opacity:1" transform="matrix(1.33333 0 0 -1.33333 258.053 170.614)"/><path id="path19-6" d="M0 0a2.84 2.84 0 0 0 2.84-2.84" clip-path="url(#clipPath20-8)" style="fill:none;stroke:currentColor;stroke-width:1;stroke-linecap:butt;stroke-linejoin:miter;stroke-miterlimit:10;stroke-dasharray:none;stroke-opacity:1" transform="matrix(1.33333 0 0 -1.33333 248.476 170.209)"/><path id="path21-6" d="M0 0h2.39v-8.12H0" clip-path="url(#clipPath22-8)" style="fill:none;stroke:currentColor;stroke-width:1;stroke-linecap:butt;stroke-linejoin:miter;stroke-miterlimit:10;stroke-dasharray:none;stroke-opacity:1" transform="matrix(1.33333 0 0 -1.33333 261.392 161.269)"/><path id="path23-7" d="M0 0h2.5l2.44 2.44h1.47" clip-path="url(#clipPath24)" style="fill:none;stroke:currentColor;stroke-width:1;stroke-linecap:butt;stroke-linejoin:miter;stroke-miterlimit:10;stroke-dasharray:none;stroke-opacity:1" transform="matrix(1.33333 0 0 -1.33333 264.575 164.825)"/><path id="path25-8" d="M0 0a1.47 1.47 0 1 0-2.95 0A1.47 1.47 0 0 0 0 0Z" clip-path="url(#clipPath26-3)" style="fill:none;stroke:currentColor;stroke-width:1;stroke-linecap:butt;stroke-linejoin:miter;stroke-miterlimit:10;stroke-dasharray:none;stroke-opacity:1" transform="matrix(1.33333 0 0 -1.33333 277.224 161.577)"/><path id="path27-4" d="M0 0a1.47 1.47 0 1 0-2.95 0A1.47 1.47 0 0 0 0 0Z" clip-path="url(#clipPath28-4)" style="fill:none;stroke:currentColor;stroke-width:1;stroke-linecap:butt;stroke-linejoin:miter;stroke-miterlimit:10;stroke-dasharray:none;stroke-opacity:1" transform="matrix(1.33333 0 0 -1.33333 269.523 153.252)"/><path id="path29-1" d="M0 0h2.5l2.44-2.44h1.47" clip-path="url(#clipPath30-6)" style="fill:none;stroke:currentColor;stroke-width:1;stroke-linecap:butt;stroke-linejoin:miter;stroke-miterlimit:10;stroke-dasharray:none;stroke-opacity:1" transform="matrix(1.33333 0 0 -1.33333 264.575 168.543)"/><path id="path31-7" d="M0 0a1.47 1.47 0 1 1-2.95 0A1.47 1.47 0 0 1 0 0Z" clip-path="url(#clipPath32-9)" style="fill:none;stroke:currentColor;stroke-width:1;stroke-linecap:butt;stroke-linejoin:miter;stroke-miterlimit:10;stroke-dasharray:none;stroke-opacity:1" transform="matrix(1.33333 0 0 -1.33333 277.224 171.792)"/><path id="path33-1" d="m0 0 2.24 2.24v2.3" clip-path="url(#clipPath34-4)" style="fill:none;stroke:currentColor;stroke-width:1;stroke-linecap:butt;stroke-linejoin:miter;stroke-miterlimit:10;stroke-dasharray:none;stroke-opacity:1" transform="matrix(1.33333 0 0 -1.33333 264.575 161.269)"/><path id="path35-8" d="M0 0a1.47 1.47 0 1 1-2.95 0A1.47 1.47 0 0 1 0 0Z" clip-path="url(#clipPath36-1)" style="fill:none;stroke:currentColor;stroke-width:1;stroke-linecap:butt;stroke-linejoin:miter;stroke-miterlimit:10;stroke-dasharray:none;stroke-opacity:1" transform="matrix(1.33333 0 0 -1.33333 269.523 180.118)"/><path id="path37-7" d="m0 0 2.24-2.24v-2.3" clip-path="url(#clipPath38-5)" style="fill:none;stroke:currentColor;stroke-width:1;stroke-linecap:butt;stroke-linejoin:miter;stroke-miterlimit:10;stroke-dasharray:none;stroke-opacity:1" transform="matrix(1.33333 0 0 -1.33333 264.575 172.1)"/></g></svg>