<svg xmlns="http://www.w3.org/2000/svg" viewBox="0 0 68.32 68.32"><defs><clipPath id="a" clipPathUnits="userSpaceOnUse"><path d="M-441.33 242.39H396.9V-180h-838.23Z"/></clipPath><clipPath id="b" clipPathUnits="userSpaceOnUse"><path d="M0 422.39h838.23V0H0Z"/></clipPath><clipPath id="c" clipPathUnits="userSpaceOnUse"><path d="M-402.98 232.96h838.23v-422.39h-838.23Z"/></clipPath></defs><g fill="none" stroke="currentColor" stroke-miterlimit="10" class="eit-icon"><path d="M0 0a25.12 25.12 0 1 0-50.24 0A25.12 25.12 0 0 0 0 0Z" class="eit-icon-circle" clip-path="url(#a)" transform="matrix(1.33333 0 0 -1.33333 67.653 34.16)"/><path stroke-linecap="round" stroke-linejoin="round" d="M402.98 189.43h26.46v-18.86h-26.46z" clip-path="url(#b)" transform="matrix(1.33333 0 0 -1.33333 -520.782 274.16)"/><path stroke-linecap="round" stroke-linejoin="round" d="m0 0 13.23-11.43L26.46 0" clip-path="url(#c)" transform="matrix(1.33333 0 0 -1.33333 16.519 21.592)"/></g></svg>