<svg xmlns="http://www.w3.org/2000/svg" viewBox="0 0 68.32 68.32"><defs><clipPath id="a" clipPathUnits="userSpaceOnUse"><path d="M-142.34 120.21h838.22v-422.39h-838.22Z"/></clipPath><clipPath id="b" clipPathUnits="userSpaceOnUse"><path d="M-107.74 121.13H730.5v-422.4h-838.23Z"/></clipPath><clipPath id="c" clipPathUnits="userSpaceOnUse"><path d="M-115.87 133.8h838.23v-422.4h-838.23Z"/></clipPath><clipPath id="d" clipPathUnits="userSpaceOnUse"><path d="M-121.15 121.13h838.23v-422.4h-838.23Z"/></clipPath><clipPath id="e" clipPathUnits="userSpaceOnUse"><path d="M-129.28 133.8h838.23v-422.4h-838.23Z"/></clipPath><clipPath id="f" clipPathUnits="userSpaceOnUse"><path d="M-114.44 106.06h838.22v-422.4h-838.22Z"/></clipPath><clipPath id="g" clipPathUnits="userSpaceOnUse"><path d="M-111.87 114.8h838.23v-422.38h-838.23Z"/></clipPath><clipPath id="h" clipPathUnits="userSpaceOnUse"><path d="M-105.16 129.88h838.22V-292.5h-838.22Z"/></clipPath></defs><g fill="none" stroke="currentColor" stroke-miterlimit="10"><path d="M0 0a25.12 25.12 0 1 0-50.24 0A25.12 25.12 0 0 0 0 0Z" class="eit-icon-circle" clip-path="url(#a)" transform="matrix(1.33333 0 0 -1.33333 67.653 34.16)"/><g stroke-linecap="round" stroke-linejoin="round" class="eit-icon"><path d="M0 0a2.78 2.78 0 1 0 5.56 0A2.78 2.78 0 0 0 0 0" clip-path="url(#b)" transform="matrix(1.33333 0 0 -1.33333 21.513 35.38)"/><path d="M0 0h-10.7v3.91A3.9 3.9 0 0 0-6.8 7.83h2.87A3.9 3.9 0 0 0 0 3.91Z" clip-path="url(#c)" transform="matrix(1.33333 0 0 -1.33333 32.356 52.267)"/><path d="M0 0a2.78 2.78 0 1 0 5.56 0A2.78 2.78 0 0 0 0 0" clip-path="url(#d)" transform="matrix(1.33333 0 0 -1.33333 39.395 35.38)"/><path d="M0 0h-10.7v3.91A3.9 3.9 0 0 0-6.8 7.83h2.87A3.9 3.9 0 0 0 0 3.91Z" clip-path="url(#e)" transform="matrix(1.33333 0 0 -1.33333 50.239 52.267)"/><path d="M0 0a2.78 2.78 0 1 0 5.56 0A2.78 2.78 0 0 0 0 0" clip-path="url(#f)" transform="matrix(1.33333 0 0 -1.33333 30.455 15.283)"/><path d="M0 0a3.9 3.9 0 0 0 3.92 3.92h2.87A3.9 3.9 0 0 0 10.7 0" clip-path="url(#g)" transform="matrix(1.33333 0 0 -1.33333 27.022 26.952)"/><path d="M0 0h-4.5l4 14.8h25.12l4-14.8h-4.5" clip-path="url(#h)" transform="matrix(1.33333 0 0 -1.33333 18.08 47.048)"/></g></g></svg>