<svg xmlns="http://www.w3.org/2000/svg" viewBox="0 0 68.32 68.319"><defs><clipPath id="a" clipPathUnits="userSpaceOnUse"><path d="M-501 365.25h838.23V-57.14h-838.22Z"/></clipPath><clipPath id="b" clipPathUnits="userSpaceOnUse"><path d="M-481.65 364.35h838.23V-58.04h-838.23Z"/></clipPath><clipPath id="c" clipPathUnits="userSpaceOnUse"><path d="M-481.65 361.14h838.23V-61.25h-838.23Z"/></clipPath><clipPath id="d" clipPathUnits="userSpaceOnUse"><path d="M-486.5 359.5h838.23V-62.89H-486.5Z"/></clipPath><clipPath id="e" clipPathUnits="userSpaceOnUse"><path d="M-489.01 357h838.23V-65.4h-838.23Z"/></clipPath><clipPath id="f" clipPathUnits="userSpaceOnUse"><path d="M-466.44 359.9h838.23V-62.5h-838.23Z"/></clipPath></defs><g fill="none" stroke="currentColor" stroke-miterlimit="10" class="eit-icon"><path d="M0 0a25.12 25.12 0 1 0-50.24 0A25.12 25.12 0 0 0 0 0Z" class="eit-icon-circle" clip-path="url(#a)" transform="matrix(1.33333 0 0 -1.33333 67.653 34.16)"/><path stroke-linecap="round" stroke-linejoin="round" d="M0 0v-9.41c-2.03 1.84-7.37 4.95-15.21 4.95h-5.35v8.92h5.35C-7.37 4.46-2.03 7.56 0 9.4z" clip-path="url(#b)" transform="matrix(1.33333 0 0 -1.33333 41.863 32.957)"/><path stroke-linecap="round" stroke-linejoin="round" d="M0 0a3.2 3.2 0 0 0 0-6.42" clip-path="url(#c)" transform="matrix(1.33333 0 0 -1.33333 41.863 28.678)"/><path stroke-linecap="round" stroke-linejoin="round" d="M0 0a6.84 6.84 0 0 0 0-9.7" clip-path="url(#d)" transform="matrix(1.33333 0 0 -1.33333 48.33 26.492)"/><path stroke-linecap="round" stroke-linejoin="round" d="M0 0a10.37 10.37 0 0 0 0-14.72" clip-path="url(#e)" transform="matrix(1.33333 0 0 -1.33333 51.674 23.146)"/><path stroke-linecap="round" stroke-linejoin="round" d="M0 0v-17.67" clip-path="url(#f)" transform="matrix(1.33333 0 0 -1.33333 21.58 27.015)"/></g></svg>