<svg xmlns="http://www.w3.org/2000/svg" viewBox="0 0 68.32 68.32"><defs><clipPath id="a" clipPathUnits="userSpaceOnUse"><path d="M-800.14 303.75H38.08v-422.39h-838.22Z"/></clipPath><clipPath id="b" clipPathUnits="userSpaceOnUse"><path d="M-764.82 305.68H73.41v-422.4h-838.23Z"/></clipPath><clipPath id="c" clipPathUnits="userSpaceOnUse"><path d="M-773.11 298.03H65.12v-422.4h-838.23Z"/></clipPath><clipPath id="d" clipPathUnits="userSpaceOnUse"><path d="M-781.58 297.8H56.65v-422.39h-838.23Z"/></clipPath></defs><g fill="none" stroke="currentColor" stroke-miterlimit="10" class="eit-icon"><path d="M0 0a25.12 25.12 0 1 0-50.24 0A25.12 25.12 0 0 0 0 0Z" class="eit-icon-circle" clip-path="url(#a)" transform="matrix(1.33333 0 0 -1.33333 67.653 34.16)"/><path stroke-linecap="round" stroke-linejoin="round" d="M0 0a11.42 11.42 0 0 0 8.47 17.3c6.9.77 12.74-4.61 12.74-11.36v-.69a17 17 0 0 1 1.56-6.64 1 1 0 0 0-.67-1.36l-1.86-.46.12-3.64a2.7 2.7 0 0 0-2.68-2.76h-4.3l-1.72-5.1L.73-11.68l.66 3.8C1.87-5.17 1.43-2.35 0 0" clip-path="url(#b)" transform="matrix(1.33333 0 0 -1.33333 20.55 36.729)"/><path stroke-linecap="round" stroke-linejoin="round" d="M0 0a2.39 2.39 0 1 0 3.38-3.38A2.39 2.39 0 0 0 0 0" clip-path="url(#c)" transform="matrix(1.33333 0 0 -1.33333 31.609 26.527)"/><path stroke-linecap="round" stroke-linejoin="round" d="m0 0-1.73 3-.77-.45a1.7 1.7 0 0 0-2.55 1.47v.9H-8.5v-.9a1.7 1.7 0 0 0-2.54-1.47l-.78.45-1.73-3 .78-.45a1.7 1.7 0 0 0 0-2.94l-.78-.44 1.73-3 .78.45A1.7 1.7 0 0 0-8.5-7.85v-.9h3.46v.9A1.7 1.7 0 0 0-2.5-6.38l.77-.45 1.73 3-.77.44a1.7 1.7 0 0 0 0 2.94z" clip-path="url(#d)" transform="matrix(1.33333 0 0 -1.33333 42.9 26.226)"/></g></svg>