<svg xmlns="http://www.w3.org/2000/svg" viewBox="0 0 68.32 68.32"><defs><clipPath id="a" clipPathUnits="userSpaceOnUse"><path d="M-501.12 120.08H337.1V-302.3h-838.23Z"/></clipPath><clipPath id="b" clipPathUnits="userSpaceOnUse"><path d="M-469.26 107.03h838.22v-422.39h-838.22Z"/></clipPath><clipPath id="c" clipPathUnits="userSpaceOnUse"><path d="M-477.54 109.4H360.7v-422.38h-838.23Z"/></clipPath><clipPath id="d" clipPathUnits="userSpaceOnUse"><path d="M-467.66 111.72h838.23v-422.4h-838.23Z"/></clipPath><clipPath id="e" clipPathUnits="userSpaceOnUse"><path d="M-467.66 128.45h838.23v-422.39h-838.23Z"/></clipPath><clipPath id="f" clipPathUnits="userSpaceOnUse"><path d="M-474.87 130.82h838.23v-422.4h-838.23Z"/></clipPath></defs><g class="eit-icon"><path fill="none" stroke="currentColor" stroke-miterlimit="10" d="M0 0a25.12 25.12 0 1 0-50.24 0A25.12 25.12 0 0 0 0 0Z" class="eit-icon-circle" clip-path="url(#a)" transform="matrix(1.33333 0 0 -1.33333 67.653 34.16)"/><path fill="none" stroke="currentColor" stroke-linecap="round" stroke-linejoin="round" stroke-miterlimit="10" d="M0 0h13.48c.88 0 1.6-.72 1.6-1.6v-22.9c0-.88-.72-1.6-1.6-1.6H0c-.89 0-1.6.72-1.6 1.6v22.9C-1.6-.72-.9 0 0 0" clip-path="url(#b)" transform="matrix(1.33333 0 0 -1.33333 25.174 16.759)"/><path fill="none" stroke="currentColor" stroke-linecap="round" stroke-linejoin="round" stroke-miterlimit="10" d="M0 0h-3.07" clip-path="url(#c)" transform="matrix(1.33333 0 0 -1.33333 36.207 19.921)"/><path fill="none" stroke="currentColor" stroke-linecap="round" stroke-linejoin="round" stroke-miterlimit="10" d="M0 0h16.69" clip-path="url(#d)" transform="matrix(1.33333 0 0 -1.33333 23.035 23.005)"/><path fill="none" stroke="currentColor" stroke-linecap="round" stroke-linejoin="round" stroke-miterlimit="10" d="M0 0h16.69" clip-path="url(#e)" transform="matrix(1.33333 0 0 -1.33333 23.035 45.316)"/><path fill="currentColor" d="M0 0a1.13 1.13 0 1 0 2.27 0A1.13 1.13 0 0 0 0 0" clip-path="url(#f)" transform="matrix(1.33333 0 0 -1.33333 32.65 48.472)"/></g></svg>