<svg xmlns="http://www.w3.org/2000/svg" viewBox="0 0 68.32 68.32"><defs><clipPath id="a" clipPathUnits="userSpaceOnUse"><path d="M-142.09 242.26h838.23v-422.4h-838.23Z"/></clipPath><clipPath id="b" clipPathUnits="userSpaceOnUse"><path d="M0 422.39h838.23V0H0Z"/></clipPath><clipPath id="c" clipPathUnits="userSpaceOnUse"><path d="M-116.97 235.55h838.23v-422.4h-838.23Z"/></clipPath><clipPath id="d" clipPathUnits="userSpaceOnUse"><path d="M-120 238.1h838.23v-422.38H-120Z"/></clipPath><clipPath id="e" clipPathUnits="userSpaceOnUse"><path d="M0 422.39h838.23V0H0Z"/></clipPath><clipPath id="f" clipPathUnits="userSpaceOnUse"><path d="M-128.38 249.42h838.23v-422.39h-838.23Z"/></clipPath><clipPath id="g" clipPathUnits="userSpaceOnUse"><path d="M-131.41 251.98H706.8V-170.4h-838.2Z"/></clipPath><clipPath id="h" clipPathUnits="userSpaceOnUse"><path d="M0 422.39h838.23V0H0Z"/></clipPath><clipPath id="i" clipPathUnits="userSpaceOnUse"><path d="M-105.4 249.42h838.23v-422.39H-105.4Z"/></clipPath><clipPath id="j" clipPathUnits="userSpaceOnUse"><path d="M-108.43 251.98H729.8V-170.4h-838.23Z"/></clipPath><clipPath id="k" clipPathUnits="userSpaceOnUse"><path d="M-106.42 234.27h838.23v-422.4h-838.23Z"/></clipPath><clipPath id="l" clipPathUnits="userSpaceOnUse"><path d="M-114.34 254.8h838.23v-422.4h-838.23Z"/></clipPath><clipPath id="m" clipPathUnits="userSpaceOnUse"><path d="M-118.27 254.8h838.23v-422.4h-838.23Z"/></clipPath><clipPath id="n" clipPathUnits="userSpaceOnUse"><path d="M-121.91 253.63H716.3v-422.4h-838.2Z"/></clipPath><clipPath id="o" clipPathUnits="userSpaceOnUse"><path d="M-110.77 253.63h838.23v-422.4h-838.23Z"/></clipPath><clipPath id="p" clipPathUnits="userSpaceOnUse"><path d="M-126.25 234.27h838.23v-422.4h-838.23Z"/></clipPath><clipPath id="q" clipPathUnits="userSpaceOnUse"><path d="M-104.59 237.23h838.23v-422.4H-104.6Z"/></clipPath><clipPath id="r" clipPathUnits="userSpaceOnUse"><path d="M-128.04 237.23h838.22v-422.4h-838.22Z"/></clipPath></defs><g class="eit-icon"><path fill="none" stroke="currentColor" stroke-miterlimit="10" d="M0 0a25.12 25.12 0 1 0-50.24 0A25.12 25.12 0 0 0 0 0Z" class="eit-icon-circle" clip-path="url(#a)" transform="matrix(1.33333 0 0 -1.33333 67.653 34.16)"/><path fill="none" stroke="currentColor" stroke-linecap="round" stroke-linejoin="round" stroke-miterlimit="10" d="M109.9 196h14.13v-9.16H109.9z" clip-path="url(#b)" transform="matrix(1.33333 0 0 -1.33333 -121.795 274.335)"/><path fill="none" stroke="currentColor" stroke-linecap="round" stroke-linejoin="round" stroke-miterlimit="10" d="M0 0v-2.56" clip-path="url(#c)" transform="matrix(1.33333 0 0 -1.33333 34.16 25.213)"/><path fill="none" stroke="currentColor" stroke-linecap="round" stroke-linejoin="round" stroke-miterlimit="10" d="M0 0h-6.07" clip-path="url(#d)" transform="matrix(1.33333 0 0 -1.33333 38.204 28.627)"/><path fill="none" stroke="currentColor" stroke-linecap="round" stroke-linejoin="round" stroke-miterlimit="10" d="M121.32 182.13h14.12v-9.16h-14.12z" clip-path="url(#e)" transform="matrix(1.33333 0 0 -1.33333 -121.795 274.335)"/><path fill="none" stroke="currentColor" stroke-linecap="round" stroke-linejoin="round" stroke-miterlimit="10" d="M0 0v-2.56" clip-path="url(#f)" transform="matrix(1.33333 0 0 -1.33333 49.381 43.71)"/><path fill="none" stroke="currentColor" stroke-linecap="round" stroke-linejoin="round" stroke-miterlimit="10" d="M0 0h-6.07" clip-path="url(#g)" transform="matrix(1.33333 0 0 -1.33333 53.425 47.124)"/><path fill="none" stroke="currentColor" stroke-linecap="round" stroke-linejoin="round" stroke-miterlimit="10" d="M98.34 182.13h14.12v-9.16H98.34Z" clip-path="url(#h)" transform="matrix(1.33333 0 0 -1.33333 -121.795 274.335)"/><path fill="none" stroke="currentColor" stroke-linecap="round" stroke-linejoin="round" stroke-miterlimit="10" d="M0 0v-2.56" clip-path="url(#i)" transform="matrix(1.33333 0 0 -1.33333 18.735 43.71)"/><path fill="none" stroke="currentColor" stroke-linecap="round" stroke-linejoin="round" stroke-miterlimit="10" d="M0 0h-6.07" clip-path="url(#j)" transform="matrix(1.33333 0 0 -1.33333 22.78 47.124)"/><path fill="currentColor" d="M0 0a.63.63 0 1 0 1.25 0A.63.63 0 0 0 0 0" clip-path="url(#k)" transform="matrix(1.33333 0 0 -1.33333 20.093 23.502)"/><path fill="currentColor" d="M0 0a.63.63 0 1 0 1.25 0A.63.63 0 0 0 0 0" clip-path="url(#l)" transform="matrix(1.33333 0 0 -1.33333 30.658 50.872)"/><path fill="currentColor" d="M0 0a.63.63 0 1 0 1.25 0A.63.63 0 0 0 0 0" clip-path="url(#m)" transform="matrix(1.33333 0 0 -1.33333 35.901 50.872)"/><path fill="currentColor" d="M0 0a.63.63 0 1 0 1.25 0A.63.63 0 0 0 0 0" clip-path="url(#n)" transform="matrix(1.33333 0 0 -1.33333 40.756 49.316)"/><path fill="currentColor" d="M0 0a.63.63 0 1 0 1.25 0A.63.63 0 0 0 0 0" clip-path="url(#o)" transform="matrix(1.33333 0 0 -1.33333 25.898 49.316)"/><path fill="currentColor" d="M0 0a.63.63 0 1 0 1.25 0A.63.63 0 0 0 0 0" clip-path="url(#p)" transform="matrix(1.33333 0 0 -1.33333 46.536 23.502)"/><path fill="currentColor" d="M0 0a.63.63 0 1 0 1.25 0A.63.63 0 0 0 0 0" clip-path="url(#q)" transform="matrix(1.33333 0 0 -1.33333 17.657 27.448)"/><path fill="currentColor" d="M0 0a.63.63 0 1 0 1.25 0A.63.63 0 0 0 0 0" clip-path="url(#r)" transform="matrix(1.33333 0 0 -1.33333 48.93 27.448)"/></g></svg>