<svg xmlns="http://www.w3.org/2000/svg" viewBox="0 0 68.32 68.32"><defs><clipPath id="a" clipPathUnits="userSpaceOnUse"><path d="M-201.88 303.28h838.23V-119.1h-838.23Z"/></clipPath><clipPath id="b" clipPathUnits="userSpaceOnUse"><path d="M-170.92 311.22h838.23v-422.39h-838.23Z"/></clipPath><clipPath id="c" clipPathUnits="userSpaceOnUse"><path d="M-160.07 297.38h838.22v-422.4h-838.22Z"/></clipPath><clipPath id="d" clipPathUnits="userSpaceOnUse"><path d="M-176.14 291.46H662.1v-422.4h-838.23Z"/></clipPath><clipPath id="e" clipPathUnits="userSpaceOnUse"><path d="M-172.85 294.9h838.23v-422.4h-838.23Z"/></clipPath><clipPath id="f" clipPathUnits="userSpaceOnUse"><path d="M-173.7 304.75h838.23v-422.39H-173.7Z"/></clipPath><clipPath id="g" clipPathUnits="userSpaceOnUse"><path d="M-177.05 308.16h838.22v-422.39h-838.22Z"/></clipPath><clipPath id="h" clipPathUnits="userSpaceOnUse"><path d="M-174.48 318.35h838.23v-422.4h-838.23Z"/></clipPath><clipPath id="i" clipPathUnits="userSpaceOnUse"><path d="M-164.78 295.18h838.23v-422.39h-838.23Z"/></clipPath><clipPath id="j" clipPathUnits="userSpaceOnUse"><path d="M-162.8 302.74h838.23v-422.4H-162.8Z"/></clipPath><clipPath id="k" clipPathUnits="userSpaceOnUse"><path d="M-180.1 289.81h838.24v-422.39H-180.1Z"/></clipPath><clipPath id="l" clipPathUnits="userSpaceOnUse"><path d="M-178.3 295.71h838.23v-422.39H-178.3Z"/></clipPath></defs><g fill="none" stroke="currentColor" stroke-miterlimit="10" class="eit-icon"><path d="M0 0a25.12 25.12 0 1 0-50.24 0A25.12 25.12 0 0 0 0 0Z" class="eit-icon-circle" clip-path="url(#a)" transform="matrix(1.33333 0 0 -1.33333 67.653 34.16)"/><path stroke-linecap="round" stroke-linejoin="round" d="M0 0a8.91 8.91 0 1 0 17.83 0A8.91 8.91 0 0 0 0 0" clip-path="url(#b)" transform="matrix(1.33333 0 0 -1.33333 26.369 44.745)"/><path stroke-linecap="round" stroke-linejoin="round" d="M0 0a6.63 6.63 0 1 0 13.26 0A6.63 6.63 0 0 0 0 0" clip-path="url(#c)" transform="matrix(1.33333 0 0 -1.33333 11.907 26.29)"/><path stroke-linecap="round" stroke-linejoin="round" stroke-width=".95" d="M0 0a5.43 5.43 0 1 0 10.86 0A5.43 5.43 0 0 0 0 0" clip-path="url(#d)" transform="matrix(1.33333 0 0 -1.33333 33.327 18.393)"/><path stroke-linecap="round" stroke-linejoin="round" d="m0 0 3.52 1.42" clip-path="url(#e)" transform="matrix(1.33333 0 0 -1.33333 28.944 22.975)"/><path stroke-linecap="round" stroke-linejoin="round" d="m0 0-2.43 2.57" clip-path="url(#f)" transform="matrix(1.33333 0 0 -1.33333 30.077 36.124)"/><path stroke-linecap="round" stroke-linejoin="round" d="M0 0a2.78 2.78 0 1 0 5.56 0A2.78 2.78 0 0 0 0 0" clip-path="url(#g)" transform="matrix(1.33333 0 0 -1.33333 34.55 40.665)"/><path stroke-linecap="round" stroke-linejoin="round" d="M0 0v1.44a3.9 3.9 0 0 0 3.92 3.92h2.87a3.9 3.9 0 0 0 3.92-3.92V0" clip-path="url(#h)" transform="matrix(1.33333 0 0 -1.33333 31.117 54.25)"/><path stroke-linecap="round" stroke-linejoin="round" d="M0 0a1.93 1.93 0 1 0 3.85 0A1.93 1.93 0 0 0 0 0" clip-path="url(#i)" transform="matrix(1.33333 0 0 -1.33333 18.18 23.358)"/><path stroke-linecap="round" stroke-linejoin="round" d="M0 0v1.46a2.57 2.57 0 0 0 2.57 2.57h2.67a2.57 2.57 0 0 0 2.57-2.57V0" clip-path="url(#j)" transform="matrix(1.33333 0 0 -1.33333 15.54 33.433)"/><path stroke-linecap="round" stroke-linejoin="round" stroke-width=".9" d="M0 0a1.49 1.49 0 1 0 2.98 0A1.49 1.49 0 0 0 0 0" clip-path="url(#k)" transform="matrix(1.33333 0 0 -1.33333 38.598 16.2)"/><path stroke-linecap="round" stroke-linejoin="round" stroke-width=".9" d="M0 0v.42a2.4 2.4 0 0 0 2.41 2.41h1.71A2.4 2.4 0 0 0 6.53.43v-.44" clip-path="url(#l)" transform="matrix(1.33333 0 0 -1.33333 36.213 24.065)"/></g></svg>