<svg xmlns="http://www.w3.org/2000/svg" viewBox="0 0 68.32 68.32"><defs><clipPath id="a" clipPathUnits="userSpaceOnUse"><path d="M-501.12 59.33H337.1v-422.39h-838.23Z"/></clipPath><clipPath id="b" clipPathUnits="userSpaceOnUse"><path d="M0 422.39h838.23V0H0Z"/></clipPath><clipPath id="c" clipPathUnits="userSpaceOnUse"><path d="M-473.22 54.26H365v-422.39h-838.22Z"/></clipPath><clipPath id="d" clipPathUnits="userSpaceOnUse"><path d="M-481.36 66.93h838.23v-422.4h-838.23Z"/></clipPath><clipPath id="e" clipPathUnits="userSpaceOnUse"><path d="M-467.04 59.35h838.23v-422.4h-838.23Z"/></clipPath><clipPath id="f" clipPathUnits="userSpaceOnUse"><path d="M-467.04 55.1h838.23v-422.38h-838.23Z"/></clipPath><clipPath id="g" clipPathUnits="userSpaceOnUse"><path d="M-467.04 50.86h838.23v-422.39h-838.23Z"/></clipPath><clipPath id="h" clipPathUnits="userSpaceOnUse"><path d="M-467.04 67.83h838.23v-422.4h-838.23Z"/></clipPath><clipPath id="i" clipPathUnits="userSpaceOnUse"><path d="M-467.04 63.59h838.23v-422.4h-838.23Z"/></clipPath></defs><g fill="none" stroke="currentColor" stroke-miterlimit="10" class="eit-icon"><path d="M0 0a25.12 25.12 0 1 0-50.24 0A25.12 25.12 0 0 0 0 0Z" class="eit-icon-circle" clip-path="url(#a)" transform="matrix(1.33333 0 0 -1.33333 67.653 34.16)"/><path stroke-linecap="round" stroke-linejoin="round" d="M465.5 375.66h21v-25.23h-21z" clip-path="url(#b)" transform="matrix(1.33333 0 0 -1.33333 -600.51 518.237)"/><path stroke-linecap="round" stroke-linejoin="round" d="M0 0a2.78 2.78 0 1 0 5.56 0A2.78 2.78 0 0 0 0 0" clip-path="url(#c)" transform="matrix(1.33333 0 0 -1.33333 30.455 27.402)"/><path stroke-linecap="round" stroke-linejoin="round" d="M0 0h-10.7v3.91a3.9 3.9 0 0 0 3.9 3.92h2.87A3.9 3.9 0 0 0 0 3.91Z" clip-path="url(#d)" transform="matrix(1.33333 0 0 -1.33333 41.298 44.29)"/><path stroke-linecap="round" stroke-linejoin="round" d="M0 0h-3.07" clip-path="url(#e)" transform="matrix(1.33333 0 0 -1.33333 22.213 34.179)"/><path stroke-linecap="round" stroke-linejoin="round" d="M0 0h-3.07" clip-path="url(#f)" transform="matrix(1.33333 0 0 -1.33333 22.213 28.524)"/><path stroke-linecap="round" stroke-linejoin="round" d="M0 0h-3.07" clip-path="url(#g)" transform="matrix(1.33333 0 0 -1.33333 22.213 22.87)"/><path stroke-linecap="round" stroke-linejoin="round" d="M0 0h-3.07" clip-path="url(#h)" transform="matrix(1.33333 0 0 -1.33333 22.213 45.49)"/><path stroke-linecap="round" stroke-linejoin="round" d="M0 0h-3.07" clip-path="url(#i)" transform="matrix(1.33333 0 0 -1.33333 22.213 39.835)"/></g></svg>