<svg xmlns="http://www.w3.org/2000/svg" viewBox="0 0 68.32 68.319"><defs><clipPath id="a" clipPathUnits="userSpaceOnUse"><path d="M-321.6 365.25h838.22V-57.14H-321.6Z"/></clipPath><clipPath id="b" clipPathUnits="userSpaceOnUse"><path d="M-300.47 352.64h838.23v-422.4h-838.23Z"/></clipPath><clipPath id="c" clipPathUnits="userSpaceOnUse"><path d="M-296.48 349.62h838.22V-72.77h-838.22Z"/></clipPath><clipPath id="d" clipPathUnits="userSpaceOnUse"><path d="M-302.54 359.76h838.23V-62.63h-838.23Z"/></clipPath><clipPath id="e" clipPathUnits="userSpaceOnUse"><path d="M-302.54 363.14h838.23V-59.25h-838.23Z"/></clipPath><clipPath id="f" clipPathUnits="userSpaceOnUse"><path d="M-302.54 366.52h838.23V-55.87h-838.23Z"/></clipPath><clipPath id="g" clipPathUnits="userSpaceOnUse"><path d="M-302.54 369.9h838.23V-52.5h-838.23Z"/></clipPath><clipPath id="h" clipPathUnits="userSpaceOnUse"><path d="M-302.54 373.28h838.23v-422.4h-838.23Z"/></clipPath><clipPath id="i" clipPathUnits="userSpaceOnUse"><path d="M-295.65 352.51h838.23V-69.88h-838.23Z"/></clipPath></defs><g class="eit-icon"><path fill="none" stroke="currentColor" stroke-miterlimit="10" d="M0 0a25.12 25.12 0 1 0-50.24 0A25.12 25.12 0 0 0 0 0Z" class="eit-icon-circle" clip-path="url(#a)" transform="matrix(1.33333 0 0 -1.33333 67.653 34.16)"/><path fill="none" stroke="currentColor" stroke-linecap="round" stroke-linejoin="round" stroke-miterlimit="10" d="M0 0h6.51v-25.23h-20.99V0h6.51" clip-path="url(#b)" transform="matrix(1.33333 0 0 -1.33333 39.472 17.34)"/><path fill="none" stroke="currentColor" stroke-linecap="round" stroke-linejoin="round" stroke-miterlimit="10" d="M0 0c2.2 0 3.98-1.78 3.98-3.98v-1.8h-7.96v1.8C-3.98-1.78-2.2 0 0 0" clip-path="url(#c)" transform="matrix(1.33333 0 0 -1.33333 34.16 13.316)"/><path fill="none" stroke="currentColor" stroke-linecap="round" stroke-linejoin="round" stroke-miterlimit="10" d="M0 0h-12.11" clip-path="url(#d)" transform="matrix(1.33333 0 0 -1.33333 42.236 26.84)"/><path fill="none" stroke="currentColor" stroke-linecap="round" stroke-linejoin="round" stroke-miterlimit="10" d="M0 0h-12.11" clip-path="url(#e)" transform="matrix(1.33333 0 0 -1.33333 42.236 31.344)"/><path fill="none" stroke="currentColor" stroke-linecap="round" stroke-linejoin="round" stroke-miterlimit="10" d="M0 0h-12.11" clip-path="url(#f)" transform="matrix(1.33333 0 0 -1.33333 42.236 35.849)"/><path fill="none" stroke="currentColor" stroke-linecap="round" stroke-linejoin="round" stroke-miterlimit="10" d="M0 0h-12.11" clip-path="url(#g)" transform="matrix(1.33333 0 0 -1.33333 42.236 40.353)"/><path fill="none" stroke="currentColor" stroke-linecap="round" stroke-linejoin="round" stroke-miterlimit="10" d="M0 0h-12.11" clip-path="url(#h)" transform="matrix(1.33333 0 0 -1.33333 42.236 44.857)"/><path fill="currentColor" d="M0 0a.83.83 0 1 0 1.67 0A.83.83 0 0 0 0 0" clip-path="url(#i)" transform="matrix(1.33333 0 0 -1.33333 33.05 17.174)"/></g></svg>