<svg xmlns="http://www.w3.org/2000/svg" viewBox="0 0 68.32 68.319"><defs><clipPath id="a" clipPathUnits="userSpaceOnUse"><path d="M-82.29 364.3h838.23V-58.09H-82.3Z"/></clipPath><clipPath id="b" clipPathUnits="userSpaceOnUse"><path d="M-49.19 354.17h838.23V-68.22H-49.19Z"/></clipPath><clipPath id="c" clipPathUnits="userSpaceOnUse"><path d="M-54.54 378.27h838.23v-422.4H-54.54Z"/></clipPath><clipPath id="d" clipPathUnits="userSpaceOnUse"><path d="M-58.48 378.27h838.23v-422.4H-58.48Z"/></clipPath><clipPath id="e" clipPathUnits="userSpaceOnUse"><path d="M-62.12 377.1h838.23V-45.29H-62.12Z"/></clipPath><clipPath id="f" clipPathUnits="userSpaceOnUse"><path d="M-50.97 377.1h838.22V-45.29H-50.97Z"/></clipPath><clipPath id="g" clipPathUnits="userSpaceOnUse"><path d="M-63.88 354.17h838.23v-422.4H-63.88Z"/></clipPath><clipPath id="h" clipPathUnits="userSpaceOnUse"><path d="M-46.8 356.3h838.24V-66.1H-46.8Z"/></clipPath><clipPath id="i" clipPathUnits="userSpaceOnUse"><path d="M-66.25 356.3h838.23V-66.1H-66.25Z"/></clipPath><clipPath id="j" clipPathUnits="userSpaceOnUse"><path d="M-65.8 361.85h838.22V-60.54H-65.8Z"/></clipPath><clipPath id="k" clipPathUnits="userSpaceOnUse"><path d="M-73.94 374.52H764.3v-422.4H-73.94Z"/></clipPath><clipPath id="l" clipPathUnits="userSpaceOnUse"><path d="M-42.82 361.85H795.4V-60.54H-42.82Z"/></clipPath><clipPath id="m" clipPathUnits="userSpaceOnUse"><path d="M-50.95 374.52h838.22v-422.4H-50.95Z"/></clipPath><clipPath id="n" clipPathUnits="userSpaceOnUse"><path d="M-54.4 348.92h838.24v-422.4H-54.4Z"/></clipPath><clipPath id="o" clipPathUnits="userSpaceOnUse"><path d="M-62.52 361.58H775.7V-60.8H-62.52Z"/></clipPath></defs><g class="eit-icon"><path fill="none" stroke="currentColor" stroke-miterlimit="10" d="M0 0a25.12 25.12 0 1 0-50.24 0A25.12 25.12 0 0 0 0 0Z" class="eit-icon-circle" clip-path="url(#a)" transform="matrix(1.33333 0 0 -1.33333 67.653 34.16)"/><path fill="currentColor" d="M0 0a.62.62 0 1 0 1.25 0A.62.62 0 0 0 0 0" clip-path="url(#b)" transform="matrix(1.33333 0 0 -1.33333 23.516 20.65)"/><path fill="currentColor" d="M0 0a.63.63 0 1 0 1.25 0A.63.63 0 0 0 0 0" clip-path="url(#c)" transform="matrix(1.33333 0 0 -1.33333 30.657 52.776)"/><path fill="currentColor" d="M0 0a.63.63 0 1 0 1.25 0A.63.63 0 0 0 0 0" clip-path="url(#d)" transform="matrix(1.33333 0 0 -1.33333 35.901 52.776)"/><path fill="currentColor" d="M0 0a.63.63 0 1 0 1.25 0A.63.63 0 0 0 0 0" clip-path="url(#e)" transform="matrix(1.33333 0 0 -1.33333 40.755 51.221)"/><path fill="currentColor" d="M0 0a.63.63 0 1 0 1.25 0A.63.63 0 0 0 0 0" clip-path="url(#f)" transform="matrix(1.33333 0 0 -1.33333 25.897 51.221)"/><path fill="currentColor" d="M0 0a.62.62 0 1 0 1.25 0A.62.62 0 0 0 0 0" clip-path="url(#g)" transform="matrix(1.33333 0 0 -1.33333 43.104 20.642)"/><path fill="currentColor" d="M0 0a.63.63 0 1 0 1.25 0A.63.63 0 0 0 0 0" clip-path="url(#h)" transform="matrix(1.33333 0 0 -1.33333 20.324 23.485)"/><path fill="currentColor" d="M0 0a.63.63 0 1 0 1.25 0A.63.63 0 0 0 0 0" clip-path="url(#i)" transform="matrix(1.33333 0 0 -1.33333 46.263 23.485)"/><path fill="none" stroke="currentColor" stroke-linecap="round" stroke-linejoin="round" stroke-miterlimit="10" d="M0 0a2.78 2.78 0 1 0 5.56 0A2.78 2.78 0 0 0 0 0" clip-path="url(#j)" transform="matrix(1.33333 0 0 -1.33333 45.675 30.892)"/><path fill="none" stroke="currentColor" stroke-linecap="round" stroke-linejoin="round" stroke-miterlimit="10" d="M0 0h-10.7v3.91A3.9 3.9 0 0 0-6.8 7.83h2.87A3.9 3.9 0 0 0 0 3.91Z" clip-path="url(#k)" transform="matrix(1.33333 0 0 -1.33333 56.519 47.779)"/><path fill="none" stroke="currentColor" stroke-linecap="round" stroke-linejoin="round" stroke-miterlimit="10" d="M0 0a2.78 2.78 0 1 0 5.56 0A2.78 2.78 0 0 0 0 0" clip-path="url(#l)" transform="matrix(1.33333 0 0 -1.33333 15.03 30.892)"/><path fill="none" stroke="currentColor" stroke-linecap="round" stroke-linejoin="round" stroke-miterlimit="10" d="M0 0h-10.7v3.91A3.9 3.9 0 0 0-6.8 7.83h2.87A3.9 3.9 0 0 0 0 3.91Z" clip-path="url(#m)" transform="matrix(1.33333 0 0 -1.33333 25.873 47.779)"/><path fill="none" stroke="currentColor" stroke-linecap="round" stroke-linejoin="round" stroke-miterlimit="10" d="M0 0a2.78 2.78 0 1 0 5.56 0A2.78 2.78 0 0 0 0 0" clip-path="url(#n)" transform="matrix(1.33333 0 0 -1.33333 30.455 13.644)"/><path fill="none" stroke="currentColor" stroke-linecap="round" stroke-linejoin="round" stroke-miterlimit="10" d="M0 0h-10.7v3.91A3.9 3.9 0 0 0-6.8 7.83h2.87A3.9 3.9 0 0 0 0 3.91Z" clip-path="url(#o)" transform="matrix(1.33333 0 0 -1.33333 41.298 30.531)"/></g></svg>