<svg xmlns="http://www.w3.org/2000/svg" viewBox="0 0 68.32 68.32"><defs><clipPath id="a" clipPathUnits="userSpaceOnUse"><path d="M-680.6 365.32h838.24V-57.07H-680.6Z"/></clipPath><clipPath id="b" clipPathUnits="userSpaceOnUse"><path d="M-659.37 359.01h838.23V-63.38h-838.23Z"/></clipPath><clipPath id="c" clipPathUnits="userSpaceOnUse"><path d="M-657.67 365.44h838.23v-422.4h-838.23Z"/></clipPath><clipPath id="d" clipPathUnits="userSpaceOnUse"><path d="M-652.3 374.44h838.22v-422.4h-838.23Z"/></clipPath><clipPath id="e" clipPathUnits="userSpaceOnUse"><path d="M-657.52 365.2h838.23V-57.2h-838.23Z"/></clipPath><clipPath id="f" clipPathUnits="userSpaceOnUse"><path d="M-645.56 356.04h838.23v-422.4h-838.23Z"/></clipPath><clipPath id="g" clipPathUnits="userSpaceOnUse"><path d="M-655.1 381.19h838.23v-422.4H-655.1Z"/></clipPath><clipPath id="h" clipPathUnits="userSpaceOnUse"><path d="M-655.1 371.17h838.23V-51.22H-655.1Z"/></clipPath></defs><g fill="none" stroke="currentColor" stroke-miterlimit="10" class="eit-icon"><path d="M0 0a25.12 25.12 0 1 0-50.24 0A25.12 25.12 0 0 0 0 0Z" class="eit-icon-circle" clip-path="url(#a)" transform="matrix(1.33333 0 0 -1.33333 67.653 34.16)"/><path stroke-linecap="round" stroke-linejoin="round" d="M0 0a3.48 3.48 0 1 0 6.96 0A3.48 3.48 0 0 0 0 0" clip-path="url(#b)" transform="matrix(1.33333 0 0 -1.33333 39.354 25.743)"/><path stroke-linecap="round" stroke-linejoin="round" d="M0 0c.66.51 1.5.82 2.4.82h5.57a3.9 3.9 0 0 0 3.92-3.92V-9H5.57" clip-path="url(#c)" transform="matrix(1.33333 0 0 -1.33333 37.088 34.314)"/><path stroke-linecap="round" stroke-linejoin="round" d="M0 0h-10.92v6.46a4.96 4.96 0 0 0 4.96 4.96H1.1c1.71 0 3.22-.86 4.11-2.18" clip-path="url(#d)" transform="matrix(1.33333 0 0 -1.33333 29.944 46.31)"/><path stroke-linecap="round" stroke-linejoin="round" d="M0 0q.83-1.22.85-2.77" clip-path="url(#e)" transform="matrix(1.33333 0 0 -1.33333 36.89 33.995)"/><path stroke-linecap="round" stroke-linejoin="round" d="M0 0a4.32 4.32 0 1 0 8.65 0A4.32 4.32 0 0 0 0 0" clip-path="url(#f)" transform="matrix(1.33333 0 0 -1.33333 20.939 21.782)"/><path stroke-linecap="round" stroke-linejoin="round" d="M0 0v10.02h10.02" clip-path="url(#g)" transform="matrix(1.33333 0 0 -1.33333 33.669 55.312)"/><path stroke-linecap="round" stroke-linejoin="round" d="m0 0 10.02-10.01" clip-path="url(#h)" transform="matrix(1.33333 0 0 -1.33333 33.669 41.96)"/></g></svg>