<svg xmlns="http://www.w3.org/2000/svg" viewBox="0 0 68.32 68.32"><defs><clipPath id="a" clipPathUnits="userSpaceOnUse"><path d="M-82.55 181.24h838.23v-422.4H-82.55Z"/></clipPath><clipPath id="b" clipPathUnits="userSpaceOnUse"><path d="M-55.72 165.84H782.5v-422.39H-55.72Z"/></clipPath><clipPath id="c" clipPathUnits="userSpaceOnUse"><path d="M-47.95 176.02h838.23v-422.4H-47.95Z"/></clipPath><clipPath id="d" clipPathUnits="userSpaceOnUse"><path d="M-55.72 165.84H782.5v-422.39H-55.72Z"/></clipPath><clipPath id="e" clipPathUnits="userSpaceOnUse"><path d="M-47.95 176.02h838.23v-422.4H-47.95Z"/></clipPath><clipPath id="f" clipPathUnits="userSpaceOnUse"><path d="M-62.79 168.62h838.23v-422.39H-62.79Z"/></clipPath><clipPath id="g" clipPathUnits="userSpaceOnUse"><path d="M-70.92 181.29h838.23v-422.4H-70.92Z"/></clipPath><clipPath id="h" clipPathUnits="userSpaceOnUse"><path d="M-45 181.23h838.22v-422.39H-45.01Z"/></clipPath><clipPath id="i" clipPathUnits="userSpaceOnUse"><path d="M-53.14 193.9h838.23v-422.4H-53.14Z"/></clipPath><clipPath id="j" clipPathUnits="userSpaceOnUse"><path d="M-60.57 194.32h838.23v-422.39H-60.57Z"/></clipPath><clipPath id="k" clipPathUnits="userSpaceOnUse"><path d="M-68.34 184.15h838.22v-422.39H-68.34Z"/></clipPath></defs><g fill="none" stroke="currentColor" stroke-miterlimit="10" class="eit-icon"><path d="M0 0a25.12 25.12 0 1 0-50.24 0A25.12 25.12 0 0 0 0 0Z" class="eit-icon-circle" clip-path="url(#a)" transform="matrix(1.33333 0 0 -1.33333 67.653 34.16)"/><path stroke-linecap="round" stroke-linejoin="round" d="m0 0 4.22-4.22L0-8.44" clip-path="url(#b)" transform="matrix(1.33333 0 0 -1.33333 31.887 13.635)"/><path stroke-linecap="round" stroke-linejoin="round" d="M0 0a11.2 11.2 0 0 0 9.88 5.95H12" clip-path="url(#c)" transform="matrix(1.33333 0 0 -1.33333 21.521 27.197)"/><path stroke-linecap="round" stroke-linejoin="round" d="m0 0 4.22-4.22L0-8.44" clip-path="url(#d)" transform="matrix(1.33333 0 0 -1.33333 31.887 13.635)"/><path stroke-linecap="round" stroke-linejoin="round" d="M0 0a11.2 11.2 0 0 0 9.88 5.95H12" clip-path="url(#e)" transform="matrix(1.33333 0 0 -1.33333 21.521 27.197)"/><path stroke-linecap="round" stroke-linejoin="round" d="M0 0a2.78 2.78 0 1 0 5.56 0A2.78 2.78 0 0 0 0 0" clip-path="url(#f)" transform="matrix(1.33333 0 0 -1.33333 41.306 17.34)"/><path stroke-linecap="round" stroke-linejoin="round" d="M0 0h-10.7v3.91a3.9 3.9 0 0 0 3.9 3.92h2.87A3.9 3.9 0 0 0 0 3.91Z" clip-path="url(#g)" transform="matrix(1.33333 0 0 -1.33333 52.149 34.227)"/><path stroke-linecap="round" stroke-linejoin="round" d="M0 0a2.78 2.78 0 1 0 5.56 0A2.78 2.78 0 0 0 0 0" clip-path="url(#h)" transform="matrix(1.33333 0 0 -1.33333 17.601 34.15)"/><path stroke-linecap="round" stroke-linejoin="round" d="M0 0h-10.7v3.91a3.9 3.9 0 0 0 3.9 3.92h2.87A3.9 3.9 0 0 0 0 3.91Z" clip-path="url(#i)" transform="matrix(1.33333 0 0 -1.33333 28.444 51.038)"/><path stroke-linecap="round" stroke-linejoin="round" d="m0 0-4.22 4.22L0 8.44" clip-path="url(#j)" transform="matrix(1.33333 0 0 -1.33333 38.35 51.61)"/><path stroke-linecap="round" stroke-linejoin="round" d="M0 0a11.2 11.2 0 0 0-9.88-5.95H-12" clip-path="url(#k)" transform="matrix(1.33333 0 0 -1.33333 48.716 38.047)"/></g></svg>