<svg xmlns="http://www.w3.org/2000/svg" viewBox="0 0 68.32 68.32"><defs><clipPath id="a" clipPathUnits="userSpaceOnUse"><path d="M-82.55 120.21h838.23v-422.39H-82.55Z"/></clipPath><clipPath id="b" clipPathUnits="userSpaceOnUse"><path d="M-57.17 120.8h838.23v-422.4H-57.17Z"/></clipPath><clipPath id="c" clipPathUnits="userSpaceOnUse"><path d="M-58.52 115.58h838.23v-422.39H-58.52Z"/></clipPath><clipPath id="d" clipPathUnits="userSpaceOnUse"><path d="M-65.66 134.5h838.23v-422.4H-65.66Z"/></clipPath><clipPath id="e" clipPathUnits="userSpaceOnUse"><path d="M-62.8 109.95h838.23v-422.4H-62.8Z"/></clipPath><clipPath id="f" clipPathUnits="userSpaceOnUse"><path d="M-51.54 109.95H786.7v-422.4H-51.54Z"/></clipPath><clipPath id="g" clipPathUnits="userSpaceOnUse"><path d="M-65.14 115.58H773.1v-422.39H-65.14Z"/></clipPath><clipPath id="h" clipPathUnits="userSpaceOnUse"><path d="M-46.52 115.58H791.7v-422.39H-46.52Z"/></clipPath><clipPath id="i" clipPathUnits="userSpaceOnUse"><path d="M-57.17 107.61h838.23v-422.39H-57.17Z"/></clipPath><clipPath id="j" clipPathUnits="userSpaceOnUse"><path d="M-51.96 115.58h838.23v-422.39H-51.96Z"/></clipPath></defs><g fill="none" stroke="currentColor" stroke-miterlimit="10" class="eit-icon"><path d="M0 0a25.12 25.12 0 1 0-50.24 0A25.12 25.12 0 0 0 0 0Z" class="eit-icon-circle" clip-path="url(#a)" transform="matrix(1.33333 0 0 -1.33333 67.653 34.16)"/><path stroke-linecap="round" stroke-linejoin="round" d="M0 0v5.21" clip-path="url(#b)" transform="matrix(1.33333 0 0 -1.33333 33.817 34.933)"/><path stroke-linecap="round" stroke-linejoin="round" d="M0 0h-2.7" clip-path="url(#c)" transform="matrix(1.33333 0 0 -1.33333 35.617 27.981)"/><path stroke-linecap="round" stroke-linejoin="round" d="M0 0h-16.98v6.46a4.96 4.96 0 0 0 4.96 4.96h7.06A4.96 4.96 0 0 0 0 6.46Z" clip-path="url(#d)" transform="matrix(1.33333 0 0 -1.33333 45.136 53.201)"/><path stroke-linecap="round" stroke-linejoin="round" d="m0 0 1.9 1.9" clip-path="url(#e)" transform="matrix(1.33333 0 0 -1.33333 41.327 20.471)"/><path stroke-linecap="round" stroke-linejoin="round" d="m0 0-1.9 1.9" clip-path="url(#f)" transform="matrix(1.33333 0 0 -1.33333 26.308 20.471)"/><path stroke-linecap="round" stroke-linejoin="round" d="M0 0h2.68" clip-path="url(#g)" transform="matrix(1.33333 0 0 -1.33333 44.438 27.981)"/><path stroke-linecap="round" stroke-linejoin="round" d="M0 0h2.68" clip-path="url(#h)" transform="matrix(1.33333 0 0 -1.33333 19.623 27.981)"/><path stroke-linecap="round" stroke-linejoin="round" d="M0 0v2.68" clip-path="url(#i)" transform="matrix(1.33333 0 0 -1.33333 33.817 17.36)"/><path stroke-linecap="round" stroke-linejoin="round" d="M0 0a5.21 5.21 0 1 0 10.43 0A5.21 5.21 0 0 0 0 0" clip-path="url(#j)" transform="matrix(1.33333 0 0 -1.33333 26.865 27.981)"/></g></svg>