<svg xmlns="http://www.w3.org/2000/svg" viewBox="0 0 68.32 68.32"><defs><clipPath id="a" clipPathUnits="userSpaceOnUse"><path d="M-381.53 120.08H456.7V-302.3h-838.23Z"/></clipPath><clipPath id="b" clipPathUnits="userSpaceOnUse"><path d="M-352.04 108.84h838.23v-422.4h-838.23Z"/></clipPath><clipPath id="c" clipPathUnits="userSpaceOnUse"><path d="M-356.42 105.91H481.8v-422.39h-838.22Z"/></clipPath></defs><g fill="none" stroke="currentColor" stroke-miterlimit="10" class="eit-icon"><path d="M0 0a25.12 25.12 0 1 0-50.24 0A25.12 25.12 0 0 0 0 0Z" class="eit-icon-circle" clip-path="url(#a)" transform="matrix(1.33333 0 0 -1.33333 67.653 34.16)"/><path stroke-linecap="round" stroke-linejoin="round" d="M0 0a12.3 12.3 0 1 1 8.68.02" clip-path="url(#b)" transform="matrix(1.33333 0 0 -1.33333 28.334 19.164)"/><path stroke-linecap="round" stroke-linejoin="round" d="m0 0-.01-13.17" clip-path="url(#c)" transform="matrix(1.33333 0 0 -1.33333 34.18 15.262)"/></g></svg>