<svg xmlns="http://www.w3.org/2000/svg" viewBox="0 0 68.32 68.32"><defs><clipPath id="a" clipPathUnits="userSpaceOnUse"><path d="M-560.92 120.22h838.23v-422.39h-838.23Z"/></clipPath><clipPath id="b" clipPathUnits="userSpaceOnUse"><path d="M0 422.39h838.23V0H0Z"/></clipPath><clipPath id="c" clipPathUnits="userSpaceOnUse"><path d="M-523.9 108.94h838.22v-422.39h-838.23Z"/></clipPath><clipPath id="d" clipPathUnits="userSpaceOnUse"><path d="M-539.7 123.63h838.22v-422.39H-539.7Z"/></clipPath><clipPath id="e" clipPathUnits="userSpaceOnUse"><path d="M-537.5 123.63h838.23v-422.39H-537.5Z"/></clipPath><clipPath id="f" clipPathUnits="userSpaceOnUse"><path d="M-541.91 123.63H296.3v-422.39H-541.9Z"/></clipPath><clipPath id="g" clipPathUnits="userSpaceOnUse"><path d="M-544.12 123.63H294.1v-422.39h-838.23Z"/></clipPath><clipPath id="h" clipPathUnits="userSpaceOnUse"><path d="M-535.29 123.63h838.23v-422.39h-838.23Z"/></clipPath><clipPath id="i" clipPathUnits="userSpaceOnUse"><path d="M-535.8 126.94h838.23v-422.39H-535.8Z"/></clipPath><clipPath id="j" clipPathUnits="userSpaceOnUse"><path d="M-529.68 132.69h838.22v-422.4h-838.22Z"/></clipPath></defs><g fill="none" stroke="currentColor" stroke-miterlimit="10" class="eit-icon"><path d="M0 0a25.12 25.12 0 1 0-50.24 0A25.12 25.12 0 0 0 0 0Z" class="eit-icon-circle" clip-path="url(#a)" transform="matrix(1.33333 0 0 -1.33333 67.653 34.16)"/><path stroke-linecap="round" stroke-linejoin="round" d="M524.05 310.38h23.5v-14.93h-23.5z" clip-path="url(#b)" transform="matrix(1.33333 0 0 -1.33333 -680.24 437.048)"/><path stroke-linecap="round" stroke-linejoin="round" d="M0 0h23.78a1.53 1.53 0 0 0 0-3.06H0A1.53 1.53 0 0 0 0 0" clip-path="url(#c)" transform="matrix(1.33333 0 0 -1.33333 18.304 19.118)"/><path stroke-linecap="round" stroke-linejoin="round" d="M0 0v4.88" clip-path="url(#d)" transform="matrix(1.33333 0 0 -1.33333 39.368 38.704)"/><path stroke-linecap="round" stroke-linejoin="round" d="M0 0v8" clip-path="url(#e)" transform="matrix(1.33333 0 0 -1.33333 36.423 38.704)"/><path stroke-linecap="round" stroke-linejoin="round" d="M0 0v8" clip-path="url(#f)" transform="matrix(1.33333 0 0 -1.33333 42.312 38.704)"/><path stroke-linecap="round" stroke-linejoin="round" d="M0 0v8" clip-path="url(#g)" transform="matrix(1.33333 0 0 -1.33333 45.257 38.704)"/><path stroke-linecap="round" stroke-linejoin="round" d="M0 0v2.24" clip-path="url(#h)" transform="matrix(1.33333 0 0 -1.33333 33.478 38.704)"/><path stroke-linecap="round" stroke-linejoin="round" d="M0 0v-5.74" clip-path="url(#i)" transform="matrix(1.33333 0 0 -1.33333 34.16 43.12)"/><path stroke-linecap="round" stroke-linejoin="round" d="M0 0h12.23" clip-path="url(#j)" transform="matrix(1.33333 0 0 -1.33333 26.007 50.78)"/></g></svg>