<svg xmlns="http://www.w3.org/2000/svg" viewBox="0 0 68.32 68.319"><defs><clipPath id="a" clipPathUnits="userSpaceOnUse"><path d="M-441.2 365.4h838.23V-57H-441.2Z"/></clipPath><clipPath id="b" clipPathUnits="userSpaceOnUse"><path d="M-410.02 379.61h838.23V-42.78h-838.23Z"/></clipPath><clipPath id="c" clipPathUnits="userSpaceOnUse"><path d="M-407.37 353.22h838.23v-422.4h-838.23Z"/></clipPath><clipPath id="d" clipPathUnits="userSpaceOnUse"><path d="M-416.08 364.02h838.23V-58.37h-838.23Z"/></clipPath><clipPath id="e" clipPathUnits="userSpaceOnUse"><path d="M-416.08 370.62h838.23V-51.77h-838.23Z"/></clipPath><clipPath id="f" clipPathUnits="userSpaceOnUse"><path d="M-408.28 365.8h838.23V-56.6h-838.23Z"/></clipPath><clipPath id="g" clipPathUnits="userSpaceOnUse"><path d="M-424.78 356.12h838.23v-422.4h-838.23Z"/></clipPath></defs><g fill="none" stroke="currentColor" stroke-miterlimit="10" class="eit-icon"><path d="M0 0a25.12 25.12 0 1 0-50.24 0A25.12 25.12 0 0 0 0 0Z" class="eit-icon-circle" clip-path="url(#a)" transform="matrix(1.33333 0 0 -1.33333 67.653 34.159)"/><path stroke-linecap="round" stroke-linejoin="round" d="M0 0h12.12" clip-path="url(#b)" transform="matrix(1.33333 0 0 -1.33333 26.08 53.117)"/><path stroke-linecap="round" stroke-linejoin="round" d="M0 0h17.41v-8.7A8.7 8.7 0 0 0 0-8.7z" clip-path="url(#c)" transform="matrix(1.33333 0 0 -1.33333 22.554 17.923)"/><path stroke-linecap="round" stroke-linejoin="round" d="M0 0v6.05l-1.8-.92" clip-path="url(#d)" transform="matrix(1.33333 0 0 -1.33333 34.16 32.333)"/><path stroke-linecap="round" stroke-linejoin="round" d="M0 0v-8.99" clip-path="url(#e)" transform="matrix(1.33333 0 0 -1.33333 34.16 41.135)"/><path stroke-linecap="round" stroke-linejoin="round" d="M0 0q-.45-.08-.91-.08a4.88 4.88 0 0 0 0 9.76" clip-path="url(#f)" transform="matrix(1.33333 0 0 -1.33333 23.767 34.702)"/><path stroke-linecap="round" stroke-linejoin="round" d="M0 0a4.88 4.88 0 1 0-.91-9.68" clip-path="url(#g)" transform="matrix(1.33333 0 0 -1.33333 45.767 21.791)"/></g></svg>