<svg xmlns="http://www.w3.org/2000/svg" viewBox="0 0 68.32 68.32"><defs><clipPath id="a" clipPathUnits="userSpaceOnUse"><path d="M-82.55 59.2h838.23v-422.4H-82.55Z"/></clipPath><clipPath id="b" clipPathUnits="userSpaceOnUse"><path d="M-54.94 41.03H783.3v-422.39H-54.94Z"/></clipPath><clipPath id="c" clipPathUnits="userSpaceOnUse"><path d="M-44.24 59.2h838.23v-422.4H-44.24Z"/></clipPath><clipPath id="d" clipPathUnits="userSpaceOnUse"><path d="M-74.49 66.1h838.23v-422.4H-74.49Z"/></clipPath><clipPath id="e" clipPathUnits="userSpaceOnUse"><path d="M-63.9 47.86h838.22v-422.39H-63.91Z"/></clipPath><clipPath id="f" clipPathUnits="userSpaceOnUse"><path d="M-43.05 70.7h838.22v-422.4H-43.05Z"/></clipPath><clipPath id="g" clipPathUnits="userSpaceOnUse"><path d="M-64.13 70.76H774.1v-422.4H-64.13Z"/></clipPath></defs><g fill="none" stroke="currentColor" stroke-miterlimit="10" class="eit-icon"><path d="M0 0a25.12 25.12 0 1 0-50.24 0A25.12 25.12 0 0 0 0 0Z" class="eit-icon-circle" clip-path="url(#a)" transform="matrix(1.33333 0 0 -1.33333 67.653 34.16)"/><path stroke-linecap="round" stroke-linejoin="round" d="m0 0 4.98-4.98L0-9.95" clip-path="url(#b)" transform="matrix(1.33333 0 0 -1.33333 30.843 9.944)"/><path stroke-linecap="round" stroke-linejoin="round" d="M0 0c0 7.28 5.9 13.19 13.19 13.19h2.48" clip-path="url(#c)" transform="matrix(1.33333 0 0 -1.33333 16.58 34.16)"/><path stroke-linecap="round" stroke-linejoin="round" d="m0 0-6.78-1.9-1.9 6.78" clip-path="url(#d)" transform="matrix(1.33333 0 0 -1.33333 56.907 43.357)"/><path stroke-linecap="round" stroke-linejoin="round" d="M0 0a13.2 13.2 0 0 0 5.02-17.96L3.8-20.13" clip-path="url(#e)" transform="matrix(1.33333 0 0 -1.33333 42.802 19.05)"/><path stroke-linecap="round" stroke-linejoin="round" d="m0 0 1.78 6.8 6.8-1.77" clip-path="url(#f)" transform="matrix(1.33333 0 0 -1.33333 14.996 49.5)"/><path stroke-linecap="round" stroke-linejoin="round" d="M0 0a13.2 13.2 0 0 0-18.04 4.72l-1.26 2.15" clip-path="url(#g)" transform="matrix(1.33333 0 0 -1.33333 43.1 49.577)"/></g></svg>