<svg xmlns="http://www.w3.org/2000/svg" viewBox="0 0 68.32 68.32"><defs><clipPath id="a" clipPathUnits="userSpaceOnUse"><path d="M-261.68 303.28h838.23V-119.1h-838.23Z"/></clipPath><clipPath id="b" clipPathUnits="userSpaceOnUse"><path d="M-245.88 306.95h838.22v-422.39h-838.22Z"/></clipPath><clipPath id="c" clipPathUnits="userSpaceOnUse"><path d="M-237.02 301.42h838.23v-422.39h-838.23Z"/></clipPath><clipPath id="d" clipPathUnits="userSpaceOnUse"><path d="M-232.5 310.9h838.23v-422.39h-838.22Z"/></clipPath><clipPath id="e" clipPathUnits="userSpaceOnUse"><path d="M-234.96 292.57h838.23v-422.39h-838.23Z"/></clipPath><clipPath id="f" clipPathUnits="userSpaceOnUse"><path d="M-233.99 288.4h838.23v-422.38h-838.23Z"/></clipPath><clipPath id="g" clipPathUnits="userSpaceOnUse"><path d="M-240.14 317.8H598.1v-422.38h-838.23Z"/></clipPath></defs><g fill="none" stroke="currentColor" stroke-miterlimit="10" class="eit-icon"><path d="M0 0a25.12 25.12 0 1 0-50.24 0A25.12 25.12 0 0 0 0 0Z" class="eit-icon-circle" clip-path="url(#a)" transform="matrix(1.33333 0 0 -1.33333 67.653 34.16)"/><path stroke-linecap="round" stroke-linejoin="round" stroke-width=".95" d="M0 0a10.45 10.45 0 1 0-17.73 11.06z" clip-path="url(#b)" transform="matrix(1.33333 0 0 -1.33333 46.591 39.052)"/><path stroke-linecap="round" stroke-linejoin="round" stroke-width=".95" d="m0 0 2.51 4.03" clip-path="url(#c)" transform="matrix(1.33333 0 0 -1.33333 34.768 31.68)"/><path stroke-linecap="round" stroke-linejoin="round" stroke-width=".95" d="m0 0-.86-6.9h4.98L3.26-.97" clip-path="url(#d)" transform="matrix(1.33333 0 0 -1.33333 28.738 44.324)"/><path stroke-linecap="round" stroke-linejoin="round" stroke-width=".95" d="M0 0a9.1 9.1 0 0 0 10.91-6.79" clip-path="url(#e)" transform="matrix(1.33333 0 0 -1.33333 32.021 19.88)"/><path stroke-linecap="round" stroke-linejoin="round" stroke-width=".95" d="M0 0a13.36 13.36 0 0 0 16.04-9.98" clip-path="url(#f)" transform="matrix(1.33333 0 0 -1.33333 30.73 14.33)"/><path stroke-linecap="round" stroke-linejoin="round" stroke-width=".95" d="M0 0h-12.03" clip-path="url(#g)" transform="matrix(1.33333 0 0 -1.33333 38.929 53.527)"/></g></svg>