<svg xmlns="http://www.w3.org/2000/svg" viewBox="0 0 68.32 68.32"><defs><clipPath id="a" clipPathUnits="userSpaceOnUse"><path d="M-501.12 242.53H337.1v-422.4h-838.23Z"/></clipPath><clipPath id="b" clipPathUnits="userSpaceOnUse"><path d="M-489.8 237.49h838.23V-184.9H-489.8Z"/></clipPath><clipPath id="c" clipPathUnits="userSpaceOnUse"><path d="M-464.36 238.03h838.23v-422.39h-838.23Z"/></clipPath><clipPath id="d" clipPathUnits="userSpaceOnUse"><path d="M-471.23 228.86H367v-422.39h-838.23Z"/></clipPath><clipPath id="e" clipPathUnits="userSpaceOnUse"><path d="M-483.77 249.47h838.23v-422.39h-838.23Z"/></clipPath></defs><g class="eit-icon"><path fill="none" stroke="currentColor" stroke-miterlimit="10" d="M0 0a25.12 25.12 0 1 0-50.24 0A25.12 25.12 0 0 0 0 0Z" class="eit-icon-circle" clip-path="url(#a)" transform="matrix(1.33333 0 0 -1.33333 67.653 34.16)"/><path fill="currentColor" d="m0 0-6.02-6.02-4.07 4.07 6.02 6.02zm-13.41-13.41-6.02-6.02-4.07 4.07 6.02 6.01zm-6.86 8.88-1.8 1.8 5.5 5.5 1.8-1.8c.51-.52.51-1.36 0-1.88l-3.63-3.62a1.33 1.33 0 0 0-1.87 0m6.29-4.44-1.26-1.26-1.9 1.9a.5.5 0 0 1-.68 0l-6.7-6.7a.5.5 0 0 1 0-.67l4.75-4.75c.19-.2.5-.2.68 0l6.7 6.7c.19.18.19.49 0 .68l-2.16 2.16 1.25 1.26zm4.2 2.84 1.26 1.25 2.16-2.16c.19-.19.5-.19.68 0l6.7 6.7c.2.19.2.5 0 .68L-3.73 5.1a.5.5 0 0 1-.68 0l-6.7-6.7a.5.5 0 0 1 0-.68l1.9-1.9-1.25-1.26zm-5.78 3.07 1.47 1.47c.89.9.89 2.34 0 3.24l-2.14 2.14a.5.5 0 0 1-.69 0l-2.8-2.81-1.19 1.18a.48.48 0 1 1-.68-.68l1.18-1.19-2.68-2.68a.5.5 0 0 1 0-.68l2.14-2.14c.89-.9 2.34-.9 3.23 0l1.47 1.47z" clip-path="url(#b)" transform="matrix(1.33333 0 0 -1.33333 52.554 27.442)"/><path fill="currentColor" d="M0 0a.48.48 0 1 1 .96.03 5.5 5.5 0 0 0 5.7 5.69c.26-.01.48.2.49.46 0 .27-.2.49-.47.5A6.5 6.5 0 0 1 0 0" clip-path="url(#c)" transform="matrix(1.33333 0 0 -1.33333 18.631 28.167)"/><path fill="currentColor" d="M0 0c0 .27-.22.48-.49.48a9.45 9.45 0 0 1-9.36-9.45c0-.27.22-.48.49-.48.26 0 .48.21.48.48A8.5 8.5 0 0 0-.48-.5C-.2-.49 0-.27 0 0" clip-path="url(#d)" transform="matrix(1.33333 0 0 -1.33333 27.795 15.934)"/><path fill="none" stroke="currentColor" stroke-miterlimit="10" d="m0 0-1.42-1.42a1.5 1.5 0 0 0-2.12 0L-9.7 4.74a1.5 1.5 0 0 0 0 2.12l1.42 1.42a1.5 1.5 0 0 0 2.12 0L0 2.12A1.5 1.5 0 0 0 0 0Z" clip-path="url(#e)" transform="matrix(1.33333 0 0 -1.33333 44.513 43.416)"/></g></svg>