<svg xmlns="http://www.w3.org/2000/svg" viewBox="0 0 68.32 68.32"><defs><clipPath id="a" clipPathUnits="userSpaceOnUse"><path d="M-381.53 303.75H456.7v-422.39h-838.23Z"/></clipPath><clipPath id="b" clipPathUnits="userSpaceOnUse"><path d="M-352.8 301.75h838.23v-422.39H-352.8Z"/></clipPath><clipPath id="c" clipPathUnits="userSpaceOnUse"><path d="M-350.57 307.46h838.23v-422.39h-838.23Z"/></clipPath><clipPath id="d" clipPathUnits="userSpaceOnUse"><path d="M-361.99 296.04h838.23v-422.39H-362Z"/></clipPath><clipPath id="e" clipPathUnits="userSpaceOnUse"><path d="M-347.44 310.6H490.8v-422.4h-838.23Z"/></clipPath><clipPath id="f" clipPathUnits="userSpaceOnUse"><path d="M-365.12 292.9H473.1v-422.38h-838.22Z"/></clipPath><clipPath id="g" clipPathUnits="userSpaceOnUse"><path d="M-356.28 305.23h838.23v-422.39h-838.23Z"/></clipPath></defs><g fill="none" stroke="currentColor" stroke-miterlimit="10" class="eit-icon"><path d="M0 0a25.12 25.12 0 1 0-50.24 0A25.12 25.12 0 0 0 0 0Z" class="eit-icon-circle" clip-path="url(#a)" transform="matrix(1.33333 0 0 -1.33333 67.653 34.16)"/><path stroke-linecap="round" stroke-linejoin="round" d="M0 0a3.48 3.48 0 1 0 6.96 0A3.48 3.48 0 0 0 0 0" clip-path="url(#b)" transform="matrix(1.33333 0 0 -1.33333 29.347 31.493)"/><path stroke-linecap="round" stroke-linejoin="round" d="M0 0a8.07 8.07 0 0 0 0 11.42" clip-path="url(#c)" transform="matrix(1.33333 0 0 -1.33333 26.376 39.105)"/><path stroke-linecap="round" stroke-linejoin="round" d="M0 0a8.07 8.07 0 0 0 0-11.42" clip-path="url(#d)" transform="matrix(1.33333 0 0 -1.33333 41.6 23.881)"/><path stroke-linecap="round" stroke-linejoin="round" d="M0 0a12.5 12.5 0 0 0 0 17.69" clip-path="url(#e)" transform="matrix(1.33333 0 0 -1.33333 22.198 43.285)"/><path stroke-linecap="round" stroke-linejoin="round" d="M0 0a12.5 12.5 0 0 0 0-17.69" clip-path="url(#f)" transform="matrix(1.33333 0 0 -1.33333 45.78 19.702)"/><path stroke-linecap="round" stroke-linejoin="round" d="M0 0v-12.25" clip-path="url(#g)" transform="matrix(1.33333 0 0 -1.33333 33.989 36.135)"/></g></svg>