<svg xmlns="http://www.w3.org/2000/svg" id="svg536" viewBox="0 0 68.32 68.32"><defs id="defs530"><clipPath id="a" clipPathUnits="userSpaceOnUse"><path id="path23" d="M0 422.39h838.23V0H0Z" transform="translate(-261.936 -241.153)"/></clipPath><clipPath id="clipPath95-1" clipPathUnits="userSpaceOnUse"><path id="path95-4" d="M0 422.39h838.23V0H0Z" transform="translate(-198.184 -180.067)"/></clipPath><clipPath id="clipPath97-1" clipPathUnits="userSpaceOnUse"><path id="path97-4" d="M0 422.39h838.23V0H0Z" transform="translate(-195.075 -172.67)"/></clipPath><clipPath id="clipPath99-6" clipPathUnits="userSpaceOnUse"><path id="path99-1" d="M0 422.39h838.23V0H0Z" transform="translate(-192.658 -190.866)"/></clipPath><clipPath id="clipPath101-0" clipPathUnits="userSpaceOnUse"><path id="path101-2" d="M0 422.39h838.23V0H0Z" transform="translate(-189.942 -189.298)"/></clipPath><clipPath id="clipPath103-4" clipPathUnits="userSpaceOnUse"><path id="path103-0" d="M0 422.39h838.23V0H0Z" transform="translate(-186.241 -187.161)"/></clipPath><clipPath id="clipPath105-4" clipPathUnits="userSpaceOnUse"><path id="path105-3" d="M0 422.39h838.23V0H0Z" transform="translate(-202.707 -186.657)"/></clipPath><clipPath id="clipPath107-1" clipPathUnits="userSpaceOnUse"><path id="path107-7" d="M0 422.39h838.23V0H0Z" transform="translate(-199.988 -188.226)"/></clipPath><clipPath id="clipPath109-9" clipPathUnits="userSpaceOnUse"><path id="path109-4" d="M0 422.39h838.23V0H0Z" transform="translate(-196.283 -190.366)"/></clipPath><clipPath id="clipPath111-7" clipPathUnits="userSpaceOnUse"><path id="path111-0" d="M0 422.39h838.23V0H0Z" transform="translate(-204.079 -175.868)"/></clipPath><clipPath id="clipPath113-1" clipPathUnits="userSpaceOnUse"><path id="path113-1" d="M0 422.39h838.23V0H0Z" transform="translate(-204.079 -179)"/></clipPath><clipPath id="clipPath115-5" clipPathUnits="userSpaceOnUse"><path id="path115-2" d="M0 422.39h838.23V0H0Z" transform="translate(-204.079 -183.267)"/></clipPath><clipPath id="clipPath117-2" clipPathUnits="userSpaceOnUse"><path id="path117-2" d="M0 422.39h838.23V0H0Z" transform="translate(-183.996 -184.267)"/></clipPath><clipPath id="clipPath119-4" clipPathUnits="userSpaceOnUse"><path id="path119-9" d="M0 422.39h838.23V0H0Z" transform="translate(-183.996 -181.151)"/></clipPath><clipPath id="clipPath121-7" clipPathUnits="userSpaceOnUse"><path id="path121-7" d="M0 422.39h838.23V0H0Z" transform="translate(-183.996 -176.92)"/></clipPath><clipPath id="clipPath123-2" clipPathUnits="userSpaceOnUse"><path id="path123-0" d="M0 422.39h838.23V0H0Z" transform="translate(-185.595 -174.27)"/></clipPath><clipPath id="clipPath125-9" clipPathUnits="userSpaceOnUse"><path id="path125-0" d="M0 422.39h838.23V0H0Z" transform="translate(-185.379 -175.068)"/></clipPath><clipPath id="clipPath127-7" clipPathUnits="userSpaceOnUse"><path id="path127-1" d="M0 422.39h838.23V0H0Z" transform="translate(-185.595 -174.27)"/></clipPath><clipPath id="clipPath129-6" clipPathUnits="userSpaceOnUse"><path id="path129-0" d="M0 422.39h838.23V0H0Z" transform="translate(-185.595 -185.865)"/></clipPath><clipPath id="clipPath131-9" clipPathUnits="userSpaceOnUse"><path id="path131-2" d="M0 422.39h838.23V0H0Z" transform="translate(-195.637 -191.662)"/></clipPath><clipPath id="clipPath133-9" clipPathUnits="userSpaceOnUse"><path id="path133-6" d="M0 422.39h838.23V0H0Z" transform="translate(-185.379 -175.068)"/></clipPath><clipPath id="clipPath135-0" clipPathUnits="userSpaceOnUse"><path id="path135-2" d="M0 422.39h838.23V0H0Z" transform="translate(-185.142 -185.204)"/></clipPath><clipPath id="clipPath137-8" clipPathUnits="userSpaceOnUse"><path id="path137-4" d="M0 422.39h838.23V0H0Z" transform="translate(-202.497 -174.27)"/></clipPath><clipPath id="clipPath139-4" clipPathUnits="userSpaceOnUse"><path id="path139-8" d="M0 422.39h838.23V0H0Z" transform="translate(-202.497 -185.865)"/></clipPath><clipPath id="clipPath141-0" clipPathUnits="userSpaceOnUse"><path id="path141-1" d="M0 422.39h838.23V0H0Z" transform="translate(-202.713 -175.068)"/></clipPath><clipPath id="clipPath143-5" clipPathUnits="userSpaceOnUse"><path id="path143-1" d="M0 422.39h838.23V0H0Z" transform="translate(-202.95 -185.204)"/></clipPath><clipPath id="clipPath145-1" clipPathUnits="userSpaceOnUse"><path id="path145-1" d="M0 422.39h838.23V0H0Z" transform="translate(-194.038 -190.063)"/></clipPath></defs><g id="g355" class="eit-icon" transform="translate(-224.567 -291.003)"><path id="path94-5" d="M0 0a4.15 4.15 0 1 0-8.3 0A4.15 4.15 0 0 0 0 0Z" clip-path="url(#clipPath95-1)" style="fill:none;stroke:currentColor;stroke-width:1;stroke-linecap:butt;stroke-linejoin:miter;stroke-miterlimit:10;stroke-dasharray:none;stroke-opacity:1" transform="matrix(1.33333 0 0 -1.33333 264.245 323.097)"/><path id="path96-1" d="M0 0h-1.72c-3 0-5.44-2.44-5.44-5.44V-8.9h12.6v3.46C5.44-2.44 3 0 0 0Z" clip-path="url(#clipPath97-1)" style="fill:none;stroke:currentColor;stroke-width:1;stroke-linecap:butt;stroke-linejoin:miter;stroke-miterlimit:10;stroke-dasharray:none;stroke-opacity:1" transform="matrix(1.33333 0 0 -1.33333 260.1 332.96)"/><path id="path98-7" d="m0 0-.86-.5" clip-path="url(#clipPath99-6)" style="fill:none;stroke:currentColor;stroke-width:1;stroke-linecap:butt;stroke-linejoin:miter;stroke-miterlimit:10;stroke-dasharray:none;stroke-opacity:1" transform="matrix(1.33333 0 0 -1.33333 256.877 308.698)"/><path id="path100-0" d="m0 0-2.77-1.6" clip-path="url(#clipPath101-0)" style="fill:none;stroke:currentColor;stroke-width:1;stroke-linecap:butt;stroke-linejoin:miter;stroke-miterlimit:10;stroke-dasharray:2.137,2.137;stroke-dashoffset:0;stroke-opacity:1" transform="matrix(1.33333 0 0 -1.33333 253.256 310.79)"/><path id="path102-8" d="m0 0-.87-.5" clip-path="url(#clipPath103-4)" style="fill:none;stroke:currentColor;stroke-width:1;stroke-linecap:butt;stroke-linejoin:miter;stroke-miterlimit:10;stroke-dasharray:none;stroke-opacity:1" transform="matrix(1.33333 0 0 -1.33333 248.321 313.639)"/><path id="path104-5" d="m0 0-.87.5" clip-path="url(#clipPath105-4)" style="fill:none;stroke:currentColor;stroke-width:1;stroke-linecap:butt;stroke-linejoin:miter;stroke-miterlimit:10;stroke-dasharray:none;stroke-opacity:1" transform="matrix(1.33333 0 0 -1.33333 270.276 314.31)"/><path id="path106-3" d="m0 0-2.78 1.6" clip-path="url(#clipPath107-1)" style="fill:none;stroke:currentColor;stroke-width:1;stroke-linecap:butt;stroke-linejoin:miter;stroke-miterlimit:10;stroke-dasharray:2.139,2.139;stroke-dashoffset:0;stroke-opacity:1" transform="matrix(1.33333 0 0 -1.33333 266.65 312.218)"/><path id="path108-7" d="m0 0-.87.5" clip-path="url(#clipPath109-9)" style="fill:none;stroke:currentColor;stroke-width:1;stroke-linecap:butt;stroke-linejoin:miter;stroke-miterlimit:10;stroke-dasharray:none;stroke-opacity:1" transform="matrix(1.33333 0 0 -1.33333 261.71 309.365)"/><path id="path110-9" d="M0 0v1" clip-path="url(#clipPath111-7)" style="fill:none;stroke:currentColor;stroke-width:1;stroke-linecap:butt;stroke-linejoin:miter;stroke-miterlimit:10;stroke-dasharray:none;stroke-opacity:1" transform="matrix(1.33333 0 0 -1.33333 272.105 328.696)"/><path id="path112-6" d="M0 0v3.2" clip-path="url(#clipPath113-1)" style="fill:none;stroke:currentColor;stroke-width:1;stroke-linecap:butt;stroke-linejoin:miter;stroke-miterlimit:10;stroke-dasharray:2.133,2.133;stroke-dashoffset:0;stroke-opacity:1" transform="matrix(1.33333 0 0 -1.33333 272.105 324.519)"/><path id="path114-3" d="M0 0v1" clip-path="url(#clipPath115-5)" style="fill:none;stroke:currentColor;stroke-width:1;stroke-linecap:butt;stroke-linejoin:miter;stroke-miterlimit:10;stroke-dasharray:none;stroke-opacity:1" transform="matrix(1.33333 0 0 -1.33333 272.105 318.831)"/><path id="path116-1" d="M0 0v-1" clip-path="url(#clipPath117-2)" style="fill:none;stroke:currentColor;stroke-width:1;stroke-linecap:butt;stroke-linejoin:miter;stroke-miterlimit:10;stroke-dasharray:none;stroke-opacity:1" transform="matrix(1.33333 0 0 -1.33333 245.328 317.498)"/><path id="path118-5" d="M0 0v-3.17" clip-path="url(#clipPath119-4)" style="fill:none;stroke:currentColor;stroke-width:1;stroke-linecap:butt;stroke-linejoin:miter;stroke-miterlimit:10;stroke-dasharray:2.115,2.115;stroke-dashoffset:0;stroke-opacity:1" transform="matrix(1.33333 0 0 -1.33333 245.328 321.652)"/><path id="path120-8" d="M0 0v-1" clip-path="url(#clipPath121-7)" style="fill:none;stroke:currentColor;stroke-width:1;stroke-linecap:butt;stroke-linejoin:miter;stroke-miterlimit:10;stroke-dasharray:none;stroke-opacity:1" transform="matrix(1.33333 0 0 -1.33333 245.328 327.292)"/><path id="path122-0" d="M0 0a1.6 1.6 0 1 0-3.2 0A1.6 1.6 0 0 0 0 0Z" clip-path="url(#clipPath123-2)" style="fill:none;stroke:currentColor;stroke-width:1;stroke-linecap:butt;stroke-linejoin:miter;stroke-miterlimit:10;stroke-dasharray:none;stroke-opacity:1" transform="matrix(1.33333 0 0 -1.33333 247.46 330.827)"/><path id="path124-9" d="m0 0 4.06 2.35" clip-path="url(#clipPath125-9)" style="fill:none;stroke:currentColor;stroke-width:1;stroke-linecap:butt;stroke-linejoin:miter;stroke-miterlimit:10;stroke-dasharray:none;stroke-opacity:1" transform="matrix(1.33333 0 0 -1.33333 247.172 329.762)"/><path id="path126-2" d="M0 0a1.6 1.6 0 1 0-3.2 0A1.6 1.6 0 0 0 0 0Z" clip-path="url(#clipPath127-7)" style="fill:none;stroke:currentColor;stroke-width:1;stroke-linecap:butt;stroke-linejoin:miter;stroke-miterlimit:10;stroke-dasharray:none;stroke-opacity:1" transform="matrix(1.33333 0 0 -1.33333 247.46 330.827)"/><path id="path128-4" d="M0 0a1.6 1.6 0 1 0-3.2 0A1.6 1.6 0 0 0 0 0Z" clip-path="url(#clipPath129-6)" style="fill:none;stroke:currentColor;stroke-width:1;stroke-linecap:butt;stroke-linejoin:miter;stroke-miterlimit:10;stroke-dasharray:none;stroke-opacity:1" transform="matrix(1.33333 0 0 -1.33333 247.46 315.366)"/><path id="path130-3" d="M0 0a1.6 1.6 0 1 0-3.2 0A1.6 1.6 0 0 0 0 0Z" clip-path="url(#clipPath131-9)" style="fill:none;stroke:currentColor;stroke-width:1;stroke-linecap:butt;stroke-linejoin:miter;stroke-miterlimit:10;stroke-dasharray:none;stroke-opacity:1" transform="matrix(1.33333 0 0 -1.33333 260.849 307.637)"/><path id="path132-3" d="m0 0 4.06 2.35" clip-path="url(#clipPath133-9)" style="fill:none;stroke:currentColor;stroke-width:1;stroke-linecap:butt;stroke-linejoin:miter;stroke-miterlimit:10;stroke-dasharray:none;stroke-opacity:1" transform="matrix(1.33333 0 0 -1.33333 247.172 329.762)"/><path id="path134-9" d="m0 0 4.33-2.5" clip-path="url(#clipPath135-0)" style="fill:none;stroke:currentColor;stroke-width:1;stroke-linecap:butt;stroke-linejoin:miter;stroke-miterlimit:10;stroke-dasharray:none;stroke-opacity:1" transform="matrix(1.33333 0 0 -1.33333 246.855 316.248)"/><path id="path136-0" d="M0 0a1.6 1.6 0 1 1 3.2 0A1.6 1.6 0 0 1 0 0Z" clip-path="url(#clipPath137-8)" style="fill:none;stroke:currentColor;stroke-width:1;stroke-linecap:butt;stroke-linejoin:miter;stroke-miterlimit:10;stroke-dasharray:none;stroke-opacity:1" transform="matrix(1.33333 0 0 -1.33333 269.996 330.827)"/><path id="path138-5" d="M0 0a1.6 1.6 0 1 1 3.2 0A1.6 1.6 0 0 1 0 0Z" clip-path="url(#clipPath139-4)" style="fill:none;stroke:currentColor;stroke-width:1;stroke-linecap:butt;stroke-linejoin:miter;stroke-miterlimit:10;stroke-dasharray:none;stroke-opacity:1" transform="matrix(1.33333 0 0 -1.33333 269.996 315.366)"/><path id="path140-5" d="m0 0-4.06 2.35" clip-path="url(#clipPath141-0)" style="fill:none;stroke:currentColor;stroke-width:1;stroke-linecap:butt;stroke-linejoin:miter;stroke-miterlimit:10;stroke-dasharray:none;stroke-opacity:1" transform="matrix(1.33333 0 0 -1.33333 270.284 329.762)"/><path id="path142-4" d="m0 0-4.33-2.5" clip-path="url(#clipPath143-5)" style="fill:none;stroke:currentColor;stroke-width:1;stroke-linecap:butt;stroke-linejoin:miter;stroke-miterlimit:10;stroke-dasharray:none;stroke-opacity:1" transform="matrix(1.33333 0 0 -1.33333 270.6 316.248)"/><path id="path144-4" d="M0 0v-4.69" clip-path="url(#clipPath145-1)" style="fill:none;stroke:currentColor;stroke-width:1;stroke-linecap:butt;stroke-linejoin:miter;stroke-miterlimit:10;stroke-dasharray:none;stroke-opacity:1" transform="matrix(1.33333 0 0 -1.33333 258.717 309.769)"/><path id="path531" fill="none" stroke="currentColor" stroke-dasharray="none" stroke-linecap="butt" stroke-linejoin="miter" stroke-miterlimit="10" stroke-opacity="1" stroke-width="1" d="M0 0a25.12 25.12 0 1 0-50.24 0A25.12 25.12 0 0 0 0 0Z" class="eit-icon-circle" clip-path="url(#a)" transform="matrix(1.33333 0 0 -1.33333 292.22 325.163)"/></g></svg>