<svg xmlns="http://www.w3.org/2000/svg" viewBox="0 0 68.32 68.32"><defs><clipPath id="A" clipPathUnits="userSpaceOnUse"><path d="M-261.936 181.237h838.23v-422.39h-838.23Z"/></clipPath><clipPath id="a" clipPathUnits="userSpaceOnUse"><path d="M-198.184 242.323h838.23v-422.39h-838.23Z"/></clipPath><clipPath id="b" clipPathUnits="userSpaceOnUse"><path d="M-195.075 249.72h838.23v-422.39h-838.23Z"/></clipPath><clipPath id="c" clipPathUnits="userSpaceOnUse"><path d="M-192.658 231.524h838.23v-422.39h-838.23Z"/></clipPath><clipPath id="d" clipPathUnits="userSpaceOnUse"><path d="M-189.942 233.092h838.23v-422.39h-838.23Z"/></clipPath><clipPath id="e" clipPathUnits="userSpaceOnUse"><path d="M-186.241 235.229h838.23v-422.39h-838.23Z"/></clipPath><clipPath id="f" clipPathUnits="userSpaceOnUse"><path d="M-202.707 235.733h838.23v-422.39h-838.23Z"/></clipPath><clipPath id="g" clipPathUnits="userSpaceOnUse"><path d="M-199.988 234.164h838.23v-422.39h-838.23Z"/></clipPath><clipPath id="h" clipPathUnits="userSpaceOnUse"><path d="M-196.283 232.024h838.23v-422.39h-838.23Z"/></clipPath><clipPath id="i" clipPathUnits="userSpaceOnUse"><path d="M-204.079 246.522h838.23v-422.39h-838.23Z"/></clipPath><clipPath id="j" clipPathUnits="userSpaceOnUse"><path d="M-204.079 243.39h838.23V-179h-838.23Z"/></clipPath><clipPath id="k" clipPathUnits="userSpaceOnUse"><path d="M-204.079 239.123h838.23v-422.39h-838.23Z"/></clipPath><clipPath id="l" clipPathUnits="userSpaceOnUse"><path d="M-183.996 238.123h838.23v-422.39h-838.23Z"/></clipPath><clipPath id="m" clipPathUnits="userSpaceOnUse"><path d="M-183.996 241.239h838.23v-422.39h-838.23Z"/></clipPath><clipPath id="n" clipPathUnits="userSpaceOnUse"><path d="M-183.996 245.47h838.23v-422.39h-838.23Z"/></clipPath><clipPath id="o" clipPathUnits="userSpaceOnUse"><path d="M-185.595 248.12h838.23v-422.39h-838.23Z"/></clipPath><clipPath id="p" clipPathUnits="userSpaceOnUse"><path d="M-185.379 247.322h838.23v-422.39h-838.23Z"/></clipPath><clipPath id="q" clipPathUnits="userSpaceOnUse"><path d="M-185.595 248.12h838.23v-422.39h-838.23Z"/></clipPath><clipPath id="r" clipPathUnits="userSpaceOnUse"><path d="M-185.595 236.525h838.23v-422.39h-838.23Z"/></clipPath><clipPath id="s" clipPathUnits="userSpaceOnUse"><path d="M-195.637 230.728h838.23v-422.39h-838.23Z"/></clipPath><clipPath id="t" clipPathUnits="userSpaceOnUse"><path d="M-185.379 247.322h838.23v-422.39h-838.23Z"/></clipPath><clipPath id="u" clipPathUnits="userSpaceOnUse"><path d="M-185.142 237.186h838.23v-422.39h-838.23Z"/></clipPath><clipPath id="v" clipPathUnits="userSpaceOnUse"><path d="M-202.497 248.12h838.23v-422.39h-838.23Z"/></clipPath><clipPath id="w" clipPathUnits="userSpaceOnUse"><path d="M-202.497 236.525h838.23v-422.39h-838.23Z"/></clipPath><clipPath id="x" clipPathUnits="userSpaceOnUse"><path d="M-202.713 247.322h838.23v-422.39h-838.23Z"/></clipPath><clipPath id="y" clipPathUnits="userSpaceOnUse"><path d="M-202.95 237.186h838.23v-422.39h-838.23Z"/></clipPath><clipPath id="z" clipPathUnits="userSpaceOnUse"><path d="M-194.038 232.327h838.23v-422.39h-838.23Z"/></clipPath></defs><g class="eit-icon"><path d="M0 0a4.15 4.15 0 1 0-8.3 0A4.15 4.15 0 0 0 0 0Z" clip-path="url(#a)" style="fill:none;stroke:currentColor;stroke-width:1;stroke-linecap:butt;stroke-linejoin:miter;stroke-miterlimit:10;stroke-dasharray:none;stroke-opacity:1" transform="matrix(1.33333 0 0 -1.33333 39.678 32.094)"/><path d="M0 0h-1.72c-3 0-5.44-2.44-5.44-5.44V-8.9h12.6v3.46C5.44-2.44 3 0 0 0Z" clip-path="url(#b)" style="fill:none;stroke:currentColor;stroke-width:1;stroke-linecap:butt;stroke-linejoin:miter;stroke-miterlimit:10;stroke-dasharray:none;stroke-opacity:1" transform="matrix(1.33333 0 0 -1.33333 35.533 41.957)"/><path d="m0 0-.86-.5" clip-path="url(#c)" style="fill:none;stroke:currentColor;stroke-width:1;stroke-linecap:butt;stroke-linejoin:miter;stroke-miterlimit:10;stroke-dasharray:none;stroke-opacity:1" transform="matrix(1.33333 0 0 -1.33333 32.31 17.695)"/><path d="m0 0-2.77-1.6" clip-path="url(#d)" style="fill:none;stroke:currentColor;stroke-width:1;stroke-linecap:butt;stroke-linejoin:miter;stroke-miterlimit:10;stroke-dasharray:2.137,2.137;stroke-dashoffset:0;stroke-opacity:1" transform="matrix(1.33333 0 0 -1.33333 28.689 19.787)"/><path d="m0 0-.87-.5" clip-path="url(#e)" style="fill:none;stroke:currentColor;stroke-width:1;stroke-linecap:butt;stroke-linejoin:miter;stroke-miterlimit:10;stroke-dasharray:none;stroke-opacity:1" transform="matrix(1.33333 0 0 -1.33333 23.754 22.636)"/><path d="m0 0-.87.5" clip-path="url(#f)" style="fill:none;stroke:currentColor;stroke-width:1;stroke-linecap:butt;stroke-linejoin:miter;stroke-miterlimit:10;stroke-dasharray:none;stroke-opacity:1" transform="matrix(1.33333 0 0 -1.33333 45.709 23.307)"/><path d="m0 0-2.78 1.6" clip-path="url(#g)" style="fill:none;stroke:currentColor;stroke-width:1;stroke-linecap:butt;stroke-linejoin:miter;stroke-miterlimit:10;stroke-dasharray:2.139,2.139;stroke-dashoffset:0;stroke-opacity:1" transform="matrix(1.33333 0 0 -1.33333 42.083 21.215)"/><path d="m0 0-.87.5" clip-path="url(#h)" style="fill:none;stroke:currentColor;stroke-width:1;stroke-linecap:butt;stroke-linejoin:miter;stroke-miterlimit:10;stroke-dasharray:none;stroke-opacity:1" transform="matrix(1.33333 0 0 -1.33333 37.143 18.362)"/><path d="M0 0v1" clip-path="url(#i)" style="fill:none;stroke:currentColor;stroke-width:1;stroke-linecap:butt;stroke-linejoin:miter;stroke-miterlimit:10;stroke-dasharray:none;stroke-opacity:1" transform="matrix(1.33333 0 0 -1.33333 47.538 37.693)"/><path d="M0 0v3.2" clip-path="url(#j)" style="fill:none;stroke:currentColor;stroke-width:1;stroke-linecap:butt;stroke-linejoin:miter;stroke-miterlimit:10;stroke-dasharray:2.133,2.133;stroke-dashoffset:0;stroke-opacity:1" transform="matrix(1.33333 0 0 -1.33333 47.538 33.516)"/><path d="M0 0v1" clip-path="url(#k)" style="fill:none;stroke:currentColor;stroke-width:1;stroke-linecap:butt;stroke-linejoin:miter;stroke-miterlimit:10;stroke-dasharray:none;stroke-opacity:1" transform="matrix(1.33333 0 0 -1.33333 47.538 27.828)"/><path d="M0 0v-1" clip-path="url(#l)" style="fill:none;stroke:currentColor;stroke-width:1;stroke-linecap:butt;stroke-linejoin:miter;stroke-miterlimit:10;stroke-dasharray:none;stroke-opacity:1" transform="matrix(1.33333 0 0 -1.33333 20.761 26.495)"/><path d="M0 0v-3.17" clip-path="url(#m)" style="fill:none;stroke:currentColor;stroke-width:1;stroke-linecap:butt;stroke-linejoin:miter;stroke-miterlimit:10;stroke-dasharray:2.115,2.115;stroke-dashoffset:0;stroke-opacity:1" transform="matrix(1.33333 0 0 -1.33333 20.761 30.649)"/><path d="M0 0v-1" clip-path="url(#n)" style="fill:none;stroke:currentColor;stroke-width:1;stroke-linecap:butt;stroke-linejoin:miter;stroke-miterlimit:10;stroke-dasharray:none;stroke-opacity:1" transform="matrix(1.33333 0 0 -1.33333 20.761 36.289)"/><path d="M0 0a1.6 1.6 0 1 0-3.2 0A1.6 1.6 0 0 0 0 0Z" clip-path="url(#o)" style="fill:none;stroke:currentColor;stroke-width:1;stroke-linecap:butt;stroke-linejoin:miter;stroke-miterlimit:10;stroke-dasharray:none;stroke-opacity:1" transform="matrix(1.33333 0 0 -1.33333 22.893 39.824)"/><path d="m0 0 4.06 2.35" clip-path="url(#p)" style="fill:none;stroke:currentColor;stroke-width:1;stroke-linecap:butt;stroke-linejoin:miter;stroke-miterlimit:10;stroke-dasharray:none;stroke-opacity:1" transform="matrix(1.33333 0 0 -1.33333 22.605 38.759)"/><path d="M0 0a1.6 1.6 0 1 0-3.2 0A1.6 1.6 0 0 0 0 0Z" clip-path="url(#q)" style="fill:none;stroke:currentColor;stroke-width:1;stroke-linecap:butt;stroke-linejoin:miter;stroke-miterlimit:10;stroke-dasharray:none;stroke-opacity:1" transform="matrix(1.33333 0 0 -1.33333 22.893 39.824)"/><path d="M0 0a1.6 1.6 0 1 0-3.2 0A1.6 1.6 0 0 0 0 0Z" clip-path="url(#r)" style="fill:none;stroke:currentColor;stroke-width:1;stroke-linecap:butt;stroke-linejoin:miter;stroke-miterlimit:10;stroke-dasharray:none;stroke-opacity:1" transform="matrix(1.33333 0 0 -1.33333 22.893 24.363)"/><path d="M0 0a1.6 1.6 0 1 0-3.2 0A1.6 1.6 0 0 0 0 0Z" clip-path="url(#s)" style="fill:none;stroke:currentColor;stroke-width:1;stroke-linecap:butt;stroke-linejoin:miter;stroke-miterlimit:10;stroke-dasharray:none;stroke-opacity:1" transform="matrix(1.33333 0 0 -1.33333 36.282 16.634)"/><path d="m0 0 4.06 2.35" clip-path="url(#t)" style="fill:none;stroke:currentColor;stroke-width:1;stroke-linecap:butt;stroke-linejoin:miter;stroke-miterlimit:10;stroke-dasharray:none;stroke-opacity:1" transform="matrix(1.33333 0 0 -1.33333 22.605 38.759)"/><path d="m0 0 4.33-2.5" clip-path="url(#u)" style="fill:none;stroke:currentColor;stroke-width:1;stroke-linecap:butt;stroke-linejoin:miter;stroke-miterlimit:10;stroke-dasharray:none;stroke-opacity:1" transform="matrix(1.33333 0 0 -1.33333 22.288 25.245)"/><path d="M0 0a1.6 1.6 0 1 1 3.2 0A1.6 1.6 0 0 1 0 0Z" clip-path="url(#v)" style="fill:none;stroke:currentColor;stroke-width:1;stroke-linecap:butt;stroke-linejoin:miter;stroke-miterlimit:10;stroke-dasharray:none;stroke-opacity:1" transform="matrix(1.33333 0 0 -1.33333 45.429 39.824)"/><path d="M0 0a1.6 1.6 0 1 1 3.2 0A1.6 1.6 0 0 1 0 0Z" clip-path="url(#w)" style="fill:none;stroke:currentColor;stroke-width:1;stroke-linecap:butt;stroke-linejoin:miter;stroke-miterlimit:10;stroke-dasharray:none;stroke-opacity:1" transform="matrix(1.33333 0 0 -1.33333 45.429 24.363)"/><path d="m0 0-4.06 2.35" clip-path="url(#x)" style="fill:none;stroke:currentColor;stroke-width:1;stroke-linecap:butt;stroke-linejoin:miter;stroke-miterlimit:10;stroke-dasharray:none;stroke-opacity:1" transform="matrix(1.33333 0 0 -1.33333 45.717 38.759)"/><path d="m0 0-4.33-2.5" clip-path="url(#y)" style="fill:none;stroke:currentColor;stroke-width:1;stroke-linecap:butt;stroke-linejoin:miter;stroke-miterlimit:10;stroke-dasharray:none;stroke-opacity:1" transform="matrix(1.33333 0 0 -1.33333 46.033 25.245)"/><path d="M0 0v-4.69" clip-path="url(#z)" style="fill:none;stroke:currentColor;stroke-width:1;stroke-linecap:butt;stroke-linejoin:miter;stroke-miterlimit:10;stroke-dasharray:none;stroke-opacity:1" transform="matrix(1.33333 0 0 -1.33333 34.15 18.766)"/><path fill="none" stroke="currentColor" stroke-miterlimit="10" d="M0 0a25.12 25.12 0 1 0-50.24 0A25.12 25.12 0 0 0 0 0Z" class="eit-icon-circle" clip-path="url(#A)" transform="matrix(1.33333 0 0 -1.33333 67.653 34.16)"/></g></svg>