<svg xmlns="http://www.w3.org/2000/svg" viewBox="0 0 68.32 68.32"><defs><clipPath id="a" clipPathUnits="userSpaceOnUse"><path d="M-381.53 59.2H456.7v-422.4h-838.23Z"/></clipPath><clipPath id="b" clipPathUnits="userSpaceOnUse"><path d="M-360.3 52.95h838.22v-422.4H-360.3Z"/></clipPath><clipPath id="c" clipPathUnits="userSpaceOnUse"><path d="M-358.6 59.38h838.22v-422.4H-358.6Z"/></clipPath><clipPath id="d" clipPathUnits="userSpaceOnUse"><path d="M-359.3 68.38h838.22v-422.4H-359.3Z"/></clipPath><clipPath id="e" clipPathUnits="userSpaceOnUse"><path d="M-346.5 49.98h838.23v-422.4h-838.22Z"/></clipPath></defs><g fill="none" stroke="currentColor" stroke-miterlimit="10" class="eit-icon"><path d="M0 0a25.12 25.12 0 1 0-50.24 0A25.12 25.12 0 0 0 0 0Z" class="eit-icon-circle" clip-path="url(#a)" transform="matrix(1.33333 0 0 -1.33333 67.653 34.16)"/><path stroke-linecap="round" stroke-linejoin="round" d="M0 0a3.48 3.48 0 1 0 6.96 0A3.48 3.48 0 0 0 0 0" clip-path="url(#b)" transform="matrix(1.33333 0 0 -1.33333 39.354 25.836)"/><path stroke-linecap="round" stroke-linejoin="round" d="M0 0c.66.51 1.5.82 2.4.82h5.57a3.9 3.9 0 0 0 3.92-3.92V-9H.69" clip-path="url(#c)" transform="matrix(1.33333 0 0 -1.33333 37.088 34.407)"/><path stroke-linecap="round" stroke-linejoin="round" d="M0 0h-16.98v6.46a4.96 4.96 0 0 0 4.96 4.96h7.06A4.96 4.96 0 0 0 0 6.46Z" clip-path="url(#d)" transform="matrix(1.33333 0 0 -1.33333 38.02 46.403)"/><path stroke-linecap="round" stroke-linejoin="round" d="M0 0a4.32 4.32 0 1 0 8.64 0A4.32 4.32 0 0 0 0 0" clip-path="url(#e)" transform="matrix(1.33333 0 0 -1.33333 20.94 21.875)"/></g></svg>