<svg xmlns="http://www.w3.org/2000/svg" viewBox="0 0 68.32 68.32"><defs><clipPath id="a" clipPathUnits="userSpaceOnUse"><path d="M-560.92 59.2h838.23v-422.4h-838.23Z"/></clipPath><clipPath id="b" clipPathUnits="userSpaceOnUse"><path d="M-548.06 50.65h838.22v-422.4h-838.22Z"/></clipPath><clipPath id="c" clipPathUnits="userSpaceOnUse"><path d="M-546.12 59.2h838.23v-422.4h-838.23Z"/></clipPath><clipPath id="d" clipPathUnits="userSpaceOnUse"><path d="M-541.44 59.2h838.22v-422.4h-838.22Z"/></clipPath><clipPath id="e" clipPathUnits="userSpaceOnUse"><path d="M-534.22 59.2h838.23v-422.4h-838.23Z"/></clipPath><clipPath id="f" clipPathUnits="userSpaceOnUse"><path d="M-535.8 59.2h838.23v-422.4H-535.8Z"/></clipPath><clipPath id="g" clipPathUnits="userSpaceOnUse"><path d="M-547.83 43.44H290.4v-422.39h-838.23Z"/></clipPath></defs><g class="eit-icon"><path fill="none" stroke="currentColor" stroke-miterlimit="10" d="M0 0a25.12 25.12 0 1 0-50.24 0A25.12 25.12 0 0 0 0 0Z" class="eit-icon-circle" clip-path="url(#a)" transform="matrix(1.33333 0 0 -1.33333 67.653 34.16)"/><path fill="none" stroke="currentColor" stroke-miterlimit="10" d="M0 0a14.95 14.95 0 1 0-3.73 3.73" clip-path="url(#b)" transform="matrix(1.33333 0 0 -1.33333 50.514 22.766)"/><path fill="none" stroke="currentColor" stroke-miterlimit="10" d="M0 0a10.32 10.32 0 1 0-20.63 0A10.32 10.32 0 0 0 0 0Z" clip-path="url(#c)" transform="matrix(1.33333 0 0 -1.33333 47.916 34.16)"/><path fill="none" stroke="currentColor" stroke-miterlimit="10" d="M0 0a5.65 5.65 0 1 0-11.3 0A5.65 5.65 0 0 0 0 0Z" clip-path="url(#d)" transform="matrix(1.33333 0 0 -1.33333 41.687 34.16)"/><path fill="currentColor" d="M0 0a1.58 1.58 0 1 0 3.16 0A1.58 1.58 0 0 0 0 0" clip-path="url(#e)" transform="matrix(1.33333 0 0 -1.33333 32.05 34.16)"/><path fill="none" stroke="currentColor" stroke-linecap="round" stroke-linejoin="round" stroke-miterlimit="10" d="m0 0 7.32 7.32" clip-path="url(#f)" transform="matrix(1.33333 0 0 -1.33333 34.16 34.16)"/><path fill="none" stroke="currentColor" stroke-linecap="round" stroke-linejoin="round" stroke-miterlimit="10" d="m0 0-4.6-4.6-.1-3.83 3.82.1 4.6 4.61-3.82-.1z" clip-path="url(#g)" transform="matrix(1.33333 0 0 -1.33333 50.2 13.16)"/></g></svg>