<svg xmlns="http://www.w3.org/2000/svg" viewBox="0 0 68.32 68.32"><defs><clipPath id="a" clipPathUnits="userSpaceOnUse"><path d="M-501.12 181.3H337.1v-422.38h-838.23Z"/></clipPath><clipPath id="b" clipPathUnits="userSpaceOnUse"><path d="M-473.84 165.65H364.4v-422.4h-838.23Z"/></clipPath><clipPath id="c" clipPathUnits="userSpaceOnUse"><path d="M-480.18 175.52h838.23v-422.39h-838.23Z"/></clipPath><clipPath id="d" clipPathUnits="userSpaceOnUse"><path d="M0 422.39h838.23V0H0Z"/></clipPath><clipPath id="e" clipPathUnits="userSpaceOnUse"><path d="M-476 185.86h838.23v-422.4H-476Z"/></clipPath><clipPath id="f" clipPathUnits="userSpaceOnUse"><path d="M-478.37 188.85h838.23v-422.39h-838.23Z"/></clipPath><clipPath id="g" clipPathUnits="userSpaceOnUse"><path d="M-476 175.52h838.23v-422.39H-476Z"/></clipPath><clipPath id="h" clipPathUnits="userSpaceOnUse"><path d="M-461.59 182.63h838.23v-422.39H-461.6Z"/></clipPath><clipPath id="i" clipPathUnits="userSpaceOnUse"><path d="M-467.93 192.5H370.3v-422.38h-838.23Z"/></clipPath><clipPath id="j" clipPathUnits="userSpaceOnUse"><path d="M-486.08 182.63h838.23v-422.39h-838.23Z"/></clipPath><clipPath id="k" clipPathUnits="userSpaceOnUse"><path d="M-492.42 192.5H345.8v-422.38h-838.22Z"/></clipPath><clipPath id="l" clipPathUnits="userSpaceOnUse"><path d="M-481.5 185.86h838.22v-422.4H-481.5Z"/></clipPath><clipPath id="m" clipPathUnits="userSpaceOnUse"><path d="M-467.28 187.57h838.23v-422.39h-838.23Z"/></clipPath></defs><g fill="none" stroke="currentColor" stroke-miterlimit="10" class="eit-icon"><path d="M0 0a25.12 25.12 0 1 0-50.24 0A25.12 25.12 0 0 0 0 0Z" class="eit-icon-circle" clip-path="url(#a)" transform="matrix(1.33333 0 0 -1.33333 67.653 34.16)"/><path stroke-linecap="round" stroke-linejoin="round" stroke-width=".95" d="M0 0a2.17 2.17 0 1 0 4.33 0A2.17 2.17 0 0 0 0 0" clip-path="url(#b)" transform="matrix(1.33333 0 0 -1.33333 31.27 13.28)"/><path stroke-linecap="round" stroke-linejoin="round" stroke-width=".95" d="M0 0h-8.35v2.19A3.9 3.9 0 0 0-4.43 6.1h.5A3.9 3.9 0 0 0 0 2.19Z" clip-path="url(#c)" transform="matrix(1.33333 0 0 -1.33333 39.726 26.449)"/><path stroke-linecap="round" stroke-linejoin="round" stroke-width=".95" d="M470.5 243.68h11v-7.15h-11z" clip-path="url(#d)" transform="matrix(1.33333 0 0 -1.33333 -600.51 355.604)"/><path stroke-linecap="round" stroke-linejoin="round" stroke-width=".95" d="M0 0v-3" clip-path="url(#e)" transform="matrix(1.33333 0 0 -1.33333 34.16 40.228)"/><path stroke-linecap="round" stroke-linejoin="round" stroke-width=".95" d="M0 0h-4.73" clip-path="url(#f)" transform="matrix(1.33333 0 0 -1.33333 37.314 44.224)"/><path stroke-linecap="round" stroke-linejoin="round" stroke-width=".95" d="M0 0v-3.19" clip-path="url(#g)" transform="matrix(1.33333 0 0 -1.33333 34.16 26.449)"/><path stroke-linecap="round" stroke-linejoin="round" stroke-width=".95" d="M0 0a2.17 2.17 0 1 0 4.33 0A2.17 2.17 0 0 0 0 0" clip-path="url(#h)" transform="matrix(1.33333 0 0 -1.33333 14.942 35.928)"/><path stroke-linecap="round" stroke-linejoin="round" stroke-width=".95" d="M0 0h-8.35v2.19A3.9 3.9 0 0 0-4.43 6.1h.51A3.9 3.9 0 0 0 0 2.19Z" clip-path="url(#i)" transform="matrix(1.33333 0 0 -1.33333 23.397 49.096)"/><path stroke-linecap="round" stroke-linejoin="round" stroke-width=".95" d="M0 0a2.17 2.17 0 1 0 4.33 0A2.17 2.17 0 0 0 0 0" clip-path="url(#j)" transform="matrix(1.33333 0 0 -1.33333 47.6 35.928)"/><path stroke-linecap="round" stroke-linejoin="round" stroke-width=".95" d="M0 0h-8.35v2.19A3.9 3.9 0 0 0-4.43 6.1h.5A3.9 3.9 0 0 0 0 2.19Z" clip-path="url(#k)" transform="matrix(1.33333 0 0 -1.33333 56.056 49.096)"/><path stroke-linecap="round" stroke-linejoin="round" stroke-width=".95" d="m0 0 3.22-1.72" clip-path="url(#l)" transform="matrix(1.33333 0 0 -1.33333 41.498 40.228)"/><path stroke-linecap="round" stroke-linejoin="round" stroke-width=".95" d="m0 0 3.22 1.72" clip-path="url(#m)" transform="matrix(1.33333 0 0 -1.33333 22.53 42.517)"/></g></svg>