<svg xmlns="http://www.w3.org/2000/svg" viewBox="0 0 68.32 68.319"><defs><clipPath id="a" clipPathUnits="userSpaceOnUse"><path d="M-261.68 364.3h838.23V-58.09h-838.23Z"/></clipPath><clipPath id="b" clipPathUnits="userSpaceOnUse"><path d="M-244.7 372.78h838.23V-49.61H-244.7Z"/></clipPath><clipPath id="c" clipPathUnits="userSpaceOnUse"><path d="M-229.4 363.81h838.22V-58.58H-229.4Z"/></clipPath><clipPath id="d" clipPathUnits="userSpaceOnUse"><path d="M-235.45 363.81h838.22V-58.58h-838.22Z"/></clipPath><clipPath id="e" clipPathUnits="userSpaceOnUse"><path d="M-241.5 363.81h838.22V-58.58H-241.5Z"/></clipPath></defs><g class="eit-icon"><path fill="none" stroke="currentColor" stroke-miterlimit="10" d="M0 0a25.12 25.12 0 1 0-50.24 0A25.12 25.12 0 0 0 0 0Z" class="eit-icon-circle" clip-path="url(#a)" transform="matrix(1.33333 0 0 -1.33333 67.653 34.16)"/><path fill="none" stroke="currentColor" stroke-linecap="round" stroke-linejoin="round" stroke-miterlimit="10" d="M0 0v-5.85L-5.49-.36h-8.12a9.23 9.23 0 0 0-9.2 9.2c0 5.06 4.14 9.2 9.2 9.2h11.06c5.06 0 9.2-4.14 9.2-9.2A9.2 9.2 0 0 0 0 0" clip-path="url(#b)" transform="matrix(1.33333 0 0 -1.33333 45.009 45.46)"/><path fill="currentColor" d="M0 0a1.16 1.16 0 1 0 2.32 0A1.16 1.16 0 0 0 0 0" clip-path="url(#c)" transform="matrix(1.33333 0 0 -1.33333 24.62 33.502)"/><path fill="currentColor" d="M0 0a1.16 1.16 0 1 0 2.32 0A1.16 1.16 0 0 0 0 0" clip-path="url(#d)" transform="matrix(1.33333 0 0 -1.33333 32.687 33.502)"/><path fill="currentColor" d="M0 0a1.16 1.16 0 1 0 2.32 0A1.16 1.16 0 0 0 0 0" clip-path="url(#e)" transform="matrix(1.33333 0 0 -1.33333 40.752 33.502)"/></g></svg>