<svg xmlns="http://www.w3.org/2000/svg" viewBox="0 0 68.32 68.319"><defs><clipPath id="a" clipPathUnits="userSpaceOnUse"><path d="M-620.68 365.25h838.23V-57.14h-838.23Z"/></clipPath><clipPath id="b" clipPathUnits="userSpaceOnUse"><path d="M-601.37 373.31h838.23V-49.08h-838.23Z"/></clipPath><clipPath id="c" clipPathUnits="userSpaceOnUse"><path d="M-591.54 362.53h838.23V-59.86h-838.23Z"/></clipPath><clipPath id="d" clipPathUnits="userSpaceOnUse"><path d="M-596.43 373.64H241.8V-48.75h-838.23Z"/></clipPath><clipPath id="e" clipPathUnits="userSpaceOnUse"><path d="M-602.38 354.1h838.23V-68.3h-838.23Z"/></clipPath><clipPath id="f" clipPathUnits="userSpaceOnUse"><path d="M-613.26 360.4h838.22V-61.99h-838.22Z"/></clipPath></defs><g fill="none" stroke="currentColor" stroke-miterlimit="10" class="eit-icon"><path d="M0 0a25.12 25.12 0 1 0-50.24 0A25.12 25.12 0 0 0 0 0Z" class="eit-icon-circle" clip-path="url(#a)" transform="matrix(1.33333 0 0 -1.33333 67.653 34.16)"/><path stroke-linecap="round" stroke-linejoin="round" d="M0 0v-5.27L-4.94-.33h-7.32a8.3 8.3 0 0 0-8.28 8.29 8.3 8.3 0 0 0 8.28 8.29h9.96A8.3 8.3 0 0 0 6 7.96 8.3 8.3 0 0 0 0 0" clip-path="url(#b)" transform="matrix(1.33333 0 0 -1.33333 41.915 44.903)"/><path stroke-linecap="round" stroke-linejoin="round" d="M0 0a2.5 2.5 0 1 0 5 0 2.5 2.5 0 0 0-5 0" clip-path="url(#c)" transform="matrix(1.33333 0 0 -1.33333 28.808 30.53)"/><path stroke-linecap="round" stroke-linejoin="round" d="M0 0h-7.2v3.23a3.53 3.53 0 0 0 3.52 3.53h2.58a3.53 3.53 0 0 0 3.54-3.53v-1.3" clip-path="url(#d)" transform="matrix(1.33333 0 0 -1.33333 35.325 45.342)"/><path stroke-linecap="round" stroke-linejoin="round" d="M0 0a12 12 0 0 0 7.8-7.4" clip-path="url(#e)" transform="matrix(1.33333 0 0 -1.33333 43.254 19.281)"/><path stroke-linecap="round" stroke-linejoin="round" d="M0 0a15.2 15.2 0 0 1-9.95 9.45" clip-path="url(#f)" transform="matrix(1.33333 0 0 -1.33333 57.77 27.689)"/></g></svg>