<svg xmlns="http://www.w3.org/2000/svg" viewBox="0 0 68.32 68.32"><defs><clipPath id="a" clipPathUnits="userSpaceOnUse"><path d="M-441.33 303.75H396.9v-422.39h-838.23Z"/></clipPath><clipPath id="b" clipPathUnits="userSpaceOnUse"><path d="M-419.55 298.25h838.23v-422.39h-838.23Z"/></clipPath><clipPath id="c" clipPathUnits="userSpaceOnUse"><path d="M-404.3 298.64h838.23v-422.4H-404.3Z"/></clipPath><clipPath id="d" clipPathUnits="userSpaceOnUse"><path d="M-405.21 311.15h838.23v-422.4h-838.23Z"/></clipPath></defs><g class="eit-icon"><path fill="none" stroke="currentColor" stroke-miterlimit="10" d="M0 0a25.12 25.12 0 1 0-50.24 0A25.12 25.12 0 0 0 0 0Z" class="eit-icon-circle" clip-path="url(#a)" transform="matrix(1.33333 0 0 -1.33333 67.653 34.16)"/><path fill="none" stroke="currentColor" stroke-linecap="round" stroke-linejoin="round" stroke-miterlimit="10" d="M0 0h5.98c2.65 0 3.57-2.35 2.55-3.93 0 0 2-2.46 0-4.54 0 0 1.1-2.96-1.12-4.2 0 0 .5-4.24-3.5-4.24h-8.94c-1.23 0-4.83 2.27-4.83 2.27v12.69s2.71 0 3.85 3.16c1.13 3.15 2.8 4.83 3.45 8.73 0 0 1.76.42 2.7-1.58C1.05 6.43-1.44 3.43 0 0" clip-path="url(#b)" transform="matrix(1.33333 0 0 -1.33333 38.618 26.828)"/><path fill="none" stroke="currentColor" stroke-linecap="round" stroke-linejoin="round" stroke-miterlimit="10" d="M0 0h3.5a1.9 1.9 0 0 0 1.89-1.9v-11.87a1.9 1.9 0 0 0-1.9-1.9H0a1.9 1.9 0 0 0-1.9 1.9v11.88C-1.9-.85-1.03 0 0 0" clip-path="url(#c)" transform="matrix(1.33333 0 0 -1.33333 18.28 27.343)"/><path fill="currentColor" d="M0 0a.83.83 0 1 0 1.67 0A.83.83 0 0 0 0 0" clip-path="url(#d)" transform="matrix(1.33333 0 0 -1.33333 19.501 44.02)"/></g></svg>