<svg xmlns="http://www.w3.org/2000/svg" viewBox="0 0 68.32 68.32"><defs><clipPath id="a" clipPathUnits="userSpaceOnUse"><path d="M-261.936 181.237h838.23v-422.39h-838.23Z"/></clipPath><clipPath id="b" clipPathUnits="userSpaceOnUse"><path d="M-444.486 244.569h838.23v-422.39h-838.23Z"/></clipPath><clipPath id="c" clipPathUnits="userSpaceOnUse"><path d="M-434.7 230.728h838.23v-422.39H-434.7Z"/></clipPath><clipPath id="d" clipPathUnits="userSpaceOnUse"><path d="M-432.354 232.081h838.23v-422.39h-838.23Z"/></clipPath><clipPath id="e" clipPathUnits="userSpaceOnUse"><path d="M-429.397 233.789h838.23v-422.39h-838.23Z"/></clipPath><clipPath id="f" clipPathUnits="userSpaceOnUse"><path d="M-448.866 234.276h838.23v-422.39h-838.23Z"/></clipPath><clipPath id="g" clipPathUnits="userSpaceOnUse"><path d="M-446.478 232.898h838.23v-422.39h-838.23Z"/></clipPath><clipPath id="h" clipPathUnits="userSpaceOnUse"><path d="M-443.434 231.14h838.23v-422.39h-838.23Z"/></clipPath><clipPath id="i" clipPathUnits="userSpaceOnUse"><path d="M-452.702 248.048h838.23v-422.39h-838.23Z"/></clipPath><clipPath id="j" clipPathUnits="userSpaceOnUse"><path d="M-452.702 245.395h838.23v-422.39h-838.23Z"/></clipPath><clipPath id="k" clipPathUnits="userSpaceOnUse"><path d="M-452.702 242.088h838.23v-422.39h-838.23Z"/></clipPath><clipPath id="l" clipPathUnits="userSpaceOnUse"><path d="M-424.718 241.088h838.23v-422.39h-838.23Z"/></clipPath><clipPath id="m" clipPathUnits="userSpaceOnUse"><path d="M-424.718 243.742h838.23v-422.39h-838.23Z"/></clipPath><clipPath id="n" clipPathUnits="userSpaceOnUse"><path d="M-424.718 247.048h838.23v-422.39h-838.23Z"/></clipPath><clipPath id="o" clipPathUnits="userSpaceOnUse"><path d="M-428.741 250.324h838.23v-422.39h-838.23Z"/></clipPath><clipPath id="p" clipPathUnits="userSpaceOnUse"><path d="M-428.532 238.692h838.23v-422.39h-838.23Z"/></clipPath><clipPath id="q" clipPathUnits="userSpaceOnUse"><path d="M-448.126 252.647h838.23v-422.39h-838.23Z"/></clipPath><clipPath id="r" clipPathUnits="userSpaceOnUse"><path d="M-448.865 250.42h838.23v-422.39h-838.23Z"/></clipPath><clipPath id="s" clipPathUnits="userSpaceOnUse"><path d="M-448.866 238.717h838.23v-422.39h-838.23Z"/></clipPath><clipPath id="t" clipPathUnits="userSpaceOnUse"><path d="M-438.71 233.011h838.23v-422.39h-838.23Z"/></clipPath><clipPath id="u" clipPathUnits="userSpaceOnUse"><path d="M-454.086 251.57h838.23v-422.39h-838.23Z"/></clipPath><clipPath id="v" clipPathUnits="userSpaceOnUse"><path d="M-455.23 256.57H383v-422.39h-838.23Z"/></clipPath><clipPath id="w" clipPathUnits="userSpaceOnUse"><path d="M-420.119 252.647h838.23v-422.39h-838.23Z"/></clipPath><clipPath id="x" clipPathUnits="userSpaceOnUse"><path d="M-426.079 251.57h838.23v-422.39h-838.23Z"/></clipPath><clipPath id="y" clipPathUnits="userSpaceOnUse"><path d="M-427.223 256.57h838.23v-422.39h-838.23Z"/></clipPath><clipPath id="z" clipPathUnits="userSpaceOnUse"><path d="M-448.126 236.49h838.23V-185.9h-838.23Z"/></clipPath><clipPath id="A" clipPathUnits="userSpaceOnUse"><path d="M-454.086 235.412h838.23v-422.39h-838.23Z"/></clipPath><clipPath id="B" clipPathUnits="userSpaceOnUse"><path d="M-455.23 240.413H383v-422.39h-838.23Z"/></clipPath><clipPath id="C" clipPathUnits="userSpaceOnUse"><path d="M-420.119 236.49h838.23V-185.9h-838.23Z"/></clipPath><clipPath id="D" clipPathUnits="userSpaceOnUse"><path d="M-426.079 235.412h838.23v-422.39h-838.23Z"/></clipPath><clipPath id="E" clipPathUnits="userSpaceOnUse"><path d="M-427.223 240.413h838.23v-422.39h-838.23Z"/></clipPath><clipPath id="F" clipPathUnits="userSpaceOnUse"><path d="M-434.122 228.413h838.23v-422.39h-838.23Z"/></clipPath><clipPath id="G" clipPathUnits="userSpaceOnUse"><path d="M-440.083 227.335h838.23v-422.39h-838.23Z"/></clipPath><clipPath id="H" clipPathUnits="userSpaceOnUse"><path d="M-441.226 232.335h838.23v-422.39h-838.23Z"/></clipPath><clipPath id="I" clipPathUnits="userSpaceOnUse"><path d="M-442.7 258.457h838.23v-422.39H-442.7Z"/></clipPath><clipPath id="J" clipPathUnits="userSpaceOnUse"><path d="M-445.044 257.104h838.23v-422.39h-838.23Z"/></clipPath><clipPath id="K" clipPathUnits="userSpaceOnUse"><path d="M-448 255.397h838.23v-422.39H-448Z"/></clipPath><clipPath id="L" clipPathUnits="userSpaceOnUse"><path d="M-428.532 254.909h838.23v-422.39h-838.23Z"/></clipPath><clipPath id="M" clipPathUnits="userSpaceOnUse"><path d="M-430.92 256.288h838.23v-422.39h-838.23Z"/></clipPath><clipPath id="N" clipPathUnits="userSpaceOnUse"><path d="M-433.963 258.044h838.23v-422.39h-838.23Z"/></clipPath><clipPath id="O" clipPathUnits="userSpaceOnUse"><path d="M-438.688 256.174h838.23v-422.39h-838.23Z"/></clipPath><clipPath id="P" clipPathUnits="userSpaceOnUse"><path d="M-434.078 260.773h838.23v-422.39h-838.23Z"/></clipPath><clipPath id="Q" clipPathUnits="userSpaceOnUse"><path d="M-440.038 259.696h838.23v-422.39h-838.23Z"/></clipPath><clipPath id="R" clipPathUnits="userSpaceOnUse"><path d="M-441.182 264.696h838.23v-422.39h-838.23Z"/></clipPath><clipPath id="T" clipPathUnits="userSpaceOnUse"><path d="M-441.226 244.569h838.23v-422.39h-838.23Z"/></clipPath></defs><g class="eit-icon"><path fill="none" stroke="currentColor" stroke-miterlimit="10" d="M0 0a25.12 25.12 0 1 0-50.24 0A25.12 25.12 0 0 0 0 0Z" class="eit-icon-circle" clip-path="url(#a)" transform="matrix(1.33333 0 0 -1.33333 67.654 34.16)"/><path d="M0 0a5.78 5.78 0 1 0-11.55 0A5.78 5.78 0 0 0 0 0Z" clip-path="url(#b)" style="fill:none;stroke:currentColor;stroke-width:1;stroke-linecap:butt;stroke-linejoin:miter;stroke-miterlimit:10;stroke-dasharray:none;stroke-opacity:1" transform="matrix(1.33333 0 0 -1.33333 41.847 34.128)"/><path d="m0 0-.87-.5" clip-path="url(#c)" style="fill:none;stroke:currentColor;stroke-width:1;stroke-linecap:butt;stroke-linejoin:miter;stroke-miterlimit:10;stroke-dasharray:none;stroke-opacity:1" transform="matrix(1.33333 0 0 -1.33333 28.798 15.673)"/><path d="m0 0-2.22-1.28" clip-path="url(#d)" style="fill:none;stroke:currentColor;stroke-width:1;stroke-linecap:butt;stroke-linejoin:miter;stroke-miterlimit:10;stroke-dasharray:1.707,1.707;stroke-dashoffset:0;stroke-opacity:1" transform="matrix(1.33333 0 0 -1.33333 25.672 17.478)"/><path d="m0 0-.86-.5" clip-path="url(#e)" style="fill:none;stroke:currentColor;stroke-width:1;stroke-linecap:butt;stroke-linejoin:miter;stroke-miterlimit:10;stroke-dasharray:none;stroke-opacity:1" transform="matrix(1.33333 0 0 -1.33333 21.729 19.754)"/><path d="m0 0-.87.5" clip-path="url(#f)" style="fill:none;stroke:currentColor;stroke-width:1;stroke-linecap:butt;stroke-linejoin:miter;stroke-miterlimit:10;stroke-dasharray:none;stroke-opacity:1" transform="matrix(1.33333 0 0 -1.33333 47.687 20.404)"/><path d="m0 0-2.28 1.32" clip-path="url(#g)" style="fill:none;stroke:currentColor;stroke-width:1;stroke-linecap:butt;stroke-linejoin:miter;stroke-miterlimit:10;stroke-dasharray:1.757,1.757;stroke-dashoffset:0;stroke-opacity:1" transform="matrix(1.33333 0 0 -1.33333 44.504 18.566)"/><path d="m0 0-.86.5" clip-path="url(#h)" style="fill:none;stroke:currentColor;stroke-width:1;stroke-linecap:butt;stroke-linejoin:miter;stroke-miterlimit:10;stroke-dasharray:none;stroke-opacity:1" transform="matrix(1.33333 0 0 -1.33333 40.445 16.223)"/><path d="M0 0v1" clip-path="url(#i)" style="fill:none;stroke:currentColor;stroke-width:1;stroke-linecap:butt;stroke-linejoin:miter;stroke-miterlimit:10;stroke-dasharray:none;stroke-opacity:1" transform="matrix(1.33333 0 0 -1.33333 52.802 38.766)"/><path d="M0 0v2.48" clip-path="url(#j)" style="fill:none;stroke:currentColor;stroke-width:1;stroke-linecap:butt;stroke-linejoin:miter;stroke-miterlimit:10;stroke-dasharray:1.653,1.653;stroke-dashoffset:0;stroke-opacity:1" transform="matrix(1.33333 0 0 -1.33333 52.802 35.229)"/><path d="M0 0v1" clip-path="url(#k)" style="fill:none;stroke:currentColor;stroke-width:1;stroke-linecap:butt;stroke-linejoin:miter;stroke-miterlimit:10;stroke-dasharray:none;stroke-opacity:1" transform="matrix(1.33333 0 0 -1.33333 52.802 30.82)"/><path d="M0 0v-1" clip-path="url(#l)" style="fill:none;stroke:currentColor;stroke-width:1;stroke-linecap:butt;stroke-linejoin:miter;stroke-miterlimit:10;stroke-dasharray:none;stroke-opacity:1" transform="matrix(1.33333 0 0 -1.33333 15.489 29.487)"/><path d="M0 0v-2.48" clip-path="url(#m)" style="fill:none;stroke:currentColor;stroke-width:1;stroke-linecap:butt;stroke-linejoin:miter;stroke-miterlimit:10;stroke-dasharray:1.653,1.653;stroke-dashoffset:0;stroke-opacity:1" transform="matrix(1.33333 0 0 -1.33333 15.489 33.025)"/><path d="M0 0v-1" clip-path="url(#n)" style="fill:none;stroke:currentColor;stroke-width:1;stroke-linecap:butt;stroke-linejoin:miter;stroke-miterlimit:10;stroke-dasharray:none;stroke-opacity:1" transform="matrix(1.33333 0 0 -1.33333 15.489 37.434)"/><path d="m0 0 3.57 2.06" clip-path="url(#o)" style="fill:none;stroke:currentColor;stroke-width:1;stroke-linecap:butt;stroke-linejoin:miter;stroke-miterlimit:10;stroke-dasharray:none;stroke-opacity:1" transform="matrix(1.33333 0 0 -1.33333 20.854 41.801)"/><path d="m0 0 3.81-2.2" clip-path="url(#p)" style="fill:none;stroke:currentColor;stroke-width:1;stroke-linecap:butt;stroke-linejoin:miter;stroke-miterlimit:10;stroke-dasharray:none;stroke-opacity:1" transform="matrix(1.33333 0 0 -1.33333 20.575 26.292)"/><path d="M0 0a4.6 4.6 0 1 1 9.2 0A4.6 4.6 0 0 1 0 0Z" clip-path="url(#q)" style="fill:none;stroke:currentColor;stroke-width:1;stroke-linecap:butt;stroke-linejoin:miter;stroke-miterlimit:10;stroke-dasharray:none;stroke-opacity:1" transform="matrix(1.33333 0 0 -1.33333 46.7 44.899)"/><path d="m0 0-3.73 2.15" clip-path="url(#r)" style="fill:none;stroke:currentColor;stroke-width:1;stroke-linecap:butt;stroke-linejoin:miter;stroke-miterlimit:10;stroke-dasharray:none;stroke-opacity:1" transform="matrix(1.33333 0 0 -1.33333 47.686 41.928)"/><path d="m0 0-3.77-2.18" clip-path="url(#s)" style="fill:none;stroke:currentColor;stroke-width:1;stroke-linecap:butt;stroke-linejoin:miter;stroke-miterlimit:10;stroke-dasharray:none;stroke-opacity:1" transform="matrix(1.33333 0 0 -1.33333 47.687 26.326)"/><path d="M0 0v-4.16" clip-path="url(#t)" style="fill:none;stroke:currentColor;stroke-width:1;stroke-linecap:butt;stroke-linejoin:miter;stroke-miterlimit:10;stroke-dasharray:none;stroke-opacity:1" transform="matrix(1.33333 0 0 -1.33333 34.145 18.717)"/><path d="M0 0a1.34 1.34 0 1 0-2.67 0A1.34 1.34 0 0 0 0 0Z" clip-path="url(#u)" style="fill:none;stroke:currentColor;stroke-width:1;stroke-linecap:butt;stroke-linejoin:miter;stroke-miterlimit:10;stroke-dasharray:none;stroke-opacity:1" transform="matrix(1.33333 0 0 -1.33333 54.647 43.464)"/><path d="M0 0c0 1.12-.9 2.03-2.03 2.03h-.78c-1.13 0-2.04-.9-2.04-2.03" clip-path="url(#v)" style="fill:none;stroke:currentColor;stroke-width:1;stroke-linecap:butt;stroke-linejoin:miter;stroke-miterlimit:10;stroke-dasharray:none;stroke-opacity:1" transform="matrix(1.33333 0 0 -1.33333 56.172 50.13)"/><path d="M0 0a4.6 4.6 0 1 1 9.2 0A4.6 4.6 0 0 1 0 0Z" clip-path="url(#w)" style="fill:none;stroke:currentColor;stroke-width:1;stroke-linecap:butt;stroke-linejoin:miter;stroke-miterlimit:10;stroke-dasharray:none;stroke-opacity:1" transform="matrix(1.33333 0 0 -1.33333 9.358 44.899)"/><path d="M0 0a1.34 1.34 0 1 0-2.67 0A1.34 1.34 0 0 0 0 0Z" clip-path="url(#x)" style="fill:none;stroke:currentColor;stroke-width:1;stroke-linecap:butt;stroke-linejoin:miter;stroke-miterlimit:10;stroke-dasharray:none;stroke-opacity:1" transform="matrix(1.33333 0 0 -1.33333 17.304 43.464)"/><path d="M0 0c0 1.12-.9 2.03-2.03 2.03h-.78c-1.13 0-2.04-.9-2.04-2.03" clip-path="url(#y)" style="fill:none;stroke:currentColor;stroke-width:1;stroke-linecap:butt;stroke-linejoin:miter;stroke-miterlimit:10;stroke-dasharray:none;stroke-opacity:1" transform="matrix(1.33333 0 0 -1.33333 18.829 50.13)"/><path d="M0 0a4.6 4.6 0 1 1 9.2 0A4.6 4.6 0 0 1 0 0Z" clip-path="url(#z)" style="fill:none;stroke:currentColor;stroke-width:1;stroke-linecap:butt;stroke-linejoin:miter;stroke-miterlimit:10;stroke-dasharray:none;stroke-opacity:1" transform="matrix(1.33333 0 0 -1.33333 46.7 23.356)"/><path d="M0 0a1.34 1.34 0 1 0-2.67 0A1.34 1.34 0 0 0 0 0Z" clip-path="url(#A)" style="fill:none;stroke:currentColor;stroke-width:1;stroke-linecap:butt;stroke-linejoin:miter;stroke-miterlimit:10;stroke-dasharray:none;stroke-opacity:1" transform="matrix(1.33333 0 0 -1.33333 54.647 21.919)"/><path d="M0 0c0 1.12-.9 2.03-2.03 2.03h-.78c-1.13 0-2.04-.9-2.04-2.03" clip-path="url(#B)" style="fill:none;stroke:currentColor;stroke-width:1;stroke-linecap:butt;stroke-linejoin:miter;stroke-miterlimit:10;stroke-dasharray:none;stroke-opacity:1" transform="matrix(1.33333 0 0 -1.33333 56.172 28.586)"/><path d="M0 0a4.6 4.6 0 1 1 9.2 0A4.6 4.6 0 0 1 0 0Z" clip-path="url(#C)" style="fill:none;stroke:currentColor;stroke-width:1;stroke-linecap:butt;stroke-linejoin:miter;stroke-miterlimit:10;stroke-dasharray:none;stroke-opacity:1" transform="matrix(1.33333 0 0 -1.33333 9.358 23.356)"/><path d="M0 0a1.34 1.34 0 1 0-2.67 0A1.34 1.34 0 0 0 0 0Z" clip-path="url(#D)" style="fill:none;stroke:currentColor;stroke-width:1;stroke-linecap:butt;stroke-linejoin:miter;stroke-miterlimit:10;stroke-dasharray:none;stroke-opacity:1" transform="matrix(1.33333 0 0 -1.33333 17.304 21.919)"/><path d="M0 0c0 1.12-.9 2.03-2.03 2.03h-.78c-1.13 0-2.04-.9-2.04-2.03" clip-path="url(#E)" style="fill:none;stroke:currentColor;stroke-width:1;stroke-linecap:butt;stroke-linejoin:miter;stroke-miterlimit:10;stroke-dasharray:none;stroke-opacity:1" transform="matrix(1.33333 0 0 -1.33333 18.829 28.586)"/><path d="M0 0a4.6 4.6 0 1 1 9.2 0A4.6 4.6 0 0 1 0 0Z" clip-path="url(#F)" style="fill:none;stroke:currentColor;stroke-width:1;stroke-linecap:butt;stroke-linejoin:miter;stroke-miterlimit:10;stroke-dasharray:none;stroke-opacity:1" transform="matrix(1.33333 0 0 -1.33333 28.029 12.586)"/><path d="M0 0a1.34 1.34 0 1 0-2.67 0A1.34 1.34 0 0 0 0 0Z" clip-path="url(#G)" style="fill:none;stroke:currentColor;stroke-width:1;stroke-linecap:butt;stroke-linejoin:miter;stroke-miterlimit:10;stroke-dasharray:none;stroke-opacity:1" transform="matrix(1.33333 0 0 -1.33333 35.976 11.15)"/><path d="M0 0c0 1.12-.9 2.03-2.03 2.03h-.78c-1.13 0-2.04-.9-2.04-2.03" clip-path="url(#H)" style="fill:none;stroke:currentColor;stroke-width:1;stroke-linecap:butt;stroke-linejoin:miter;stroke-miterlimit:10;stroke-dasharray:none;stroke-opacity:1" transform="matrix(1.33333 0 0 -1.33333 37.499 17.816)"/><path d="m0 0 .87.5" clip-path="url(#I)" style="fill:none;stroke:currentColor;stroke-width:1;stroke-linecap:butt;stroke-linejoin:miter;stroke-miterlimit:10;stroke-dasharray:none;stroke-opacity:1" transform="matrix(1.33333 0 0 -1.33333 39.464 52.646)"/><path d="m0 0 2.22 1.28" clip-path="url(#J)" style="fill:none;stroke:currentColor;stroke-width:1;stroke-linecap:butt;stroke-linejoin:miter;stroke-miterlimit:10;stroke-dasharray:1.707,1.707;stroke-dashoffset:0;stroke-opacity:1" transform="matrix(1.33333 0 0 -1.33333 42.591 50.841)"/><path d="m0 0 .87.5" clip-path="url(#K)" style="fill:none;stroke:currentColor;stroke-width:1;stroke-linecap:butt;stroke-linejoin:miter;stroke-miterlimit:10;stroke-dasharray:none;stroke-opacity:1" transform="matrix(1.33333 0 0 -1.33333 46.532 48.566)"/><path d="m0 0 .87-.5" clip-path="url(#L)" style="fill:none;stroke:currentColor;stroke-width:1;stroke-linecap:butt;stroke-linejoin:miter;stroke-miterlimit:10;stroke-dasharray:none;stroke-opacity:1" transform="matrix(1.33333 0 0 -1.33333 20.575 47.914)"/><path d="m0 0 2.28-1.32" clip-path="url(#M)" style="fill:none;stroke:currentColor;stroke-width:1;stroke-linecap:butt;stroke-linejoin:miter;stroke-miterlimit:10;stroke-dasharray:1.757,1.757;stroke-dashoffset:0;stroke-opacity:1" transform="matrix(1.33333 0 0 -1.33333 23.759 49.753)"/><path d="m0 0 .87-.5" clip-path="url(#N)" style="fill:none;stroke:currentColor;stroke-width:1;stroke-linecap:butt;stroke-linejoin:miter;stroke-miterlimit:10;stroke-dasharray:none;stroke-opacity:1" transform="matrix(1.33333 0 0 -1.33333 27.816 52.096)"/><path d="M0 0v4.17" clip-path="url(#O)" style="fill:none;stroke:currentColor;stroke-width:1;stroke-linecap:butt;stroke-linejoin:miter;stroke-miterlimit:10;stroke-dasharray:none;stroke-opacity:1" transform="matrix(1.33333 0 0 -1.33333 34.117 49.602)"/><path d="M0 0a4.6 4.6 0 1 1 9.2 0A4.6 4.6 0 0 1 0 0Z" clip-path="url(#P)" style="fill:none;stroke:currentColor;stroke-width:1;stroke-linecap:butt;stroke-linejoin:miter;stroke-miterlimit:10;stroke-dasharray:none;stroke-opacity:1" transform="matrix(1.33333 0 0 -1.33333 27.969 55.733)"/><path d="M0 0a1.34 1.34 0 1 0-2.67 0A1.34 1.34 0 0 0 0 0Z" clip-path="url(#Q)" style="fill:none;stroke:currentColor;stroke-width:1;stroke-linecap:butt;stroke-linejoin:miter;stroke-miterlimit:10;stroke-dasharray:none;stroke-opacity:1" transform="matrix(1.33333 0 0 -1.33333 35.916 54.296)"/><path d="M0 0c0 1.12-.9 2.03-2.03 2.03h-.78c-1.13 0-2.04-.9-2.04-2.03" clip-path="url(#R)" style="fill:none;stroke:currentColor;stroke-width:1;stroke-linecap:butt;stroke-linejoin:miter;stroke-miterlimit:10;stroke-dasharray:none;stroke-opacity:1" transform="matrix(1.33333 0 0 -1.33333 37.441 60.964)"/><path d="M0 0a2.52 2.52 0 1 0-5.03 0A2.52 2.52 0 0 0 0 0Z" clip-path="url(#T)" style="fill:none;stroke:currentColor;stroke-width:1;stroke-linecap:butt;stroke-linejoin:miter;stroke-miterlimit:10;stroke-dasharray:none;stroke-opacity:1" transform="matrix(1.33333 0 0 -1.33333 37.499 34.128)"/></g></svg>