<svg xmlns="http://www.w3.org/2000/svg" viewBox="0 0 68.32 68.32"><defs><clipPath id="a" clipPathUnits="userSpaceOnUse"><path d="M-261.936 181.237h838.23v-422.39h-838.23Z"/></clipPath><clipPath id="b" clipPathUnits="userSpaceOnUse"><path d="M-502.253 238.712h838.23v-422.39h-838.23Z"/></clipPath><clipPath id="c" clipPathUnits="userSpaceOnUse"><path d="M-493.802 231.802h838.23v-422.39h-838.23Z"/></clipPath><clipPath id="d" clipPathUnits="userSpaceOnUse"><path d="M-496.604 245.464h838.23v-422.39h-838.23Z"/></clipPath><clipPath id="e" clipPathUnits="userSpaceOnUse"><path d="M-499.042 232.812h838.23v-422.39h-838.23Z"/></clipPath><clipPath id="f" clipPathUnits="userSpaceOnUse"><path d="M-491.363 244.455h838.23v-422.39h-838.23Z"/></clipPath><clipPath id="g" clipPathUnits="userSpaceOnUse"><path d="M-502.034 237.232h838.23v-422.39h-838.23Z"/></clipPath><clipPath id="h" clipPathUnits="userSpaceOnUse"><path d="M-488.372 240.035h838.23v-422.39h-838.23Z"/></clipPath><clipPath id="i" clipPathUnits="userSpaceOnUse"><path d="M-501.024 242.473h838.23v-422.39h-838.23Z"/></clipPath><clipPath id="j" clipPathUnits="userSpaceOnUse"><path d="M-489.382 234.794h838.23v-422.39h-838.23Z"/></clipPath><clipPath id="k" clipPathUnits="userSpaceOnUse"><path d="M-497.605 238.712h838.23v-422.39h-838.23Z"/></clipPath><clipPath id="l" clipPathUnits="userSpaceOnUse"><path d="M-506.218 255.909h838.23v-422.39h-838.23Z"/></clipPath><clipPath id="m" clipPathUnits="userSpaceOnUse"><path d="M-502.639 249.414h838.23v-422.39h-838.23Z"/></clipPath><clipPath id="n" clipPathUnits="userSpaceOnUse"><path d="M-500.948 258.735h838.23v-422.39h-838.23Z"/></clipPath><clipPath id="o" clipPathUnits="userSpaceOnUse"><path d="M-505.686 251.376h838.23v-422.39h-838.23Z"/></clipPath><clipPath id="p" clipPathUnits="userSpaceOnUse"><path d="M-497.9 256.773h838.23v-422.39H-497.9Z"/></clipPath><clipPath id="q" clipPathUnits="userSpaceOnUse"><path d="M-506.454 254.92h838.23v-422.39h-838.23Z"/></clipPath><clipPath id="r" clipPathUnits="userSpaceOnUse"><path d="M-497.133 253.23h838.23v-422.39h-838.23Z"/></clipPath><clipPath id="s" clipPathUnits="userSpaceOnUse"><path d="M-504.491 257.967h838.23v-422.39h-838.23Z"/></clipPath><clipPath id="t" clipPathUnits="userSpaceOnUse"><path d="M-499.096 250.182h838.23v-422.39h-838.23Z"/></clipPath><clipPath id="u" clipPathUnits="userSpaceOnUse"><path d="M-503.288 254.733h838.23v-422.39h-838.23Z"/></clipPath></defs><g class="eit-icon"><path fill="none" stroke="currentColor" stroke-miterlimit="10" d="M0 0a25.12 25.12 0 1 0-50.24 0A25.12 25.12 0 0 0 0 0Z" class="eit-icon-circle" clip-path="url(#a)" transform="matrix(1.33333 0 0 -1.33333 67.653 34.16)"/><path d="M0 0a7.05 7.05 0 1 0-14.1 0A7.05 7.05 0 0 0 0 0Z" clip-path="url(#b)" style="fill:none;stroke:currentColor;stroke-width:1;stroke-linecap:butt;stroke-linejoin:miter;stroke-miterlimit:10;stroke-dasharray:none;stroke-opacity:1" transform="matrix(1.33333 0 0 -1.33333 41.516 26.32)"/><path d="M0 0v2.67c0 .35.28.64.64.64h1.53c.35 0 .63-.29.63-.64V0" clip-path="url(#c)" style="fill:none;stroke:currentColor;stroke-width:1;stroke-linecap:butt;stroke-linejoin:miter;stroke-miterlimit:10;stroke-dasharray:none;stroke-opacity:1" transform="matrix(1.33333 0 0 -1.33333 30.248 17.107)"/><path d="M0 0v-2.67a.64.64 0 0 0-.64-.64h-1.52a.64.64 0 0 0-.64.64V0" clip-path="url(#d)" style="fill:none;stroke:currentColor;stroke-width:1;stroke-linecap:butt;stroke-linejoin:miter;stroke-miterlimit:10;stroke-dasharray:none;stroke-opacity:1" transform="matrix(1.33333 0 0 -1.33333 33.986 35.323)"/><path d="m0 0 1.89 1.89c.25.25.65.25.9 0L3.87.8a.64.64 0 0 0 0-.9L1.98-2" clip-path="url(#e)" style="fill:none;stroke:currentColor;stroke-width:1;stroke-linecap:butt;stroke-linejoin:miter;stroke-miterlimit:10;stroke-dasharray:none;stroke-opacity:1" transform="matrix(1.33333 0 0 -1.33333 37.236 18.453)"/><path d="m0 0-1.89-1.89a.64.64 0 0 0-.9 0L-3.87-.8a.64.64 0 0 0 0 .9L-1.98 2" clip-path="url(#f)" style="fill:none;stroke:currentColor;stroke-width:1;stroke-linecap:butt;stroke-linejoin:miter;stroke-miterlimit:10;stroke-dasharray:none;stroke-opacity:1" transform="matrix(1.33333 0 0 -1.33333 26.996 33.977)"/><path d="M0 0h2.67c.35 0 .64-.28.64-.64v-1.52a.64.64 0 0 0-.64-.64H0" clip-path="url(#g)" style="fill:none;stroke:currentColor;stroke-width:1;stroke-linecap:butt;stroke-linejoin:miter;stroke-miterlimit:10;stroke-dasharray:none;stroke-opacity:1" transform="matrix(1.33333 0 0 -1.33333 41.225 24.347)"/><path d="M0 0h-2.67a.64.64 0 0 0-.64.64v1.53c0 .35.29.63.64.63H0" clip-path="url(#h)" style="fill:none;stroke:currentColor;stroke-width:1;stroke-linecap:butt;stroke-linejoin:miter;stroke-miterlimit:10;stroke-dasharray:none;stroke-opacity:1" transform="matrix(1.33333 0 0 -1.33333 23.009 28.084)"/><path d="m0 0 1.89-1.89a.64.64 0 0 0 0-.9L.8-3.87a.64.64 0 0 0-.9 0L-2-1.98" clip-path="url(#i)" style="fill:none;stroke:currentColor;stroke-width:1;stroke-linecap:butt;stroke-linejoin:miter;stroke-miterlimit:10;stroke-dasharray:none;stroke-opacity:1" transform="matrix(1.33333 0 0 -1.33333 39.878 31.334)"/><path d="m0 0-1.89 1.89a.64.64 0 0 0 0 .9L-.8 3.87c.25.25.66.25.9 0L2 1.98" clip-path="url(#j)" style="fill:none;stroke:currentColor;stroke-width:1;stroke-linecap:butt;stroke-linejoin:miter;stroke-miterlimit:10;stroke-dasharray:none;stroke-opacity:1" transform="matrix(1.33333 0 0 -1.33333 24.355 21.097)"/><path d="M0 0a2.4 2.4 0 1 0-4.8 0A2.4 2.4 0 0 0 0 0Z" clip-path="url(#k)" style="fill:none;stroke:currentColor;stroke-width:1;stroke-linecap:butt;stroke-linejoin:miter;stroke-miterlimit:10;stroke-dasharray:none;stroke-opacity:1" transform="matrix(1.33333 0 0 -1.33333 35.32 26.32)"/><path d="M0 0a4.79 4.79 0 1 0-8.89 3.57A4.79 4.79 0 0 0 0 0Z" clip-path="url(#l)" style="fill:none;stroke:currentColor;stroke-width:1;stroke-linecap:butt;stroke-linejoin:miter;stroke-miterlimit:10;stroke-dasharray:none;stroke-opacity:1" transform="matrix(1.33333 0 0 -1.33333 46.803 49.248)"/><path d="m0 0 .68 1.68c.08.22.34.33.56.24l.96-.38a.43.43 0 0 0 .24-.57L1.77-.7" clip-path="url(#m)" style="fill:none;stroke:currentColor;stroke-width:1;stroke-linecap:butt;stroke-linejoin:miter;stroke-miterlimit:10;stroke-dasharray:none;stroke-opacity:1" transform="matrix(1.33333 0 0 -1.33333 42.031 40.59)"/><path d="m0 0-.67-1.68a.43.43 0 0 0-.57-.24l-.96.38a.43.43 0 0 0-.24.57L-1.77.7" clip-path="url(#n)" style="fill:none;stroke:currentColor;stroke-width:1;stroke-linecap:butt;stroke-linejoin:miter;stroke-miterlimit:10;stroke-dasharray:none;stroke-opacity:1" transform="matrix(1.33333 0 0 -1.33333 39.776 53.017)"/><path d="m0 0 1.67.71c.22.1.47 0 .56-.23l.41-.95c.1-.22 0-.47-.23-.57L.75-1.75" clip-path="url(#o)" style="fill:none;stroke:currentColor;stroke-width:1;stroke-linecap:butt;stroke-linejoin:miter;stroke-miterlimit:10;stroke-dasharray:none;stroke-opacity:1" transform="matrix(1.33333 0 0 -1.33333 46.095 43.206)"/><path d="m0 0-1.67-.71a.43.43 0 0 0-.56.23l-.41.95c-.1.22 0 .48.23.57l1.66.71" clip-path="url(#p)" style="fill:none;stroke:currentColor;stroke-width:1;stroke-linecap:butt;stroke-linejoin:miter;stroke-miterlimit:10;stroke-dasharray:none;stroke-opacity:1" transform="matrix(1.33333 0 0 -1.33333 35.713 50.401)"/><path d="m0 0 1.68-.67a.43.43 0 0 0 .24-.57l-.38-.96a.43.43 0 0 0-.57-.24l-1.68.67" clip-path="url(#q)" style="fill:none;stroke:currentColor;stroke-width:1;stroke-linecap:butt;stroke-linejoin:miter;stroke-miterlimit:10;stroke-dasharray:none;stroke-opacity:1" transform="matrix(1.33333 0 0 -1.33333 47.118 47.929)"/><path d="m0 0-1.68.68a.43.43 0 0 0-.24.56l.38.96c.1.22.35.33.57.24L.7 1.77" clip-path="url(#r)" style="fill:none;stroke:currentColor;stroke-width:1;stroke-linecap:butt;stroke-linejoin:miter;stroke-miterlimit:10;stroke-dasharray:none;stroke-opacity:1" transform="matrix(1.33333 0 0 -1.33333 34.69 45.677)"/><path d="m0 0 .71-1.67c.1-.22 0-.47-.23-.56l-.95-.41a.43.43 0 0 0-.57.23l-.71 1.66" clip-path="url(#s)" style="fill:none;stroke:currentColor;stroke-width:1;stroke-linecap:butt;stroke-linejoin:miter;stroke-miterlimit:10;stroke-dasharray:none;stroke-opacity:1" transform="matrix(1.33333 0 0 -1.33333 44.501 51.993)"/><path d="m0 0-.71 1.67c-.1.22 0 .47.23.57l.95.4c.22.1.48 0 .57-.23L1.75.75" clip-path="url(#t)" style="fill:none;stroke:currentColor;stroke-width:1;stroke-linecap:butt;stroke-linejoin:miter;stroke-miterlimit:10;stroke-dasharray:none;stroke-opacity:1" transform="matrix(1.33333 0 0 -1.33333 37.306 41.613)"/><path d="M0 0a1.63 1.63 0 1 0-3.03 1.22A1.63 1.63 0 0 0 0 0Z" clip-path="url(#u)" style="fill:none;stroke:currentColor;stroke-width:1;stroke-linecap:butt;stroke-linejoin:miter;stroke-miterlimit:10;stroke-dasharray:none;stroke-opacity:1" transform="matrix(1.33333 0 0 -1.33333 42.896 47.681)"/></g></svg>