<svg xmlns="http://www.w3.org/2000/svg" id="svg536" viewBox="0 0 68.32 68.32"><defs id="defs530"><clipPath id="a" clipPathUnits="userSpaceOnUse"><path id="path23" d="M0 422.39h838.23V0H0Z" transform="translate(-261.936 -241.153)"/></clipPath><clipPath id="clipPath225-5" clipPathUnits="userSpaceOnUse"><path id="path225-0" d="M0 422.39h838.23V0H0Z" transform="translate(-502.253 -183.678)"/></clipPath><clipPath id="clipPath227-3" clipPathUnits="userSpaceOnUse"><path id="path227-7" d="M0 422.39h838.23V0H0Z" transform="translate(-493.802 -190.588)"/></clipPath><clipPath id="clipPath229-3" clipPathUnits="userSpaceOnUse"><path id="path229-5" d="M0 422.39h838.23V0H0Z" transform="translate(-496.604 -176.926)"/></clipPath><clipPath id="clipPath231-9" clipPathUnits="userSpaceOnUse"><path id="path231-1" d="M0 422.39h838.23V0H0Z" transform="translate(-499.042 -189.578)"/></clipPath><clipPath id="clipPath233-8" clipPathUnits="userSpaceOnUse"><path id="path233-4" d="M0 422.39h838.23V0H0Z" transform="translate(-491.363 -177.935)"/></clipPath><clipPath id="clipPath235-0" clipPathUnits="userSpaceOnUse"><path id="path235-8" d="M0 422.39h838.23V0H0Z" transform="translate(-502.034 -185.158)"/></clipPath><clipPath id="clipPath237-9" clipPathUnits="userSpaceOnUse"><path id="path237-5" d="M0 422.39h838.23V0H0Z" transform="translate(-488.372 -182.355)"/></clipPath><clipPath id="clipPath239-8" clipPathUnits="userSpaceOnUse"><path id="path239-2" d="M0 422.39h838.23V0H0Z" transform="translate(-501.024 -179.917)"/></clipPath><clipPath id="clipPath241-3" clipPathUnits="userSpaceOnUse"><path id="path241-2" d="M0 422.39h838.23V0H0Z" transform="translate(-489.382 -187.596)"/></clipPath><clipPath id="clipPath243-6" clipPathUnits="userSpaceOnUse"><path id="path243-6" d="M0 422.39h838.23V0H0Z" transform="translate(-497.605 -183.678)"/></clipPath><clipPath id="clipPath245-6" clipPathUnits="userSpaceOnUse"><path id="path245-3" d="M0 422.39h838.23V0H0Z" transform="translate(-506.218 -166.481)"/></clipPath><clipPath id="clipPath247-4" clipPathUnits="userSpaceOnUse"><path id="path247-4" d="M0 422.39h838.23V0H0Z" transform="translate(-502.639 -172.976)"/></clipPath><clipPath id="clipPath249-2" clipPathUnits="userSpaceOnUse"><path id="path249-9" d="M0 422.39h838.23V0H0Z" transform="translate(-500.948 -163.655)"/></clipPath><clipPath id="clipPath251-2" clipPathUnits="userSpaceOnUse"><path id="path251-8" d="M0 422.39h838.23V0H0Z" transform="translate(-505.686 -171.014)"/></clipPath><clipPath id="clipPath253-9" clipPathUnits="userSpaceOnUse"><path id="path253-2" d="M0 422.39h838.23V0H0Z" transform="translate(-497.9 -165.617)"/></clipPath><clipPath id="clipPath255-5" clipPathUnits="userSpaceOnUse"><path id="path255-6" d="M0 422.39h838.23V0H0Z" transform="translate(-506.454 -167.47)"/></clipPath><clipPath id="clipPath257-7" clipPathUnits="userSpaceOnUse"><path id="path257-2" d="M0 422.39h838.23V0H0Z" transform="translate(-497.133 -169.16)"/></clipPath><clipPath id="clipPath259-8" clipPathUnits="userSpaceOnUse"><path id="path259-0" d="M0 422.39h838.23V0H0Z" transform="translate(-504.491 -164.423)"/></clipPath><clipPath id="clipPath261-0" clipPathUnits="userSpaceOnUse"><path id="path261-8" d="M0 422.39h838.23V0H0Z" transform="translate(-499.096 -172.208)"/></clipPath><clipPath id="clipPath263-2" clipPathUnits="userSpaceOnUse"><path id="path263-5" d="M0 422.39h838.23V0H0Z" transform="translate(-503.288 -167.657)"/></clipPath></defs><path id="path531" fill="none" stroke="currentColor" stroke-dasharray="none" stroke-linecap="butt" stroke-linejoin="miter" stroke-miterlimit="10" stroke-opacity="1" stroke-width="1" d="M0 0a25.12 25.12 0 1 0-50.24 0A25.12 25.12 0 0 0 0 0Z" class="eit-icon-circle" clip-path="url(#a)" transform="matrix(1.33333 0 0 -1.33333 67.653 34.16)"/><g id="g536" transform="translate(-281.595 -207.49)"><g id="g361" class="eit-icon" transform="translate(-346.559 -84.473)"><path id="path224-8" d="M0 0a7.05 7.05 0 1 0-14.1 0A7.05 7.05 0 0 0 0 0Z" clip-path="url(#clipPath225-5)" style="fill:none;stroke:currentColor;stroke-width:1;stroke-linecap:butt;stroke-linejoin:miter;stroke-miterlimit:10;stroke-dasharray:none;stroke-opacity:1" transform="matrix(1.33333 0 0 -1.33333 669.67 318.283)"/><path id="path226-0" d="M0 0v2.67c0 .35.28.64.64.64h1.53c.35 0 .63-.29.63-.64V0" clip-path="url(#clipPath227-3)" style="fill:none;stroke:currentColor;stroke-width:1;stroke-linecap:butt;stroke-linejoin:miter;stroke-miterlimit:10;stroke-dasharray:none;stroke-opacity:1" transform="matrix(1.33333 0 0 -1.33333 658.402 309.07)"/><path id="path228-3" d="M0 0v-2.67a.64.64 0 0 0-.64-.64h-1.52a.64.64 0 0 0-.64.64V0" clip-path="url(#clipPath229-3)" style="fill:none;stroke:currentColor;stroke-width:1;stroke-linecap:butt;stroke-linejoin:miter;stroke-miterlimit:10;stroke-dasharray:none;stroke-opacity:1" transform="matrix(1.33333 0 0 -1.33333 662.14 327.286)"/><path id="path230-2" d="m0 0 1.89 1.89c.25.25.65.25.9 0L3.87.8a.64.64 0 0 0 0-.9L1.98-2" clip-path="url(#clipPath231-9)" style="fill:none;stroke:currentColor;stroke-width:1;stroke-linecap:butt;stroke-linejoin:miter;stroke-miterlimit:10;stroke-dasharray:none;stroke-opacity:1" transform="matrix(1.33333 0 0 -1.33333 665.39 310.416)"/><path id="path232-3" d="m0 0-1.89-1.89a.64.64 0 0 0-.9 0L-3.87-.8a.64.64 0 0 0 0 .9L-1.98 2" clip-path="url(#clipPath233-8)" style="fill:none;stroke:currentColor;stroke-width:1;stroke-linecap:butt;stroke-linejoin:miter;stroke-miterlimit:10;stroke-dasharray:none;stroke-opacity:1" transform="matrix(1.33333 0 0 -1.33333 655.15 325.94)"/><path id="path234-3" d="M0 0h2.67c.35 0 .64-.28.64-.64v-1.52a.64.64 0 0 0-.64-.64H0" clip-path="url(#clipPath235-0)" style="fill:none;stroke:currentColor;stroke-width:1;stroke-linecap:butt;stroke-linejoin:miter;stroke-miterlimit:10;stroke-dasharray:none;stroke-opacity:1" transform="matrix(1.33333 0 0 -1.33333 669.379 316.31)"/><path id="path236-2" d="M0 0h-2.67a.64.64 0 0 0-.64.64v1.53c0 .35.29.63.64.63H0" clip-path="url(#clipPath237-9)" style="fill:none;stroke:currentColor;stroke-width:1;stroke-linecap:butt;stroke-linejoin:miter;stroke-miterlimit:10;stroke-dasharray:none;stroke-opacity:1" transform="matrix(1.33333 0 0 -1.33333 651.163 320.047)"/><path id="path238-1" d="m0 0 1.89-1.89a.64.64 0 0 0 0-.9L.8-3.87a.64.64 0 0 0-.9 0L-2-1.98" clip-path="url(#clipPath239-8)" style="fill:none;stroke:currentColor;stroke-width:1;stroke-linecap:butt;stroke-linejoin:miter;stroke-miterlimit:10;stroke-dasharray:none;stroke-opacity:1" transform="matrix(1.33333 0 0 -1.33333 668.032 323.297)"/><path id="path240-9" d="m0 0-1.89 1.89a.64.64 0 0 0 0 .9L-.8 3.87c.25.25.66.25.9 0L2 1.98" clip-path="url(#clipPath241-3)" style="fill:none;stroke:currentColor;stroke-width:1;stroke-linecap:butt;stroke-linejoin:miter;stroke-miterlimit:10;stroke-dasharray:none;stroke-opacity:1" transform="matrix(1.33333 0 0 -1.33333 652.509 313.06)"/><path id="path242-1" d="M0 0a2.4 2.4 0 1 0-4.8 0A2.4 2.4 0 0 0 0 0Z" clip-path="url(#clipPath243-6)" style="fill:none;stroke:currentColor;stroke-width:1;stroke-linecap:butt;stroke-linejoin:miter;stroke-miterlimit:10;stroke-dasharray:none;stroke-opacity:1" transform="matrix(1.33333 0 0 -1.33333 663.474 318.283)"/><path id="path244-6" d="M0 0a4.79 4.79 0 1 0-8.89 3.57A4.79 4.79 0 0 0 0 0Z" clip-path="url(#clipPath245-6)" style="fill:none;stroke:currentColor;stroke-width:1;stroke-linecap:butt;stroke-linejoin:miter;stroke-miterlimit:10;stroke-dasharray:none;stroke-opacity:1" transform="matrix(1.33333 0 0 -1.33333 674.957 341.211)"/><path id="path246-3" d="m0 0 .68 1.68c.08.22.34.33.56.24l.96-.38a.43.43 0 0 0 .24-.57L1.77-.7" clip-path="url(#clipPath247-4)" style="fill:none;stroke:currentColor;stroke-width:1;stroke-linecap:butt;stroke-linejoin:miter;stroke-miterlimit:10;stroke-dasharray:none;stroke-opacity:1" transform="matrix(1.33333 0 0 -1.33333 670.185 332.553)"/><path id="path248-9" d="m0 0-.67-1.68a.43.43 0 0 0-.57-.24l-.96.38a.43.43 0 0 0-.24.57L-1.77.7" clip-path="url(#clipPath249-2)" style="fill:none;stroke:currentColor;stroke-width:1;stroke-linecap:butt;stroke-linejoin:miter;stroke-miterlimit:10;stroke-dasharray:none;stroke-opacity:1" transform="matrix(1.33333 0 0 -1.33333 667.93 344.98)"/><path id="path250-1" d="m0 0 1.67.71c.22.1.47 0 .56-.23l.41-.95c.1-.22 0-.47-.23-.57L.75-1.75" clip-path="url(#clipPath251-2)" style="fill:none;stroke:currentColor;stroke-width:1;stroke-linecap:butt;stroke-linejoin:miter;stroke-miterlimit:10;stroke-dasharray:none;stroke-opacity:1" transform="matrix(1.33333 0 0 -1.33333 674.249 335.169)"/><path id="path252-7" d="m0 0-1.67-.71a.43.43 0 0 0-.56.23l-.41.95c-.1.22 0 .48.23.57l1.66.71" clip-path="url(#clipPath253-9)" style="fill:none;stroke:currentColor;stroke-width:1;stroke-linecap:butt;stroke-linejoin:miter;stroke-miterlimit:10;stroke-dasharray:none;stroke-opacity:1" transform="matrix(1.33333 0 0 -1.33333 663.867 342.364)"/><path id="path254-9" d="m0 0 1.68-.67a.43.43 0 0 0 .24-.57l-.38-.96a.43.43 0 0 0-.57-.24l-1.68.67" clip-path="url(#clipPath255-5)" style="fill:none;stroke:currentColor;stroke-width:1;stroke-linecap:butt;stroke-linejoin:miter;stroke-miterlimit:10;stroke-dasharray:none;stroke-opacity:1" transform="matrix(1.33333 0 0 -1.33333 675.272 339.892)"/><path id="path256-6" d="m0 0-1.68.68a.43.43 0 0 0-.24.56l.38.96c.1.22.35.33.57.24L.7 1.77" clip-path="url(#clipPath257-7)" style="fill:none;stroke:currentColor;stroke-width:1;stroke-linecap:butt;stroke-linejoin:miter;stroke-miterlimit:10;stroke-dasharray:none;stroke-opacity:1" transform="matrix(1.33333 0 0 -1.33333 662.844 337.64)"/><path id="path258-6" d="m0 0 .71-1.67c.1-.22 0-.47-.23-.56l-.95-.41a.43.43 0 0 0-.57.23l-.71 1.66" clip-path="url(#clipPath259-8)" style="fill:none;stroke:currentColor;stroke-width:1;stroke-linecap:butt;stroke-linejoin:miter;stroke-miterlimit:10;stroke-dasharray:none;stroke-opacity:1" transform="matrix(1.33333 0 0 -1.33333 672.655 343.956)"/><path id="path260-6" d="m0 0-.71 1.67c-.1.22 0 .47.23.57l.95.4c.22.1.48 0 .57-.23L1.75.75" clip-path="url(#clipPath261-0)" style="fill:none;stroke:currentColor;stroke-width:1;stroke-linecap:butt;stroke-linejoin:miter;stroke-miterlimit:10;stroke-dasharray:none;stroke-opacity:1" transform="matrix(1.33333 0 0 -1.33333 665.46 333.576)"/><path id="path262-4" d="M0 0a1.63 1.63 0 1 0-3.03 1.22A1.63 1.63 0 0 0 0 0Z" clip-path="url(#clipPath263-2)" style="fill:none;stroke:currentColor;stroke-width:1;stroke-linecap:butt;stroke-linejoin:miter;stroke-miterlimit:10;stroke-dasharray:none;stroke-opacity:1" transform="matrix(1.33333 0 0 -1.33333 671.05 339.644)"/></g></g></svg>