<svg xmlns="http://www.w3.org/2000/svg" id="svg536" viewBox="0 0 68.32 68.32"><defs id="defs530"><clipPath id="a" clipPathUnits="userSpaceOnUse"><path id="path23" d="M0 422.39h838.23V0H0Z" transform="translate(-261.936 -241.153)"/></clipPath><clipPath id="clipPath267-8" clipPathUnits="userSpaceOnUse"><path id="path267-8" d="M0 422.39h838.23V0H0Z" transform="translate(-444.486 -177.821)"/></clipPath><clipPath id="clipPath269-0" clipPathUnits="userSpaceOnUse"><path id="path269-7" d="M0 422.39h838.23V0H0Z" transform="translate(-434.7 -191.662)"/></clipPath><clipPath id="clipPath271-7" clipPathUnits="userSpaceOnUse"><path id="path271-9" d="M0 422.39h838.23V0H0Z" transform="translate(-432.354 -190.309)"/></clipPath><clipPath id="clipPath273-6" clipPathUnits="userSpaceOnUse"><path id="path273-0" d="M0 422.39h838.23V0H0Z" transform="translate(-429.397 -188.601)"/></clipPath><clipPath id="clipPath275-1" clipPathUnits="userSpaceOnUse"><path id="path275-2" d="M0 422.39h838.23V0H0Z" transform="translate(-448.866 -188.114)"/></clipPath><clipPath id="clipPath277-3" clipPathUnits="userSpaceOnUse"><path id="path277-2" d="M0 422.39h838.23V0H0Z" transform="translate(-446.478 -189.492)"/></clipPath><clipPath id="clipPath279-1" clipPathUnits="userSpaceOnUse"><path id="path279-1" d="M0 422.39h838.23V0H0Z" transform="translate(-443.434 -191.25)"/></clipPath><clipPath id="clipPath281-0" clipPathUnits="userSpaceOnUse"><path id="path281-1" d="M0 422.39h838.23V0H0Z" transform="translate(-452.702 -174.342)"/></clipPath><clipPath id="clipPath283-3" clipPathUnits="userSpaceOnUse"><path id="path283-8" d="M0 422.39h838.23V0H0Z" transform="translate(-452.702 -176.995)"/></clipPath><clipPath id="clipPath285-0" clipPathUnits="userSpaceOnUse"><path id="path285-0" d="M0 422.39h838.23V0H0Z" transform="translate(-452.702 -180.302)"/></clipPath><clipPath id="clipPath287-9" clipPathUnits="userSpaceOnUse"><path id="path287-4" d="M0 422.39h838.23V0H0Z" transform="translate(-424.718 -181.302)"/></clipPath><clipPath id="clipPath289-2" clipPathUnits="userSpaceOnUse"><path id="path289-4" d="M0 422.39h838.23V0H0Z" transform="translate(-424.718 -178.648)"/></clipPath><clipPath id="clipPath291-0" clipPathUnits="userSpaceOnUse"><path id="path291-2" d="M0 422.39h838.23V0H0Z" transform="translate(-424.718 -175.342)"/></clipPath><clipPath id="clipPath293-9" clipPathUnits="userSpaceOnUse"><path id="path293-7" d="M0 422.39h838.23V0H0Z" transform="translate(-428.741 -172.066)"/></clipPath><clipPath id="clipPath295-9" clipPathUnits="userSpaceOnUse"><path id="path295-2" d="M0 422.39h838.23V0H0Z" transform="translate(-428.532 -183.698)"/></clipPath><clipPath id="clipPath297-2" clipPathUnits="userSpaceOnUse"><path id="path297-3" d="M0 422.39h838.23V0H0Z" transform="translate(-448.126 -169.743)"/></clipPath><clipPath id="clipPath299-1" clipPathUnits="userSpaceOnUse"><path id="path299-3" d="M0 422.39h838.23V0H0Z" transform="translate(-448.865 -171.97)"/></clipPath><clipPath id="clipPath301-2" clipPathUnits="userSpaceOnUse"><path id="path301-1" d="M0 422.39h838.23V0H0Z" transform="translate(-448.866 -183.673)"/></clipPath><clipPath id="clipPath303-6" clipPathUnits="userSpaceOnUse"><path id="path303-8" d="M0 422.39h838.23V0H0Z" transform="translate(-438.71 -189.379)"/></clipPath><clipPath id="clipPath305-1" clipPathUnits="userSpaceOnUse"><path id="path305-0" d="M0 422.39h838.23V0H0Z" transform="translate(-454.086 -170.82)"/></clipPath><clipPath id="clipPath307-6" clipPathUnits="userSpaceOnUse"><path id="path307-0" d="M0 422.39h838.23V0H0Z" transform="translate(-455.23 -165.82)"/></clipPath><clipPath id="clipPath309-4" clipPathUnits="userSpaceOnUse"><path id="path309-9" d="M0 422.39h838.23V0H0Z" transform="translate(-420.119 -169.743)"/></clipPath><clipPath id="clipPath311-9" clipPathUnits="userSpaceOnUse"><path id="path311-4" d="M0 422.39h838.23V0H0Z" transform="translate(-426.079 -170.82)"/></clipPath><clipPath id="clipPath313-5" clipPathUnits="userSpaceOnUse"><path id="path313-0" d="M0 422.39h838.23V0H0Z" transform="translate(-427.223 -165.82)"/></clipPath><clipPath id="clipPath315-6" clipPathUnits="userSpaceOnUse"><path id="path315-9" d="M0 422.39h838.23V0H0Z" transform="translate(-448.126 -185.9)"/></clipPath><clipPath id="clipPath317-0" clipPathUnits="userSpaceOnUse"><path id="path317-8" d="M0 422.39h838.23V0H0Z" transform="translate(-454.086 -186.978)"/></clipPath><clipPath id="clipPath319-8" clipPathUnits="userSpaceOnUse"><path id="path319-2" d="M0 422.39h838.23V0H0Z" transform="translate(-455.23 -181.977)"/></clipPath><clipPath id="clipPath321-8" clipPathUnits="userSpaceOnUse"><path id="path321-0" d="M0 422.39h838.23V0H0Z" transform="translate(-420.119 -185.9)"/></clipPath><clipPath id="clipPath323-2" clipPathUnits="userSpaceOnUse"><path id="path323-0" d="M0 422.39h838.23V0H0Z" transform="translate(-426.079 -186.978)"/></clipPath><clipPath id="clipPath325-9" clipPathUnits="userSpaceOnUse"><path id="path325-5" d="M0 422.39h838.23V0H0Z" transform="translate(-427.223 -181.977)"/></clipPath><clipPath id="clipPath327-3" clipPathUnits="userSpaceOnUse"><path id="path327-5" d="M0 422.39h838.23V0H0Z" transform="translate(-434.122 -193.977)"/></clipPath><clipPath id="clipPath329-9" clipPathUnits="userSpaceOnUse"><path id="path329-8" d="M0 422.39h838.23V0H0Z" transform="translate(-440.083 -195.055)"/></clipPath><clipPath id="clipPath331-9" clipPathUnits="userSpaceOnUse"><path id="path331-1" d="M0 422.39h838.23V0H0Z" transform="translate(-441.226 -190.055)"/></clipPath><clipPath id="clipPath333-2" clipPathUnits="userSpaceOnUse"><path id="path333-8" d="M0 422.39h838.23V0H0Z" transform="translate(-442.7 -163.933)"/></clipPath><clipPath id="clipPath335-4" clipPathUnits="userSpaceOnUse"><path id="path335-0" d="M0 422.39h838.23V0H0Z" transform="translate(-445.044 -165.286)"/></clipPath><clipPath id="clipPath337-1" clipPathUnits="userSpaceOnUse"><path id="path337-0" d="M0 422.39h838.23V0H0Z" transform="translate(-448 -166.993)"/></clipPath><clipPath id="clipPath339-8" clipPathUnits="userSpaceOnUse"><path id="path339-1" d="M0 422.39h838.23V0H0Z" transform="translate(-428.532 -167.481)"/></clipPath><clipPath id="clipPath341-4" clipPathUnits="userSpaceOnUse"><path id="path341-9" d="M0 422.39h838.23V0H0Z" transform="translate(-430.92 -166.102)"/></clipPath><clipPath id="clipPath343-5" clipPathUnits="userSpaceOnUse"><path id="path343-9" d="M0 422.39h838.23V0H0Z" transform="translate(-433.963 -164.346)"/></clipPath><clipPath id="clipPath345-0" clipPathUnits="userSpaceOnUse"><path id="path345-2" d="M0 422.39h838.23V0H0Z" transform="translate(-438.688 -166.216)"/></clipPath><clipPath id="clipPath347-3" clipPathUnits="userSpaceOnUse"><path id="path347-5" d="M0 422.39h838.23V0H0Z" transform="translate(-434.078 -161.617)"/></clipPath><clipPath id="clipPath349-9" clipPathUnits="userSpaceOnUse"><path id="path349-0" d="M0 422.39h838.23V0H0Z" transform="translate(-440.038 -162.694)"/></clipPath><clipPath id="clipPath351-1" clipPathUnits="userSpaceOnUse"><path id="path351-3" d="M0 422.39h838.23V0H0Z" transform="translate(-441.182 -157.694)"/></clipPath><clipPath id="clipPath353-6" clipPathUnits="userSpaceOnUse"><path id="path353-9" d="M0 422.39h838.23V0H0Z" transform="translate(-441.226 -177.821)"/></clipPath></defs><g id="g536" transform="translate(-281.595 -207.49)"><path id="path531" fill="none" stroke="currentColor" stroke-dasharray="none" stroke-linecap="butt" stroke-linejoin="miter" stroke-miterlimit="10" stroke-opacity="1" stroke-width="1" d="M0 0a25.12 25.12 0 1 0-50.24 0A25.12 25.12 0 0 0 0 0Z" class="eit-icon-circle" clip-path="url(#a)" transform="matrix(1.33333 0 0 -1.33333 349.249 241.65)"/><g id="g535" class="eit-icon" transform="translate(-269.206 -84.474)"><path id="path266-0" d="M0 0a5.78 5.78 0 1 0-11.55 0A5.78 5.78 0 0 0 0 0Z" clip-path="url(#clipPath267-8)" style="fill:none;stroke:currentColor;stroke-width:1;stroke-linecap:butt;stroke-linejoin:miter;stroke-miterlimit:10;stroke-dasharray:none;stroke-opacity:1" transform="matrix(1.33333 0 0 -1.33333 592.648 326.092)"/><path id="path268-4" d="m0 0-.87-.5" clip-path="url(#clipPath269-0)" style="fill:none;stroke:currentColor;stroke-width:1;stroke-linecap:butt;stroke-linejoin:miter;stroke-miterlimit:10;stroke-dasharray:none;stroke-opacity:1" transform="matrix(1.33333 0 0 -1.33333 579.599 307.637)"/><path id="path270-0" d="m0 0-2.22-1.28" clip-path="url(#clipPath271-7)" style="fill:none;stroke:currentColor;stroke-width:1;stroke-linecap:butt;stroke-linejoin:miter;stroke-miterlimit:10;stroke-dasharray:1.707,1.707;stroke-dashoffset:0;stroke-opacity:1" transform="matrix(1.33333 0 0 -1.33333 576.473 309.442)"/><path id="path272-2" d="m0 0-.86-.5" clip-path="url(#clipPath273-6)" style="fill:none;stroke:currentColor;stroke-width:1;stroke-linecap:butt;stroke-linejoin:miter;stroke-miterlimit:10;stroke-dasharray:none;stroke-opacity:1" transform="matrix(1.33333 0 0 -1.33333 572.53 311.718)"/><path id="path274-4" d="m0 0-.87.5" clip-path="url(#clipPath275-1)" style="fill:none;stroke:currentColor;stroke-width:1;stroke-linecap:butt;stroke-linejoin:miter;stroke-miterlimit:10;stroke-dasharray:none;stroke-opacity:1" transform="matrix(1.33333 0 0 -1.33333 598.488 312.368)"/><path id="path276-4" d="m0 0-2.28 1.32" clip-path="url(#clipPath277-3)" style="fill:none;stroke:currentColor;stroke-width:1;stroke-linecap:butt;stroke-linejoin:miter;stroke-miterlimit:10;stroke-dasharray:1.757,1.757;stroke-dashoffset:0;stroke-opacity:1" transform="matrix(1.33333 0 0 -1.33333 595.305 310.53)"/><path id="path278-1" d="m0 0-.86.5" clip-path="url(#clipPath279-1)" style="fill:none;stroke:currentColor;stroke-width:1;stroke-linecap:butt;stroke-linejoin:miter;stroke-miterlimit:10;stroke-dasharray:none;stroke-opacity:1" transform="matrix(1.33333 0 0 -1.33333 591.246 308.187)"/><path id="path280-9" d="M0 0v1" clip-path="url(#clipPath281-0)" style="fill:none;stroke:currentColor;stroke-width:1;stroke-linecap:butt;stroke-linejoin:miter;stroke-miterlimit:10;stroke-dasharray:none;stroke-opacity:1" transform="matrix(1.33333 0 0 -1.33333 603.603 330.73)"/><path id="path282-0" d="M0 0v2.48" clip-path="url(#clipPath283-3)" style="fill:none;stroke:currentColor;stroke-width:1;stroke-linecap:butt;stroke-linejoin:miter;stroke-miterlimit:10;stroke-dasharray:1.653,1.653;stroke-dashoffset:0;stroke-opacity:1" transform="matrix(1.33333 0 0 -1.33333 603.603 327.193)"/><path id="path284-2" d="M0 0v1" clip-path="url(#clipPath285-0)" style="fill:none;stroke:currentColor;stroke-width:1;stroke-linecap:butt;stroke-linejoin:miter;stroke-miterlimit:10;stroke-dasharray:none;stroke-opacity:1" transform="matrix(1.33333 0 0 -1.33333 603.603 322.784)"/><path id="path286-1" d="M0 0v-1" clip-path="url(#clipPath287-9)" style="fill:none;stroke:currentColor;stroke-width:1;stroke-linecap:butt;stroke-linejoin:miter;stroke-miterlimit:10;stroke-dasharray:none;stroke-opacity:1" transform="matrix(1.33333 0 0 -1.33333 566.29 321.451)"/><path id="path288-5" d="M0 0v-2.48" clip-path="url(#clipPath289-2)" style="fill:none;stroke:currentColor;stroke-width:1;stroke-linecap:butt;stroke-linejoin:miter;stroke-miterlimit:10;stroke-dasharray:1.653,1.653;stroke-dashoffset:0;stroke-opacity:1" transform="matrix(1.33333 0 0 -1.33333 566.29 324.989)"/><path id="path290-4" d="M0 0v-1" clip-path="url(#clipPath291-0)" style="fill:none;stroke:currentColor;stroke-width:1;stroke-linecap:butt;stroke-linejoin:miter;stroke-miterlimit:10;stroke-dasharray:none;stroke-opacity:1" transform="matrix(1.33333 0 0 -1.33333 566.29 329.398)"/><path id="path292-9" d="m0 0 3.57 2.06" clip-path="url(#clipPath293-9)" style="fill:none;stroke:currentColor;stroke-width:1;stroke-linecap:butt;stroke-linejoin:miter;stroke-miterlimit:10;stroke-dasharray:none;stroke-opacity:1" transform="matrix(1.33333 0 0 -1.33333 571.655 333.765)"/><path id="path294-0" d="m0 0 3.81-2.2" clip-path="url(#clipPath295-9)" style="fill:none;stroke:currentColor;stroke-width:1;stroke-linecap:butt;stroke-linejoin:miter;stroke-miterlimit:10;stroke-dasharray:none;stroke-opacity:1" transform="matrix(1.33333 0 0 -1.33333 571.376 318.256)"/><path id="path296-2" d="M0 0a4.6 4.6 0 1 1 9.2 0A4.6 4.6 0 0 1 0 0Z" clip-path="url(#clipPath297-2)" style="fill:none;stroke:currentColor;stroke-width:1;stroke-linecap:butt;stroke-linejoin:miter;stroke-miterlimit:10;stroke-dasharray:none;stroke-opacity:1" transform="matrix(1.33333 0 0 -1.33333 597.501 336.863)"/><path id="path298-0" d="m0 0-3.73 2.15" clip-path="url(#clipPath299-1)" style="fill:none;stroke:currentColor;stroke-width:1;stroke-linecap:butt;stroke-linejoin:miter;stroke-miterlimit:10;stroke-dasharray:none;stroke-opacity:1" transform="matrix(1.33333 0 0 -1.33333 598.487 333.892)"/><path id="path300-3" d="m0 0-3.77-2.18" clip-path="url(#clipPath301-2)" style="fill:none;stroke:currentColor;stroke-width:1;stroke-linecap:butt;stroke-linejoin:miter;stroke-miterlimit:10;stroke-dasharray:none;stroke-opacity:1" transform="matrix(1.33333 0 0 -1.33333 598.488 318.29)"/><path id="path302-8" d="M0 0v-4.16" clip-path="url(#clipPath303-6)" style="fill:none;stroke:currentColor;stroke-width:1;stroke-linecap:butt;stroke-linejoin:miter;stroke-miterlimit:10;stroke-dasharray:none;stroke-opacity:1" transform="matrix(1.33333 0 0 -1.33333 584.946 310.681)"/><path id="path304-2" d="M0 0a1.34 1.34 0 1 0-2.67 0A1.34 1.34 0 0 0 0 0Z" clip-path="url(#clipPath305-1)" style="fill:none;stroke:currentColor;stroke-width:1;stroke-linecap:butt;stroke-linejoin:miter;stroke-miterlimit:10;stroke-dasharray:none;stroke-opacity:1" transform="matrix(1.33333 0 0 -1.33333 605.448 335.428)"/><path id="path306-1" d="M0 0c0 1.12-.9 2.03-2.03 2.03h-.78c-1.13 0-2.04-.9-2.04-2.03" clip-path="url(#clipPath307-6)" style="fill:none;stroke:currentColor;stroke-width:1;stroke-linecap:butt;stroke-linejoin:miter;stroke-miterlimit:10;stroke-dasharray:none;stroke-opacity:1" transform="matrix(1.33333 0 0 -1.33333 606.973 342.094)"/><path id="path308-6" d="M0 0a4.6 4.6 0 1 1 9.2 0A4.6 4.6 0 0 1 0 0Z" clip-path="url(#clipPath309-4)" style="fill:none;stroke:currentColor;stroke-width:1;stroke-linecap:butt;stroke-linejoin:miter;stroke-miterlimit:10;stroke-dasharray:none;stroke-opacity:1" transform="matrix(1.33333 0 0 -1.33333 560.159 336.863)"/><path id="path310-8" d="M0 0a1.34 1.34 0 1 0-2.67 0A1.34 1.34 0 0 0 0 0Z" clip-path="url(#clipPath311-9)" style="fill:none;stroke:currentColor;stroke-width:1;stroke-linecap:butt;stroke-linejoin:miter;stroke-miterlimit:10;stroke-dasharray:none;stroke-opacity:1" transform="matrix(1.33333 0 0 -1.33333 568.105 335.428)"/><path id="path312-3" d="M0 0c0 1.12-.9 2.03-2.03 2.03h-.78c-1.13 0-2.04-.9-2.04-2.03" clip-path="url(#clipPath313-5)" style="fill:none;stroke:currentColor;stroke-width:1;stroke-linecap:butt;stroke-linejoin:miter;stroke-miterlimit:10;stroke-dasharray:none;stroke-opacity:1" transform="matrix(1.33333 0 0 -1.33333 569.63 342.094)"/><path id="path314-2" d="M0 0a4.6 4.6 0 1 1 9.2 0A4.6 4.6 0 0 1 0 0Z" clip-path="url(#clipPath315-6)" style="fill:none;stroke:currentColor;stroke-width:1;stroke-linecap:butt;stroke-linejoin:miter;stroke-miterlimit:10;stroke-dasharray:none;stroke-opacity:1" transform="matrix(1.33333 0 0 -1.33333 597.501 315.32)"/><path id="path316-9" d="M0 0a1.34 1.34 0 1 0-2.67 0A1.34 1.34 0 0 0 0 0Z" clip-path="url(#clipPath317-0)" style="fill:none;stroke:currentColor;stroke-width:1;stroke-linecap:butt;stroke-linejoin:miter;stroke-miterlimit:10;stroke-dasharray:none;stroke-opacity:1" transform="matrix(1.33333 0 0 -1.33333 605.448 313.883)"/><path id="path318-7" d="M0 0c0 1.12-.9 2.03-2.03 2.03h-.78c-1.13 0-2.04-.9-2.04-2.03" clip-path="url(#clipPath319-8)" style="fill:none;stroke:currentColor;stroke-width:1;stroke-linecap:butt;stroke-linejoin:miter;stroke-miterlimit:10;stroke-dasharray:none;stroke-opacity:1" transform="matrix(1.33333 0 0 -1.33333 606.973 320.55)"/><path id="path320-3" d="M0 0a4.6 4.6 0 1 1 9.2 0A4.6 4.6 0 0 1 0 0Z" clip-path="url(#clipPath321-8)" style="fill:none;stroke:currentColor;stroke-width:1;stroke-linecap:butt;stroke-linejoin:miter;stroke-miterlimit:10;stroke-dasharray:none;stroke-opacity:1" transform="matrix(1.33333 0 0 -1.33333 560.159 315.32)"/><path id="path322-4" d="M0 0a1.34 1.34 0 1 0-2.67 0A1.34 1.34 0 0 0 0 0Z" clip-path="url(#clipPath323-2)" style="fill:none;stroke:currentColor;stroke-width:1;stroke-linecap:butt;stroke-linejoin:miter;stroke-miterlimit:10;stroke-dasharray:none;stroke-opacity:1" transform="matrix(1.33333 0 0 -1.33333 568.105 313.883)"/><path id="path324-8" d="M0 0c0 1.12-.9 2.03-2.03 2.03h-.78c-1.13 0-2.04-.9-2.04-2.03" clip-path="url(#clipPath325-9)" style="fill:none;stroke:currentColor;stroke-width:1;stroke-linecap:butt;stroke-linejoin:miter;stroke-miterlimit:10;stroke-dasharray:none;stroke-opacity:1" transform="matrix(1.33333 0 0 -1.33333 569.63 320.55)"/><path id="path326-6" d="M0 0a4.6 4.6 0 1 1 9.2 0A4.6 4.6 0 0 1 0 0Z" clip-path="url(#clipPath327-3)" style="fill:none;stroke:currentColor;stroke-width:1;stroke-linecap:butt;stroke-linejoin:miter;stroke-miterlimit:10;stroke-dasharray:none;stroke-opacity:1" transform="matrix(1.33333 0 0 -1.33333 578.83 304.55)"/><path id="path328-1" d="M0 0a1.34 1.34 0 1 0-2.67 0A1.34 1.34 0 0 0 0 0Z" clip-path="url(#clipPath329-9)" style="fill:none;stroke:currentColor;stroke-width:1;stroke-linecap:butt;stroke-linejoin:miter;stroke-miterlimit:10;stroke-dasharray:none;stroke-opacity:1" transform="matrix(1.33333 0 0 -1.33333 586.777 303.114)"/><path id="path330-1" d="M0 0c0 1.12-.9 2.03-2.03 2.03h-.78c-1.13 0-2.04-.9-2.04-2.03" clip-path="url(#clipPath331-9)" style="fill:none;stroke:currentColor;stroke-width:1;stroke-linecap:butt;stroke-linejoin:miter;stroke-miterlimit:10;stroke-dasharray:none;stroke-opacity:1" transform="matrix(1.33333 0 0 -1.33333 588.3 309.78)"/><path id="path332-5" d="m0 0 .87.5" clip-path="url(#clipPath333-2)" style="fill:none;stroke:currentColor;stroke-width:1;stroke-linecap:butt;stroke-linejoin:miter;stroke-miterlimit:10;stroke-dasharray:none;stroke-opacity:1" transform="matrix(1.33333 0 0 -1.33333 590.265 344.61)"/><path id="path334-6" d="m0 0 2.22 1.28" clip-path="url(#clipPath335-4)" style="fill:none;stroke:currentColor;stroke-width:1;stroke-linecap:butt;stroke-linejoin:miter;stroke-miterlimit:10;stroke-dasharray:1.707,1.707;stroke-dashoffset:0;stroke-opacity:1" transform="matrix(1.33333 0 0 -1.33333 593.392 342.805)"/><path id="path336-9" d="m0 0 .87.5" clip-path="url(#clipPath337-1)" style="fill:none;stroke:currentColor;stroke-width:1;stroke-linecap:butt;stroke-linejoin:miter;stroke-miterlimit:10;stroke-dasharray:none;stroke-opacity:1" transform="matrix(1.33333 0 0 -1.33333 597.333 340.53)"/><path id="path338-8" d="m0 0 .87-.5" clip-path="url(#clipPath339-8)" style="fill:none;stroke:currentColor;stroke-width:1;stroke-linecap:butt;stroke-linejoin:miter;stroke-miterlimit:10;stroke-dasharray:none;stroke-opacity:1" transform="matrix(1.33333 0 0 -1.33333 571.376 339.878)"/><path id="path340-0" d="m0 0 2.28-1.32" clip-path="url(#clipPath341-4)" style="fill:none;stroke:currentColor;stroke-width:1;stroke-linecap:butt;stroke-linejoin:miter;stroke-miterlimit:10;stroke-dasharray:1.757,1.757;stroke-dashoffset:0;stroke-opacity:1" transform="matrix(1.33333 0 0 -1.33333 574.56 341.717)"/><path id="path342-2" d="m0 0 .87-.5" clip-path="url(#clipPath343-5)" style="fill:none;stroke:currentColor;stroke-width:1;stroke-linecap:butt;stroke-linejoin:miter;stroke-miterlimit:10;stroke-dasharray:none;stroke-opacity:1" transform="matrix(1.33333 0 0 -1.33333 578.617 344.06)"/><path id="path344-2" d="M0 0v4.17" clip-path="url(#clipPath345-0)" style="fill:none;stroke:currentColor;stroke-width:1;stroke-linecap:butt;stroke-linejoin:miter;stroke-miterlimit:10;stroke-dasharray:none;stroke-opacity:1" transform="matrix(1.33333 0 0 -1.33333 584.918 341.566)"/><path id="path346-6" d="M0 0a4.6 4.6 0 1 1 9.2 0A4.6 4.6 0 0 1 0 0Z" clip-path="url(#clipPath347-3)" style="fill:none;stroke:currentColor;stroke-width:1;stroke-linecap:butt;stroke-linejoin:miter;stroke-miterlimit:10;stroke-dasharray:none;stroke-opacity:1" transform="matrix(1.33333 0 0 -1.33333 578.77 347.697)"/><path id="path348-7" d="M0 0a1.34 1.34 0 1 0-2.67 0A1.34 1.34 0 0 0 0 0Z" clip-path="url(#clipPath349-9)" style="fill:none;stroke:currentColor;stroke-width:1;stroke-linecap:butt;stroke-linejoin:miter;stroke-miterlimit:10;stroke-dasharray:none;stroke-opacity:1" transform="matrix(1.33333 0 0 -1.33333 586.717 346.26)"/><path id="path350-6" d="M0 0c0 1.12-.9 2.03-2.03 2.03h-.78c-1.13 0-2.04-.9-2.04-2.03" clip-path="url(#clipPath351-1)" style="fill:none;stroke:currentColor;stroke-width:1;stroke-linecap:butt;stroke-linejoin:miter;stroke-miterlimit:10;stroke-dasharray:none;stroke-opacity:1" transform="matrix(1.33333 0 0 -1.33333 588.242 352.928)"/><path id="path352-1" d="M0 0a2.52 2.52 0 1 0-5.03 0A2.52 2.52 0 0 0 0 0Z" clip-path="url(#clipPath353-6)" style="fill:none;stroke:currentColor;stroke-width:1;stroke-linecap:butt;stroke-linejoin:miter;stroke-miterlimit:10;stroke-dasharray:none;stroke-opacity:1" transform="matrix(1.33333 0 0 -1.33333 588.3 326.092)"/></g></g></svg>