<svg xmlns="http://www.w3.org/2000/svg" viewBox="0 0 68.32 68.32"><defs><clipPath id="a" clipPathUnits="userSpaceOnUse"><path d="M-321.73 120.21h838.22v-422.39h-838.22Z"/></clipPath><clipPath id="b" clipPathUnits="userSpaceOnUse"><path d="M-293.13 108.07H545.1v-422.39h-838.23Z"/></clipPath><clipPath id="c" clipPathUnits="userSpaceOnUse"><path d="M-303.32 123.5h838.23v-422.4h-838.23Z"/></clipPath><clipPath id="d" clipPathUnits="userSpaceOnUse"><path d="M0 422.39h838.23V0H0Z"/></clipPath><clipPath id="e" clipPathUnits="userSpaceOnUse"><path d="M-288.37 131.13h838.23v-422.39h-838.23Z"/></clipPath><clipPath id="f" clipPathUnits="userSpaceOnUse"><path d="M-301.02 131.8h838.23v-422.4h-838.23Z"/></clipPath><clipPath id="g" clipPathUnits="userSpaceOnUse"><path d="M-298.81 131.8H539.4v-422.4h-838.2Z"/></clipPath><clipPath id="h" clipPathUnits="userSpaceOnUse"><path d="M-296.61 131.8H541.6v-422.4h-838.2Z"/></clipPath></defs><g fill="none" stroke="currentColor" stroke-miterlimit="10" class="eit-icon"><path d="M0 0a25.12 25.12 0 1 0-50.24 0A25.12 25.12 0 0 0 0 0Z" class="eit-icon-circle" clip-path="url(#a)" transform="matrix(1.33333 0 0 -1.33333 67.653 34.16)"/><path stroke-linecap="round" stroke-linejoin="round" d="M0 0a3.48 3.48 0 1 0 6.96 0A3.48 3.48 0 0 0 0 0" clip-path="url(#b)" transform="matrix(1.33333 0 0 -1.33333 29.519 17.969)"/><path stroke-linecap="round" stroke-linejoin="round" d="M0 0h-13.41v5.9A3.9 3.9 0 0 0-9.5 9.8h5.57A3.9 3.9 0 0 0 0 5.9Z" clip-path="url(#c)" transform="matrix(1.33333 0 0 -1.33333 43.1 38.536)"/><path stroke-linecap="round" stroke-linejoin="round" d="M303.32 288.67H289.9v6.92h13.4z" clip-path="url(#d)" transform="matrix(1.33333 0 0 -1.33333 -361.324 437.06)"/><path stroke-linecap="round" stroke-linejoin="round" d="M0 0v1.71" clip-path="url(#e)" transform="matrix(1.33333 0 0 -1.33333 23.168 48.715)"/><path stroke-linecap="round" stroke-linejoin="round" d="M0 0v3.07" clip-path="url(#f)" transform="matrix(1.33333 0 0 -1.33333 40.032 49.599)"/><path stroke-linecap="round" stroke-linejoin="round" d="M0 0v3.07" clip-path="url(#g)" transform="matrix(1.33333 0 0 -1.33333 37.095 49.599)"/><path stroke-linecap="round" stroke-linejoin="round" d="M0 0v3.07" clip-path="url(#h)" transform="matrix(1.33333 0 0 -1.33333 34.16 49.599)"/></g></svg>