<svg xmlns="http://www.w3.org/2000/svg" viewBox="0 0 68.319 68.32"><defs><clipPath id="a" clipPathUnits="userSpaceOnUse"><path d="M-800.1 181.22H38.12v-422.4H-800.1Z"/></clipPath><clipPath id="b" clipPathUnits="userSpaceOnUse"><path d="M-783.58 185.96H54.65v-422.39h-838.23Z"/></clipPath><clipPath id="c" clipPathUnits="userSpaceOnUse"><path d="M-775.07 194.55H63.16v-422.39h-838.23Z"/></clipPath><clipPath id="d" clipPathUnits="userSpaceOnUse"><path d="M-781.9 185.46H56.31v-422.39H-781.9Z"/></clipPath><clipPath id="e" clipPathUnits="userSpaceOnUse"><path d="M-775.06 166.16H63.16v-422.39h-838.22Z"/></clipPath><clipPath id="f" clipPathUnits="userSpaceOnUse"><path d="M-788.47 175.7H49.75v-422.4h-838.22Z"/></clipPath><clipPath id="g" clipPathUnits="userSpaceOnUse"><path d="M-761.68 185.1H76.55v-422.4h-838.23Z"/></clipPath><clipPath id="h" clipPathUnits="userSpaceOnUse"><path d="M-786.59 182.95H51.64v-422.39h-838.23Z"/></clipPath><clipPath id="i" clipPathUnits="userSpaceOnUse"><path d="M-788.94 191.47H49.3v-422.39h-838.23Z"/></clipPath></defs><g fill="none" stroke="currentColor" stroke-miterlimit="10"><path d="M0 0a25.12 25.12 0 1 0-50.24 0A25.12 25.12 0 0 0 0 0Z" class="eit-icon-circle" clip-path="url(#a)" transform="matrix(1.33333 0 0 -1.33333 67.652 34.16)"/><g stroke-linecap="round" stroke-linejoin="round" class="eit-icon"><path d="M0 0a3 3 0 0 0-2.12.87C-2.67 1.42-3 2.18-3 3.01c0 1.24.75 2.31 1.83 2.76v.01q.55.23 1.18.24A3 3 0 1 0 0 0m4.9 10.27a14.2 14.2 0 0 1-13.11 9.52l-.3.01-.3-.01a14.19 14.19 0 0 1 0-28.37l.3-.01q1.63 0 3.16.36v2.72a3.9 3.9 0 0 0 3.92 3.92h2.87q1.08-.01 1.96-.52a14.1 14.1 0 0 1 1.5 12.38" clip-path="url(#b)" transform="matrix(1.33333 0 0 -1.33333 45.614 40.487)"/><path d="m0 0-.3.01c-3.06.24-5.63 4.11-6.61 9.45a27 27 0 0 0-.02 9.4c.97 5.37 3.55 9.28 6.63 9.52l.3.01.3-.01c3.07-.24 5.66-4.15 6.63-9.52q.38-2.12.4-4.49" clip-path="url(#c)" transform="matrix(1.33333 0 0 -1.33333 34.268 51.94)"/><path d="M0 0a21 21 0 0 0-.55-2.17" clip-path="url(#d)" transform="matrix(1.33333 0 0 -1.33333 43.387 39.82)"/><path d="M0 0v-28.39" clip-path="url(#e)" transform="matrix(1.33333 0 0 -1.33333 34.264 14.088)"/><path d="M0 0h-26.82" clip-path="url(#f)" transform="matrix(1.33333 0 0 -1.33333 52.144 26.798)"/><path d="M0 0h19.78" clip-path="url(#g)" transform="matrix(1.33333 0 0 -1.33333 16.415 39.327)"/><path d="M0 0a3 3 0 1 0-4.19 2.76v.01q.54.23 1.18.24A3 3 0 0 0 0 0" clip-path="url(#h)" transform="matrix(1.33333 0 0 -1.33333 49.628 36.473)"/><path d="M0 0v-4.87h-10.71V0a3.9 3.9 0 0 0 3.92 3.92h2.87q1.08-.01 1.96-.52A3.9 3.9 0 0 0 0 0" clip-path="url(#i)" transform="matrix(1.33333 0 0 -1.33333 52.761 47.833)"/></g></g></svg>