<svg xmlns="http://www.w3.org/2000/svg" viewBox="0 0 68.32 68.32"><defs><clipPath id="a" clipPathUnits="userSpaceOnUse"><path d="M-321.48 303.28h838.23V-119.1h-838.23Z"/></clipPath><clipPath id="b" clipPathUnits="userSpaceOnUse"><path d="M-306.15 315.23h838.23v-422.39h-838.23Z"/></clipPath><clipPath id="c" clipPathUnits="userSpaceOnUse"><path d="M-291.35 293.99h838.23V-128.4h-838.23Z"/></clipPath></defs><g fill="none" stroke="currentColor" stroke-miterlimit="10" class="eit-icon"><path d="M0 0a25.12 25.12 0 1 0-50.24 0A25.12 25.12 0 0 0 0 0Z" class="eit-icon-circle" clip-path="url(#a)" transform="matrix(1.33333 0 0 -1.33333 67.653 34.16)"/><path stroke-linecap="round" stroke-linejoin="round" d="M0 0h-19.59v7.3a5.87 5.87 0 0 0 5.88 5.88h7.84A5.87 5.87 0 0 0 0 7.3Z" clip-path="url(#b)" transform="matrix(1.33333 0 0 -1.33333 47.218 50.098)"/><path stroke-linecap="round" stroke-linejoin="round" d="M0 0a5 5 0 1 0 10.02 0A5 5 0 0 0 0 0" clip-path="url(#c)" transform="matrix(1.33333 0 0 -1.33333 27.481 21.77)"/></g></svg>