<svg xmlns="http://www.w3.org/2000/svg" viewBox="0 0 68.32 68.32"><defs><clipPath id="a" clipPathUnits="userSpaceOnUse"><path d="M-381.53 181.17H456.7v-422.4h-838.23Z"/></clipPath><clipPath id="b" clipPathUnits="userSpaceOnUse"><path d="M-360.3 172.92h838.22v-422.39H-360.3Z"/></clipPath><clipPath id="c" clipPathUnits="userSpaceOnUse"><path d="M-358.6 179.35h838.22v-422.39H-358.6Z"/></clipPath><clipPath id="d" clipPathUnits="userSpaceOnUse"><path d="M-348.83 188.35H489.4v-422.39h-838.23Z"/></clipPath><clipPath id="e" clipPathUnits="userSpaceOnUse"><path d="M-346.5 169.95h838.23v-422.39h-838.22Z"/></clipPath><clipPath id="f" clipPathUnits="userSpaceOnUse"><path d="M-348.83 188.32H489.4v-422.39h-838.23Z"/></clipPath><clipPath id="g" clipPathUnits="userSpaceOnUse"><path d="M-359.48 192.73h838.23v-422.39h-838.23Z"/></clipPath></defs><g fill="none" stroke="currentColor" stroke-miterlimit="10" class="eit-icon"><path d="M0 0a25.12 25.12 0 1 0-50.24 0A25.12 25.12 0 0 0 0 0Z" class="eit-icon-circle" clip-path="url(#a)" transform="matrix(1.33333 0 0 -1.33333 67.653 34.16)"/><path stroke-linecap="round" stroke-linejoin="round" d="M0 0a3.48 3.48 0 1 0 6.96 0A3.48 3.48 0 0 0 0 0" clip-path="url(#b)" transform="matrix(1.33333 0 0 -1.33333 39.354 23.17)"/><path stroke-linecap="round" stroke-linejoin="round" d="M0 0c.66.51 1.5.82 2.4.82h5.57a3.9 3.9 0 0 0 3.92-3.92V-9h-9.2" clip-path="url(#c)" transform="matrix(1.33333 0 0 -1.33333 37.088 31.74)"/><path stroke-linecap="round" stroke-linejoin="round" d="M0 0h-6.5v6.46a4.96 4.96 0 0 0 4.96 4.96H5.5a4.96 4.96 0 0 0 4.96-4.96V4.61" clip-path="url(#d)" transform="matrix(1.33333 0 0 -1.33333 24.056 43.737)"/><path stroke-linecap="round" stroke-linejoin="round" d="M0 0a4.32 4.32 0 1 0 8.64 0A4.32 4.32 0 0 0 0 0" clip-path="url(#e)" transform="matrix(1.33333 0 0 -1.33333 20.94 19.209)"/><path d="M0 0a6.24 6.24 0 1 0 12.47 0A6.24 6.24 0 0 0 0 0Z" clip-path="url(#f)" transform="matrix(1.33333 0 0 -1.33333 24.056 43.698)"/><path stroke-linecap="round" stroke-linejoin="round" d="m0 0 4.25-4.25" clip-path="url(#g)" transform="matrix(1.33333 0 0 -1.33333 38.252 49.577)"/></g></svg>