<svg xmlns="http://www.w3.org/2000/svg" viewBox="0 0 68.32 68.32"><defs><clipPath id="a" clipPathUnits="userSpaceOnUse"><path d="M-680.6 303.9h838.24v-422.4H-680.6Z"/></clipPath><clipPath id="b" clipPathUnits="userSpaceOnUse"><path d="M0 422.39h838.23V0H0Z"/></clipPath><clipPath id="c" clipPathUnits="userSpaceOnUse"><path d="M-640.45 297.72h838.22v-422.4h-838.22Z"/></clipPath><clipPath id="d" clipPathUnits="userSpaceOnUse"><path d="M-640.45 302.07h838.22v-422.4h-838.22Z"/></clipPath><clipPath id="e" clipPathUnits="userSpaceOnUse"><path d="M-640.45 306.41h838.22v-422.39h-838.22Z"/></clipPath><clipPath id="f" clipPathUnits="userSpaceOnUse"><path d="M-640.45 310.76h838.22v-422.39h-838.22Z"/></clipPath><clipPath id="g" clipPathUnits="userSpaceOnUse"><path d="M-665.04 297.72h838.22v-422.4h-838.22Z"/></clipPath><clipPath id="h" clipPathUnits="userSpaceOnUse"><path d="M-665.04 302.07h838.22v-422.4h-838.22Z"/></clipPath><clipPath id="i" clipPathUnits="userSpaceOnUse"><path d="M-665.04 306.41h838.22v-422.39h-838.22Z"/></clipPath><clipPath id="j" clipPathUnits="userSpaceOnUse"><path d="M-665.04 310.76h838.22v-422.39h-838.22Z"/></clipPath><clipPath id="k" clipPathUnits="userSpaceOnUse"><path d="M-645.9 293.37h838.23v-422.4H-645.9Z"/></clipPath><clipPath id="l" clipPathUnits="userSpaceOnUse"><path d="M-665.04 293.37h838.22v-422.4h-838.22Z"/></clipPath><clipPath id="m" clipPathUnits="userSpaceOnUse"><path d="M-660.51 304.24h838.23v-422.39h-838.23Z"/></clipPath></defs><g fill="none" stroke="currentColor" stroke-miterlimit="10" class="eit-icon"><path d="M0 0a25.12 25.12 0 1 0-50.24 0A25.12 25.12 0 0 0 0 0Z" class="eit-icon-circle" clip-path="url(#a)" transform="matrix(1.33333 0 0 -1.33333 67.653 34.16)"/><path stroke-linecap="round" stroke-linejoin="round" d="M640.45 129.02h30.04v-21.74h-30.04z" clip-path="url(#b)" transform="matrix(1.33333 0 0 -1.33333 -839.802 192.159)"/><path stroke-linecap="round" stroke-linejoin="round" d="M0 0h5.44" clip-path="url(#c)" transform="matrix(1.33333 0 0 -1.33333 14.136 25.928)"/><path stroke-linecap="round" stroke-linejoin="round" d="M0 0h5.44" clip-path="url(#d)" transform="matrix(1.33333 0 0 -1.33333 14.136 31.726)"/><path stroke-linecap="round" stroke-linejoin="round" d="M0 0h5.44" clip-path="url(#e)" transform="matrix(1.33333 0 0 -1.33333 14.136 37.525)"/><path stroke-linecap="round" stroke-linejoin="round" d="M0 0h5.44" clip-path="url(#f)" transform="matrix(1.33333 0 0 -1.33333 14.136 43.324)"/><path stroke-linecap="round" stroke-linejoin="round" d="M0 0h5.44" clip-path="url(#g)" transform="matrix(1.33333 0 0 -1.33333 46.924 25.928)"/><path stroke-linecap="round" stroke-linejoin="round" d="M0 0h5.44" clip-path="url(#h)" transform="matrix(1.33333 0 0 -1.33333 46.924 31.726)"/><path stroke-linecap="round" stroke-linejoin="round" d="M0 0h5.44" clip-path="url(#i)" transform="matrix(1.33333 0 0 -1.33333 46.924 37.525)"/><path stroke-linecap="round" stroke-linejoin="round" d="M0 0h5.44" clip-path="url(#j)" transform="matrix(1.33333 0 0 -1.33333 46.924 43.324)"/><path stroke-linecap="round" stroke-linejoin="round" d="M0 0v-21.74" clip-path="url(#k)" transform="matrix(1.33333 0 0 -1.33333 21.395 20.129)"/><path stroke-linecap="round" stroke-linejoin="round" d="M0 0v-21.74" clip-path="url(#l)" transform="matrix(1.33333 0 0 -1.33333 46.924 20.129)"/><path stroke-linecap="round" stroke-linejoin="round" d="m0 0-8.5 4.05v-8.1Z" clip-path="url(#m)" transform="matrix(1.33333 0 0 -1.33333 40.881 34.626)"/></g></svg>