<svg xmlns="http://www.w3.org/2000/svg" viewBox="0 0 68.32 68.319"><defs><clipPath id="a" clipPathUnits="userSpaceOnUse"><path d="M-142.09 364.3h838.23V-58.09h-838.23Z"/></clipPath><clipPath id="b" clipPathUnits="userSpaceOnUse"><path d="M-119.27 358.25h838.23v-422.4h-838.23Z"/></clipPath><clipPath id="c" clipPathUnits="userSpaceOnUse"><path d="M-114.65 358.25h838.23v-422.4h-838.23Z"/></clipPath><clipPath id="d" clipPathUnits="userSpaceOnUse"><path d="M-118.1 360.25h838.23v-422.4H-118.1Z"/></clipPath><clipPath id="e" clipPathUnits="userSpaceOnUse"><path d="M-118.12 356.26H720.1V-66.13h-838.23Z"/></clipPath><clipPath id="f" clipPathUnits="userSpaceOnUse"><path d="M-110.6 381.25h838.24V-41.14H-110.6Z"/></clipPath><clipPath id="g" clipPathUnits="userSpaceOnUse"><path d="M-116.96 360.56h838.23v-422.4h-838.23Z"/></clipPath></defs><g fill="none" stroke="currentColor" stroke-miterlimit="10" class="eit-icon"><path d="M0 0a25.12 25.12 0 1 0-50.24 0A25.12 25.12 0 0 0 0 0Z" class="eit-icon-circle" clip-path="url(#a)" transform="matrix(1.33333 0 0 -1.33333 67.653 34.16)"/><path stroke-linecap="round" stroke-linejoin="round" d="M0 0a2.3 2.3 0 1 1-4.62 0A2.3 2.3 0 0 1 0 0" clip-path="url(#b)" transform="matrix(1.33333 0 0 -1.33333 37.227 26.087)"/><path stroke-linecap="round" stroke-linejoin="round" d="m0 0 1.3 12.33c.13 1.2 1.89 1.2 2.01 0L4.61 0" clip-path="url(#c)" transform="matrix(1.33333 0 0 -1.33333 31.075 26.087)"/><path stroke-linecap="round" stroke-linejoin="round" d="m0 0-11.33-5.04c-1.1-.5-1.99 1.03-1 1.75L-2.31 4" clip-path="url(#d)" transform="matrix(1.33333 0 0 -1.33333 35.667 28.751)"/><path stroke-linecap="round" stroke-linejoin="round" d="m0 0 10.03-7.3c.98-.7.1-2.23-1-1.74L-2.32-4" clip-path="url(#e)" transform="matrix(1.33333 0 0 -1.33333 35.7 23.441)"/><path stroke-linecap="round" stroke-linejoin="round" d="M0 0h12.74" clip-path="url(#f)" transform="matrix(1.33333 0 0 -1.33333 25.66 56.76)"/><path stroke-linecap="round" stroke-linejoin="round" d="M0 0v-20.7" clip-path="url(#g)" transform="matrix(1.33333 0 0 -1.33333 34.15 29.163)"/></g></svg>