<svg version="1.1" viewBox="0 0 68.320006 68.319993" xmlns="http://www.w3.org/2000/svg"><defs><clipPath clipPathUnits="userSpaceOnUse" id="a"><path d="M 0,422.39 H 838.228 V 0 H 0 Z" transform="translate(-193.9833,-263.20701)"></path></clipPath><clipPath clipPathUnits="userSpaceOnUse" id="b"><path d="M 0,422.39 H 838.228 V 0 H 0 Z" transform="translate(-189.535,-242.02541)"></path></clipPath><clipPath clipPathUnits="userSpaceOnUse" id="c"><path d="M 0,422.39 H 838.228 V 0 H 0 Z" transform="translate(-191.6464,-235.9824)"></path></clipPath><clipPath clipPathUnits="userSpaceOnUse" id="d"><path d="M 0,422.39 H 838.228 V 0 H 0 Z" transform="translate(-196.32021,-239.03511)"></path></clipPath><clipPath clipPathUnits="userSpaceOnUse" id="e"><path d="M 0,422.39 H 838.228 V 0 H 0 Z" transform="translate(-188.1483,-237.58691)"></path></clipPath><clipPath clipPathUnits="userSpaceOnUse" id="f"><path d="M 0,422.39 H 838.228 V 0 H 0 Z" transform="translate(-189.30651,-233.76171)"></path></clipPath><clipPath clipPathUnits="userSpaceOnUse" id="g"><path d="M 0,422.39 H 838.228 V 0 H 0 Z" transform="translate(-188.66781,-232.2558)"></path></clipPath><clipPath clipPathUnits="userSpaceOnUse" id="h"><path d="M 0,422.39 H 838.228 V 0 H 0 Z" transform="translate(-198.42471,-242.02541)"></path></clipPath><clipPath clipPathUnits="userSpaceOnUse" id="i"><path d="M 0,422.39 H 838.228 V 0 H 0 Z" transform="translate(-196.3134,-235.9824)"></path></clipPath><clipPath clipPathUnits="userSpaceOnUse" id="j"><path d="M 0,422.39 H 838.228 V 0 H 0 Z" transform="translate(-199.8114,-237.58691)"></path></clipPath><clipPath clipPathUnits="userSpaceOnUse" id="k"><path d="M 0,422.39 H 838.228 V 0 H 0 Z" transform="translate(-198.6532,-233.76171)"></path></clipPath><clipPath clipPathUnits="userSpaceOnUse" id="l"><path d="M 0,422.39 H 838.228 V 0 H 0 Z" transform="translate(-199.2919,-232.2558)"></path></clipPath><clipPath clipPathUnits="userSpaceOnUse" id="m"><path d="M 0,422.39 H 838.228 V 0 H 0 Z" transform="translate(-201.5692,-226.08101)"></path></clipPath><clipPath clipPathUnits="userSpaceOnUse" id="n"><path d="M 0,422.39 H 838.228 V 0 H 0 Z" transform="translate(-188.6796,-252.16791)"></path></clipPath><clipPath clipPathUnits="userSpaceOnUse" id="o"><path d="M 0,422.39 H 838.228 V 0 H 0 Z" transform="translate(-199.2733,-252.16791)"></path></clipPath><clipPath clipPathUnits="userSpaceOnUse" id="p"><path d="M 0,422.39 H 838.228 V 0 H 0 Z" transform="translate(-193.9833,-253.9482)"></path></clipPath><clipPath clipPathUnits="userSpaceOnUse" id="q"><path d="M 0,422.39 H 838.228 V 0 H 0 Z" transform="translate(-193.9833,-221.22651)"></path></clipPath><clipPath clipPathUnits="userSpaceOnUse" id="r"><path d="M 0,422.39 H 838.228 V 0 H 0 Z" transform="translate(-189.9823,-226.08101)"></path></clipPath><clipPath clipPathUnits="userSpaceOnUse" id="s"><path d="M 0,422.39 H 838.228 V 0 H 0 Z" transform="translate(-200.57601,-226.08101)"></path></clipPath><clipPath clipPathUnits="userSpaceOnUse" id="t"><path d="M 0,422.39 H 838.228 V 0 H 0 Z" transform="translate(-208.5643,-242.88381)"></path></clipPath><clipPath clipPathUnits="userSpaceOnUse" id="u"><path d="M 0,422.39 H 838.228 V 0 H 0 Z" transform="translate(-208.5643,-232.29)"></path></clipPath><clipPath clipPathUnits="userSpaceOnUse" id="v"><path d="M 0,422.39 H 838.228 V 0 H 0 Z" transform="translate(-182.4774,-241.581)"></path></clipPath><clipPath clipPathUnits="userSpaceOnUse" id="w"><path d="M 0,422.39 H 838.228 V 0 H 0 Z" transform="translate(-182.4774,-230.98731)"></path></clipPath><clipPath clipPathUnits="userSpaceOnUse" id="x"><path d="M 0,422.39 H 838.228 V 0 H 0 Z" transform="translate(-210.34461,-237.58691)"></path></clipPath><clipPath clipPathUnits="userSpaceOnUse" id="y"><path d="M 0,422.39 H 838.228 V 0 H 0 Z" transform="translate(-177.6219,-237.58691)"></path></clipPath></defs><g transform="translate(-224.48441,-212.244)"><path d="m 0,0 c -14.149,0 -25.62,-11.471 -25.62,-25.62 0,-14.15 11.471,-25.62 25.62,-25.62 14.149,0 25.62,11.47 25.62,25.62 C 25.62,-11.471 14.149,0 0,0 m 0,-1 c 13.575,0 24.62,-11.044 24.62,-24.62 0,-13.575 -11.045,-24.62 -24.62,-24.62 -13.576,0 -24.62,11.045 -24.62,24.62 C -24.62,-12.044 -13.576,-1 0,-1" transform="matrix(1.3333333,0,0,-1.3333333,258.6444,212.244)" clip-path="url(#a)" fill="currentColor" fill-opacity="1" fill-rule="nonzero" stroke="none" class="icon-bg"></path><path d="m 0,0 c -0.145,0.304 -0.226,0.644 -0.226,1.003 0,1.291 1.046,2.337 2.337,2.337 1.29,0 2.337,-1.046 2.337,-2.337" transform="matrix(1.3333333,0,0,-1.3333333,252.71333,240.48613)" clip-path="url(#b)" fill="none" stroke="currentColor" stroke-width="1" stroke-linecap="butt" stroke-linejoin="miter" stroke-miterlimit="10" stroke-dasharray="none" stroke-opacity="1"></path><path d="M 0,0 C 1.29,0 2.337,-1.046 2.337,-2.337" transform="matrix(1.3333333,0,0,-1.3333333,255.52853,248.54347)" clip-path="url(#c)" fill="none" stroke="currentColor" stroke-width="1" stroke-linecap="butt" stroke-linejoin="miter" stroke-miterlimit="10" stroke-dasharray="none" stroke-opacity="1"></path><path d="M 0,0 C -1.291,0 -2.337,-1.046 -2.337,-2.337" transform="matrix(1.3333333,0,0,-1.3333333,261.76027,244.4732)" clip-path="url(#d)" fill="none" stroke="currentColor" stroke-width="1" stroke-linecap="butt" stroke-linejoin="miter" stroke-miterlimit="10" stroke-dasharray="none" stroke-opacity="1"></path><path d="m 0,0 c -0.839,0.355 -1.428,1.186 -1.428,2.153 0,1.291 1.047,2.337 2.337,2.337 0.753,0 1.422,-0.355 1.85,-0.907" transform="matrix(1.3333333,0,0,-1.3333333,250.8644,246.40413)" clip-path="url(#e)" fill="none" stroke="currentColor" stroke-width="1" stroke-linecap="butt" stroke-linejoin="miter" stroke-miterlimit="10" stroke-dasharray="none" stroke-opacity="1"></path><path d="m 0,0 c -0.406,-0.468 -0.652,-1.078 -0.652,-1.746 0,-1.471 1.193,-2.664 2.665,-2.664 1.47,0 2.664,1.193 2.664,2.664 v 8.017" transform="matrix(1.3333333,0,0,-1.3333333,252.40867,251.5044)" clip-path="url(#f)" fill="none" stroke="currentColor" stroke-width="1" stroke-linecap="butt" stroke-linejoin="miter" stroke-miterlimit="10" stroke-dasharray="none" stroke-opacity="1"></path><path d="m 0,0 c -1.095,0.463 -1.863,1.547 -1.863,2.811 0,1.684 1.365,3.05 3.05,3.05" transform="matrix(1.3333333,0,0,-1.3333333,251.55707,253.51227)" clip-path="url(#g)" fill="none" stroke="currentColor" stroke-width="1" stroke-linecap="butt" stroke-linejoin="miter" stroke-miterlimit="10" stroke-dasharray="none" stroke-opacity="1"></path><path d="m 0,0 c 0.145,0.304 0.226,0.644 0.226,1.003 0,1.291 -1.046,2.337 -2.337,2.337 -1.291,0 -2.337,-1.046 -2.337,-2.337" transform="matrix(1.3333333,0,0,-1.3333333,264.56627,240.48613)" clip-path="url(#h)" fill="none" stroke="currentColor" stroke-width="1" stroke-linecap="butt" stroke-linejoin="miter" stroke-miterlimit="10" stroke-dasharray="none" stroke-opacity="1"></path><path d="M 0,0 C -1.291,0 -2.337,-1.046 -2.337,-2.337" transform="matrix(1.3333333,0,0,-1.3333333,261.7512,248.54347)" clip-path="url(#i)" fill="none" stroke="currentColor" stroke-width="1" stroke-linecap="butt" stroke-linejoin="miter" stroke-miterlimit="10" stroke-dasharray="none" stroke-opacity="1"></path><path d="m 0,0 c 0.839,0.355 1.428,1.186 1.428,2.153 0,1.291 -1.047,2.337 -2.337,2.337 -0.753,0 -1.422,-0.355 -1.85,-0.907" transform="matrix(1.3333333,0,0,-1.3333333,266.4152,246.40413)" clip-path="url(#j)" fill="none" stroke="currentColor" stroke-width="1" stroke-linecap="butt" stroke-linejoin="miter" stroke-miterlimit="10" stroke-dasharray="none" stroke-opacity="1"></path><path d="m 0,0 c 0.406,-0.468 0.652,-1.078 0.652,-1.746 0,-1.471 -1.193,-2.664 -2.665,-2.664 -1.471,0 -2.664,1.193 -2.664,2.664 v 8.017" transform="matrix(1.3333333,0,0,-1.3333333,264.87093,251.5044)" clip-path="url(#k)" fill="none" stroke="currentColor" stroke-width="1" stroke-linecap="butt" stroke-linejoin="miter" stroke-miterlimit="10" stroke-dasharray="none" stroke-opacity="1"></path><path d="m 0,0 c 1.095,0.463 1.863,1.547 1.863,2.811 0,1.684 -1.366,3.05 -3.05,3.05" transform="matrix(1.3333333,0,0,-1.3333333,265.72253,253.51227)" clip-path="url(#l)" fill="none" stroke="currentColor" stroke-width="1" stroke-linecap="butt" stroke-linejoin="miter" stroke-miterlimit="10" stroke-dasharray="none" stroke-opacity="1"></path><path d="m 0,0 h -15.186 c -2.161,0 -3.913,1.752 -3.913,3.913 v 15.186 c 0,2.161 1.752,3.913 3.913,3.913 H 0 c 2.161,0 3.913,-1.752 3.913,-3.913 V 3.913 C 3.913,1.752 2.161,0 0,0 Z" transform="matrix(1.3333333,0,0,-1.3333333,268.75893,261.74533)" clip-path="url(#m)" fill="none" stroke="currentColor" stroke-width="1" stroke-linecap="butt" stroke-linejoin="miter" stroke-miterlimit="10" stroke-dasharray="none" stroke-opacity="1"></path><path d="m 0,0 v 0 c -0.72,0 -1.304,-0.583 -1.304,-1.303 v -1.772 h 2.607 v 1.772 C 1.303,-0.583 0.72,0 0,0 Z" transform="matrix(1.3333333,0,0,-1.3333333,251.5728,226.9628)" clip-path="url(#n)" fill="none" stroke="currentColor" stroke-width="1" stroke-linecap="butt" stroke-linejoin="miter" stroke-miterlimit="10" stroke-dasharray="none" stroke-opacity="1"></path><path d="m 0,0 v 0 c -0.72,0 -1.304,-0.583 -1.304,-1.303 v -1.772 h 2.607 v 1.772 C 1.303,-0.583 0.72,0 0,0 Z" transform="matrix(1.3333333,0,0,-1.3333333,265.69773,226.9628)" clip-path="url(#o)" fill="none" stroke="currentColor" stroke-width="1" stroke-linecap="butt" stroke-linejoin="miter" stroke-miterlimit="10" stroke-dasharray="none" stroke-opacity="1"></path><path d="m 0,0 v 0 c -0.72,0 -1.304,-0.584 -1.304,-1.304 v -3.551 h 2.607 v 3.551 C 1.303,-0.584 0.72,0 0,0 Z" transform="matrix(1.3333333,0,0,-1.3333333,258.6444,224.58907)" clip-path="url(#p)" fill="none" stroke="currentColor" stroke-width="1" stroke-linecap="butt" stroke-linejoin="miter" stroke-miterlimit="10" stroke-dasharray="none" stroke-opacity="1"></path><path d="M 0,0 V 0 C 0.72,0 1.303,0.583 1.303,1.303 V 4.854 H -1.304 V 1.303 C -1.304,0.583 -0.72,0 0,0 Z" transform="matrix(1.3333333,0,0,-1.3333333,258.6444,268.218)" clip-path="url(#q)" fill="none" stroke="currentColor" stroke-width="1" stroke-linecap="butt" stroke-linejoin="miter" stroke-miterlimit="10" stroke-dasharray="none" stroke-opacity="1"></path><path d="m 0,0 h -2.606 v -1.771 c 0,-0.72 0.584,-1.304 1.303,-1.304 0.72,0 1.303,0.584 1.303,1.304 z" transform="matrix(1.3333333,0,0,-1.3333333,253.30973,261.74533)" clip-path="url(#r)" fill="none" stroke="currentColor" stroke-width="1" stroke-linecap="butt" stroke-linejoin="miter" stroke-miterlimit="10" stroke-dasharray="none" stroke-opacity="1"></path><path d="m 0,0 h -2.606 v -1.771 c 0,-0.72 0.584,-1.304 1.303,-1.304 0.72,0 1.303,0.584 1.303,1.304 z" transform="matrix(1.3333333,0,0,-1.3333333,267.43467,261.74533)" clip-path="url(#s)" fill="none" stroke="currentColor" stroke-width="1" stroke-linecap="butt" stroke-linejoin="miter" stroke-miterlimit="10" stroke-dasharray="none" stroke-opacity="1"></path><path d="m 0,0 v 0 c 0,0.72 -0.584,1.304 -1.304,1.304 h -1.771 v -2.607 h 1.771 C -0.584,-1.303 0,-0.72 0,0 Z" transform="matrix(1.3333333,0,0,-1.3333333,278.08573,239.3416)" clip-path="url(#t)" fill="none" stroke="currentColor" stroke-width="1" stroke-linecap="butt" stroke-linejoin="miter" stroke-miterlimit="10" stroke-dasharray="none" stroke-opacity="1"></path><path d="m 0,0 v 0 c 0,0.72 -0.584,1.304 -1.304,1.304 h -1.771 v -2.607 h 1.771 C -0.584,-1.303 0,-0.72 0,0 Z" transform="matrix(1.3333333,0,0,-1.3333333,278.08573,253.46667)" clip-path="url(#u)" fill="none" stroke="currentColor" stroke-width="1" stroke-linecap="butt" stroke-linejoin="miter" stroke-miterlimit="10" stroke-dasharray="none" stroke-opacity="1"></path><path d="m 0,0 v 2.606 h -1.772 c -0.72,0 -1.303,-0.584 -1.303,-1.303 C -3.075,0.583 -2.492,0 -1.772,0 Z" transform="matrix(1.3333333,0,0,-1.3333333,243.3032,241.07867)" clip-path="url(#v)" fill="none" stroke="currentColor" stroke-width="1" stroke-linecap="butt" stroke-linejoin="miter" stroke-miterlimit="10" stroke-dasharray="none" stroke-opacity="1"></path><path d="m 0,0 v 2.606 h -1.772 c -0.72,0 -1.303,-0.584 -1.303,-1.303 C -3.075,0.583 -2.492,0 -1.772,0 Z" transform="matrix(1.3333333,0,0,-1.3333333,243.3032,255.2036)" clip-path="url(#w)" fill="none" stroke="currentColor" stroke-width="1" stroke-linecap="butt" stroke-linejoin="miter" stroke-miterlimit="10" stroke-dasharray="none" stroke-opacity="1"></path><path d="m 0,0 v 0 c 0,0.72 -0.584,1.304 -1.304,1.304 h -3.551 v -2.607 h 3.551 C -0.584,-1.303 0,-0.72 0,0 Z" transform="matrix(1.3333333,0,0,-1.3333333,280.45947,246.40413)" clip-path="url(#x)" fill="none" stroke="currentColor" stroke-width="1" stroke-linecap="butt" stroke-linejoin="miter" stroke-miterlimit="10" stroke-dasharray="none" stroke-opacity="1"></path><path d="M 0,0 V 0 C 0,-0.72 0.584,-1.303 1.304,-1.303 H 4.855 V 1.304 H 1.304 C 0.584,1.304 0,0.72 0,0 Z" transform="matrix(1.3333333,0,0,-1.3333333,236.8292,246.40413)" clip-path="url(#y)" fill="none" stroke="currentColor" stroke-width="1" stroke-linecap="butt" stroke-linejoin="miter" stroke-miterlimit="10" stroke-dasharray="none" stroke-opacity="1"></path></g></svg>