<?xml version="1.0" encoding="UTF-8" standalone="no"?>
<!-- Created with Inkscape (http://www.inkscape.org/) -->

<svg
   version="1.1"
   id="svg1"
   width="68.320007"
   height="68.319992"
   viewBox="0 0 68.320006 68.319993"
   xmlns="http://www.w3.org/2000/svg"
   xmlns:svg="http://www.w3.org/2000/svg">
  <defs
     id="defs1">
    <clipPath
       clipPathUnits="userSpaceOnUse"
       id="clipPath41">
      <path
         d="M 0,422.39 H 838.228 V 0 H 0 Z"
         transform="translate(-193.9833,-263.20701)"
         id="path41" />
    </clipPath>
    <clipPath
       clipPathUnits="userSpaceOnUse"
       id="clipPath44">
      <path
         d="M 0,422.39 H 838.228 V 0 H 0 Z"
         transform="translate(-189.535,-242.02541)"
         id="path44" />
    </clipPath>
    <clipPath
       clipPathUnits="userSpaceOnUse"
       id="clipPath46">
      <path
         d="M 0,422.39 H 838.228 V 0 H 0 Z"
         transform="translate(-191.6464,-235.9824)"
         id="path46" />
    </clipPath>
    <clipPath
       clipPathUnits="userSpaceOnUse"
       id="clipPath48">
      <path
         d="M 0,422.39 H 838.228 V 0 H 0 Z"
         transform="translate(-196.32021,-239.03511)"
         id="path48" />
    </clipPath>
    <clipPath
       clipPathUnits="userSpaceOnUse"
       id="clipPath50">
      <path
         d="M 0,422.39 H 838.228 V 0 H 0 Z"
         transform="translate(-188.1483,-237.58691)"
         id="path50" />
    </clipPath>
    <clipPath
       clipPathUnits="userSpaceOnUse"
       id="clipPath52">
      <path
         d="M 0,422.39 H 838.228 V 0 H 0 Z"
         transform="translate(-189.30651,-233.76171)"
         id="path52" />
    </clipPath>
    <clipPath
       clipPathUnits="userSpaceOnUse"
       id="clipPath54">
      <path
         d="M 0,422.39 H 838.228 V 0 H 0 Z"
         transform="translate(-188.66781,-232.2558)"
         id="path54" />
    </clipPath>
    <clipPath
       clipPathUnits="userSpaceOnUse"
       id="clipPath56">
      <path
         d="M 0,422.39 H 838.228 V 0 H 0 Z"
         transform="translate(-198.42471,-242.02541)"
         id="path56" />
    </clipPath>
    <clipPath
       clipPathUnits="userSpaceOnUse"
       id="clipPath58">
      <path
         d="M 0,422.39 H 838.228 V 0 H 0 Z"
         transform="translate(-196.3134,-235.9824)"
         id="path58" />
    </clipPath>
    <clipPath
       clipPathUnits="userSpaceOnUse"
       id="clipPath60">
      <path
         d="M 0,422.39 H 838.228 V 0 H 0 Z"
         transform="translate(-199.8114,-237.58691)"
         id="path60" />
    </clipPath>
    <clipPath
       clipPathUnits="userSpaceOnUse"
       id="clipPath62">
      <path
         d="M 0,422.39 H 838.228 V 0 H 0 Z"
         transform="translate(-198.6532,-233.76171)"
         id="path62" />
    </clipPath>
    <clipPath
       clipPathUnits="userSpaceOnUse"
       id="clipPath64">
      <path
         d="M 0,422.39 H 838.228 V 0 H 0 Z"
         transform="translate(-199.2919,-232.2558)"
         id="path64" />
    </clipPath>
    <clipPath
       clipPathUnits="userSpaceOnUse"
       id="clipPath66">
      <path
         d="M 0,422.39 H 838.228 V 0 H 0 Z"
         transform="translate(-201.5692,-226.08101)"
         id="path66" />
    </clipPath>
    <clipPath
       clipPathUnits="userSpaceOnUse"
       id="clipPath68">
      <path
         d="M 0,422.39 H 838.228 V 0 H 0 Z"
         transform="translate(-188.6796,-252.16791)"
         id="path68" />
    </clipPath>
    <clipPath
       clipPathUnits="userSpaceOnUse"
       id="clipPath70">
      <path
         d="M 0,422.39 H 838.228 V 0 H 0 Z"
         transform="translate(-199.2733,-252.16791)"
         id="path70" />
    </clipPath>
    <clipPath
       clipPathUnits="userSpaceOnUse"
       id="clipPath72">
      <path
         d="M 0,422.39 H 838.228 V 0 H 0 Z"
         transform="translate(-193.9833,-253.9482)"
         id="path72" />
    </clipPath>
    <clipPath
       clipPathUnits="userSpaceOnUse"
       id="clipPath74">
      <path
         d="M 0,422.39 H 838.228 V 0 H 0 Z"
         transform="translate(-193.9833,-221.22651)"
         id="path74" />
    </clipPath>
    <clipPath
       clipPathUnits="userSpaceOnUse"
       id="clipPath76">
      <path
         d="M 0,422.39 H 838.228 V 0 H 0 Z"
         transform="translate(-189.9823,-226.08101)"
         id="path76" />
    </clipPath>
    <clipPath
       clipPathUnits="userSpaceOnUse"
       id="clipPath78">
      <path
         d="M 0,422.39 H 838.228 V 0 H 0 Z"
         transform="translate(-200.57601,-226.08101)"
         id="path78" />
    </clipPath>
    <clipPath
       clipPathUnits="userSpaceOnUse"
       id="clipPath80">
      <path
         d="M 0,422.39 H 838.228 V 0 H 0 Z"
         transform="translate(-208.5643,-242.88381)"
         id="path80" />
    </clipPath>
    <clipPath
       clipPathUnits="userSpaceOnUse"
       id="clipPath82">
      <path
         d="M 0,422.39 H 838.228 V 0 H 0 Z"
         transform="translate(-208.5643,-232.29)"
         id="path82" />
    </clipPath>
    <clipPath
       clipPathUnits="userSpaceOnUse"
       id="clipPath84">
      <path
         d="M 0,422.39 H 838.228 V 0 H 0 Z"
         transform="translate(-182.4774,-241.581)"
         id="path84" />
    </clipPath>
    <clipPath
       clipPathUnits="userSpaceOnUse"
       id="clipPath86">
      <path
         d="M 0,422.39 H 838.228 V 0 H 0 Z"
         transform="translate(-182.4774,-230.98731)"
         id="path86" />
    </clipPath>
    <clipPath
       clipPathUnits="userSpaceOnUse"
       id="clipPath88">
      <path
         d="M 0,422.39 H 838.228 V 0 H 0 Z"
         transform="translate(-210.34461,-237.58691)"
         id="path88" />
    </clipPath>
    <clipPath
       clipPathUnits="userSpaceOnUse"
       id="clipPath90">
      <path
         d="M 0,422.39 H 838.228 V 0 H 0 Z"
         transform="translate(-177.6219,-237.58691)"
         id="path90" />
    </clipPath>
  </defs>
  <g
     id="layer-MC0"
     transform="translate(-224.48441,-212.244)">
    <path
       id="path40"
       d="m 0,0 c -14.149,0 -25.62,-11.471 -25.62,-25.62 0,-14.15 11.471,-25.62 25.62,-25.62 14.149,0 25.62,11.47 25.62,25.62 C 25.62,-11.471 14.149,0 0,0 m 0,-1 c 13.575,0 24.62,-11.044 24.62,-24.62 0,-13.575 -11.045,-24.62 -24.62,-24.62 -13.576,0 -24.62,11.045 -24.62,24.62 C -24.62,-12.044 -13.576,-1 0,-1"
       style="fill:#254aa5;fill-opacity:1;fill-rule:nonzero;stroke:none"
       transform="matrix(1.3333333,0,0,-1.3333333,258.6444,212.244)"
       clip-path="url(#clipPath41)" />
    <path
       id="path43"
       d="m 0,0 c -0.145,0.304 -0.226,0.644 -0.226,1.003 0,1.291 1.046,2.337 2.337,2.337 1.29,0 2.337,-1.046 2.337,-2.337"
       style="fill:none;stroke:#254aa5;stroke-width:1;stroke-linecap:butt;stroke-linejoin:miter;stroke-miterlimit:10;stroke-dasharray:none;stroke-opacity:1"
       transform="matrix(1.3333333,0,0,-1.3333333,252.71333,240.48613)"
       clip-path="url(#clipPath44)" />
    <path
       id="path45"
       d="M 0,0 C 1.29,0 2.337,-1.046 2.337,-2.337"
       style="fill:none;stroke:#254aa5;stroke-width:1;stroke-linecap:butt;stroke-linejoin:miter;stroke-miterlimit:10;stroke-dasharray:none;stroke-opacity:1"
       transform="matrix(1.3333333,0,0,-1.3333333,255.52853,248.54347)"
       clip-path="url(#clipPath46)" />
    <path
       id="path47"
       d="M 0,0 C -1.291,0 -2.337,-1.046 -2.337,-2.337"
       style="fill:none;stroke:#254aa5;stroke-width:1;stroke-linecap:butt;stroke-linejoin:miter;stroke-miterlimit:10;stroke-dasharray:none;stroke-opacity:1"
       transform="matrix(1.3333333,0,0,-1.3333333,261.76027,244.4732)"
       clip-path="url(#clipPath48)" />
    <path
       id="path49"
       d="m 0,0 c -0.839,0.355 -1.428,1.186 -1.428,2.153 0,1.291 1.047,2.337 2.337,2.337 0.753,0 1.422,-0.355 1.85,-0.907"
       style="fill:none;stroke:#254aa5;stroke-width:1;stroke-linecap:butt;stroke-linejoin:miter;stroke-miterlimit:10;stroke-dasharray:none;stroke-opacity:1"
       transform="matrix(1.3333333,0,0,-1.3333333,250.8644,246.40413)"
       clip-path="url(#clipPath50)" />
    <path
       id="path51"
       d="m 0,0 c -0.406,-0.468 -0.652,-1.078 -0.652,-1.746 0,-1.471 1.193,-2.664 2.665,-2.664 1.47,0 2.664,1.193 2.664,2.664 v 8.017"
       style="fill:none;stroke:#254aa5;stroke-width:1;stroke-linecap:butt;stroke-linejoin:miter;stroke-miterlimit:10;stroke-dasharray:none;stroke-opacity:1"
       transform="matrix(1.3333333,0,0,-1.3333333,252.40867,251.5044)"
       clip-path="url(#clipPath52)" />
    <path
       id="path53"
       d="m 0,0 c -1.095,0.463 -1.863,1.547 -1.863,2.811 0,1.684 1.365,3.05 3.05,3.05"
       style="fill:none;stroke:#254aa5;stroke-width:1;stroke-linecap:butt;stroke-linejoin:miter;stroke-miterlimit:10;stroke-dasharray:none;stroke-opacity:1"
       transform="matrix(1.3333333,0,0,-1.3333333,251.55707,253.51227)"
       clip-path="url(#clipPath54)" />
    <path
       id="path55"
       d="m 0,0 c 0.145,0.304 0.226,0.644 0.226,1.003 0,1.291 -1.046,2.337 -2.337,2.337 -1.291,0 -2.337,-1.046 -2.337,-2.337"
       style="fill:none;stroke:#254aa5;stroke-width:1;stroke-linecap:butt;stroke-linejoin:miter;stroke-miterlimit:10;stroke-dasharray:none;stroke-opacity:1"
       transform="matrix(1.3333333,0,0,-1.3333333,264.56627,240.48613)"
       clip-path="url(#clipPath56)" />
    <path
       id="path57"
       d="M 0,0 C -1.291,0 -2.337,-1.046 -2.337,-2.337"
       style="fill:none;stroke:#254aa5;stroke-width:1;stroke-linecap:butt;stroke-linejoin:miter;stroke-miterlimit:10;stroke-dasharray:none;stroke-opacity:1"
       transform="matrix(1.3333333,0,0,-1.3333333,261.7512,248.54347)"
       clip-path="url(#clipPath58)" />
    <path
       id="path59"
       d="m 0,0 c 0.839,0.355 1.428,1.186 1.428,2.153 0,1.291 -1.047,2.337 -2.337,2.337 -0.753,0 -1.422,-0.355 -1.85,-0.907"
       style="fill:none;stroke:#254aa5;stroke-width:1;stroke-linecap:butt;stroke-linejoin:miter;stroke-miterlimit:10;stroke-dasharray:none;stroke-opacity:1"
       transform="matrix(1.3333333,0,0,-1.3333333,266.4152,246.40413)"
       clip-path="url(#clipPath60)" />
    <path
       id="path61"
       d="m 0,0 c 0.406,-0.468 0.652,-1.078 0.652,-1.746 0,-1.471 -1.193,-2.664 -2.665,-2.664 -1.471,0 -2.664,1.193 -2.664,2.664 v 8.017"
       style="fill:none;stroke:#254aa5;stroke-width:1;stroke-linecap:butt;stroke-linejoin:miter;stroke-miterlimit:10;stroke-dasharray:none;stroke-opacity:1"
       transform="matrix(1.3333333,0,0,-1.3333333,264.87093,251.5044)"
       clip-path="url(#clipPath62)" />
    <path
       id="path63"
       d="m 0,0 c 1.095,0.463 1.863,1.547 1.863,2.811 0,1.684 -1.366,3.05 -3.05,3.05"
       style="fill:none;stroke:#254aa5;stroke-width:1;stroke-linecap:butt;stroke-linejoin:miter;stroke-miterlimit:10;stroke-dasharray:none;stroke-opacity:1"
       transform="matrix(1.3333333,0,0,-1.3333333,265.72253,253.51227)"
       clip-path="url(#clipPath64)" />
    <path
       id="path65"
       d="m 0,0 h -15.186 c -2.161,0 -3.913,1.752 -3.913,3.913 v 15.186 c 0,2.161 1.752,3.913 3.913,3.913 H 0 c 2.161,0 3.913,-1.752 3.913,-3.913 V 3.913 C 3.913,1.752 2.161,0 0,0 Z"
       style="fill:none;stroke:#254aa5;stroke-width:1;stroke-linecap:butt;stroke-linejoin:miter;stroke-miterlimit:10;stroke-dasharray:none;stroke-opacity:1"
       transform="matrix(1.3333333,0,0,-1.3333333,268.75893,261.74533)"
       clip-path="url(#clipPath66)" />
    <path
       id="path67"
       d="m 0,0 v 0 c -0.72,0 -1.304,-0.583 -1.304,-1.303 v -1.772 h 2.607 v 1.772 C 1.303,-0.583 0.72,0 0,0 Z"
       style="fill:none;stroke:#254aa5;stroke-width:1;stroke-linecap:butt;stroke-linejoin:miter;stroke-miterlimit:10;stroke-dasharray:none;stroke-opacity:1"
       transform="matrix(1.3333333,0,0,-1.3333333,251.5728,226.9628)"
       clip-path="url(#clipPath68)" />
    <path
       id="path69"
       d="m 0,0 v 0 c -0.72,0 -1.304,-0.583 -1.304,-1.303 v -1.772 h 2.607 v 1.772 C 1.303,-0.583 0.72,0 0,0 Z"
       style="fill:none;stroke:#254aa5;stroke-width:1;stroke-linecap:butt;stroke-linejoin:miter;stroke-miterlimit:10;stroke-dasharray:none;stroke-opacity:1"
       transform="matrix(1.3333333,0,0,-1.3333333,265.69773,226.9628)"
       clip-path="url(#clipPath70)" />
    <path
       id="path71"
       d="m 0,0 v 0 c -0.72,0 -1.304,-0.584 -1.304,-1.304 v -3.551 h 2.607 v 3.551 C 1.303,-0.584 0.72,0 0,0 Z"
       style="fill:none;stroke:#254aa5;stroke-width:1;stroke-linecap:butt;stroke-linejoin:miter;stroke-miterlimit:10;stroke-dasharray:none;stroke-opacity:1"
       transform="matrix(1.3333333,0,0,-1.3333333,258.6444,224.58907)"
       clip-path="url(#clipPath72)" />
    <path
       id="path73"
       d="M 0,0 V 0 C 0.72,0 1.303,0.583 1.303,1.303 V 4.854 H -1.304 V 1.303 C -1.304,0.583 -0.72,0 0,0 Z"
       style="fill:none;stroke:#254aa5;stroke-width:1;stroke-linecap:butt;stroke-linejoin:miter;stroke-miterlimit:10;stroke-dasharray:none;stroke-opacity:1"
       transform="matrix(1.3333333,0,0,-1.3333333,258.6444,268.218)"
       clip-path="url(#clipPath74)" />
    <path
       id="path75"
       d="m 0,0 h -2.606 v -1.771 c 0,-0.72 0.584,-1.304 1.303,-1.304 0.72,0 1.303,0.584 1.303,1.304 z"
       style="fill:none;stroke:#254aa5;stroke-width:1;stroke-linecap:butt;stroke-linejoin:miter;stroke-miterlimit:10;stroke-dasharray:none;stroke-opacity:1"
       transform="matrix(1.3333333,0,0,-1.3333333,253.30973,261.74533)"
       clip-path="url(#clipPath76)" />
    <path
       id="path77"
       d="m 0,0 h -2.606 v -1.771 c 0,-0.72 0.584,-1.304 1.303,-1.304 0.72,0 1.303,0.584 1.303,1.304 z"
       style="fill:none;stroke:#254aa5;stroke-width:1;stroke-linecap:butt;stroke-linejoin:miter;stroke-miterlimit:10;stroke-dasharray:none;stroke-opacity:1"
       transform="matrix(1.3333333,0,0,-1.3333333,267.43467,261.74533)"
       clip-path="url(#clipPath78)" />
    <path
       id="path79"
       d="m 0,0 v 0 c 0,0.72 -0.584,1.304 -1.304,1.304 h -1.771 v -2.607 h 1.771 C -0.584,-1.303 0,-0.72 0,0 Z"
       style="fill:none;stroke:#254aa5;stroke-width:1;stroke-linecap:butt;stroke-linejoin:miter;stroke-miterlimit:10;stroke-dasharray:none;stroke-opacity:1"
       transform="matrix(1.3333333,0,0,-1.3333333,278.08573,239.3416)"
       clip-path="url(#clipPath80)" />
    <path
       id="path81"
       d="m 0,0 v 0 c 0,0.72 -0.584,1.304 -1.304,1.304 h -1.771 v -2.607 h 1.771 C -0.584,-1.303 0,-0.72 0,0 Z"
       style="fill:none;stroke:#254aa5;stroke-width:1;stroke-linecap:butt;stroke-linejoin:miter;stroke-miterlimit:10;stroke-dasharray:none;stroke-opacity:1"
       transform="matrix(1.3333333,0,0,-1.3333333,278.08573,253.46667)"
       clip-path="url(#clipPath82)" />
    <path
       id="path83"
       d="m 0,0 v 2.606 h -1.772 c -0.72,0 -1.303,-0.584 -1.303,-1.303 C -3.075,0.583 -2.492,0 -1.772,0 Z"
       style="fill:none;stroke:#254aa5;stroke-width:1;stroke-linecap:butt;stroke-linejoin:miter;stroke-miterlimit:10;stroke-dasharray:none;stroke-opacity:1"
       transform="matrix(1.3333333,0,0,-1.3333333,243.3032,241.07867)"
       clip-path="url(#clipPath84)" />
    <path
       id="path85"
       d="m 0,0 v 2.606 h -1.772 c -0.72,0 -1.303,-0.584 -1.303,-1.303 C -3.075,0.583 -2.492,0 -1.772,0 Z"
       style="fill:none;stroke:#254aa5;stroke-width:1;stroke-linecap:butt;stroke-linejoin:miter;stroke-miterlimit:10;stroke-dasharray:none;stroke-opacity:1"
       transform="matrix(1.3333333,0,0,-1.3333333,243.3032,255.2036)"
       clip-path="url(#clipPath86)" />
    <path
       id="path87"
       d="m 0,0 v 0 c 0,0.72 -0.584,1.304 -1.304,1.304 h -3.551 v -2.607 h 3.551 C -0.584,-1.303 0,-0.72 0,0 Z"
       style="fill:none;stroke:#254aa5;stroke-width:1;stroke-linecap:butt;stroke-linejoin:miter;stroke-miterlimit:10;stroke-dasharray:none;stroke-opacity:1"
       transform="matrix(1.3333333,0,0,-1.3333333,280.45947,246.40413)"
       clip-path="url(#clipPath88)" />
    <path
       id="path89"
       d="M 0,0 V 0 C 0,-0.72 0.584,-1.303 1.304,-1.303 H 4.855 V 1.304 H 1.304 C 0.584,1.304 0,0.72 0,0 Z"
       style="fill:none;stroke:#254aa5;stroke-width:1;stroke-linecap:butt;stroke-linejoin:miter;stroke-miterlimit:10;stroke-dasharray:none;stroke-opacity:1"
       transform="matrix(1.3333333,0,0,-1.3333333,236.8292,246.40413)"
       clip-path="url(#clipPath90)" />
  </g>
</svg>
