<svg version="1.1" viewBox="0 0 68.320006 68.32" sodipodi:docname="23.EIT-Icons.ai"
    inkscape:version="1.4.2 (ebf0e940, 2025-05-08)"
    xmlns:inkscape="http://www.inkscape.org/namespaces/inkscape"
    xmlns:sodipodi="http://sodipodi.sourceforge.net/DTD/sodipodi-0.dtd"
    xmlns="http://www.w3.org/2000/svg">
    <defs>
        <clipPath clipPathUnits="userSpaceOnUse" id="a">
            <path d="M 0,422.39 H 838.228 V 0 H 0 Z" transform="translate(-321.73331,-363.05771)"></path>
        </clipPath>
        <clipPath clipPathUnits="userSpaceOnUse" id="b">
            <path d="M 0,422.39 H 838.228 V 0 H 0 Z" transform="translate(-282.4891,-363.05771)"></path>
        </clipPath>
        <clipPath clipPathUnits="userSpaceOnUse" id="c">
            <path d="M 0,422.39 H 838.228 V 0 H 0 Z" transform="translate(-289.3534,-363.05771)"></path>
        </clipPath>
        <clipPath clipPathUnits="userSpaceOnUse" id="d">
            <path d="M 0,422.39 H 838.228 V 0 H 0 Z" transform="translate(-296.68251,-377.25101)"></path>
        </clipPath>
        <clipPath clipPathUnits="userSpaceOnUse" id="e">
            <path d="M 0,422.39 H 838.228 V 0 H 0 Z" transform="translate(-310.09271,-367.71831)"></path>
        </clipPath>
        <clipPath clipPathUnits="userSpaceOnUse" id="f">
            <path d="M 0,422.39 H 838.228 V 0 H 0 Z" transform="translate(-310.09271,-358.32671)"></path>
        </clipPath>
        <clipPath clipPathUnits="userSpaceOnUse" id="g">
            <path d="M 0,422.39 H 838.228 V 0 H 0 Z" transform="translate(-282.1117,-352.17931)"></path>
        </clipPath>
    </defs>
    <sodipodi:namedview pagecolor="#ffffff" bordercolor="#000000" borderopacity="0.25"
        inkscape:showpageshadow="2" inkscape:pageopacity="0.0" inkscape:pagecheckerboard="0"
        inkscape:deskcolor="#d1d1d1" showguides="true" inkscape:zoom="0.5" inkscape:cx="585"
        inkscape:cy="294" inkscape:window-width="1920" inkscape:window-height="1027"
        inkscape:window-x="0" inkscape:window-y="25" inkscape:window-maximized="0"
        inkscape:current-layer="layer-MC0">
        <inkscape:page x="0" y="0" width="68.320007" height="68.32" margin="0" bleed="0"></inkscape:page>
    </sodipodi:namedview>
    <g inkscape:groupmode="layer" inkscape:label="Capa 1"
        transform="translate(-361.32456,-44.949733)">
        <g class="icon">
            <path
                d="m 0,0 c 0,-13.873 -11.247,-25.12 -25.12,-25.12 -13.874,0 -25.12,11.247 -25.12,25.12 0,13.874 11.246,25.12 25.12,25.12 C -11.247,25.12 0,13.874 0,0 Z"
                transform="matrix(1.3333333,0,0,-1.3333333,428.97773,79.109733)" clip-path="url(#a)"
                fill="none" stroke="currentColor" stroke-width="1" stroke-linecap="butt"
                stroke-linejoin="miter" stroke-miterlimit="10" stroke-dasharray="none"
                stroke-opacity="1" class="icon-circle"></path>
            <path
                d="m 0,0 c 0,7.839 6.354,14.193 14.193,14.193 7.839,0 14.194,-6.354 14.194,-14.193 0,-7.838 -6.355,-14.193 -14.194,-14.193 C 6.354,-14.193 0,-7.838 0,0 Z"
                transform="matrix(1.3333333,0,0,-1.3333333,376.65213,79.109733)"
                clip-path="url(#b)" fill="none" stroke="currentColor" stroke-width="1"
                stroke-linecap="round" stroke-linejoin="round" stroke-miterlimit="10"
                stroke-dasharray="none" stroke-opacity="1"></path>
            <path
                d="m 0,0 c 0,7.839 3.281,14.193 7.329,14.193 4.047,0 7.329,-6.354 7.329,-14.193 0,-7.838 -3.282,-14.193 -7.329,-14.193 C 3.281,-14.193 0,-7.838 0,0 Z"
                transform="matrix(1.3333333,0,0,-1.3333333,385.80453,79.109733)"
                clip-path="url(#c)" fill="none" stroke="currentColor" stroke-width="1"
                stroke-linecap="round" stroke-linejoin="round" stroke-miterlimit="10"
                stroke-dasharray="none" stroke-opacity="1"></path>
            <path d="M 0,0 V -28.387"
                transform="matrix(1.3333333,0,0,-1.3333333,395.57667,60.185333)"
                clip-path="url(#d)" fill="none" stroke="currentColor" stroke-width="1"
                stroke-linecap="round" stroke-linejoin="round" stroke-miterlimit="10"
                stroke-dasharray="none" stroke-opacity="1"></path>
            <path d="M 0,0 H -26.82"
                transform="matrix(1.3333333,0,0,-1.3333333,413.45693,72.8956)"
                clip-path="url(#e)" fill="none" stroke="currentColor" stroke-width="1"
                stroke-linecap="round" stroke-linejoin="round" stroke-miterlimit="10"
                stroke-dasharray="none" stroke-opacity="1"></path>
            <path d="M 0,0 H -26.82"
                transform="matrix(1.3333333,0,0,-1.3333333,413.45693,85.417733)"
                clip-path="url(#f)" fill="none" stroke="currentColor" stroke-width="1"
                stroke-linecap="round" stroke-linejoin="round" stroke-miterlimit="10"
                stroke-dasharray="none" stroke-opacity="1"></path>
            <path d="m 0,0 14.571,12.004 3.606,-3.716 12.97,10.064"
                transform="matrix(1.3333333,0,0,-1.3333333,376.14893,93.614267)"
                clip-path="url(#g)" fill="none" stroke="currentColor" stroke-width="1"
                stroke-linecap="round" stroke-linejoin="round" stroke-miterlimit="10"
                stroke-dasharray="none" stroke-opacity="1"></path>
        </g>
    </g>
</svg>