<svg version="1.1" viewBox="0 0 68.320006 68.319993" xmlns="http://www.w3.org/2000/svg"><defs><clipPath clipPathUnits="userSpaceOnUse" id="a"><path d="M 0,422.39 H 838.228 V 0 H 0 Z" transform="translate(-497.13851,-322.99701)"></path></clipPath><clipPath clipPathUnits="userSpaceOnUse" id="b"><path d="M 0,422.39 H 838.228 V 0 H 0 Z" transform="translate(-490.08971,-302.64841)"></path></clipPath><clipPath clipPathUnits="userSpaceOnUse" id="c"><path d="M 0,422.39 H 838.228 V 0 H 0 Z" transform="translate(-487.85141,-300.41011)"></path></clipPath><clipPath clipPathUnits="userSpaceOnUse" id="d"><path d="M 0,422.39 H 838.228 V 0 H 0 Z" transform="translate(-487.85141,-304.88671)"></path></clipPath><clipPath clipPathUnits="userSpaceOnUse" id="e"><path d="M 0,422.39 H 838.228 V 0 H 0 Z" transform="translate(-498.00381,-303.73431)"></path></clipPath><clipPath clipPathUnits="userSpaceOnUse" id="f"><path d="M 0,422.39 H 838.228 V 0 H 0 Z" transform="translate(-500.33092,-301.30171)"></path></clipPath><clipPath clipPathUnits="userSpaceOnUse" id="g"><path d="M 0,422.39 H 838.228 V 0 H 0 Z" transform="translate(-498.00381,-298.86911)"></path></clipPath><clipPath clipPathUnits="userSpaceOnUse" id="h"><path d="M 0,422.39 H 838.228 V 0 H 0 Z" transform="translate(-502.39342,-296.43651)"></path></clipPath><clipPath clipPathUnits="userSpaceOnUse" id="i"><path d="M 0,422.39 H 838.228 V 0 H 0 Z" transform="translate(-496.09951,-296.43651)"></path></clipPath></defs><g transform="translate(-628.69136,-132.524)"><path d="m 0,0 c -14.149,0 -25.62,-11.471 -25.62,-25.62 0,-14.15 11.471,-25.62 25.62,-25.62 14.149,0 25.62,11.47 25.62,25.62 C 25.62,-11.471 14.149,0 0,0 m 0,-1 c 13.575,0 24.62,-11.045 24.62,-24.62 0,-13.576 -11.045,-24.62 -24.62,-24.62 -13.576,0 -24.62,11.044 -24.62,24.62 C -24.62,-12.045 -13.576,-1 0,-1" transform="matrix(1.3333333,0,0,-1.3333333,662.85133,132.524)" clip-path="url(#a)" fill="currentColor" fill-opacity="1" fill-rule="nonzero" stroke="none" class="icon-bg"></path><path d="m 0,0 c 0,-1.236 -1.002,-2.238 -2.238,-2.238 -1.237,0 -2.239,1.002 -2.239,2.238 0,1.236 1.002,2.238 2.239,2.238 C -1.002,2.238 0,1.236 0,0 Z" transform="matrix(1.3333333,0,0,-1.3333333,653.45293,159.65547)" clip-path="url(#b)" fill="none" stroke="currentColor" stroke-width="1" stroke-linecap="butt" stroke-linejoin="miter" stroke-miterlimit="10" stroke-dasharray="none" stroke-opacity="1"></path><path d="M 0,0 H -1.497 C -2.899,0 -4.012,-1.18 -3.93,-2.58 l 0.252,-4.31 c 0.045,-0.76 0.675,-1.354 1.437,-1.354 h 0.003 v 5.218 -10.943 c 0,-0.618 0.501,-1.119 1.119,-1.119 0.618,0 1.119,0.501 1.119,1.119 v 6.598 -6.598 c 0,-0.618 0.501,-1.119 1.119,-1.119 0.618,0 1.119,0.501 1.119,1.119 v 11.232 c 0,0.226 0.123,0.434 0.323,0.542 l 4.013,2.602 c 0.344,0.224 0.551,0.605 0.551,1.014 0,0.275 -0.276,0.464 -0.532,0.364 L 2.353,0.13 C 2.134,0.044 1.9,0 1.665,0 Z" transform="matrix(1.3333333,0,0,-1.3333333,650.46853,162.63987)" clip-path="url(#c)" fill="none" stroke="currentColor" stroke-width="1" stroke-linecap="butt" stroke-linejoin="miter" stroke-miterlimit="10" stroke-dasharray="none" stroke-opacity="1"></path><path d="M 0,0 V 3.755 H 22.581 V -13.357 H 2.483" transform="matrix(1.3333333,0,0,-1.3333333,650.46853,156.67107)" clip-path="url(#d)" fill="none" stroke="currentColor" stroke-width="1" stroke-linecap="butt" stroke-linejoin="miter" stroke-miterlimit="10" stroke-dasharray="none" stroke-opacity="1"></path><path d="M 0,0 H 8.779" transform="matrix(1.3333333,0,0,-1.3333333,664.00507,158.2076)" clip-path="url(#e)" fill="none" stroke="currentColor" stroke-width="1" stroke-linecap="butt" stroke-linejoin="miter" stroke-miterlimit="10" stroke-dasharray="none" stroke-opacity="1"></path><path d="M 0,0 H 6.452" transform="matrix(1.3333333,0,0,-1.3333333,667.10787,161.45107)" clip-path="url(#f)" fill="none" stroke="currentColor" stroke-width="1" stroke-linecap="butt" stroke-linejoin="miter" stroke-miterlimit="10" stroke-dasharray="none" stroke-opacity="1"></path><path d="M 0,0 H 8.779" transform="matrix(1.3333333,0,0,-1.3333333,664.00507,164.69453)" clip-path="url(#g)" fill="none" stroke="currentColor" stroke-width="1" stroke-linecap="butt" stroke-linejoin="miter" stroke-miterlimit="10" stroke-dasharray="none" stroke-opacity="1"></path><path d="M 0,0 H 4.39" transform="matrix(1.3333333,0,0,-1.3333333,669.85787,167.938)" clip-path="url(#h)" fill="none" stroke="currentColor" stroke-width="1" stroke-linecap="butt" stroke-linejoin="miter" stroke-miterlimit="10" stroke-dasharray="none" stroke-opacity="1"></path><path d="M 0,0 H 4.39" transform="matrix(1.3333333,0,0,-1.3333333,661.466,167.938)" clip-path="url(#i)" fill="none" stroke="currentColor" stroke-width="1" stroke-linecap="butt" stroke-linejoin="miter" stroke-miterlimit="10" stroke-dasharray="none" stroke-opacity="1"></path></g></svg>