<?xml version="1.0" encoding="UTF-8" standalone="no"?>
<!-- Created with Inkscape (http://www.inkscape.org/) -->

<svg
   version="1.1"
   id="svg1"
   width="68.318665"
   height="68.32"
   viewBox="0 0 68.318663 68.32"
   sodipodi:docname="23.EIT-Icons.ai"
   inkscape:version="1.4.2 (ebf0e940, 2025-05-08)"
   xmlns:inkscape="http://www.inkscape.org/namespaces/inkscape"
   xmlns:sodipodi="http://sodipodi.sourceforge.net/DTD/sodipodi-0.dtd"
   xmlns="http://www.w3.org/2000/svg"
   xmlns:svg="http://www.w3.org/2000/svg">
  <defs
     id="defs1">
    <clipPath
       clipPathUnits="userSpaceOnUse"
       id="clipPath126">
      <path
         d="M 0,422.39 H 838.228 V 0 H 0 Z"
         transform="translate(-620.71522,-363.05771)"
         id="path126" />
    </clipPath>
    <clipPath
       clipPathUnits="userSpaceOnUse"
       id="clipPath606">
      <path
         d="M 0,422.39 H 838.228 V 0 H 0 Z"
         transform="translate(-595.59611,-375.08801)"
         id="path606" />
    </clipPath>
    <clipPath
       clipPathUnits="userSpaceOnUse"
       id="clipPath608">
      <path
         d="M 0,422.39 H 838.228 V 0 H 0 Z"
         transform="translate(-605.16641,-363.65441)"
         id="path608" />
    </clipPath>
    <clipPath
       clipPathUnits="userSpaceOnUse"
       id="clipPath610">
      <path
         d="M 0,422.39 H 838.228 V 0 H 0 Z"
         transform="translate(-610.07561,-365.80431)"
         id="path610" />
    </clipPath>
    <clipPath
       clipPathUnits="userSpaceOnUse"
       id="clipPath612">
      <path
         d="M 0,422.39 H 838.228 V 0 H 0 Z"
         transform="translate(-608.15272,-357.67441)"
         id="path612" />
    </clipPath>
  </defs>
  <sodipodi:namedview
     id="namedview1"
     pagecolor="#ffffff"
     bordercolor="#000000"
     borderopacity="0.25"
     inkscape:showpageshadow="2"
     inkscape:pageopacity="0.0"
     inkscape:pagecheckerboard="0"
     inkscape:deskcolor="#d1d1d1"
     showguides="true"
     inkscape:zoom="0.5"
     inkscape:cx="585"
     inkscape:cy="294"
     inkscape:window-width="1920"
     inkscape:window-height="1027"
     inkscape:window-x="0"
     inkscape:window-y="25"
     inkscape:window-maximized="0"
     inkscape:current-layer="layer-MC0">
    <inkscape:page
       x="0"
       y="0"
       width="68.318665"
       height="68.32"
       id="page2"
       margin="0"
       bleed="0" />
  </sodipodi:namedview>
  <g
     id="layer-MC0"
     inkscape:groupmode="layer"
     inkscape:label="Capa 1"
     transform="translate(-759.96837,-44.949733)">
    <path
       id="path125"
       d="m 0,0 c 0,-13.873 -11.246,-25.12 -25.119,-25.12 -13.874,0 -25.12,11.247 -25.12,25.12 0,13.874 11.246,25.12 25.12,25.12 C -11.246,25.12 0,13.874 0,0 Z"
       style="fill:none;stroke:#254aa5;stroke-width:1;stroke-linecap:butt;stroke-linejoin:miter;stroke-miterlimit:10;stroke-dasharray:none;stroke-opacity:1"
       transform="matrix(1.3333333,0,0,-1.3333333,827.62027,79.109733)"
       clip-path="url(#clipPath126)" />
    <g
       id="g2968">
      <path
         id="path605"
         d="M 0,0 17.371,-7.891 0,-15.781 l -17.372,7.89 z"
         style="fill:none;stroke:#254aa5;stroke-width:1;stroke-linecap:round;stroke-linejoin:round;stroke-miterlimit:10;stroke-dasharray:none;stroke-opacity:1"
         transform="matrix(1.3333333,0,0,-1.3333333,794.12813,63.069333)"
         clip-path="url(#clipPath606)" />
      <path
         id="path607"
         d="m 0,0 v -7.764 c 0,-1.155 -1.028,-2.091 -2.298,-2.091 h -14.546 c -1.269,0 -2.298,0.936 -2.298,2.091 V 0"
         style="fill:none;stroke:#254aa5;stroke-width:1;stroke-linecap:round;stroke-linejoin:round;stroke-miterlimit:10;stroke-dasharray:none;stroke-opacity:1"
         transform="matrix(1.3333333,0,0,-1.3333333,806.88853,78.314133)"
         clip-path="url(#clipPath608)" />
      <path
         id="path609"
         d="M 0,0 V -6.208"
         style="fill:none;stroke:#254aa5;stroke-width:1;stroke-linecap:round;stroke-linejoin:round;stroke-miterlimit:10;stroke-dasharray:none;stroke-opacity:1"
         transform="matrix(1.3333333,0,0,-1.3333333,813.43413,75.4476)"
         clip-path="url(#clipPath610)" />
      <path
         id="path611"
         d="m 0,0 c 0,-1.062 0.861,-1.922 1.923,-1.922 1.061,0 1.922,0.86 1.922,1.922 0,1.062 -0.861,1.922 -1.922,1.922 C 0.861,1.922 0,1.062 0,0 Z"
         style="fill:none;stroke:#254aa5;stroke-width:1;stroke-linecap:round;stroke-linejoin:round;stroke-miterlimit:10;stroke-dasharray:none;stroke-opacity:1"
         transform="matrix(1.3333333,0,0,-1.3333333,810.87027,86.287467)"
         clip-path="url(#clipPath612)" />
    </g>
  </g>
</svg>
