<?xml version="1.0" encoding="UTF-8" standalone="no"?>
<!-- Created with Inkscape (http://www.inkscape.org/) -->

<svg
   version="1.1"
   id="svg1"
   width="68.320007"
   height="68.319992"
   viewBox="0 0 68.320006 68.319993"
   xmlns="http://www.w3.org/2000/svg"
   xmlns:svg="http://www.w3.org/2000/svg">
  <defs
     id="defs1">
    <clipPath
       clipPathUnits="userSpaceOnUse"
       id="clipPath153">
      <path
         d="M 0,422.39 H 838.228 V 0 H 0 Z"
         transform="translate(-497.13851,-263.20701)"
         id="path153" />
    </clipPath>
    <clipPath
       clipPathUnits="userSpaceOnUse"
       id="clipPath195">
      <path
         d="M 0,422.39 H 838.228 V 0 H 0 Z"
         transform="translate(-497.13951,-250.07421)"
         id="path195" />
    </clipPath>
    <clipPath
       clipPathUnits="userSpaceOnUse"
       id="clipPath197">
      <path
         d="M 0,422.39 H 838.228 V 0 H 0 Z"
         transform="translate(-501.71281,-234.4365)"
         id="path197" />
    </clipPath>
    <clipPath
       clipPathUnits="userSpaceOnUse"
       id="clipPath199">
      <path
         d="M 0,422.39 H 838.228 V 0 H 0 Z"
         transform="translate(-497.13951,-242.03021)"
         id="path199" />
    </clipPath>
    <clipPath
       clipPathUnits="userSpaceOnUse"
       id="clipPath201">
      <path
         d="M 0,422.39 H 838.228 V 0 H 0 Z"
         transform="translate(-494.11801,-231.6777)"
         id="path201" />
    </clipPath>
    <clipPath
       clipPathUnits="userSpaceOnUse"
       id="clipPath203">
      <path
         d="M 0,422.39 H 838.228 V 0 H 0 Z"
         transform="translate(-491.80851,-241.2783)"
         id="path203" />
    </clipPath>
    <clipPath
       clipPathUnits="userSpaceOnUse"
       id="clipPath205">
      <path
         d="M 0,422.39 H 838.228 V 0 H 0 Z"
         transform="translate(-502.46771,-241.2783)"
         id="path205" />
    </clipPath>
    <clipPath
       clipPathUnits="userSpaceOnUse"
       id="clipPath207">
      <path
         d="M 0,422.39 H 838.228 V 0 H 0 Z"
         transform="translate(-486.75961,-243.8418)"
         id="path207" />
    </clipPath>
    <clipPath
       clipPathUnits="userSpaceOnUse"
       id="clipPath209">
      <path
         d="M 0,422.39 H 838.228 V 0 H 0 Z"
         transform="translate(-505.92371,-228.52341)"
         id="path209" />
    </clipPath>
    <clipPath
       clipPathUnits="userSpaceOnUse"
       id="clipPath211">
      <path
         d="M 0,422.39 H 838.228 V 0 H 0 Z"
         transform="translate(-497.13951,-229.96971)"
         id="path211" />
    </clipPath>
    <clipPath
       clipPathUnits="userSpaceOnUse"
       id="clipPath213">
      <path
         d="M 0,422.39 H 838.228 V 0 H 0 Z"
         transform="translate(-494.92761,-229.96971)"
         id="path213" />
    </clipPath>
    <clipPath
       clipPathUnits="userSpaceOnUse"
       id="clipPath215">
      <path
         d="M 0,422.39 H 838.228 V 0 H 0 Z"
         transform="translate(-499.35141,-229.96971)"
         id="path215" />
    </clipPath>
    <clipPath
       clipPathUnits="userSpaceOnUse"
       id="clipPath217">
      <path
         d="M 0,422.39 H 838.228 V 0 H 0 Z"
         transform="translate(-483.85731,-216.38571)"
         id="path217" />
    </clipPath>
    <clipPath
       clipPathUnits="userSpaceOnUse"
       id="clipPath219">
      <path
         d="M 0,422.39 H 838.228 V 0 H 0 Z"
         transform="translate(-501.55462,-220.51751)"
         id="path219" />
    </clipPath>
    <clipPath
       clipPathUnits="userSpaceOnUse"
       id="clipPath221">
      <path
         d="M 0,422.39 H 838.228 V 0 H 0 Z"
         transform="translate(-505.10932,-217.93551)"
         id="path221" />
    </clipPath>
    <clipPath
       clipPathUnits="userSpaceOnUse"
       id="clipPath223">
      <path
         d="M 0,422.39 H 838.228 V 0 H 0 Z"
         transform="translate(-492.36121,-217.38281)"
         id="path223" />
    </clipPath>
  </defs>
  <g
     id="layer-MC0"
     transform="translate(-628.69136,-212.244)">
    <path
       id="path152"
       d="m 0,0 c -14.149,0 -25.62,-11.471 -25.62,-25.62 0,-14.15 11.471,-25.62 25.62,-25.62 14.149,0 25.62,11.47 25.62,25.62 C 25.62,-11.471 14.149,0 0,0 m 0,-1 c 13.575,0 24.62,-11.044 24.62,-24.62 0,-13.575 -11.045,-24.62 -24.62,-24.62 -13.576,0 -24.62,11.045 -24.62,24.62 C -24.62,-12.044 -13.576,-1 0,-1"
       style="fill:#254aa5;fill-opacity:1;fill-rule:nonzero;stroke:none"
       transform="matrix(1.3333333,0,0,-1.3333333,662.85133,212.244)"
       clip-path="url(#clipPath153)" />
    <path
       id="path194"
       d="m 0,0 c -1.195,0 -2.164,-0.969 -2.164,-2.164 0,-1.195 0.969,-2.164 2.164,-2.164 1.195,0 2.164,0.969 2.164,2.164 C 2.164,-0.969 1.195,0 0,0 m 0,-1 c 0.642,0 1.164,-0.522 1.164,-1.164 0,-0.642 -0.522,-1.164 -1.164,-1.164 -0.642,0 -1.164,0.522 -1.164,1.164 C -1.164,-1.522 -0.642,-1 0,-1"
       style="fill:#254aa5;fill-opacity:1;fill-rule:nonzero;stroke:none"
       transform="matrix(1.3333333,0,0,-1.3333333,662.85267,229.7544)"
       clip-path="url(#clipPath195)" />
    <path
       id="path196"
       d="m 0,0 1.044,9.068 c 0.326,2.83 -0.438,5.679 -2.137,7.966 l -2.837,3.82 c -0.32,0.432 -0.966,0.432 -1.287,0 l -2.837,-3.82 C -9.753,14.747 -10.517,11.898 -10.19,9.068 L -9.146,0 Z"
       style="fill:none;stroke:#254aa5;stroke-width:1;stroke-linecap:butt;stroke-linejoin:miter;stroke-miterlimit:10;stroke-dasharray:none;stroke-opacity:1"
       transform="matrix(1.3333333,0,0,-1.3333333,668.9504,250.60467)"
       clip-path="url(#clipPath197)" />
    <path
       id="path198"
       d="M 0,0 V -4.246"
       style="fill:none;stroke:#254aa5;stroke-width:1;stroke-linecap:butt;stroke-linejoin:miter;stroke-miterlimit:10;stroke-dasharray:none;stroke-opacity:1"
       transform="matrix(1.3333333,0,0,-1.3333333,662.85267,240.47973)"
       clip-path="url(#clipPath199)" />
    <path
       id="path200"
       d="M 0,0 H 6.043 C 6.49,0 6.83,0.404 6.752,0.845 L 6.415,2.759 H -0.372 L -0.709,0.845 C -0.786,0.404 -0.447,0 0,0 Z"
       style="fill:none;stroke:#254aa5;stroke-width:1;stroke-linecap:butt;stroke-linejoin:miter;stroke-miterlimit:10;stroke-dasharray:none;stroke-opacity:1"
       transform="matrix(1.3333333,0,0,-1.3333333,658.824,254.28307)"
       clip-path="url(#clipPath201)" />
    <path
       id="path202"
       d="m 0,0 -2.742,-2.266 c -0.349,-0.288 -0.551,-0.716 -0.551,-1.169 v -4.409 c 0,-0.26 0.279,-0.426 0.508,-0.301 l 3.502,1.922"
       style="fill:none;stroke:#254aa5;stroke-width:1;stroke-linecap:butt;stroke-linejoin:miter;stroke-miterlimit:10;stroke-dasharray:none;stroke-opacity:1"
       transform="matrix(1.3333333,0,0,-1.3333333,655.74467,241.48227)"
       clip-path="url(#clipPath203)" />
    <path
       id="path204"
       d="m 0,0 2.742,-2.266 c 0.349,-0.288 0.551,-0.716 0.551,-1.169 v -4.409 c 0,-0.26 -0.278,-0.426 -0.507,-0.301 l -3.502,1.922"
       style="fill:none;stroke:#254aa5;stroke-width:1;stroke-linecap:butt;stroke-linejoin:miter;stroke-miterlimit:10;stroke-dasharray:none;stroke-opacity:1"
       transform="matrix(1.3333333,0,0,-1.3333333,669.95693,241.48227)"
       clip-path="url(#clipPath205)" />
    <path
       id="path206"
       d="m 0,0 c 0,-0.52 -0.421,-0.94 -0.939,-0.94 -0.52,0 -0.941,0.42 -0.941,0.94 0,0.52 0.421,0.94 0.941,0.94 C -0.421,0.94 0,0.52 0,0 Z"
       style="fill:none;stroke:#254aa5;stroke-width:1;stroke-linecap:butt;stroke-linejoin:miter;stroke-miterlimit:10;stroke-dasharray:none;stroke-opacity:1"
       transform="matrix(1.3333333,0,0,-1.3333333,649.0128,238.06427)"
       clip-path="url(#clipPath207)" />
    <path
       id="path208"
       d="m 0,0 c 0,-0.519 -0.421,-0.939 -0.94,-0.939 -0.519,0 -0.94,0.42 -0.94,0.939 0,0.52 0.421,0.94 0.94,0.94 C -0.421,0.94 0,0.52 0,0 Z"
       style="fill:none;stroke:#254aa5;stroke-width:1;stroke-linecap:butt;stroke-linejoin:miter;stroke-miterlimit:10;stroke-dasharray:none;stroke-opacity:1"
       transform="matrix(1.3333333,0,0,-1.3333333,674.56493,258.4888)"
       clip-path="url(#clipPath209)" />
    <path
       id="path210"
       d="M 0,0 V -4.684"
       style="fill:none;stroke:#254aa5;stroke-width:1;stroke-linecap:butt;stroke-linejoin:miter;stroke-miterlimit:10;stroke-dasharray:none;stroke-opacity:1"
       transform="matrix(1.3333333,0,0,-1.3333333,662.85267,256.5604)"
       clip-path="url(#clipPath211)" />
    <path
       id="path212"
       d="M 0,0 V -3.151"
       style="fill:none;stroke:#254aa5;stroke-width:1;stroke-linecap:butt;stroke-linejoin:miter;stroke-miterlimit:10;stroke-dasharray:none;stroke-opacity:1"
       transform="matrix(1.3333333,0,0,-1.3333333,659.90347,256.5604)"
       clip-path="url(#clipPath213)" />
    <path
       id="path214"
       d="M 0,0 V -3.151"
       style="fill:none;stroke:#254aa5;stroke-width:1;stroke-linecap:butt;stroke-linejoin:miter;stroke-miterlimit:10;stroke-dasharray:none;stroke-opacity:1"
       transform="matrix(1.3333333,0,0,-1.3333333,665.80187,256.5604)"
       clip-path="url(#clipPath215)" />
    <path
       id="path216"
       d="m 0,0 c 0.042,2.63 2.187,4.749 4.826,4.749 1.333,0 2.539,-0.54 3.413,-1.414"
       style="fill:none;stroke:#254aa5;stroke-width:1;stroke-linecap:butt;stroke-linejoin:miter;stroke-miterlimit:10;stroke-dasharray:none;stroke-opacity:1"
       transform="matrix(1.3333333,0,0,-1.3333333,645.14307,274.6724)"
       clip-path="url(#clipPath217)" />
    <path
       id="path218"
       d="m 0,0 c 0.425,1.005 1.419,1.71 2.578,1.71 1.546,0 2.799,-1.253 2.799,-2.799 0,-0.09 -0.004,-0.178 -0.013,-0.265"
       style="fill:none;stroke:#254aa5;stroke-width:1;stroke-linecap:butt;stroke-linejoin:miter;stroke-miterlimit:10;stroke-dasharray:none;stroke-opacity:1"
       transform="matrix(1.3333333,0,0,-1.3333333,668.73947,269.16333)"
       clip-path="url(#clipPath219)" />
    <path
       id="path220"
       d="m 0,0 c 0.812,0.916 1.996,1.493 3.316,1.493 1.529,0 2.876,-0.774 3.672,-1.952"
       style="fill:none;stroke:#254aa5;stroke-width:1;stroke-linecap:butt;stroke-linejoin:miter;stroke-miterlimit:10;stroke-dasharray:none;stroke-opacity:1"
       transform="matrix(1.3333333,0,0,-1.3333333,673.47907,272.606)"
       clip-path="url(#clipPath221)" />
    <path
       id="path222"
       d="m 0,0 c -0.146,0.46 -0.224,0.949 -0.224,1.457 0,2.662 2.158,4.82 4.82,4.82 2.661,0 4.819,-2.158 4.819,-4.82 0,-0.158 -0.008,-0.315 -0.022,-0.47"
       style="fill:none;stroke:#254aa5;stroke-width:1;stroke-linecap:butt;stroke-linejoin:miter;stroke-miterlimit:10;stroke-dasharray:none;stroke-opacity:1"
       transform="matrix(1.3333333,0,0,-1.3333333,656.4816,273.34293)"
       clip-path="url(#clipPath223)" />
  </g>
</svg>
