<?xml version="1.0" encoding="UTF-8" standalone="no"?>
<!-- Created with Inkscape (http://www.inkscape.org/) -->

<svg
   version="1.1"
   id="svg1"
   width="68.320007"
   height="68.319992"
   viewBox="0 0 68.320006 68.319993"
   xmlns="http://www.w3.org/2000/svg"
   xmlns:svg="http://www.w3.org/2000/svg">
  <defs
     id="defs1">
    <clipPath
       clipPathUnits="userSpaceOnUse"
       id="clipPath2">
      <path
         d="M 0,422.39 H 838.228 V 0 H 0 Z"
         transform="translate(-193.9833,-322.99701)"
         id="path2" />
    </clipPath>
    <clipPath
       clipPathUnits="userSpaceOnUse"
       id="clipPath4">
      <path
         d="M 0,422.39 H 838.228 V 0 H 0 Z"
         transform="translate(-189.57021,-309.86911)"
         id="path4" />
    </clipPath>
    <clipPath
       clipPathUnits="userSpaceOnUse"
       id="clipPath6">
      <path
         d="M 0,422.39 H 838.228 V 0 H 0 Z"
         transform="translate(-182.3016,-293.63771)"
         id="path6" />
    </clipPath>
    <clipPath
       clipPathUnits="userSpaceOnUse"
       id="clipPath8">
      <path
         d="M 0,422.39 H 838.228 V 0 H 0 Z"
         transform="translate(-186.31341,-302.66311)"
         id="path8" />
    </clipPath>
    <clipPath
       clipPathUnits="userSpaceOnUse"
       id="clipPath10">
      <path
         d="M 0,422.39 H 838.228 V 0 H 0 Z"
         transform="translate(-189.1932,-289.9404)"
         id="path10" />
    </clipPath>
    <clipPath
       clipPathUnits="userSpaceOnUse"
       id="clipPath12">
      <path
         d="M 0,422.39 H 838.228 V 0 H 0 Z"
         transform="translate(-192.77721,-288.0771)"
         id="path12" />
    </clipPath>
    <clipPath
       clipPathUnits="userSpaceOnUse"
       id="clipPath14">
      <path
         d="M 0,422.39 H 838.228 V 0 H 0 Z"
         transform="translate(-181.40121,-299.22071)"
         id="path14" />
    </clipPath>
    <clipPath
       clipPathUnits="userSpaceOnUse"
       id="clipPath16">
      <path
         d="M 0,422.39 H 838.228 V 0 H 0 Z"
         transform="translate(-189.4335,-302.07221)"
         id="path16" />
    </clipPath>
    <clipPath
       clipPathUnits="userSpaceOnUse"
       id="clipPath18">
      <path
         d="M 0,422.39 H 838.228 V 0 H 0 Z"
         transform="translate(-193.5399,-294.42971)"
         id="path18" />
    </clipPath>
    <clipPath
       clipPathUnits="userSpaceOnUse"
       id="clipPath20">
      <path
         d="M 0,422.39 H 838.228 V 0 H 0 Z"
         transform="translate(-186.3573,-294.73341)"
         id="path20" />
    </clipPath>
    <clipPath
       clipPathUnits="userSpaceOnUse"
       id="clipPath22">
      <path
         d="M 0,422.39 H 838.228 V 0 H 0 Z"
         transform="translate(-196.0438,-301.43841)"
         id="path22" />
    </clipPath>
    <clipPath
       clipPathUnits="userSpaceOnUse"
       id="clipPath24">
      <path
         d="M 0,422.39 H 838.228 V 0 H 0 Z"
         transform="translate(-198.4315,-298.7715)"
         id="path24" />
    </clipPath>
    <clipPath
       clipPathUnits="userSpaceOnUse"
       id="clipPath26">
      <path
         d="M 0,422.39 H 838.228 V 0 H 0 Z"
         transform="translate(-207.9178,-301.20701)"
         id="path26" />
    </clipPath>
    <clipPath
       clipPathUnits="userSpaceOnUse"
       id="clipPath28">
      <path
         d="M 0,422.39 H 838.228 V 0 H 0 Z"
         transform="translate(-202.1425,-307.45111)"
         id="path28" />
    </clipPath>
    <clipPath
       clipPathUnits="userSpaceOnUse"
       id="clipPath30">
      <path
         d="M 0,422.39 H 838.228 V 0 H 0 Z"
         transform="translate(-198.4315,-295.9824)"
         id="path30" />
    </clipPath>
    <clipPath
       clipPathUnits="userSpaceOnUse"
       id="clipPath32">
      <path
         d="M 0,422.39 H 838.228 V 0 H 0 Z"
         transform="translate(-207.9178,-293.54591)"
         id="path32" />
    </clipPath>
    <clipPath
       clipPathUnits="userSpaceOnUse"
       id="clipPath34">
      <path
         d="M 0,422.39 H 838.228 V 0 H 0 Z"
         transform="translate(-198.4315,-301.43841)"
         id="path34" />
    </clipPath>
    <clipPath
       clipPathUnits="userSpaceOnUse"
       id="clipPath36">
      <path
         d="M 0,422.39 H 838.228 V 0 H 0 Z"
         transform="translate(-202.1425,-287.30171)"
         id="path36" />
    </clipPath>
    <clipPath
       clipPathUnits="userSpaceOnUse"
       id="clipPath38">
      <path
         d="M 0,422.39 H 838.228 V 0 H 0 Z"
         transform="translate(-198.4315,-293.3154)"
         id="path38" />
    </clipPath>
  </defs>
  <g
     id="layer-MC0"
     transform="translate(-224.48441,-132.524)">
    <path
       id="path1"
       d="m 0,0 c -14.149,0 -25.62,-11.471 -25.62,-25.62 0,-14.15 11.471,-25.62 25.62,-25.62 14.149,0 25.62,11.47 25.62,25.62 C 25.62,-11.471 14.149,0 0,0 m 0,-1 c 13.575,0 24.62,-11.045 24.62,-24.62 0,-13.576 -11.045,-24.62 -24.62,-24.62 -13.576,0 -24.62,11.044 -24.62,24.62 C -24.62,-12.045 -13.576,-1 0,-1"
       style="fill:#254aa5;fill-opacity:1;fill-rule:nonzero;stroke:none"
       transform="matrix(1.3333333,0,0,-1.3333333,258.6444,132.524)"
       clip-path="url(#clipPath2)" />
    <path
       id="path3"
       d="m 0,0 c 0.447,1.184 1.592,2.025 2.932,2.025 1.73,0 3.132,-1.402 3.132,-3.132 v -22.77 c 0,-1.73 -1.402,-3.133 -3.132,-3.133 -0.775,0 -1.484,0.281 -2.03,0.746"
       style="fill:none;stroke:#254aa5;stroke-width:1;stroke-linecap:butt;stroke-linejoin:miter;stroke-miterlimit:10;stroke-dasharray:none;stroke-opacity:1"
       transform="matrix(1.3333333,0,0,-1.3333333,252.76027,150.02787)"
       clip-path="url(#clipPath4)" />
    <path
       id="path5"
       d="m 0,0 c -1.302,0.38 -2.253,1.583 -2.253,3.007 0,1.73 1.402,3.133 3.133,3.133 0.864,0 1.647,-0.351 2.215,-0.917"
       style="fill:none;stroke:#254aa5;stroke-width:1;stroke-linecap:butt;stroke-linejoin:miter;stroke-miterlimit:10;stroke-dasharray:none;stroke-opacity:1"
       transform="matrix(1.3333333,0,0,-1.3333333,243.0688,171.66973)"
       clip-path="url(#clipPath6)" />
    <path
       id="path7"
       d="m 0,0 c -1.619,0.506 -2.795,2.018 -2.795,3.804 0,2.2 1.783,3.984 3.984,3.984 2.201,0 3.984,-1.784 3.984,-3.984"
       style="fill:none;stroke:#254aa5;stroke-width:1;stroke-linecap:butt;stroke-linejoin:miter;stroke-miterlimit:10;stroke-dasharray:none;stroke-opacity:1"
       transform="matrix(1.3333333,0,0,-1.3333333,248.41787,159.63587)"
       clip-path="url(#clipPath8)" />
    <path
       id="path9"
       d="m 0,0 c -0.502,-1.627 -2.017,-2.81 -3.809,-2.81 -2.2,0 -3.983,1.785 -3.983,3.985 0,0.958 0.337,1.836 0.899,2.523"
       style="fill:none;stroke:#254aa5;stroke-width:1;stroke-linecap:butt;stroke-linejoin:miter;stroke-miterlimit:10;stroke-dasharray:none;stroke-opacity:1"
       transform="matrix(1.3333333,0,0,-1.3333333,252.2576,176.59947)"
       clip-path="url(#clipPath10)" />
    <path
       id="path11"
       d="m 0,0 c 0.073,-0.303 0.112,-0.62 0.112,-0.946 0,-2.2 -1.783,-3.984 -3.984,-3.984 -2.2,0 -3.983,1.784 -3.983,3.984"
       style="fill:none;stroke:#254aa5;stroke-width:1;stroke-linecap:butt;stroke-linejoin:miter;stroke-miterlimit:10;stroke-dasharray:none;stroke-opacity:1"
       transform="matrix(1.3333333,0,0,-1.3333333,257.03627,179.08387)"
       clip-path="url(#clipPath12)" />
    <path
       id="path13"
       d="m 0,0 c -0.296,0.558 -0.464,1.193 -0.464,1.869 0,1.823 1.225,3.36 2.896,3.834"
       style="fill:none;stroke:#254aa5;stroke-width:1;stroke-linecap:butt;stroke-linejoin:miter;stroke-miterlimit:10;stroke-dasharray:none;stroke-opacity:1"
       transform="matrix(1.3333333,0,0,-1.3333333,241.86827,164.22573)"
       clip-path="url(#clipPath14)" />
    <path
       id="path15"
       d="M 0,0 C 1.134,0 2.053,-0.919 2.053,-2.053"
       style="fill:none;stroke:#254aa5;stroke-width:1;stroke-linecap:butt;stroke-linejoin:miter;stroke-miterlimit:10;stroke-dasharray:none;stroke-opacity:1"
       transform="matrix(1.3333333,0,0,-1.3333333,252.578,160.42373)"
       clip-path="url(#clipPath16)" />
    <path
       id="path17"
       d="M 0,0 C -1.134,0 -2.054,0.919 -2.054,2.053"
       style="fill:none;stroke:#254aa5;stroke-width:1;stroke-linecap:butt;stroke-linejoin:miter;stroke-miterlimit:10;stroke-dasharray:none;stroke-opacity:1"
       transform="matrix(1.3333333,0,0,-1.3333333,258.0532,170.61373)"
       clip-path="url(#clipPath18)" />
    <path
       id="path19"
       d="M 0,0 C 1.566,0 2.836,-1.27 2.836,-2.836"
       style="fill:none;stroke:#254aa5;stroke-width:1;stroke-linecap:butt;stroke-linejoin:miter;stroke-miterlimit:10;stroke-dasharray:none;stroke-opacity:1"
       transform="matrix(1.3333333,0,0,-1.3333333,248.4764,170.2088)"
       clip-path="url(#clipPath20)" />
    <path
       id="path21"
       d="M 0,0 H 2.388 V -8.123 H 0"
       style="fill:none;stroke:#254aa5;stroke-width:1;stroke-linecap:butt;stroke-linejoin:miter;stroke-miterlimit:10;stroke-dasharray:none;stroke-opacity:1"
       transform="matrix(1.3333333,0,0,-1.3333333,261.39173,161.2688)"
       clip-path="url(#clipPath22)" />
    <path
       id="path23"
       d="M 0,0 H 2.507 L 4.942,2.436 H 6.409"
       style="fill:none;stroke:#254aa5;stroke-width:1;stroke-linecap:butt;stroke-linejoin:miter;stroke-miterlimit:10;stroke-dasharray:none;stroke-opacity:1"
       transform="matrix(1.3333333,0,0,-1.3333333,264.57533,164.82467)"
       clip-path="url(#clipPath24)" />
    <path
       id="path25"
       d="m 0,0 c 0,-0.813 -0.66,-1.473 -1.474,-1.473 -0.813,0 -1.473,0.66 -1.473,1.473 0,0.814 0.66,1.474 1.473,1.474 C -0.66,1.474 0,0.814 0,0 Z"
       style="fill:none;stroke:#254aa5;stroke-width:1;stroke-linecap:butt;stroke-linejoin:miter;stroke-miterlimit:10;stroke-dasharray:none;stroke-opacity:1"
       transform="matrix(1.3333333,0,0,-1.3333333,277.22373,161.57733)"
       clip-path="url(#clipPath26)" />
    <path
       id="path27"
       d="m 0,0 c 0,-0.813 -0.66,-1.473 -1.474,-1.473 -0.813,0 -1.473,0.66 -1.473,1.473 0,0.814 0.66,1.474 1.473,1.474 C -0.66,1.474 0,0.814 0,0 Z"
       style="fill:none;stroke:#254aa5;stroke-width:1;stroke-linecap:butt;stroke-linejoin:miter;stroke-miterlimit:10;stroke-dasharray:none;stroke-opacity:1"
       transform="matrix(1.3333333,0,0,-1.3333333,269.52333,153.25187)"
       clip-path="url(#clipPath28)" />
    <path
       id="path29"
       d="M 0,0 H 2.507 L 4.942,-2.437 H 6.409"
       style="fill:none;stroke:#254aa5;stroke-width:1;stroke-linecap:butt;stroke-linejoin:miter;stroke-miterlimit:10;stroke-dasharray:none;stroke-opacity:1"
       transform="matrix(1.3333333,0,0,-1.3333333,264.57533,168.54347)"
       clip-path="url(#clipPath30)" />
    <path
       id="path31"
       d="m 0,0 c 0,0.814 -0.66,1.474 -1.474,1.474 -0.813,0 -1.473,-0.66 -1.473,-1.474 0,-0.813 0.66,-1.473 1.473,-1.473 C -0.66,-1.473 0,-0.813 0,0 Z"
       style="fill:none;stroke:#254aa5;stroke-width:1;stroke-linecap:butt;stroke-linejoin:miter;stroke-miterlimit:10;stroke-dasharray:none;stroke-opacity:1"
       transform="matrix(1.3333333,0,0,-1.3333333,277.22373,171.79213)"
       clip-path="url(#clipPath32)" />
    <path
       id="path33"
       d="M 0,0 2.237,2.237 V 4.54"
       style="fill:none;stroke:#254aa5;stroke-width:1;stroke-linecap:butt;stroke-linejoin:miter;stroke-miterlimit:10;stroke-dasharray:none;stroke-opacity:1"
       transform="matrix(1.3333333,0,0,-1.3333333,264.57533,161.2688)"
       clip-path="url(#clipPath34)" />
    <path
       id="path35"
       d="m 0,0 c 0,0.814 -0.66,1.474 -1.474,1.474 -0.813,0 -1.473,-0.66 -1.473,-1.474 0,-0.813 0.66,-1.473 1.473,-1.473 C -0.66,-1.473 0,-0.813 0,0 Z"
       style="fill:none;stroke:#254aa5;stroke-width:1;stroke-linecap:butt;stroke-linejoin:miter;stroke-miterlimit:10;stroke-dasharray:none;stroke-opacity:1"
       transform="matrix(1.3333333,0,0,-1.3333333,269.52333,180.11773)"
       clip-path="url(#clipPath36)" />
    <path
       id="path37"
       d="M 0,0 2.237,-2.238 V -4.54"
       style="fill:none;stroke:#254aa5;stroke-width:1;stroke-linecap:butt;stroke-linejoin:miter;stroke-miterlimit:10;stroke-dasharray:none;stroke-opacity:1"
       transform="matrix(1.3333333,0,0,-1.3333333,264.57533,172.09947)"
       clip-path="url(#clipPath38)" />
  </g>
</svg>
