<svg version="1.1" viewBox="0 0 68.320006 68.319993" xmlns="http://www.w3.org/2000/svg"><defs><clipPath clipPathUnits="userSpaceOnUse" id="a"><path d="M 0,422.39 H 838.228 V 0 H 0 Z" transform="translate(-193.9833,-322.99701)"></path></clipPath><clipPath clipPathUnits="userSpaceOnUse" id="b"><path d="M 0,422.39 H 838.228 V 0 H 0 Z" transform="translate(-189.57021,-309.86911)"></path></clipPath><clipPath clipPathUnits="userSpaceOnUse" id="c"><path d="M 0,422.39 H 838.228 V 0 H 0 Z" transform="translate(-182.3016,-293.63771)"></path></clipPath><clipPath clipPathUnits="userSpaceOnUse" id="d"><path d="M 0,422.39 H 838.228 V 0 H 0 Z" transform="translate(-186.31341,-302.66311)"></path></clipPath><clipPath clipPathUnits="userSpaceOnUse" id="e"><path d="M 0,422.39 H 838.228 V 0 H 0 Z" transform="translate(-189.1932,-289.9404)"></path></clipPath><clipPath clipPathUnits="userSpaceOnUse" id="f"><path d="M 0,422.39 H 838.228 V 0 H 0 Z" transform="translate(-192.77721,-288.0771)"></path></clipPath><clipPath clipPathUnits="userSpaceOnUse" id="g"><path d="M 0,422.39 H 838.228 V 0 H 0 Z" transform="translate(-181.40121,-299.22071)"></path></clipPath><clipPath clipPathUnits="userSpaceOnUse" id="h"><path d="M 0,422.39 H 838.228 V 0 H 0 Z" transform="translate(-189.4335,-302.07221)"></path></clipPath><clipPath clipPathUnits="userSpaceOnUse" id="i"><path d="M 0,422.39 H 838.228 V 0 H 0 Z" transform="translate(-193.5399,-294.42971)"></path></clipPath><clipPath clipPathUnits="userSpaceOnUse" id="j"><path d="M 0,422.39 H 838.228 V 0 H 0 Z" transform="translate(-186.3573,-294.73341)"></path></clipPath><clipPath clipPathUnits="userSpaceOnUse" id="k"><path d="M 0,422.39 H 838.228 V 0 H 0 Z" transform="translate(-196.0438,-301.43841)"></path></clipPath><clipPath clipPathUnits="userSpaceOnUse" id="l"><path d="M 0,422.39 H 838.228 V 0 H 0 Z" transform="translate(-198.4315,-298.7715)"></path></clipPath><clipPath clipPathUnits="userSpaceOnUse" id="m"><path d="M 0,422.39 H 838.228 V 0 H 0 Z" transform="translate(-207.9178,-301.20701)"></path></clipPath><clipPath clipPathUnits="userSpaceOnUse" id="n"><path d="M 0,422.39 H 838.228 V 0 H 0 Z" transform="translate(-202.1425,-307.45111)"></path></clipPath><clipPath clipPathUnits="userSpaceOnUse" id="o"><path d="M 0,422.39 H 838.228 V 0 H 0 Z" transform="translate(-198.4315,-295.9824)"></path></clipPath><clipPath clipPathUnits="userSpaceOnUse" id="p"><path d="M 0,422.39 H 838.228 V 0 H 0 Z" transform="translate(-207.9178,-293.54591)"></path></clipPath><clipPath clipPathUnits="userSpaceOnUse" id="q"><path d="M 0,422.39 H 838.228 V 0 H 0 Z" transform="translate(-198.4315,-301.43841)"></path></clipPath><clipPath clipPathUnits="userSpaceOnUse" id="r"><path d="M 0,422.39 H 838.228 V 0 H 0 Z" transform="translate(-202.1425,-287.30171)"></path></clipPath><clipPath clipPathUnits="userSpaceOnUse" id="s"><path d="M 0,422.39 H 838.228 V 0 H 0 Z" transform="translate(-198.4315,-293.3154)"></path></clipPath></defs><g transform="translate(-224.48441,-132.524)"><path d="m 0,0 c -14.149,0 -25.62,-11.471 -25.62,-25.62 0,-14.15 11.471,-25.62 25.62,-25.62 14.149,0 25.62,11.47 25.62,25.62 C 25.62,-11.471 14.149,0 0,0 m 0,-1 c 13.575,0 24.62,-11.045 24.62,-24.62 0,-13.576 -11.045,-24.62 -24.62,-24.62 -13.576,0 -24.62,11.044 -24.62,24.62 C -24.62,-12.045 -13.576,-1 0,-1" transform="matrix(1.3333333,0,0,-1.3333333,258.6444,132.524)" clip-path="url(#a)" fill="currentColor" fill-opacity="1" fill-rule="nonzero" stroke="none" class="icon-bg"></path><path d="m 0,0 c 0.447,1.184 1.592,2.025 2.932,2.025 1.73,0 3.132,-1.402 3.132,-3.132 v -22.77 c 0,-1.73 -1.402,-3.133 -3.132,-3.133 -0.775,0 -1.484,0.281 -2.03,0.746" transform="matrix(1.3333333,0,0,-1.3333333,252.76027,150.02787)" clip-path="url(#b)" fill="none" stroke="currentColor" stroke-width="1" stroke-linecap="butt" stroke-linejoin="miter" stroke-miterlimit="10" stroke-dasharray="none" stroke-opacity="1"></path><path d="m 0,0 c -1.302,0.38 -2.253,1.583 -2.253,3.007 0,1.73 1.402,3.133 3.133,3.133 0.864,0 1.647,-0.351 2.215,-0.917" transform="matrix(1.3333333,0,0,-1.3333333,243.0688,171.66973)" clip-path="url(#c)" fill="none" stroke="currentColor" stroke-width="1" stroke-linecap="butt" stroke-linejoin="miter" stroke-miterlimit="10" stroke-dasharray="none" stroke-opacity="1"></path><path d="m 0,0 c -1.619,0.506 -2.795,2.018 -2.795,3.804 0,2.2 1.783,3.984 3.984,3.984 2.201,0 3.984,-1.784 3.984,-3.984" transform="matrix(1.3333333,0,0,-1.3333333,248.41787,159.63587)" clip-path="url(#d)" fill="none" stroke="currentColor" stroke-width="1" stroke-linecap="butt" stroke-linejoin="miter" stroke-miterlimit="10" stroke-dasharray="none" stroke-opacity="1"></path><path d="m 0,0 c -0.502,-1.627 -2.017,-2.81 -3.809,-2.81 -2.2,0 -3.983,1.785 -3.983,3.985 0,0.958 0.337,1.836 0.899,2.523" transform="matrix(1.3333333,0,0,-1.3333333,252.2576,176.59947)" clip-path="url(#e)" fill="none" stroke="currentColor" stroke-width="1" stroke-linecap="butt" stroke-linejoin="miter" stroke-miterlimit="10" stroke-dasharray="none" stroke-opacity="1"></path><path d="m 0,0 c 0.073,-0.303 0.112,-0.62 0.112,-0.946 0,-2.2 -1.783,-3.984 -3.984,-3.984 -2.2,0 -3.983,1.784 -3.983,3.984" transform="matrix(1.3333333,0,0,-1.3333333,257.03627,179.08387)" clip-path="url(#f)" fill="none" stroke="currentColor" stroke-width="1" stroke-linecap="butt" stroke-linejoin="miter" stroke-miterlimit="10" stroke-dasharray="none" stroke-opacity="1"></path><path d="m 0,0 c -0.296,0.558 -0.464,1.193 -0.464,1.869 0,1.823 1.225,3.36 2.896,3.834" transform="matrix(1.3333333,0,0,-1.3333333,241.86827,164.22573)" clip-path="url(#g)" fill="none" stroke="currentColor" stroke-width="1" stroke-linecap="butt" stroke-linejoin="miter" stroke-miterlimit="10" stroke-dasharray="none" stroke-opacity="1"></path><path d="M 0,0 C 1.134,0 2.053,-0.919 2.053,-2.053" transform="matrix(1.3333333,0,0,-1.3333333,252.578,160.42373)" clip-path="url(#h)" fill="none" stroke="currentColor" stroke-width="1" stroke-linecap="butt" stroke-linejoin="miter" stroke-miterlimit="10" stroke-dasharray="none" stroke-opacity="1"></path><path d="M 0,0 C -1.134,0 -2.054,0.919 -2.054,2.053" transform="matrix(1.3333333,0,0,-1.3333333,258.0532,170.61373)" clip-path="url(#i)" fill="none" stroke="currentColor" stroke-width="1" stroke-linecap="butt" stroke-linejoin="miter" stroke-miterlimit="10" stroke-dasharray="none" stroke-opacity="1"></path><path d="M 0,0 C 1.566,0 2.836,-1.27 2.836,-2.836" transform="matrix(1.3333333,0,0,-1.3333333,248.4764,170.2088)" clip-path="url(#j)" fill="none" stroke="currentColor" stroke-width="1" stroke-linecap="butt" stroke-linejoin="miter" stroke-miterlimit="10" stroke-dasharray="none" stroke-opacity="1"></path><path d="M 0,0 H 2.388 V -8.123 H 0" transform="matrix(1.3333333,0,0,-1.3333333,261.39173,161.2688)" clip-path="url(#k)" fill="none" stroke="currentColor" stroke-width="1" stroke-linecap="butt" stroke-linejoin="miter" stroke-miterlimit="10" stroke-dasharray="none" stroke-opacity="1"></path><path d="M 0,0 H 2.507 L 4.942,2.436 H 6.409" transform="matrix(1.3333333,0,0,-1.3333333,264.57533,164.82467)" clip-path="url(#l)" fill="none" stroke="currentColor" stroke-width="1" stroke-linecap="butt" stroke-linejoin="miter" stroke-miterlimit="10" stroke-dasharray="none" stroke-opacity="1"></path><path d="m 0,0 c 0,-0.813 -0.66,-1.473 -1.474,-1.473 -0.813,0 -1.473,0.66 -1.473,1.473 0,0.814 0.66,1.474 1.473,1.474 C -0.66,1.474 0,0.814 0,0 Z" transform="matrix(1.3333333,0,0,-1.3333333,277.22373,161.57733)" clip-path="url(#m)" fill="none" stroke="currentColor" stroke-width="1" stroke-linecap="butt" stroke-linejoin="miter" stroke-miterlimit="10" stroke-dasharray="none" stroke-opacity="1"></path><path d="m 0,0 c 0,-0.813 -0.66,-1.473 -1.474,-1.473 -0.813,0 -1.473,0.66 -1.473,1.473 0,0.814 0.66,1.474 1.473,1.474 C -0.66,1.474 0,0.814 0,0 Z" transform="matrix(1.3333333,0,0,-1.3333333,269.52333,153.25187)" clip-path="url(#n)" fill="none" stroke="currentColor" stroke-width="1" stroke-linecap="butt" stroke-linejoin="miter" stroke-miterlimit="10" stroke-dasharray="none" stroke-opacity="1"></path><path d="M 0,0 H 2.507 L 4.942,-2.437 H 6.409" transform="matrix(1.3333333,0,0,-1.3333333,264.57533,168.54347)" clip-path="url(#o)" fill="none" stroke="currentColor" stroke-width="1" stroke-linecap="butt" stroke-linejoin="miter" stroke-miterlimit="10" stroke-dasharray="none" stroke-opacity="1"></path><path d="m 0,0 c 0,0.814 -0.66,1.474 -1.474,1.474 -0.813,0 -1.473,-0.66 -1.473,-1.474 0,-0.813 0.66,-1.473 1.473,-1.473 C -0.66,-1.473 0,-0.813 0,0 Z" transform="matrix(1.3333333,0,0,-1.3333333,277.22373,171.79213)" clip-path="url(#p)" fill="none" stroke="currentColor" stroke-width="1" stroke-linecap="butt" stroke-linejoin="miter" stroke-miterlimit="10" stroke-dasharray="none" stroke-opacity="1"></path><path d="M 0,0 2.237,2.237 V 4.54" transform="matrix(1.3333333,0,0,-1.3333333,264.57533,161.2688)" clip-path="url(#q)" fill="none" stroke="currentColor" stroke-width="1" stroke-linecap="butt" stroke-linejoin="miter" stroke-miterlimit="10" stroke-dasharray="none" stroke-opacity="1"></path><path d="m 0,0 c 0,0.814 -0.66,1.474 -1.474,1.474 -0.813,0 -1.473,-0.66 -1.473,-1.474 0,-0.813 0.66,-1.473 1.473,-1.473 C -0.66,-1.473 0,-0.813 0,0 Z" transform="matrix(1.3333333,0,0,-1.3333333,269.52333,180.11773)" clip-path="url(#r)" fill="none" stroke="currentColor" stroke-width="1" stroke-linecap="butt" stroke-linejoin="miter" stroke-miterlimit="10" stroke-dasharray="none" stroke-opacity="1"></path><path d="M 0,0 2.237,-2.238 V -4.54" transform="matrix(1.3333333,0,0,-1.3333333,264.57533,172.09947)" clip-path="url(#s)" fill="none" stroke="currentColor" stroke-width="1" stroke-linecap="butt" stroke-linejoin="miter" stroke-miterlimit="10" stroke-dasharray="none" stroke-opacity="1"></path></g></svg>