<svg version="1.1" viewBox="0 0 68.31999 68.320008" sodipodi:docname="23.EIT-Icons.ai" inkscape:version="1.4.2 (ebf0e940, 2025-05-08)" xmlns:inkscape="http://www.inkscape.org/namespaces/inkscape" xmlns:sodipodi="http://sodipodi.sourceforge.net/DTD/sodipodi-0.dtd" xmlns="http://www.w3.org/2000/svg"><defs><clipPath clipPathUnits="userSpaceOnUse" id="a"><path d="M 0,422.39 H 838.228 V 0 H 0 Z" transform="translate(-142.34361,-302.17541)"></path></clipPath><clipPath clipPathUnits="userSpaceOnUse" id="b"><path d="M 0,422.39 H 838.228 V 0 H 0 Z" transform="translate(-107.73861,-301.26081)"></path></clipPath><clipPath clipPathUnits="userSpaceOnUse" id="c"><path d="M 0,422.39 H 838.228 V 0 H 0 Z" transform="translate(-115.87101,-288.59531)"></path></clipPath><clipPath clipPathUnits="userSpaceOnUse" id="d"><path d="M 0,422.39 H 838.228 V 0 H 0 Z" transform="translate(-121.1503,-301.26081)"></path></clipPath><clipPath clipPathUnits="userSpaceOnUse" id="e"><path d="M 0,422.39 H 838.228 V 0 H 0 Z" transform="translate(-129.2826,-288.59531)"></path></clipPath><clipPath clipPathUnits="userSpaceOnUse" id="f"><path d="M 0,422.39 H 838.228 V 0 H 0 Z" transform="translate(-114.4447,-316.33311)"></path></clipPath><clipPath clipPathUnits="userSpaceOnUse" id="g"><path d="M 0,422.39 H 838.228 V 0 H 0 Z" transform="translate(-111.87051,-307.58161)"></path></clipPath><clipPath clipPathUnits="userSpaceOnUse" id="h"><path d="M 0,422.39 H 838.228 V 0 H 0 Z" transform="translate(-105.1644,-292.5093)"></path></clipPath></defs><sodipodi:namedview pagecolor="#ffffff" bordercolor="#000000" borderopacity="0.25" inkscape:showpageshadow="2" inkscape:pageopacity="0.0" inkscape:pagecheckerboard="0" inkscape:deskcolor="#d1d1d1" showguides="true" inkscape:zoom="0.5" inkscape:cx="585" inkscape:cy="294" inkscape:window-width="1920" inkscape:window-height="1027" inkscape:window-x="0" inkscape:window-y="25" inkscape:window-maximized="0" inkscape:current-layer="layer-MC0"><inkscape:page x="0" y="0" width="68.319992" height="68.320007" margin="0" bleed="0"></inkscape:page></sodipodi:namedview><g inkscape:groupmode="layer" inkscape:label="Capa 1" transform="translate(-122.13826,-126.12613)"><path d="m 0,0 c 0,-13.874 -11.247,-25.12 -25.12,-25.12 -13.874,0 -25.12,11.246 -25.12,25.12 0,13.873 11.246,25.12 25.12,25.12 C -11.247,25.12 0,13.873 0,0 Z" transform="matrix(1.3333333,0,0,-1.3333333,189.79147,160.28613)" clip-path="url(#a)" fill="none" stroke="currentColor" stroke-width="1" stroke-linecap="butt" stroke-linejoin="miter" stroke-miterlimit="10" stroke-dasharray="none" stroke-opacity="1" class="icon-circle"></path><g class="icon"><path d="M 0,0 C 0,1.535 1.244,2.779 2.779,2.779 4.314,2.779 5.558,1.535 5.558,0 5.558,-1.535 4.314,-2.779 2.779,-2.779 1.244,-2.779 0,-1.535 0,0 Z" transform="matrix(1.3333333,0,0,-1.3333333,143.65147,161.5056)" clip-path="url(#b)" fill="none" stroke="currentColor" stroke-width="1" stroke-linecap="round" stroke-linejoin="round" stroke-miterlimit="10" stroke-dasharray="none" stroke-opacity="1"></path><path d="m 0,0 h -10.707 v 3.914 c 0,2.165 1.756,3.92 3.921,3.92 H -3.92 C -1.755,7.834 0,6.079 0,3.914 Z" transform="matrix(1.3333333,0,0,-1.3333333,154.49467,178.39293)" clip-path="url(#c)" fill="none" stroke="currentColor" stroke-width="1" stroke-linecap="round" stroke-linejoin="round" stroke-miterlimit="10" stroke-dasharray="none" stroke-opacity="1"></path><path d="M 0,0 C 0,1.535 1.244,2.779 2.779,2.779 4.314,2.779 5.558,1.535 5.558,0 5.558,-1.535 4.314,-2.779 2.779,-2.779 1.244,-2.779 0,-1.535 0,0 Z" transform="matrix(1.3333333,0,0,-1.3333333,161.53373,161.5056)" clip-path="url(#d)" fill="none" stroke="currentColor" stroke-width="1" stroke-linecap="round" stroke-linejoin="round" stroke-miterlimit="10" stroke-dasharray="none" stroke-opacity="1"></path><path d="m 0,0 h -10.707 v 3.914 c 0,2.165 1.756,3.92 3.921,3.92 H -3.92 C -1.755,7.834 0,6.079 0,3.914 Z" transform="matrix(1.3333333,0,0,-1.3333333,172.3768,178.39293)" clip-path="url(#e)" fill="none" stroke="currentColor" stroke-width="1" stroke-linecap="round" stroke-linejoin="round" stroke-miterlimit="10" stroke-dasharray="none" stroke-opacity="1"></path><path d="M 0,0 C 0,1.535 1.244,2.779 2.779,2.779 4.313,2.779 5.558,1.535 5.558,0 5.558,-1.535 4.313,-2.779 2.779,-2.779 1.244,-2.779 0,-1.535 0,0 Z" transform="matrix(1.3333333,0,0,-1.3333333,152.59293,141.4092)" clip-path="url(#f)" fill="none" stroke="currentColor" stroke-width="1" stroke-linecap="round" stroke-linejoin="round" stroke-miterlimit="10" stroke-dasharray="none" stroke-opacity="1"></path><path d="M 0,0 C 0,2.165 1.755,3.92 3.92,3.92 H 6.786 C 8.951,3.92 10.707,2.165 10.707,0" transform="matrix(1.3333333,0,0,-1.3333333,149.16067,153.07787)" clip-path="url(#g)" fill="none" stroke="currentColor" stroke-width="1" stroke-linecap="round" stroke-linejoin="round" stroke-miterlimit="10" stroke-dasharray="none" stroke-opacity="1"></path><path d="m 0,0 h -4.5 l 4,14.798 H 24.618 L 28.618,0 h -4.5" transform="matrix(1.3333333,0,0,-1.3333333,140.2192,173.17427)" clip-path="url(#h)" fill="none" stroke="currentColor" stroke-width="1" stroke-linecap="round" stroke-linejoin="round" stroke-miterlimit="10" stroke-dasharray="none" stroke-opacity="1"></path></g></g></svg>