<?xml version="1.0" encoding="UTF-8" standalone="no"?>
<!-- Created with Inkscape (http://www.inkscape.org/) -->

<svg
   version="1.1"
   id="svg1"
   width="68.319992"
   height="68.320007"
   viewBox="0 0 68.31999 68.320008"
   sodipodi:docname="23.EIT-Icons.ai"
   inkscape:version="1.4.2 (ebf0e940, 2025-05-08)"
   xmlns:inkscape="http://www.inkscape.org/namespaces/inkscape"
   xmlns:sodipodi="http://sodipodi.sourceforge.net/DTD/sodipodi-0.dtd"
   xmlns="http://www.w3.org/2000/svg"
   xmlns:svg="http://www.w3.org/2000/svg">
  <defs
     id="defs1">
    <clipPath
       clipPathUnits="userSpaceOnUse"
       id="clipPath22">
      <path
         d="M 0,422.39 H 838.228 V 0 H 0 Z"
         transform="translate(-142.34361,-302.17541)"
         id="path22" />
    </clipPath>
    <clipPath
       clipPathUnits="userSpaceOnUse"
       id="clipPath244">
      <path
         d="M 0,422.39 H 838.228 V 0 H 0 Z"
         transform="translate(-107.73861,-301.26081)"
         id="path244" />
    </clipPath>
    <clipPath
       clipPathUnits="userSpaceOnUse"
       id="clipPath246">
      <path
         d="M 0,422.39 H 838.228 V 0 H 0 Z"
         transform="translate(-115.87101,-288.59531)"
         id="path246" />
    </clipPath>
    <clipPath
       clipPathUnits="userSpaceOnUse"
       id="clipPath248">
      <path
         d="M 0,422.39 H 838.228 V 0 H 0 Z"
         transform="translate(-121.1503,-301.26081)"
         id="path248" />
    </clipPath>
    <clipPath
       clipPathUnits="userSpaceOnUse"
       id="clipPath250">
      <path
         d="M 0,422.39 H 838.228 V 0 H 0 Z"
         transform="translate(-129.2826,-288.59531)"
         id="path250" />
    </clipPath>
    <clipPath
       clipPathUnits="userSpaceOnUse"
       id="clipPath252">
      <path
         d="M 0,422.39 H 838.228 V 0 H 0 Z"
         transform="translate(-114.4447,-316.33311)"
         id="path252" />
    </clipPath>
    <clipPath
       clipPathUnits="userSpaceOnUse"
       id="clipPath254">
      <path
         d="M 0,422.39 H 838.228 V 0 H 0 Z"
         transform="translate(-111.87051,-307.58161)"
         id="path254" />
    </clipPath>
    <clipPath
       clipPathUnits="userSpaceOnUse"
       id="clipPath256">
      <path
         d="M 0,422.39 H 838.228 V 0 H 0 Z"
         transform="translate(-105.1644,-292.5093)"
         id="path256" />
    </clipPath>
  </defs>
  <sodipodi:namedview
     id="namedview1"
     pagecolor="#ffffff"
     bordercolor="#000000"
     borderopacity="0.25"
     inkscape:showpageshadow="2"
     inkscape:pageopacity="0.0"
     inkscape:pagecheckerboard="0"
     inkscape:deskcolor="#d1d1d1"
     showguides="true"
     inkscape:zoom="0.5"
     inkscape:cx="585"
     inkscape:cy="294"
     inkscape:window-width="1920"
     inkscape:window-height="1027"
     inkscape:window-x="0"
     inkscape:window-y="25"
     inkscape:window-maximized="0"
     inkscape:current-layer="layer-MC0">
    <inkscape:page
       x="0"
       y="0"
       width="68.319992"
       height="68.320007"
       id="page2"
       margin="0"
       bleed="0" />
  </sodipodi:namedview>
  <g
     id="layer-MC0"
     inkscape:groupmode="layer"
     inkscape:label="Capa 1"
     transform="translate(-122.13826,-126.12613)">
    <path
       id="path21"
       d="m 0,0 c 0,-13.874 -11.247,-25.12 -25.12,-25.12 -13.874,0 -25.12,11.246 -25.12,25.12 0,13.873 11.246,25.12 25.12,25.12 C -11.247,25.12 0,13.873 0,0 Z"
       style="fill:none;stroke:#254aa5;stroke-width:1;stroke-linecap:butt;stroke-linejoin:miter;stroke-miterlimit:10;stroke-dasharray:none;stroke-opacity:1"
       transform="matrix(1.3333333,0,0,-1.3333333,189.79147,160.28613)"
       clip-path="url(#clipPath22)" />
    <g
       id="g2973">
      <path
         id="path243"
         d="M 0,0 C 0,1.535 1.244,2.779 2.779,2.779 4.314,2.779 5.558,1.535 5.558,0 5.558,-1.535 4.314,-2.779 2.779,-2.779 1.244,-2.779 0,-1.535 0,0 Z"
         style="fill:none;stroke:#254aa5;stroke-width:1;stroke-linecap:round;stroke-linejoin:round;stroke-miterlimit:10;stroke-dasharray:none;stroke-opacity:1"
         transform="matrix(1.3333333,0,0,-1.3333333,143.65147,161.5056)"
         clip-path="url(#clipPath244)" />
      <path
         id="path245"
         d="m 0,0 h -10.707 v 3.914 c 0,2.165 1.756,3.92 3.921,3.92 H -3.92 C -1.755,7.834 0,6.079 0,3.914 Z"
         style="fill:none;stroke:#254aa5;stroke-width:1;stroke-linecap:round;stroke-linejoin:round;stroke-miterlimit:10;stroke-dasharray:none;stroke-opacity:1"
         transform="matrix(1.3333333,0,0,-1.3333333,154.49467,178.39293)"
         clip-path="url(#clipPath246)" />
      <path
         id="path247"
         d="M 0,0 C 0,1.535 1.244,2.779 2.779,2.779 4.314,2.779 5.558,1.535 5.558,0 5.558,-1.535 4.314,-2.779 2.779,-2.779 1.244,-2.779 0,-1.535 0,0 Z"
         style="fill:none;stroke:#254aa5;stroke-width:1;stroke-linecap:round;stroke-linejoin:round;stroke-miterlimit:10;stroke-dasharray:none;stroke-opacity:1"
         transform="matrix(1.3333333,0,0,-1.3333333,161.53373,161.5056)"
         clip-path="url(#clipPath248)" />
      <path
         id="path249"
         d="m 0,0 h -10.707 v 3.914 c 0,2.165 1.756,3.92 3.921,3.92 H -3.92 C -1.755,7.834 0,6.079 0,3.914 Z"
         style="fill:none;stroke:#254aa5;stroke-width:1;stroke-linecap:round;stroke-linejoin:round;stroke-miterlimit:10;stroke-dasharray:none;stroke-opacity:1"
         transform="matrix(1.3333333,0,0,-1.3333333,172.3768,178.39293)"
         clip-path="url(#clipPath250)" />
      <path
         id="path251"
         d="M 0,0 C 0,1.535 1.244,2.779 2.779,2.779 4.313,2.779 5.558,1.535 5.558,0 5.558,-1.535 4.313,-2.779 2.779,-2.779 1.244,-2.779 0,-1.535 0,0 Z"
         style="fill:none;stroke:#254aa5;stroke-width:1;stroke-linecap:round;stroke-linejoin:round;stroke-miterlimit:10;stroke-dasharray:none;stroke-opacity:1"
         transform="matrix(1.3333333,0,0,-1.3333333,152.59293,141.4092)"
         clip-path="url(#clipPath252)" />
      <path
         id="path253"
         d="M 0,0 C 0,2.165 1.755,3.92 3.92,3.92 H 6.786 C 8.951,3.92 10.707,2.165 10.707,0"
         style="fill:none;stroke:#254aa5;stroke-width:1;stroke-linecap:round;stroke-linejoin:round;stroke-miterlimit:10;stroke-dasharray:none;stroke-opacity:1"
         transform="matrix(1.3333333,0,0,-1.3333333,149.16067,153.07787)"
         clip-path="url(#clipPath254)" />
      <path
         id="path255"
         d="m 0,0 h -4.5 l 4,14.798 H 24.618 L 28.618,0 h -4.5"
         style="fill:none;stroke:#254aa5;stroke-width:1;stroke-linecap:round;stroke-linejoin:round;stroke-miterlimit:10;stroke-dasharray:none;stroke-opacity:1"
         transform="matrix(1.3333333,0,0,-1.3333333,140.2192,173.17427)"
         clip-path="url(#clipPath256)" />
    </g>
  </g>
</svg>
