<svg version="1.1" viewBox="0 0 68.319998 68.32" xmlns="http://www.w3.org/2000/svg"><defs><clipPath clipPathUnits="userSpaceOnUse"><path d="M 0,422.39 H 838.228 V 0 H 0 Z" transform="translate(-82.546802,-363.19731)"></path></clipPath><clipPath clipPathUnits="userSpaceOnUse"><path d="M 0,422.39 H 838.228 V 0 H 0 Z" transform="translate(-142.34361,-363.19731)"></path></clipPath><clipPath clipPathUnits="userSpaceOnUse"><path d="M 0,422.39 H 838.228 V 0 H 0 Z" transform="translate(-202.14001,-363.05771)"></path></clipPath><clipPath clipPathUnits="userSpaceOnUse"><path d="M 0,422.39 H 838.228 V 0 H 0 Z" transform="translate(-261.9364,-363.19731)"></path></clipPath><clipPath clipPathUnits="userSpaceOnUse"><path d="M 0,422.39 H 838.228 V 0 H 0 Z" transform="translate(-82.289905,-180.13091)"></path></clipPath><clipPath clipPathUnits="userSpaceOnUse"><path d="M 0,422.39 H 838.228 V 0 H 0 Z" transform="translate(-142.0863,-180.13091)"></path></clipPath><clipPath clipPathUnits="userSpaceOnUse"><path d="M 0,422.39 H 838.228 V 0 H 0 Z" transform="translate(-201.8827,-180.13091)"></path></clipPath><clipPath clipPathUnits="userSpaceOnUse"><path d="M 0,422.39 H 838.228 V 0 H 0 Z" transform="translate(-261.6796,-180.13091)"></path></clipPath><clipPath clipPathUnits="userSpaceOnUse"><path d="M 0,422.39 H 838.228 V 0 H 0 Z" transform="translate(-321.47601,-180.13091)"></path></clipPath><clipPath clipPathUnits="userSpaceOnUse"><path d="M 0,422.39 H 838.228 V 0 H 0 Z" transform="translate(-82.546802,-302.17541)"></path></clipPath><clipPath clipPathUnits="userSpaceOnUse"><path d="M 0,422.39 H 838.228 V 0 H 0 Z" transform="translate(-142.34361,-302.17541)"></path></clipPath><clipPath clipPathUnits="userSpaceOnUse"><path d="M 0,422.39 H 838.228 V 0 H 0 Z" transform="translate(-202.14001,-302.17541)"></path></clipPath><clipPath clipPathUnits="userSpaceOnUse"><path d="M 0,422.39 H 838.228 V 0 H 0 Z" transform="translate(-261.9364,-302.17541)"></path></clipPath><clipPath clipPathUnits="userSpaceOnUse"><path d="M 0,422.39 H 838.228 V 0 H 0 Z" transform="translate(-321.73331,-302.17541)"></path></clipPath><clipPath clipPathUnits="userSpaceOnUse"><path d="M 0,422.39 H 838.228 V 0 H 0 Z" transform="translate(-82.289905,-119.10851)"></path></clipPath><clipPath clipPathUnits="userSpaceOnUse"><path d="M 0,422.39 H 838.228 V 0 H 0 Z" transform="translate(-142.0863,-119.10851)"></path></clipPath><clipPath clipPathUnits="userSpaceOnUse"><path d="M 0,422.39 H 838.228 V 0 H 0 Z" transform="translate(-201.8827,-119.10851)"></path></clipPath><clipPath clipPathUnits="userSpaceOnUse"><path d="M 0,422.39 H 838.228 V 0 H 0 Z" transform="translate(-261.6796,-119.10851)"></path></clipPath><clipPath clipPathUnits="userSpaceOnUse"><path d="M 0,422.39 H 838.228 V 0 H 0 Z" transform="translate(-321.47601,-119.10851)"></path></clipPath><clipPath clipPathUnits="userSpaceOnUse"><path d="M 0,422.39 H 838.228 V 0 H 0 Z" transform="translate(-82.546802,-241.1529)"></path></clipPath><clipPath clipPathUnits="userSpaceOnUse"><path d="M 0,422.39 H 838.228 V 0 H 0 Z" transform="translate(-142.34361,-241.10261)"></path></clipPath><clipPath clipPathUnits="userSpaceOnUse"><path d="M 0,422.39 H 838.228 V 0 H 0 Z" transform="translate(-202.14001,-241.1529)"></path></clipPath><clipPath clipPathUnits="userSpaceOnUse"><path d="M 0,422.39 H 838.228 V 0 H 0 Z" transform="translate(-261.9364,-241.1529)"></path></clipPath><clipPath clipPathUnits="userSpaceOnUse"><path d="M 0,422.39 H 838.228 V 0 H 0 Z" transform="translate(-261.9364,-241.1529)"></path></clipPath><clipPath clipPathUnits="userSpaceOnUse"><path d="M 0,422.39 H 838.228 V 0 H 0 Z" transform="translate(-321.73331,-241.1529)"></path></clipPath><clipPath clipPathUnits="userSpaceOnUse"><path d="M 0,422.39 H 838.228 V 0 H 0 Z" transform="translate(-82.289905,-58.085999)"></path></clipPath><clipPath clipPathUnits="userSpaceOnUse"><path d="M 0,422.39 H 838.228 V 0 H 0 Z" transform="translate(-142.0863,-58.085999)"></path></clipPath><clipPath clipPathUnits="userSpaceOnUse"><path d="M 0,422.39 H 838.228 V 0 H 0 Z" transform="translate(-151.6429,-58.085999)"></path></clipPath><clipPath clipPathUnits="userSpaceOnUse"><path d="M 0,422.39 H 838.228 V 0 H 0 Z" transform="translate(-261.6796,-58.085999)"></path></clipPath><clipPath clipPathUnits="userSpaceOnUse"><path d="M 0,422.39 H 838.228 V 0 H 0 Z" transform="translate(-177.0199,-374.42581)"></path></clipPath><clipPath clipPathUnits="userSpaceOnUse"><path d="M 0,422.39 H 838.228 V 0 H 0 Z" transform="translate(-180.1854,-353.77301)"></path></clipPath><clipPath clipPathUnits="userSpaceOnUse"><path d="M 0,422.39 H 838.228 V 0 H 0 Z" transform="translate(-180.1854,-351.50791)"></path></clipPath><clipPath clipPathUnits="userSpaceOnUse"><path d="M 0,422.39 H 838.228 V 0 H 0 Z" transform="translate(-180.1854,-349.24221)"></path></clipPath><clipPath clipPathUnits="userSpaceOnUse"><path d="M 0,422.39 H 838.228 V 0 H 0 Z" transform="translate(-178.7269,-346.97661)"></path></clipPath><clipPath clipPathUnits="userSpaceOnUse"><path d="M 0,422.39 H 838.228 V 0 H 0 Z" transform="translate(-164.96571,-365.23251)"></path></clipPath><clipPath clipPathUnits="userSpaceOnUse"><path d="M 0,422.39 H 838.228 V 0 H 0 Z" transform="translate(-191.9418,-365.23251)"></path></clipPath><clipPath clipPathUnits="userSpaceOnUse"><path d="M 0,422.39 H 838.228 V 0 H 0 Z" transform="translate(-168.1473,-356.56451)"></path></clipPath><clipPath clipPathUnits="userSpaceOnUse"><path d="M 0,422.39 H 838.228 V 0 H 0 Z" transform="translate(-187.2225,-375.63921)"></path></clipPath><clipPath clipPathUnits="userSpaceOnUse"><path d="M 0,422.39 H 838.228 V 0 H 0 Z" transform="translate(-185.89251,-356.56451)"></path></clipPath><clipPath clipPathUnits="userSpaceOnUse"><path d="M 0,422.39 H 838.228 V 0 H 0 Z" transform="translate(-168.1473,-372.91461)"></path></clipPath><clipPath clipPathUnits="userSpaceOnUse"><path d="M 0,422.39 H 838.228 V 0 H 0 Z" transform="translate(-176.5267,-379.63291)"></path></clipPath><clipPath clipPathUnits="userSpaceOnUse"><path d="M 0,422.39 H 838.228 V 0 H 0 Z" transform="translate(-127.9545,-374.28571)"></path></clipPath><clipPath clipPathUnits="userSpaceOnUse"><path d="M 0,422.39 H 838.228 V 0 H 0 Z" transform="translate(-127.9545,-374.28571)"></path></clipPath><clipPath clipPathUnits="userSpaceOnUse"><path d="M 0,422.39 H 838.228 V 0 H 0 Z" transform="translate(-111.015,-370.94641)"></path></clipPath><clipPath clipPathUnits="userSpaceOnUse"><path d="M 0,422.39 H 838.228 V 0 H 0 Z" transform="translate(-127.099,-363.96001)"></path></clipPath><clipPath clipPathUnits="userSpaceOnUse"><path d="M 0,422.39 H 838.228 V 0 H 0 Z" transform="translate(-54.938801,-381.35941)"></path></clipPath><clipPath clipPathUnits="userSpaceOnUse"><path d="M 0,422.39 H 838.228 V 0 H 0 Z" transform="translate(-44.241601,-363.19731)"></path></clipPath><clipPath clipPathUnits="userSpaceOnUse"><path d="M 0,422.39 H 838.228 V 0 H 0 Z" transform="translate(-74.487202,-356.29941)"></path></clipPath><clipPath clipPathUnits="userSpaceOnUse"><path d="M 0,422.39 H 838.228 V 0 H 0 Z" transform="translate(-63.908102,-374.53031)"></path></clipPath><clipPath clipPathUnits="userSpaceOnUse"><path d="M 0,422.39 H 838.228 V 0 H 0 Z" transform="translate(-43.053601,-351.69241)"></path></clipPath><clipPath clipPathUnits="userSpaceOnUse"><path d="M 0,422.39 H 838.228 V 0 H 0 Z" transform="translate(-64.131701,-351.63431)"></path></clipPath><clipPath clipPathUnits="userSpaceOnUse"><path d="M 0,422.39 H 838.228 V 0 H 0 Z" transform="translate(-225.85681,-368.21731)"></path></clipPath><clipPath clipPathUnits="userSpaceOnUse"><path d="M 0,422.39 H 838.228 V 0 H 0 Z" transform="translate(-220.88071,-363.24131)"></path></clipPath><clipPath clipPathUnits="userSpaceOnUse"><path d="M 0,422.39 H 838.228 V 0 H 0 Z" transform="translate(-231.84021,-374.15681)"></path></clipPath><clipPath clipPathUnits="userSpaceOnUse"><path d="M 0,422.39 H 838.228 V 0 H 0 Z" transform="translate(-236.8168,-350.05571)"></path></clipPath><clipPath clipPathUnits="userSpaceOnUse"><path d="M 0,422.39 H 838.228 V 0 H 0 Z" transform="translate(-247.77621,-368.21731)"></path></clipPath><clipPath clipPathUnits="userSpaceOnUse"><path d="M 0,422.39 H 838.228 V 0 H 0 Z" transform="translate(-252.75231,-363.24131)"></path></clipPath><clipPath clipPathUnits="userSpaceOnUse"><path d="M 0,422.39 H 838.228 V 0 H 0 Z" transform="translate(-321.73331,-363.05771)"></path></clipPath><clipPath clipPathUnits="userSpaceOnUse"><path d="M 0,422.39 H 838.228 V 0 H 0 Z" transform="translate(-381.52971,-363.19731)"></path></clipPath><clipPath clipPathUnits="userSpaceOnUse"><path d="M 0,422.39 H 838.228 V 0 H 0 Z" transform="translate(-441.32651,-363.19731)"></path></clipPath><clipPath clipPathUnits="userSpaceOnUse"><path d="M 0,422.39 H 838.228 V 0 H 0 Z" transform="translate(-501.12241,-363.05771)"></path></clipPath><clipPath clipPathUnits="userSpaceOnUse"><path d="M 0,422.39 H 838.228 V 0 H 0 Z" transform="translate(-560.91931,-363.19731)"></path></clipPath><clipPath clipPathUnits="userSpaceOnUse"><path d="M 0,422.39 H 838.228 V 0 H 0 Z" transform="translate(-620.71522,-363.05771)"></path></clipPath><clipPath clipPathUnits="userSpaceOnUse"><path d="M 0,422.39 H 838.228 V 0 H 0 Z" transform="translate(-680.51212,-363.19731)"></path></clipPath><clipPath clipPathUnits="userSpaceOnUse"><path d="M 0,422.39 H 838.228 V 0 H 0 Z" transform="translate(-740.30902,-363.05771)"></path></clipPath><clipPath clipPathUnits="userSpaceOnUse"><path d="M 0,422.39 H 838.228 V 0 H 0 Z" transform="translate(-800.1049,-363.19731)"></path></clipPath><clipPath clipPathUnits="userSpaceOnUse"><path d="M 0,422.39 H 838.228 V 0 H 0 Z" transform="translate(-680.51212,-302.16611)"></path></clipPath><clipPath clipPathUnits="userSpaceOnUse"><path d="M 0,422.39 H 838.228 V 0 H 0 Z" transform="translate(-740.30902,-302.02641)"></path></clipPath><clipPath clipPathUnits="userSpaceOnUse"><path d="M 0,422.39 H 838.228 V 0 H 0 Z" transform="translate(-800.1049,-302.16611)"></path></clipPath><clipPath clipPathUnits="userSpaceOnUse"><path d="M 0,422.39 H 838.228 V 0 H 0 Z" transform="translate(-680.51212,-241.1724)"></path></clipPath><clipPath clipPathUnits="userSpaceOnUse"><path d="M 0,422.39 H 838.228 V 0 H 0 Z" transform="translate(-740.30902,-241.0332)"></path></clipPath><clipPath clipPathUnits="userSpaceOnUse"><path d="M 0,422.39 H 838.228 V 0 H 0 Z" transform="translate(-800.1049,-241.1724)"></path></clipPath><clipPath clipPathUnits="userSpaceOnUse"><path d="M 0,422.39 H 838.228 V 0 H 0 Z" transform="translate(-680.59121,-179.9307)"></path></clipPath><clipPath clipPathUnits="userSpaceOnUse"><path d="M 0,422.39 H 838.228 V 0 H 0 Z" transform="translate(-740.38712,-179.7911)"></path></clipPath><clipPath clipPathUnits="userSpaceOnUse"><path d="M 0,422.39 H 838.228 V 0 H 0 Z" transform="translate(-800.18402,-179.9307)"></path></clipPath><clipPath clipPathUnits="userSpaceOnUse"><path d="M 0,422.39 H 838.228 V 0 H 0 Z" transform="translate(-620.67611,-180.2793)"></path></clipPath><clipPath clipPathUnits="userSpaceOnUse"><path d="M 0,422.39 H 838.228 V 0 H 0 Z" transform="translate(-740.34802,-118.4991)"></path></clipPath><clipPath clipPathUnits="userSpaceOnUse"><path d="M 0,422.39 H 838.228 V 0 H 0 Z" transform="translate(-800.14495,-118.63871)"></path></clipPath><clipPath clipPathUnits="userSpaceOnUse"><path d="M 0,422.39 H 838.228 V 0 H 0 Z" transform="translate(-381.52971,-302.30571)"></path></clipPath><clipPath clipPathUnits="userSpaceOnUse"><path d="M 0,422.39 H 838.228 V 0 H 0 Z" transform="translate(-441.32651,-302.30571)"></path></clipPath><clipPath clipPathUnits="userSpaceOnUse"><path d="M 0,422.39 H 838.228 V 0 H 0 Z" transform="translate(-501.12241,-302.30571)"></path></clipPath><clipPath clipPathUnits="userSpaceOnUse"><path d="M 0,422.39 H 838.228 V 0 H 0 Z" transform="translate(-560.91931,-302.16611)"></path></clipPath><clipPath clipPathUnits="userSpaceOnUse"><path d="M 0,422.39 H 838.228 V 0 H 0 Z" transform="translate(-381.52971,-241.22271)"></path></clipPath><clipPath clipPathUnits="userSpaceOnUse"><path d="M 0,422.39 H 838.228 V 0 H 0 Z" transform="translate(-441.32651,-241.22271)"></path></clipPath><clipPath clipPathUnits="userSpaceOnUse"><path d="M 0,422.39 H 838.228 V 0 H 0 Z" transform="translate(-501.12241,-241.08311)"></path></clipPath><clipPath clipPathUnits="userSpaceOnUse"><path d="M 0,422.39 H 838.228 V 0 H 0 Z" transform="translate(-560.91931,-241.22271)"></path></clipPath><clipPath clipPathUnits="userSpaceOnUse"><path d="M 0,422.39 H 838.228 V 0 H 0 Z" transform="translate(-620.71522,-302.72421)"></path></clipPath><clipPath clipPathUnits="userSpaceOnUse"><path d="M 0,422.39 H 838.228 V 0 H 0 Z" transform="translate(-381.52971,-180.0005)"></path></clipPath><clipPath clipPathUnits="userSpaceOnUse"><path d="M 0,422.39 H 838.228 V 0 H 0 Z" transform="translate(-441.32651,-180.0005)"></path></clipPath><clipPath clipPathUnits="userSpaceOnUse"><path d="M 0,422.39 H 838.228 V 0 H 0 Z" transform="translate(-501.12241,-179.86091)"></path></clipPath><clipPath clipPathUnits="userSpaceOnUse"><path d="M 0,422.39 H 838.228 V 0 H 0 Z" transform="translate(-560.91931,-180.0005)"></path></clipPath><clipPath clipPathUnits="userSpaceOnUse"><path d="M 0,422.39 H 838.228 V 0 H 0 Z" transform="translate(-620.71522,-241.5015)"></path></clipPath><clipPath clipPathUnits="userSpaceOnUse"><path d="M 0,422.39 H 838.228 V 0 H 0 Z" transform="translate(-381.52971,-118.63871)"></path></clipPath><clipPath clipPathUnits="userSpaceOnUse"><path d="M 0,422.39 H 838.228 V 0 H 0 Z" transform="translate(-441.32651,-118.63871)"></path></clipPath><clipPath clipPathUnits="userSpaceOnUse"><path d="M 0,422.39 H 838.228 V 0 H 0 Z" transform="translate(-501.12241,-118.4991)"></path></clipPath><clipPath clipPathUnits="userSpaceOnUse"><path d="M 0,422.39 H 838.228 V 0 H 0 Z" transform="translate(-680.59121,-118.4991)"></path></clipPath><clipPath clipPathUnits="userSpaceOnUse"><path d="M 0,422.39 H 838.228 V 0 H 0 Z" transform="translate(-740.34802,-57.067401)"></path></clipPath><clipPath clipPathUnits="userSpaceOnUse"><path d="M 0,422.39 H 838.228 V 0 H 0 Z" transform="translate(-800.14495,-57.207104)"></path></clipPath><clipPath clipPathUnits="userSpaceOnUse" id="a"><path d="M 0,422.39 H 838.228 V 0 H 0 Z" transform="translate(-680.59121,-57.067401)"></path></clipPath><clipPath clipPathUnits="userSpaceOnUse"><path d="M 0,422.39 H 838.228 V 0 H 0 Z" transform="translate(-620.67611,-57.136799)"></path></clipPath><clipPath clipPathUnits="userSpaceOnUse"><path d="M 0,422.39 H 838.228 V 0 H 0 Z" transform="translate(-560.97502,-57.136799)"></path></clipPath><clipPath clipPathUnits="userSpaceOnUse"><path d="M 0,422.39 H 838.228 V 0 H 0 Z" transform="translate(-321.60441,-57.136799)"></path></clipPath><clipPath clipPathUnits="userSpaceOnUse"><path d="M 0,422.39 H 838.228 V 0 H 0 Z" transform="translate(-381.40121,-57.136799)"></path></clipPath><clipPath clipPathUnits="userSpaceOnUse"><path d="M 0,422.39 H 838.228 V 0 H 0 Z" transform="translate(-441.19761,-56.998101)"></path></clipPath><clipPath clipPathUnits="userSpaceOnUse"><path d="M 0,422.39 H 838.228 V 0 H 0 Z" transform="translate(-500.99452,-57.136799)"></path></clipPath><clipPath clipPathUnits="userSpaceOnUse"><path d="M 0,422.39 H 838.228 V 0 H 0 Z" transform="translate(-620.71522,-118.63871)"></path></clipPath><clipPath clipPathUnits="userSpaceOnUse"><path d="M 0,422.39 H 838.228 V 0 H 0 Z" transform="translate(-282.4891,-363.05771)"></path></clipPath><clipPath clipPathUnits="userSpaceOnUse"><path d="M 0,422.39 H 838.228 V 0 H 0 Z" transform="translate(-289.3534,-363.05771)"></path></clipPath><clipPath clipPathUnits="userSpaceOnUse"><path d="M 0,422.39 H 838.228 V 0 H 0 Z" transform="translate(-296.68251,-377.25101)"></path></clipPath><clipPath clipPathUnits="userSpaceOnUse"><path d="M 0,422.39 H 838.228 V 0 H 0 Z" transform="translate(-310.09271,-367.71831)"></path></clipPath><clipPath clipPathUnits="userSpaceOnUse"><path d="M 0,422.39 H 838.228 V 0 H 0 Z" transform="translate(-310.09271,-358.32671)"></path></clipPath><clipPath clipPathUnits="userSpaceOnUse"><path d="M 0,422.39 H 838.228 V 0 H 0 Z" transform="translate(-282.1117,-352.17931)"></path></clipPath><clipPath clipPathUnits="userSpaceOnUse"><path d="M 0,422.39 H 838.228 V 0 H 0 Z" transform="translate(-57.169801,-301.59531)"></path></clipPath><clipPath clipPathUnits="userSpaceOnUse"><path d="M 0,422.39 H 838.228 V 0 H 0 Z" transform="translate(-58.519901,-306.80961)"></path></clipPath><clipPath clipPathUnits="userSpaceOnUse"><path d="M 0,422.39 H 838.228 V 0 H 0 Z" transform="translate(-65.658602,-287.89461)"></path></clipPath><clipPath clipPathUnits="userSpaceOnUse"><path d="M 0,422.39 H 838.228 V 0 H 0 Z" transform="translate(-62.802101,-312.44201)"></path></clipPath><clipPath clipPathUnits="userSpaceOnUse"><path d="M 0,422.39 H 838.228 V 0 H 0 Z" transform="translate(-51.537502,-312.44201)"></path></clipPath><clipPath clipPathUnits="userSpaceOnUse"><path d="M 0,422.39 H 838.228 V 0 H 0 Z" transform="translate(-65.135602,-306.80961)"></path></clipPath><clipPath clipPathUnits="userSpaceOnUse"><path d="M 0,422.39 H 838.228 V 0 H 0 Z" transform="translate(-46.523801,-306.80961)"></path></clipPath><clipPath clipPathUnits="userSpaceOnUse"><path d="M 0,422.39 H 838.228 V 0 H 0 Z" transform="translate(-57.169801,-314.77501)"></path></clipPath><clipPath clipPathUnits="userSpaceOnUse"><path d="M 0,422.39 H 838.228 V 0 H 0 Z" transform="translate(-51.955901,-306.80961)"></path></clipPath><clipPath clipPathUnits="userSpaceOnUse"><path d="M 0,422.39 H 838.228 V 0 H 0 Z" transform="translate(-107.73861,-301.26081)"></path></clipPath><clipPath clipPathUnits="userSpaceOnUse"><path d="M 0,422.39 H 838.228 V 0 H 0 Z" transform="translate(-115.87101,-288.59531)"></path></clipPath><clipPath clipPathUnits="userSpaceOnUse"><path d="M 0,422.39 H 838.228 V 0 H 0 Z" transform="translate(-121.1503,-301.26081)"></path></clipPath><clipPath clipPathUnits="userSpaceOnUse"><path d="M 0,422.39 H 838.228 V 0 H 0 Z" transform="translate(-129.2826,-288.59531)"></path></clipPath><clipPath clipPathUnits="userSpaceOnUse"><path d="M 0,422.39 H 838.228 V 0 H 0 Z" transform="translate(-114.4447,-316.33311)"></path></clipPath><clipPath clipPathUnits="userSpaceOnUse"><path d="M 0,422.39 H 838.228 V 0 H 0 Z" transform="translate(-111.87051,-307.58161)"></path></clipPath><clipPath clipPathUnits="userSpaceOnUse"><path d="M 0,422.39 H 838.228 V 0 H 0 Z" transform="translate(-105.1644,-292.5093)"></path></clipPath><clipPath clipPathUnits="userSpaceOnUse"><path d="M 0,422.39 H 838.228 V 0 H 0 Z" transform="translate(-166.5966,-309.03521)"></path></clipPath><clipPath clipPathUnits="userSpaceOnUse"><path d="M 0,422.39 H 838.228 V 0 H 0 Z" transform="translate(-171.3402,-306.84581)"></path></clipPath><clipPath clipPathUnits="userSpaceOnUse"><path d="M 0,422.39 H 838.228 V 0 H 0 Z" transform="translate(-180.93201,-314.31601)"></path></clipPath><clipPath clipPathUnits="userSpaceOnUse"><path d="M 0,422.39 H 838.228 V 0 H 0 Z" transform="translate(-187.1581,-303.45071)"></path></clipPath><clipPath clipPathUnits="userSpaceOnUse"><path d="M 0,422.39 H 838.228 V 0 H 0 Z" transform="translate(-184.162,-296.96051)"></path></clipPath><clipPath clipPathUnits="userSpaceOnUse"><path d="M 0,422.39 H 838.228 V 0 H 0 Z" transform="translate(-182.3143,-317.30911)"></path></clipPath><clipPath clipPathUnits="userSpaceOnUse"><path d="M 0,422.39 H 838.228 V 0 H 0 Z" transform="translate(-176.40471,-290.40441)"></path></clipPath><clipPath clipPathUnits="userSpaceOnUse"><path d="M 0,422.39 H 838.228 V 0 H 0 Z" transform="translate(-173.2333,-286.22711)"></path></clipPath><clipPath clipPathUnits="userSpaceOnUse"><path d="M 0,422.39 H 838.228 V 0 H 0 Z" transform="translate(-224.47941,-305.01471)"></path></clipPath><clipPath clipPathUnits="userSpaceOnUse"><path d="M 0,422.39 H 838.228 V 0 H 0 Z" transform="translate(-232.6117,-292.34921)"></path></clipPath><clipPath clipPathUnits="userSpaceOnUse"><path d="M 0,422.39 H 838.228 V 0 H 0 Z" transform="translate(-227.2582,-307.79351)"></path></clipPath><clipPath clipPathUnits="userSpaceOnUse"><path d="M 0,422.39 H 838.228 V 0 H 0 Z" transform="translate(-229.82601,-300.01571)"></path></clipPath><clipPath clipPathUnits="userSpaceOnUse"><path d="M 0,422.39 H 838.228 V 0 H 0 Z" transform="translate(-293.1322,-314.31891)"></path></clipPath><clipPath clipPathUnits="userSpaceOnUse"><path d="M 0,422.39 H 838.228 V 0 H 0 Z" transform="translate(-303.31871,-298.89311)"></path></clipPath><clipPath clipPathUnits="userSpaceOnUse"><path d="M 0,422.39 H 838.228 V 0 H 0 Z"></path></clipPath><clipPath clipPathUnits="userSpaceOnUse"><path d="M 0,422.39 H 838.228 V 0 H 0 Z" transform="translate(-288.36951,-291.2589)"></path></clipPath><clipPath clipPathUnits="userSpaceOnUse"><path d="M 0,422.39 H 838.228 V 0 H 0 Z" transform="translate(-301.01701,-290.59631)"></path></clipPath><clipPath clipPathUnits="userSpaceOnUse"><path d="M 0,422.39 H 838.228 V 0 H 0 Z" transform="translate(-298.8148,-290.59631)"></path></clipPath><clipPath clipPathUnits="userSpaceOnUse"><path d="M 0,422.39 H 838.228 V 0 H 0 Z" transform="translate(-296.61321,-290.59631)"></path></clipPath><clipPath clipPathUnits="userSpaceOnUse"><path d="M 0,422.39 H 838.228 V 0 H 0 Z" transform="translate(-55.722001,-256.54691)"></path></clipPath><clipPath clipPathUnits="userSpaceOnUse"><path d="M 0,422.39 H 838.228 V 0 H 0 Z" transform="translate(-47.947601,-246.375)"></path></clipPath><clipPath clipPathUnits="userSpaceOnUse"><path d="M 0,422.39 H 838.228 V 0 H 0 Z" transform="translate(-55.722001,-256.54691)"></path></clipPath><clipPath clipPathUnits="userSpaceOnUse"><path d="M 0,422.39 H 838.228 V 0 H 0 Z" transform="translate(-47.947601,-246.375)"></path></clipPath><clipPath clipPathUnits="userSpaceOnUse"><path d="M 0,422.39 H 838.228 V 0 H 0 Z" transform="translate(-62.786002,-253.76811)"></path></clipPath><clipPath clipPathUnits="userSpaceOnUse"><path d="M 0,422.39 H 838.228 V 0 H 0 Z" transform="translate(-70.918302,-241.10261)"></path></clipPath><clipPath clipPathUnits="userSpaceOnUse"><path d="M 0,422.39 H 838.228 V 0 H 0 Z" transform="translate(-45.007701,-241.15971)"></path></clipPath><clipPath clipPathUnits="userSpaceOnUse"><path d="M 0,422.39 H 838.228 V 0 H 0 Z" transform="translate(-53.140001,-228.49421)"></path></clipPath><clipPath clipPathUnits="userSpaceOnUse"><path d="M 0,422.39 H 838.228 V 0 H 0 Z" transform="translate(-60.569702,-228.06551)"></path></clipPath><clipPath clipPathUnits="userSpaceOnUse"><path d="M 0,422.39 H 838.228 V 0 H 0 Z" transform="translate(-68.344102,-238.23741)"></path></clipPath><clipPath clipPathUnits="userSpaceOnUse"><path d="M 0,422.39 H 838.228 V 0 H 0 Z" transform="translate(-119.3602,-238.92881)"></path></clipPath><clipPath clipPathUnits="userSpaceOnUse"><path d="M 0,422.39 H 838.228 V 0 H 0 Z" transform="translate(-119.6185,-248.2935)"></path></clipPath><clipPath clipPathUnits="userSpaceOnUse"><path d="M 0,422.39 H 838.228 V 0 H 0 Z" transform="translate(-107.2621,-234.81401)"></path></clipPath><clipPath clipPathUnits="userSpaceOnUse"><path d="M 0,422.39 H 838.228 V 0 H 0 Z" transform="translate(-115.5165,-235.3179)"></path></clipPath><clipPath clipPathUnits="userSpaceOnUse"><path d="M 0,422.39 H 838.228 V 0 H 0 Z" transform="translate(-191.43051,-243.6075)"></path></clipPath><clipPath clipPathUnits="userSpaceOnUse"><path d="M 0,422.39 H 838.228 V 0 H 0 Z" transform="translate(-183.9496,-238.99911)"></path></clipPath><clipPath clipPathUnits="userSpaceOnUse"><path d="M 0,422.39 H 838.228 V 0 H 0 Z" transform="translate(-225.7333,-255.75491)"></path></clipPath><clipPath clipPathUnits="userSpaceOnUse"><path d="M 0,422.39 H 838.228 V 0 H 0 Z" transform="translate(-247.89981,-226.5513)"></path></clipPath><clipPath clipPathUnits="userSpaceOnUse"><path d="M 0,422.39 H 838.228 V 0 H 0 Z" transform="translate(-247.89981,-233.5884)"></path></clipPath><clipPath clipPathUnits="userSpaceOnUse"><path d="M 0,422.39 H 838.228 V 0 H 0 Z" transform="translate(-225.7333,-248.71731)"></path></clipPath><clipPath clipPathUnits="userSpaceOnUse"><path d="M 0,422.39 H 838.228 V 0 H 0 Z" transform="translate(-307.43881,-194.73251)"></path></clipPath><clipPath clipPathUnits="userSpaceOnUse"><path d="M 0,422.39 H 838.228 V 0 H 0 Z" transform="translate(-309.05211,-183.75791)"></path></clipPath><clipPath clipPathUnits="userSpaceOnUse"><path d="M 0,422.39 H 838.228 V 0 H 0 Z" transform="translate(-282.01111,-241.1529)"></path></clipPath><clipPath clipPathUnits="userSpaceOnUse"><path d="M 0,422.39 H 838.228 V 0 H 0 Z" transform="translate(-296.61321,-252.96641)"></path></clipPath><clipPath clipPathUnits="userSpaceOnUse"><path d="M 0,422.39 H 838.228 V 0 H 0 Z" transform="translate(-296.61321,-232.06941)"></path></clipPath><clipPath clipPathUnits="userSpaceOnUse"><path d="M 0,422.39 H 838.228 V 0 H 0 Z" transform="translate(-284.7997,-241.1529)"></path></clipPath><clipPath clipPathUnits="userSpaceOnUse"><path d="M 0,422.39 H 838.228 V 0 H 0 Z" transform="translate(-305.69671,-241.1529)"></path></clipPath><clipPath clipPathUnits="userSpaceOnUse"><path d="M 0,422.39 H 838.228 V 0 H 0 Z" transform="translate(-291.78111,-245.4063)"></path></clipPath><clipPath clipPathUnits="userSpaceOnUse"><path d="M 0,422.39 H 838.228 V 0 H 0 Z" transform="translate(-295.03111,-241.1529)"></path></clipPath><clipPath clipPathUnits="userSpaceOnUse"><path d="M 0,422.39 H 838.228 V 0 H 0 Z" transform="translate(-53.708902,-188.232)"></path></clipPath><clipPath clipPathUnits="userSpaceOnUse"><path d="M 0,422.39 H 838.228 V 0 H 0 Z" transform="translate(-63.895402,-172.8062)"></path></clipPath><clipPath clipPathUnits="userSpaceOnUse"><path d="M 0,422.39 H 838.228 V 0 H 0 Z" transform="translate(-64.731802,-185.4717)"></path></clipPath><clipPath clipPathUnits="userSpaceOnUse"><path d="M 0,422.39 H 838.228 V 0 H 0 Z" transform="translate(-63.721601,-179.8536)"></path></clipPath><clipPath clipPathUnits="userSpaceOnUse"><path d="M 0,422.39 H 838.228 V 0 H 0 Z" transform="translate(-44.089701,-185.4717)"></path></clipPath><clipPath clipPathUnits="userSpaceOnUse"><path d="M 0,422.39 H 838.228 V 0 H 0 Z" transform="translate(-50.483801,-172.8062)"></path></clipPath><clipPath clipPathUnits="userSpaceOnUse"><path d="M 0,422.39 H 838.228 V 0 H 0 Z"></path></clipPath><clipPath clipPathUnits="userSpaceOnUse"><path d="M 0,422.39 H 838.228 V 0 H 0 Z" transform="translate(-116.9662,-186.8409)"></path></clipPath><clipPath clipPathUnits="userSpaceOnUse"><path d="M 0,422.39 H 838.228 V 0 H 0 Z" transform="translate(-119.9994,-184.28081)"></path></clipPath><clipPath clipPathUnits="userSpaceOnUse"><path d="M 0,422.39 H 838.228 V 0 H 0 Z"></path></clipPath><clipPath clipPathUnits="userSpaceOnUse"><path d="M 0,422.39 H 838.228 V 0 H 0 Z" transform="translate(-128.38221,-172.96781)"></path></clipPath><clipPath clipPathUnits="userSpaceOnUse"><path d="M 0,422.39 H 838.228 V 0 H 0 Z" transform="translate(-131.41491,-170.4078)"></path></clipPath><clipPath clipPathUnits="userSpaceOnUse"><path d="M 0,422.39 H 838.228 V 0 H 0 Z"></path></clipPath><clipPath clipPathUnits="userSpaceOnUse"><path d="M 0,422.39 H 838.228 V 0 H 0 Z" transform="translate(-105.3978,-172.96781)"></path></clipPath><clipPath clipPathUnits="userSpaceOnUse"><path d="M 0,422.39 H 838.228 V 0 H 0 Z" transform="translate(-108.43101,-170.4078)"></path></clipPath><clipPath clipPathUnits="userSpaceOnUse"><path d="M 0,422.39 H 838.228 V 0 H 0 Z" transform="translate(-106.41591,-188.12411)"></path></clipPath><clipPath clipPathUnits="userSpaceOnUse"><path d="M 0,422.39 H 838.228 V 0 H 0 Z" transform="translate(-114.3397,-167.59721)"></path></clipPath><clipPath clipPathUnits="userSpaceOnUse"><path d="M 0,422.39 H 838.228 V 0 H 0 Z" transform="translate(-118.2723,-167.59721)"></path></clipPath><clipPath clipPathUnits="userSpaceOnUse"><path d="M 0,422.39 H 838.228 V 0 H 0 Z" transform="translate(-121.91301,-168.7637)"></path></clipPath><clipPath clipPathUnits="userSpaceOnUse"><path d="M 0,422.39 H 838.228 V 0 H 0 Z" transform="translate(-110.7699,-168.7637)"></path></clipPath><clipPath clipPathUnits="userSpaceOnUse"><path d="M 0,422.39 H 838.228 V 0 H 0 Z" transform="translate(-126.2484,-188.12411)"></path></clipPath><clipPath clipPathUnits="userSpaceOnUse"><path d="M 0,422.39 H 838.228 V 0 H 0 Z" transform="translate(-104.58921,-185.16461)"></path></clipPath><clipPath clipPathUnits="userSpaceOnUse"><path d="M 0,422.39 H 838.228 V 0 H 0 Z" transform="translate(-128.0433,-185.16461)"></path></clipPath><clipPath clipPathUnits="userSpaceOnUse"><path d="M 0,422.39 H 838.228 V 0 H 0 Z" transform="translate(-49.186901,-68.217802)"></path></clipPath><clipPath clipPathUnits="userSpaceOnUse"><path d="M 0,422.39 H 838.228 V 0 H 0 Z" transform="translate(-54.542801,-44.124104)"></path></clipPath><clipPath clipPathUnits="userSpaceOnUse"><path d="M 0,422.39 H 838.228 V 0 H 0 Z" transform="translate(-58.476001,-44.124104)"></path></clipPath><clipPath clipPathUnits="userSpaceOnUse"><path d="M 0,422.39 H 838.228 V 0 H 0 Z" transform="translate(-62.116102,-45.290099)"></path></clipPath><clipPath clipPathUnits="userSpaceOnUse"><path d="M 0,422.39 H 838.228 V 0 H 0 Z" transform="translate(-50.973001,-45.290099)"></path></clipPath><clipPath clipPathUnits="userSpaceOnUse"><path d="M 0,422.39 H 838.228 V 0 H 0 Z" transform="translate(-63.877802,-68.224702)"></path></clipPath><clipPath clipPathUnits="userSpaceOnUse"><path d="M 0,422.39 H 838.228 V 0 H 0 Z" transform="translate(-46.792801,-66.091904)"></path></clipPath><clipPath clipPathUnits="userSpaceOnUse"><path d="M 0,422.39 H 838.228 V 0 H 0 Z" transform="translate(-66.246902,-66.091904)"></path></clipPath><clipPath clipPathUnits="userSpaceOnUse"><path d="M 0,422.39 H 838.228 V 0 H 0 Z" transform="translate(-166.27821,-181.59821)"></path></clipPath><clipPath clipPathUnits="userSpaceOnUse"><path d="M 0,422.39 H 838.228 V 0 H 0 Z" transform="translate(-174.4105,-168.9327)"></path></clipPath><clipPath clipPathUnits="userSpaceOnUse"><path d="M 0,422.39 H 838.228 V 0 H 0 Z" transform="translate(-181.68981,-181.59821)"></path></clipPath><clipPath clipPathUnits="userSpaceOnUse"><path d="M 0,422.39 H 838.228 V 0 H 0 Z" transform="translate(-189.8221,-168.9327)"></path></clipPath><clipPath clipPathUnits="userSpaceOnUse"><path d="M 0,422.39 H 838.228 V 0 H 0 Z" transform="translate(-176.7631,-184.8194)"></path></clipPath><clipPath clipPathUnits="userSpaceOnUse"><path d="M 0,422.39 H 838.228 V 0 H 0 Z" transform="translate(-178.0956,-188.85311)"></path></clipPath><clipPath clipPathUnits="userSpaceOnUse"><path d="M 0,422.39 H 838.228 V 0 H 0 Z" transform="translate(-178.09611,-182.9024)"></path></clipPath><clipPath clipPathUnits="userSpaceOnUse"><path d="M 0,422.39 H 838.228 V 0 H 0 Z" transform="translate(-178.09611,-181.065)"></path></clipPath><clipPath clipPathUnits="userSpaceOnUse"><path d="M 0,422.39 H 838.228 V 0 H 0 Z" transform="translate(-181.12,-193.2105)"></path></clipPath><clipPath clipPathUnits="userSpaceOnUse"><path d="M 0,422.39 H 838.228 V 0 H 0 Z" transform="translate(-172.4056,-193.2105)"></path></clipPath><clipPath clipPathUnits="userSpaceOnUse"><path d="M 0,422.39 H 838.228 V 0 H 0 Z" transform="translate(-182.92521,-188.85311)"></path></clipPath><clipPath clipPathUnits="userSpaceOnUse"><path d="M 0,422.39 H 838.228 V 0 H 0 Z" transform="translate(-168.52671,-188.85311)"></path></clipPath><clipPath clipPathUnits="userSpaceOnUse"><path d="M 0,422.39 H 838.228 V 0 H 0 Z" transform="translate(-176.7631,-195.0152)"></path></clipPath><clipPath clipPathUnits="userSpaceOnUse"><path d="M 0,422.39 H 838.228 V 0 H 0 Z" transform="translate(-172.72941,-188.85311)"></path></clipPath><clipPath clipPathUnits="userSpaceOnUse"><path d="M 0,422.39 H 838.228 V 0 H 0 Z" transform="translate(-236.67321,-188.2046)"></path></clipPath><clipPath clipPathUnits="userSpaceOnUse"><path d="M 0,422.39 H 838.228 V 0 H 0 Z" transform="translate(-244.31871,-178.75301)"></path></clipPath><clipPath clipPathUnits="userSpaceOnUse"><path d="M 0,422.39 H 838.228 V 0 H 0 Z" transform="translate(-225.4198,-195.8526)"></path></clipPath><clipPath clipPathUnits="userSpaceOnUse"><path d="M 0,422.39 H 838.228 V 0 H 0 Z" transform="translate(-170.7103,-67.589902)"></path></clipPath><clipPath clipPathUnits="userSpaceOnUse"><path d="M 0,422.39 H 838.228 V 0 H 0 Z" transform="translate(-176.80461,-56.328201)"></path></clipPath><clipPath clipPathUnits="userSpaceOnUse"><path d="M 0,422.39 H 838.228 V 0 H 0 Z" transform="translate(-179.2968,-67.589902)"></path></clipPath><clipPath clipPathUnits="userSpaceOnUse"><path d="M 0,422.39 H 838.228 V 0 H 0 Z" transform="translate(-174.0687,-67.589902)"></path></clipPath><clipPath clipPathUnits="userSpaceOnUse"><path d="M 0,422.39 H 838.228 V 0 H 0 Z" transform="translate(-46.046801,-116.1212)"></path></clipPath><clipPath clipPathUnits="userSpaceOnUse"><path d="M 0,422.39 H 838.228 V 0 H 0 Z" transform="translate(-64.073102,-113.89751)"></path></clipPath><clipPath clipPathUnits="userSpaceOnUse"><path d="M 0,422.39 H 838.228 V 0 H 0 Z" transform="translate(-125.869,-119.17391)"></path></clipPath><clipPath clipPathUnits="userSpaceOnUse"><path d="M 0,422.39 H 838.228 V 0 H 0 Z" transform="translate(-106.64781,-106.7208)"></path></clipPath><clipPath clipPathUnits="userSpaceOnUse"><path d="M 0,422.39 H 838.228 V 0 H 0 Z" transform="translate(-114.4369,-125.87951)"></path></clipPath><clipPath clipPathUnits="userSpaceOnUse"><path d="M 0,422.39 H 838.228 V 0 H 0 Z" transform="translate(-118.9594,-125.87951)"></path></clipPath><clipPath clipPathUnits="userSpaceOnUse"><path d="M 0,422.39 H 838.228 V 0 H 0 Z" transform="translate(-123.48231,-125.87951)"></path></clipPath><clipPath clipPathUnits="userSpaceOnUse"><path d="M 0,422.39 H 838.228 V 0 H 0 Z" transform="translate(-244.69621,-49.610399)"></path></clipPath><clipPath clipPathUnits="userSpaceOnUse"><path d="M 0,422.39 H 838.228 V 0 H 0 Z" transform="translate(-229.40521,-58.579199)"></path></clipPath><clipPath clipPathUnits="userSpaceOnUse"><path d="M 0,422.39 H 838.228 V 0 H 0 Z" transform="translate(-235.4545,-58.579199)"></path></clipPath><clipPath clipPathUnits="userSpaceOnUse"><path d="M 0,422.39 H 838.228 V 0 H 0 Z" transform="translate(-241.50331,-58.579199)"></path></clipPath><clipPath clipPathUnits="userSpaceOnUse"><path d="M 0,422.39 H 838.228 V 0 H 0 Z" transform="translate(-170.9193,-111.17)"></path></clipPath><clipPath clipPathUnits="userSpaceOnUse"><path d="M 0,422.39 H 838.228 V 0 H 0 Z" transform="translate(-160.0731,-125.01131)"></path></clipPath><clipPath clipPathUnits="userSpaceOnUse"><path d="M 0,422.39 H 838.228 V 0 H 0 Z" transform="translate(-176.1376,-130.9341)"></path></clipPath><clipPath clipPathUnits="userSpaceOnUse"><path d="M 0,422.39 H 838.228 V 0 H 0 Z" transform="translate(-172.8505,-127.4976)"></path></clipPath><clipPath clipPathUnits="userSpaceOnUse"><path d="M 0,422.39 H 838.228 V 0 H 0 Z" transform="translate(-173.7001,-117.63581)"></path></clipPath><clipPath clipPathUnits="userSpaceOnUse"><path d="M 0,422.39 H 838.228 V 0 H 0 Z" transform="translate(-177.0546,-114.22961)"></path></clipPath><clipPath clipPathUnits="userSpaceOnUse"><path d="M 0,422.39 H 838.228 V 0 H 0 Z" transform="translate(-174.4803,-104.0411)"></path></clipPath><clipPath clipPathUnits="userSpaceOnUse"><path d="M 0,422.39 H 838.228 V 0 H 0 Z" transform="translate(-164.77821,-127.21001)"></path></clipPath><clipPath clipPathUnits="userSpaceOnUse"><path d="M 0,422.39 H 838.228 V 0 H 0 Z" transform="translate(-162.7972,-119.6534)"></path></clipPath><clipPath clipPathUnits="userSpaceOnUse"><path d="M 0,422.39 H 838.228 V 0 H 0 Z" transform="translate(-180.0912,-132.5787)"></path></clipPath><clipPath clipPathUnits="userSpaceOnUse"><path d="M 0,422.39 H 838.228 V 0 H 0 Z" transform="translate(-178.3021,-126.6797)"></path></clipPath><clipPath clipPathUnits="userSpaceOnUse"><path d="M 0,422.39 H 838.228 V 0 H 0 Z" transform="translate(-245.88321,-115.43951)"></path></clipPath><clipPath clipPathUnits="userSpaceOnUse"><path d="M 0,422.39 H 838.228 V 0 H 0 Z" transform="translate(-237.01551,-120.9678)"></path></clipPath><clipPath clipPathUnits="userSpaceOnUse"><path d="M 0,422.39 H 838.228 V 0 H 0 Z" transform="translate(-232.49301,-111.4854)"></path></clipPath><clipPath clipPathUnits="userSpaceOnUse"><path d="M 0,422.39 H 838.228 V 0 H 0 Z" transform="translate(-234.95541,-129.8184)"></path></clipPath><clipPath clipPathUnits="userSpaceOnUse"><path d="M 0,422.39 H 838.228 V 0 H 0 Z" transform="translate(-233.98671,-133.98101)"></path></clipPath><clipPath clipPathUnits="userSpaceOnUse"><path d="M 0,422.39 H 838.228 V 0 H 0 Z" transform="translate(-240.13611,-104.58311)"></path></clipPath><clipPath clipPathUnits="userSpaceOnUse"><path d="M 0,422.39 H 838.228 V 0 H 0 Z" transform="translate(-306.14931,-107.15531)"></path></clipPath><clipPath clipPathUnits="userSpaceOnUse"><path d="M 0,422.39 H 838.228 V 0 H 0 Z" transform="translate(-291.34701,-128.40041)"></path></clipPath><clipPath clipPathUnits="userSpaceOnUse"><path d="M 0,422.39 H 838.228 V 0 H 0 Z" transform="translate(-418.68491,-232.10801)"></path></clipPath><clipPath clipPathUnits="userSpaceOnUse"><path d="M 0,422.39 H 838.228 V 0 H 0 Z" transform="translate(-410.77431,-250.52351)"></path></clipPath><clipPath clipPathUnits="userSpaceOnUse"><path d="M 0,422.39 H 838.228 V 0 H 0 Z" transform="translate(-65.806502,-60.537202)"></path></clipPath><clipPath clipPathUnits="userSpaceOnUse"><path d="M 0,422.39 H 838.228 V 0 H 0 Z" transform="translate(-73.938802,-47.872101)"></path></clipPath><clipPath clipPathUnits="userSpaceOnUse"><path d="M 0,422.39 H 838.228 V 0 H 0 Z" transform="translate(-42.822101,-60.537202)"></path></clipPath><clipPath clipPathUnits="userSpaceOnUse"><path d="M 0,422.39 H 838.228 V 0 H 0 Z" transform="translate(-50.954501,-47.872101)"></path></clipPath><clipPath clipPathUnits="userSpaceOnUse"><path d="M 0,422.39 H 838.228 V 0 H 0 Z" transform="translate(-54.391001,-73.472699)"></path></clipPath><clipPath clipPathUnits="userSpaceOnUse"><path d="M 0,422.39 H 838.228 V 0 H 0 Z" transform="translate(-62.523302,-60.807704)"></path></clipPath><clipPath clipPathUnits="userSpaceOnUse"><path d="M 0,422.39 H 838.228 V 0 H 0 Z" transform="translate(-119.2665,-64.140704)"></path></clipPath><clipPath clipPathUnits="userSpaceOnUse"><path d="M 0,422.39 H 838.228 V 0 H 0 Z" transform="translate(-114.6522,-64.140704)"></path></clipPath><clipPath clipPathUnits="userSpaceOnUse"><path d="M 0,422.39 H 838.228 V 0 H 0 Z" transform="translate(-118.0966,-62.142599)"></path></clipPath><clipPath clipPathUnits="userSpaceOnUse"><path d="M 0,422.39 H 838.228 V 0 H 0 Z" transform="translate(-118.12191,-66.125099)"></path></clipPath><clipPath clipPathUnits="userSpaceOnUse"><path d="M 0,422.39 H 838.228 V 0 H 0 Z" transform="translate(-110.5912,-41.135804)"></path></clipPath><clipPath clipPathUnits="userSpaceOnUse"><path d="M 0,422.39 H 838.228 V 0 H 0 Z" transform="translate(-116.95941,-61.834004)"></path></clipPath><clipPath clipPathUnits="userSpaceOnUse"><path d="M 0,422.39 H 838.228 V 0 H 0 Z" transform="translate(-360.30511,-369.44051)"></path></clipPath><clipPath clipPathUnits="userSpaceOnUse"><path d="M 0,422.39 H 838.228 V 0 H 0 Z" transform="translate(-358.60581,-363.01231)"></path></clipPath><clipPath clipPathUnits="userSpaceOnUse"><path d="M 0,422.39 H 838.228 V 0 H 0 Z" transform="translate(-359.30511,-354.01471)"></path></clipPath><clipPath clipPathUnits="userSpaceOnUse"><path d="M 0,422.39 H 838.228 V 0 H 0 Z" transform="translate(-346.49401,-372.41071)"></path></clipPath><clipPath clipPathUnits="userSpaceOnUse" id="b"><path d="M 0,422.39 H 838.228 V 0 H 0 Z" transform="translate(-659.36662,-63.379904)"></path></clipPath><clipPath clipPathUnits="userSpaceOnUse" id="c"><path d="M 0,422.39 H 838.228 V 0 H 0 Z" transform="translate(-657.66742,-56.952201)"></path></clipPath><clipPath clipPathUnits="userSpaceOnUse" id="d"><path d="M 0,422.39 H 838.228 V 0 H 0 Z" transform="translate(-652.30901,-47.954204)"></path></clipPath><clipPath clipPathUnits="userSpaceOnUse" id="e"><path d="M 0,422.39 H 838.228 V 0 H 0 Z" transform="translate(-657.51892,-57.191504)"></path></clipPath><clipPath clipPathUnits="userSpaceOnUse" id="f"><path d="M 0,422.39 H 838.228 V 0 H 0 Z" transform="translate(-645.55511,-66.350602)"></path></clipPath><clipPath clipPathUnits="userSpaceOnUse"><path d="M 0,422.39 H 838.228 V 0 H 0 Z" transform="translate(-360.30511,-249.4659)"></path></clipPath><clipPath clipPathUnits="userSpaceOnUse"><path d="M 0,422.39 H 838.228 V 0 H 0 Z" transform="translate(-358.60581,-243.03761)"></path></clipPath><clipPath clipPathUnits="userSpaceOnUse"><path d="M 0,422.39 H 838.228 V 0 H 0 Z" transform="translate(-348.83191,-234.04011)"></path></clipPath><clipPath clipPathUnits="userSpaceOnUse"><path d="M 0,422.39 H 838.228 V 0 H 0 Z" transform="translate(-346.49401,-252.43611)"></path></clipPath><clipPath clipPathUnits="userSpaceOnUse"><path d="M 0,422.39 H 838.228 V 0 H 0 Z" transform="translate(-419.17571,-352.01471)"></path></clipPath><clipPath clipPathUnits="userSpaceOnUse"><path d="M 0,422.39 H 838.228 V 0 H 0 Z" transform="translate(-406.36511,-370.41071)"></path></clipPath><clipPath clipPathUnits="userSpaceOnUse"><path d="M 0,422.39 H 838.228 V 0 H 0 Z" transform="translate(-421.92471,-366.21001)"></path></clipPath><clipPath clipPathUnits="userSpaceOnUse"><path d="M 0,422.39 H 838.228 V 0 H 0 Z"></path></clipPath><clipPath clipPathUnits="userSpaceOnUse"><path d="M 0,422.39 H 838.228 V 0 H 0 Z" transform="translate(-473.22401,-368.12601)"></path></clipPath><clipPath clipPathUnits="userSpaceOnUse"><path d="M 0,422.39 H 838.228 V 0 H 0 Z" transform="translate(-481.35581,-355.46051)"></path></clipPath><clipPath clipPathUnits="userSpaceOnUse"><path d="M 0,422.39 H 838.228 V 0 H 0 Z" transform="translate(-467.04241,-363.04351)"></path></clipPath><clipPath clipPathUnits="userSpaceOnUse"><path d="M 0,422.39 H 838.228 V 0 H 0 Z" transform="translate(-467.04241,-367.28471)"></path></clipPath><clipPath clipPathUnits="userSpaceOnUse"><path d="M 0,422.39 H 838.228 V 0 H 0 Z" transform="translate(-467.04241,-371.52591)"></path></clipPath><clipPath clipPathUnits="userSpaceOnUse"><path d="M 0,422.39 H 838.228 V 0 H 0 Z" transform="translate(-467.04241,-354.56061)"></path></clipPath><clipPath clipPathUnits="userSpaceOnUse"><path d="M 0,422.39 H 838.228 V 0 H 0 Z" transform="translate(-467.04241,-358.80181)"></path></clipPath><clipPath clipPathUnits="userSpaceOnUse"><path d="M 0,422.39 H 838.228 V 0 H 0 Z" transform="translate(-548.06482,-371.74271)"></path></clipPath><clipPath clipPathUnits="userSpaceOnUse"><path d="M 0,422.39 H 838.228 V 0 H 0 Z" transform="translate(-546.11662,-363.19731)"></path></clipPath><clipPath clipPathUnits="userSpaceOnUse"><path d="M 0,422.39 H 838.228 V 0 H 0 Z" transform="translate(-541.44472,-363.19731)"></path></clipPath><clipPath clipPathUnits="userSpaceOnUse"><path d="M 0,422.39 H 838.228 V 0 H 0 Z" transform="translate(-534.21721,-363.19731)"></path></clipPath><clipPath clipPathUnits="userSpaceOnUse"><path d="M 0,422.39 H 838.228 V 0 H 0 Z" transform="translate(-535.79921,-363.19731)"></path></clipPath><clipPath clipPathUnits="userSpaceOnUse"><path d="M 0,422.39 H 838.228 V 0 H 0 Z" transform="translate(-547.82951,-378.94781)"></path></clipPath><clipPath clipPathUnits="userSpaceOnUse"><path d="M 0,422.39 H 838.228 V 0 H 0 Z" transform="translate(-595.59611,-375.08801)"></path></clipPath><clipPath clipPathUnits="userSpaceOnUse"><path d="M 0,422.39 H 838.228 V 0 H 0 Z" transform="translate(-605.16641,-363.65441)"></path></clipPath><clipPath clipPathUnits="userSpaceOnUse"><path d="M 0,422.39 H 838.228 V 0 H 0 Z" transform="translate(-610.07561,-365.80431)"></path></clipPath><clipPath clipPathUnits="userSpaceOnUse"><path d="M 0,422.39 H 838.228 V 0 H 0 Z" transform="translate(-608.15272,-357.67441)"></path></clipPath><clipPath clipPathUnits="userSpaceOnUse"><path d="M 0,422.39 H 838.228 V 0 H 0 Z" transform="translate(-352.03991,-313.55281)"></path></clipPath><clipPath clipPathUnits="userSpaceOnUse"><path d="M 0,422.39 H 838.228 V 0 H 0 Z" transform="translate(-356.42471,-316.47911)"></path></clipPath><clipPath clipPathUnits="userSpaceOnUse"><path d="M 0,422.39 H 838.228 V 0 H 0 Z" transform="translate(-411.22991,-312.86821)"></path></clipPath><clipPath clipPathUnits="userSpaceOnUse"><path d="M 0,422.39 H 838.228 V 0 H 0 Z" transform="translate(-416.20591,-294.44391)"></path></clipPath><clipPath clipPathUnits="userSpaceOnUse"><path d="M 0,422.39 H 838.228 V 0 H 0 Z" transform="translate(-413.42711,-291.66461)"></path></clipPath><clipPath clipPathUnits="userSpaceOnUse"><path d="M 0,422.39 H 838.228 V 0 H 0 Z" transform="translate(-404.42711,-291.66461)"></path></clipPath><clipPath clipPathUnits="userSpaceOnUse"><path d="M 0,422.39 H 838.228 V 0 H 0 Z" transform="translate(-422.42711,-291.66461)"></path></clipPath><clipPath clipPathUnits="userSpaceOnUse"><path d="M 0,422.39 H 838.228 V 0 H 0 Z" transform="translate(-425.20641,-294.44391)"></path></clipPath><clipPath clipPathUnits="userSpaceOnUse"><path d="M 0,422.39 H 838.228 V 0 H 0 Z" transform="translate(-469.26311,-315.35651)"></path></clipPath><clipPath clipPathUnits="userSpaceOnUse"><path d="M 0,422.39 H 838.228 V 0 H 0 Z" transform="translate(-477.53751,-312.98491)"></path></clipPath><clipPath clipPathUnits="userSpaceOnUse"><path d="M 0,422.39 H 838.228 V 0 H 0 Z" transform="translate(-467.65861,-310.67191)"></path></clipPath><clipPath clipPathUnits="userSpaceOnUse"><path d="M 0,422.39 H 838.228 V 0 H 0 Z" transform="translate(-467.65861,-293.93901)"></path></clipPath><clipPath clipPathUnits="userSpaceOnUse"><path d="M 0,422.39 H 838.228 V 0 H 0 Z" transform="translate(-474.86951,-291.57141)"></path></clipPath><clipPath clipPathUnits="userSpaceOnUse"><path d="M 0,422.39 H 838.228 V 0 H 0 Z"></path></clipPath><clipPath clipPathUnits="userSpaceOnUse"><path d="M 0,422.39 H 838.228 V 0 H 0 Z" transform="translate(-523.90762,-313.44731)"></path></clipPath><clipPath clipPathUnits="userSpaceOnUse"><path d="M 0,422.39 H 838.228 V 0 H 0 Z" transform="translate(-539.70541,-298.75841)"></path></clipPath><clipPath clipPathUnits="userSpaceOnUse"><path d="M 0,422.39 H 838.228 V 0 H 0 Z" transform="translate(-537.49651,-298.75841)"></path></clipPath><clipPath clipPathUnits="userSpaceOnUse"><path d="M 0,422.39 H 838.228 V 0 H 0 Z" transform="translate(-541.91351,-298.75841)"></path></clipPath><clipPath clipPathUnits="userSpaceOnUse"><path d="M 0,422.39 H 838.228 V 0 H 0 Z" transform="translate(-544.12241,-298.75841)"></path></clipPath><clipPath clipPathUnits="userSpaceOnUse"><path d="M 0,422.39 H 838.228 V 0 H 0 Z" transform="translate(-535.28752,-298.75841)"></path></clipPath><clipPath clipPathUnits="userSpaceOnUse"><path d="M 0,422.39 H 838.228 V 0 H 0 Z" transform="translate(-535.79921,-295.44641)"></path></clipPath><clipPath clipPathUnits="userSpaceOnUse"><path d="M 0,422.39 H 838.228 V 0 H 0 Z" transform="translate(-529.68491,-289.70121)"></path></clipPath><clipPath clipPathUnits="userSpaceOnUse"><path d="M 0,422.39 H 838.228 V 0 H 0 Z" transform="translate(-348.83191,-234.06941)"></path></clipPath><clipPath clipPathUnits="userSpaceOnUse"><path d="M 0,422.39 H 838.228 V 0 H 0 Z" transform="translate(-359.47841,-229.65971)"></path></clipPath><clipPath clipPathUnits="userSpaceOnUse"><path d="M 0,422.39 H 838.228 V 0 H 0 Z" transform="translate(-418.68491,-232.10801)"></path></clipPath><clipPath clipPathUnits="userSpaceOnUse"><path d="M 0,422.39 H 838.228 V 0 H 0 Z" transform="translate(-426.06871,-232.10801)"></path></clipPath><clipPath clipPathUnits="userSpaceOnUse"><path d="M 0,422.39 H 838.228 V 0 H 0 Z" transform="translate(-423.60391,-234.57281)"></path></clipPath><clipPath clipPathUnits="userSpaceOnUse"><path d="M 0,422.39 H 838.228 V 0 H 0 Z" transform="translate(-473.83531,-256.7427)"></path></clipPath><clipPath clipPathUnits="userSpaceOnUse"><path d="M 0,422.39 H 838.228 V 0 H 0 Z" transform="translate(-480.17711,-246.8667)"></path></clipPath><clipPath clipPathUnits="userSpaceOnUse"><path d="M 0,422.39 H 838.228 V 0 H 0 Z"></path></clipPath><clipPath clipPathUnits="userSpaceOnUse"><path d="M 0,422.39 H 838.228 V 0 H 0 Z" transform="translate(-476.00231,-236.53181)"></path></clipPath><clipPath clipPathUnits="userSpaceOnUse"><path d="M 0,422.39 H 838.228 V 0 H 0 Z" transform="translate(-478.36761,-233.53521)"></path></clipPath><clipPath clipPathUnits="userSpaceOnUse"><path d="M 0,422.39 H 838.228 V 0 H 0 Z" transform="translate(-476.00231,-246.8667)"></path></clipPath><clipPath clipPathUnits="userSpaceOnUse"><path d="M 0,422.39 H 838.228 V 0 H 0 Z" transform="translate(-461.58921,-239.75741)"></path></clipPath><clipPath clipPathUnits="userSpaceOnUse"><path d="M 0,422.39 H 838.228 V 0 H 0 Z" transform="translate(-467.93011,-229.88141)"></path></clipPath><clipPath clipPathUnits="userSpaceOnUse"><path d="M 0,422.39 H 838.228 V 0 H 0 Z" transform="translate(-486.08241,-239.75741)"></path></clipPath><clipPath clipPathUnits="userSpaceOnUse"><path d="M 0,422.39 H 838.228 V 0 H 0 Z" transform="translate(-492.42421,-229.88141)"></path></clipPath><clipPath clipPathUnits="userSpaceOnUse"><path d="M 0,422.39 H 838.228 V 0 H 0 Z" transform="translate(-481.50621,-236.53181)"></path></clipPath><clipPath clipPathUnits="userSpaceOnUse"><path d="M 0,422.39 H 838.228 V 0 H 0 Z" transform="translate(-467.27971,-234.81501)"></path></clipPath><clipPath clipPathUnits="userSpaceOnUse"><path d="M 0,422.39 H 838.228 V 0 H 0 Z" transform="translate(-543.93592,-232.7466)"></path></clipPath><clipPath clipPathUnits="userSpaceOnUse"><path d="M 0,422.39 H 838.228 V 0 H 0 Z" transform="translate(-533.01991,-244.71831)"></path></clipPath><clipPath clipPathUnits="userSpaceOnUse"><path d="M 0,422.39 H 838.228 V 0 H 0 Z" transform="translate(-538.44761,-232.38191)"></path></clipPath><clipPath clipPathUnits="userSpaceOnUse"><path d="M 0,422.39 H 838.228 V 0 H 0 Z" transform="translate(-601.37242,-49.079204)"></path></clipPath><clipPath clipPathUnits="userSpaceOnUse"><path d="M 0,422.39 H 838.228 V 0 H 0 Z" transform="translate(-591.54241,-59.859404)"></path></clipPath><clipPath clipPathUnits="userSpaceOnUse"><path d="M 0,422.39 H 838.228 V 0 H 0 Z" transform="translate(-596.43011,-48.750104)"></path></clipPath><clipPath clipPathUnits="userSpaceOnUse"><path d="M 0,422.39 H 838.228 V 0 H 0 Z"></path></clipPath><clipPath clipPathUnits="userSpaceOnUse"><path d="M 0,422.39 H 838.228 V 0 H 0 Z" transform="translate(-596.71132,-310.87751)"></path></clipPath><clipPath clipPathUnits="userSpaceOnUse"><path d="M 0,422.39 H 838.228 V 0 H 0 Z" transform="translate(-583.85101,-298.0635)"></path></clipPath><clipPath clipPathUnits="userSpaceOnUse"><path d="M 0,422.39 H 838.228 V 0 H 0 Z" transform="translate(-346.98281,-170.57381)"></path></clipPath><clipPath clipPathUnits="userSpaceOnUse"><path d="M 0,422.39 H 838.228 V 0 H 0 Z" transform="translate(-346.98281,-189.4268)"></path></clipPath><clipPath clipPathUnits="userSpaceOnUse"><path d="M 0,422.39 H 838.228 V 0 H 0 Z"></path></clipPath><clipPath clipPathUnits="userSpaceOnUse"><path d="M 0,422.39 H 838.228 V 0 H 0 Z" transform="translate(-402.97551,-189.4268)"></path></clipPath><clipPath clipPathUnits="userSpaceOnUse"><path d="M 0,422.39 H 838.228 V 0 H 0 Z" transform="translate(-489.79821,-184.8995)"></path></clipPath><clipPath clipPathUnits="userSpaceOnUse"><path d="M 0,422.39 H 838.228 V 0 H 0 Z" transform="translate(-464.35581,-184.356)"></path></clipPath><clipPath clipPathUnits="userSpaceOnUse"><path d="M 0,422.39 H 838.228 V 0 H 0 Z" transform="translate(-471.22891,-193.5303)"></path></clipPath><clipPath clipPathUnits="userSpaceOnUse"><path d="M 0,422.39 H 838.228 V 0 H 0 Z" transform="translate(-483.76701,-172.919)"></path></clipPath><clipPath clipPathUnits="userSpaceOnUse"><path d="M 0,422.39 H 838.228 V 0 H 0 Z" transform="translate(-528.62932,-187.314)"></path></clipPath><clipPath clipPathUnits="userSpaceOnUse"><path d="M 0,422.39 H 838.228 V 0 H 0 Z" transform="translate(-528.62932,-169.3638)"></path></clipPath><clipPath clipPathUnits="userSpaceOnUse"><path d="M 0,422.39 H 838.228 V 0 H 0 Z" transform="translate(-530.37442,-176.2637)"></path></clipPath><clipPath clipPathUnits="userSpaceOnUse"><path d="M 0,422.39 H 838.228 V 0 H 0 Z" transform="translate(-541.22401,-183.9981)"></path></clipPath><clipPath clipPathUnits="userSpaceOnUse"><path d="M 0,422.39 H 838.228 V 0 H 0 Z" transform="translate(-535.79921,-180.1724)"></path></clipPath><clipPath clipPathUnits="userSpaceOnUse"><path d="M 0,422.39 H 838.228 V 0 H 0 Z" transform="translate(-589.42321,-254.67881)"></path></clipPath><clipPath clipPathUnits="userSpaceOnUse"><path d="M 0,422.39 H 838.228 V 0 H 0 Z" transform="translate(-595.59611,-242.33351)"></path></clipPath><clipPath clipPathUnits="userSpaceOnUse"><path d="M 0,422.39 H 838.228 V 0 H 0 Z" transform="translate(-590.06872,-245.75541)"></path></clipPath><clipPath clipPathUnits="userSpaceOnUse"><path d="M 0,422.39 H 838.228 V 0 H 0 Z" transform="translate(-601.76792,-252.6216)"></path></clipPath><clipPath clipPathUnits="userSpaceOnUse"><path d="M 0,422.39 H 838.228 V 0 H 0 Z" transform="translate(-410.01791,-42.779399)"></path></clipPath><clipPath clipPathUnits="userSpaceOnUse"><path d="M 0,422.39 H 838.228 V 0 H 0 Z" transform="translate(-407.37291,-69.174899)"></path></clipPath><clipPath clipPathUnits="userSpaceOnUse"><path d="M 0,422.39 H 838.228 V 0 H 0 Z" transform="translate(-416.07751,-58.367204)"></path></clipPath><clipPath clipPathUnits="userSpaceOnUse"><path d="M 0,422.39 H 838.228 V 0 H 0 Z" transform="translate(-416.07751,-51.765704)"></path></clipPath><clipPath clipPathUnits="userSpaceOnUse"><path d="M 0,422.39 H 838.228 V 0 H 0 Z" transform="translate(-408.28261,-56.590904)"></path></clipPath><clipPath clipPathUnits="userSpaceOnUse"><path d="M 0,422.39 H 838.228 V 0 H 0 Z" transform="translate(-424.78261,-66.273502)"></path></clipPath><clipPath clipPathUnits="userSpaceOnUse"><path d="M 0,422.39 H 838.228 V 0 H 0 Z" transform="translate(-352.80021,-120.6387)"></path></clipPath><clipPath clipPathUnits="userSpaceOnUse"><path d="M 0,422.39 H 838.228 V 0 H 0 Z" transform="translate(-350.57171,-114.9297)"></path></clipPath><clipPath clipPathUnits="userSpaceOnUse"><path d="M 0,422.39 H 838.228 V 0 H 0 Z" transform="translate(-361.99011,-126.3477)"></path></clipPath><clipPath clipPathUnits="userSpaceOnUse"><path d="M 0,422.39 H 838.228 V 0 H 0 Z" transform="translate(-347.43791,-111.795)"></path></clipPath><clipPath clipPathUnits="userSpaceOnUse"><path d="M 0,422.39 H 838.228 V 0 H 0 Z" transform="translate(-365.12441,-129.482)"></path></clipPath><clipPath clipPathUnits="userSpaceOnUse"><path d="M 0,422.39 H 838.228 V 0 H 0 Z" transform="translate(-356.28111,-117.15731)"></path></clipPath><clipPath clipPathUnits="userSpaceOnUse"><path d="M 0,422.39 H 838.228 V 0 H 0 Z" transform="translate(-419.54971,-124.1378)"></path></clipPath><clipPath clipPathUnits="userSpaceOnUse"><path d="M 0,422.39 H 838.228 V 0 H 0 Z" transform="translate(-404.29721,-123.7515)"></path></clipPath><clipPath clipPathUnits="userSpaceOnUse"><path d="M 0,422.39 H 838.228 V 0 H 0 Z" transform="translate(-405.21231,-111.2432)"></path></clipPath><clipPath clipPathUnits="userSpaceOnUse"><path d="M 0,422.39 H 838.228 V 0 H 0 Z" transform="translate(-465.86361,-103.50101)"></path></clipPath><clipPath clipPathUnits="userSpaceOnUse"><path d="M 0,422.39 H 838.228 V 0 H 0 Z" transform="translate(-465.86361,-115.26671)"></path></clipPath><clipPath clipPathUnits="userSpaceOnUse"><path d="M 0,422.39 H 838.228 V 0 H 0 Z" transform="translate(-485.46331,-122.0069)"></path></clipPath><clipPath clipPathUnits="userSpaceOnUse"><path d="M 0,422.39 H 838.228 V 0 H 0 Z" transform="translate(-473.11461,-129.2081)"></path></clipPath><clipPath clipPathUnits="userSpaceOnUse"><path d="M 0,422.39 H 838.228 V 0 H 0 Z" transform="translate(-480.36561,-129.2081)"></path></clipPath><clipPath clipPathUnits="userSpaceOnUse"><path d="M 0,422.39 H 838.228 V 0 H 0 Z" transform="translate(-560.84021,-118.63871)"></path></clipPath><clipPath clipPathUnits="userSpaceOnUse"><path d="M 0,422.39 H 838.228 V 0 H 0 Z" transform="translate(-538.19962,-109.5245)"></path></clipPath><clipPath clipPathUnits="userSpaceOnUse"><path d="M 0,422.39 H 838.228 V 0 H 0 Z" transform="translate(-530.28851,-127.9395)"></path></clipPath><clipPath clipPathUnits="userSpaceOnUse"><path d="M 0,422.39 H 838.228 V 0 H 0 Z" transform="translate(-538.19962,-109.5245)"></path></clipPath><clipPath clipPathUnits="userSpaceOnUse"><path d="M 0,422.39 H 838.228 V 0 H 0 Z" transform="translate(-544.86172,-111.2667)"></path></clipPath><clipPath clipPathUnits="userSpaceOnUse"><path d="M 0,422.39 H 838.228 V 0 H 0 Z" transform="translate(-541.37542,-111.2667)"></path></clipPath><clipPath clipPathUnits="userSpaceOnUse"><path d="M 0,422.39 H 838.228 V 0 H 0 Z" transform="translate(-581.06581,-229.01961)"></path></clipPath><clipPath clipPathUnits="userSpaceOnUse"><path d="M 0,422.39 H 838.228 V 0 H 0 Z"></path></clipPath><clipPath clipPathUnits="userSpaceOnUse"><path d="M 0,422.39 H 838.228 V 0 H 0 Z" transform="translate(-595.59611,-172.6695)"></path></clipPath><clipPath clipPathUnits="userSpaceOnUse"><path d="M 0,422.39 H 838.228 V 0 H 0 Z" transform="translate(-591.99941,-172.6695)"></path></clipPath><clipPath clipPathUnits="userSpaceOnUse"><path d="M 0,422.39 H 838.228 V 0 H 0 Z" transform="translate(-599.19181,-172.6695)"></path></clipPath><clipPath clipPathUnits="userSpaceOnUse"><path d="M 0,422.39 H 838.228 V 0 H 0 Z" transform="translate(-602.78852,-172.6695)"></path></clipPath><clipPath clipPathUnits="userSpaceOnUse"><path d="M 0,422.39 H 838.228 V 0 H 0 Z" transform="translate(-588.40271,-172.6695)"></path></clipPath><clipPath clipPathUnits="userSpaceOnUse"><path d="M 0,422.39 H 838.228 V 0 H 0 Z" transform="translate(-300.46861,-69.752002)"></path></clipPath><clipPath clipPathUnits="userSpaceOnUse"><path d="M 0,422.39 H 838.228 V 0 H 0 Z" transform="translate(-296.4847,-72.769604)"></path></clipPath><clipPath clipPathUnits="userSpaceOnUse"><path d="M 0,422.39 H 838.228 V 0 H 0 Z" transform="translate(-302.54141,-62.627002)"></path></clipPath><clipPath clipPathUnits="userSpaceOnUse"><path d="M 0,422.39 H 838.228 V 0 H 0 Z" transform="translate(-302.54141,-59.249099)"></path></clipPath><clipPath clipPathUnits="userSpaceOnUse"><path d="M 0,422.39 H 838.228 V 0 H 0 Z" transform="translate(-302.54141,-55.870199)"></path></clipPath><clipPath clipPathUnits="userSpaceOnUse"><path d="M 0,422.39 H 838.228 V 0 H 0 Z" transform="translate(-302.54141,-52.492199)"></path></clipPath><clipPath clipPathUnits="userSpaceOnUse"><path d="M 0,422.39 H 838.228 V 0 H 0 Z" transform="translate(-302.54141,-49.114304)"></path></clipPath><clipPath clipPathUnits="userSpaceOnUse"><path d="M 0,422.39 H 838.228 V 0 H 0 Z" transform="translate(-295.65121,-69.875999)"></path></clipPath><clipPath clipPathUnits="userSpaceOnUse"><path d="M 0,422.39 H 838.228 V 0 H 0 Z" transform="translate(-349.68151,-57.136799)"></path></clipPath><clipPath clipPathUnits="userSpaceOnUse"><path d="M 0,422.39 H 838.228 V 0 H 0 Z" transform="translate(-352.98281,-51.419001)"></path></clipPath><clipPath clipPathUnits="userSpaceOnUse"><path d="M 0,422.39 H 838.228 V 0 H 0 Z" transform="translate(-352.98281,-62.855504)"></path></clipPath><clipPath clipPathUnits="userSpaceOnUse"><path d="M 0,422.39 H 838.228 V 0 H 0 Z" transform="translate(-350.83831,-70.828199)"></path></clipPath><clipPath clipPathUnits="userSpaceOnUse"><path d="M 0,422.39 H 838.228 V 0 H 0 Z" transform="translate(-368.47011,-53.892599)"></path></clipPath><clipPath clipPathUnits="userSpaceOnUse"><path d="M 0,422.39 H 838.228 V 0 H 0 Z" transform="translate(-344.80801,-46.911201)"></path></clipPath><clipPath clipPathUnits="userSpaceOnUse"><path d="M 0,422.39 H 838.228 V 0 H 0 Z" transform="translate(-481.65171,-58.039101)"></path></clipPath><clipPath clipPathUnits="userSpaceOnUse"><path d="M 0,422.39 H 838.228 V 0 H 0 Z" transform="translate(-481.65171,-61.248104)"></path></clipPath><clipPath clipPathUnits="userSpaceOnUse"><path d="M 0,422.39 H 838.228 V 0 H 0 Z" transform="translate(-486.50131,-62.887799)"></path></clipPath><clipPath clipPathUnits="userSpaceOnUse"><path d="M 0,422.39 H 838.228 V 0 H 0 Z" transform="translate(-489.01011,-65.397502)"></path></clipPath><clipPath clipPathUnits="userSpaceOnUse"><path d="M 0,422.39 H 838.228 V 0 H 0 Z" transform="translate(-466.43981,-62.495204)"></path></clipPath><clipPath clipPathUnits="userSpaceOnUse"><path d="M 0,422.39 H 838.228 V 0 H 0 Z" transform="translate(-585.50431,-116.712)"></path></clipPath><clipPath clipPathUnits="userSpaceOnUse"><path d="M 0,422.39 H 838.228 V 0 H 0 Z" transform="translate(-598.93691,-128.0132)"></path></clipPath><clipPath clipPathUnits="userSpaceOnUse"><path d="M 0,422.39 H 838.228 V 0 H 0 Z" transform="translate(-711.82752,-352.79251)"></path></clipPath><clipPath clipPathUnits="userSpaceOnUse"><path d="M 0,422.39 H 838.228 V 0 H 0 Z" transform="translate(-712.19372,-366.05331)"></path></clipPath><clipPath clipPathUnits="userSpaceOnUse"><path d="M 0,422.39 H 838.228 V 0 H 0 Z" transform="translate(-595.59611,-247.02741)"></path></clipPath><clipPath clipPathUnits="userSpaceOnUse"><path d="M 0,422.39 H 838.228 V 0 H 0 Z" transform="translate(-643.91831,-373.59091)"></path></clipPath><clipPath clipPathUnits="userSpaceOnUse"><path d="M 0,422.39 H 838.228 V 0 H 0 Z" transform="translate(-648.01502,-374.95661)"></path></clipPath><clipPath clipPathUnits="userSpaceOnUse"><path d="M 0,422.39 H 838.228 V 0 H 0 Z" transform="translate(-648.01502,-372.22561)"></path></clipPath><clipPath clipPathUnits="userSpaceOnUse"><path d="M 0,422.39 H 838.228 V 0 H 0 Z" transform="translate(-648.01502,-369.49421)"></path></clipPath><clipPath clipPathUnits="userSpaceOnUse"><path d="M 0,422.39 H 838.228 V 0 H 0 Z" transform="translate(-781.55702,-367.80721)"></path></clipPath><clipPath clipPathUnits="userSpaceOnUse"><path d="M 0,422.39 H 838.228 V 0 H 0 Z" transform="translate(-774.34704,-357.03721)"></path></clipPath><clipPath clipPathUnits="userSpaceOnUse"><path d="M 0,422.39 H 838.228 V 0 H 0 Z"></path></clipPath><clipPath clipPathUnits="userSpaceOnUse"><path d="M 0,422.39 H 838.228 V 0 H 0 Z" transform="translate(-788.76699,-357.03721)"></path></clipPath><clipPath clipPathUnits="userSpaceOnUse"><path d="M 0,422.39 H 838.228 V 0 H 0 Z" transform="translate(-784.98864,-355.03231)"></path></clipPath><clipPath clipPathUnits="userSpaceOnUse"><path d="M 0,422.39 H 838.228 V 0 H 0 Z" transform="translate(-777.87729,-358.09921)"></path></clipPath><clipPath clipPathUnits="userSpaceOnUse"><path d="M 0,422.39 H 838.228 V 0 H 0 Z" transform="translate(-777.87729,-355.97561)"></path></clipPath><clipPath clipPathUnits="userSpaceOnUse"><path d="M 0,422.39 H 838.228 V 0 H 0 Z" transform="translate(-663.18202,-302.30571)"></path></clipPath><clipPath clipPathUnits="userSpaceOnUse"><path d="M 0,422.39 H 838.228 V 0 H 0 Z" transform="translate(-659.10002,-300.13921)"></path></clipPath><clipPath clipPathUnits="userSpaceOnUse"><path d="M 0,422.39 H 838.228 V 0 H 0 Z" transform="translate(-651.41642,-303.45271)"></path></clipPath><clipPath clipPathUnits="userSpaceOnUse"><path d="M 0,422.39 H 838.228 V 0 H 0 Z" transform="translate(-651.41642,-301.15831)"></path></clipPath><clipPath clipPathUnits="userSpaceOnUse"><path d="M 0,422.39 H 838.228 V 0 H 0 Z" transform="translate(-668.06972,-316.72031)"></path></clipPath><clipPath clipPathUnits="userSpaceOnUse"><path d="M 0,422.39 H 838.228 V 0 H 0 Z" transform="translate(-669.91541,-306.45471)"></path></clipPath><clipPath clipPathUnits="userSpaceOnUse"><path d="M 0,422.39 H 838.228 V 0 H 0 Z" transform="translate(-711.83532,-314.45661)"></path></clipPath><clipPath clipPathUnits="userSpaceOnUse"><path d="M 0,422.39 H 838.228 V 0 H 0 Z" transform="translate(-708.18792,-299.6817)"></path></clipPath><clipPath clipPathUnits="userSpaceOnUse"><path d="M 0,422.39 H 838.228 V 0 H 0 Z" transform="translate(-711.83532,-317.40581)"></path></clipPath><clipPath clipPathUnits="userSpaceOnUse"><path d="M 0,422.39 H 838.228 V 0 H 0 Z" transform="translate(-770.51402,-310.51281)"></path></clipPath><clipPath clipPathUnits="userSpaceOnUse"><path d="M 0,422.39 H 838.228 V 0 H 0 Z" transform="translate(-782.95449,-300.97561)"></path></clipPath><clipPath clipPathUnits="userSpaceOnUse"><path d="M 0,422.39 H 838.228 V 0 H 0 Z" transform="translate(-783.03062,-305.09231)"></path></clipPath><clipPath clipPathUnits="userSpaceOnUse"><path d="M 0,422.39 H 838.228 V 0 H 0 Z" transform="translate(-783.03062,-296.85851)"></path></clipPath><clipPath clipPathUnits="userSpaceOnUse"><path d="M 0,422.39 H 838.228 V 0 H 0 Z"></path></clipPath><clipPath clipPathUnits="userSpaceOnUse"><path d="M 0,422.39 H 838.228 V 0 H 0 Z" transform="translate(-646.90762,-245.3565)"></path></clipPath><clipPath clipPathUnits="userSpaceOnUse"><path d="M 0,422.39 H 838.228 V 0 H 0 Z" transform="translate(-653.24942,-235.4805)"></path></clipPath><clipPath clipPathUnits="userSpaceOnUse"><path d="M 0,422.39 H 838.228 V 0 H 0 Z" transform="translate(-656.79632,-244.75301)"></path></clipPath><clipPath clipPathUnits="userSpaceOnUse"><path d="M 0,422.39 H 838.228 V 0 H 0 Z" transform="translate(-656.79632,-241.1724)"></path></clipPath><clipPath clipPathUnits="userSpaceOnUse"><path d="M 0,422.39 H 838.228 V 0 H 0 Z" transform="translate(-656.79632,-237.59231)"></path></clipPath><clipPath clipPathUnits="userSpaceOnUse"><path d="M 0,422.39 H 838.228 V 0 H 0 Z"></path></clipPath><clipPath clipPathUnits="userSpaceOnUse"><path d="M 0,422.39 H 838.228 V 0 H 0 Z"></path></clipPath><clipPath clipPathUnits="userSpaceOnUse"><path d="M 0,422.39 H 838.228 V 0 H 0 Z" transform="translate(-720.15562,-245.70321)"></path></clipPath><clipPath clipPathUnits="userSpaceOnUse"><path d="M 0,422.39 H 838.228 V 0 H 0 Z" transform="translate(-783.57654,-236.4273)"></path></clipPath><clipPath clipPathUnits="userSpaceOnUse"><path d="M 0,422.39 H 838.228 V 0 H 0 Z" transform="translate(-775.06682,-227.8374)"></path></clipPath><clipPath clipPathUnits="userSpaceOnUse"><path d="M 0,422.39 H 838.228 V 0 H 0 Z" transform="translate(-781.90659,-236.92731)"></path></clipPath><clipPath clipPathUnits="userSpaceOnUse"><path d="M 0,422.39 H 838.228 V 0 H 0 Z" transform="translate(-775.06382,-256.2261)"></path></clipPath><clipPath clipPathUnits="userSpaceOnUse"><path d="M 0,422.39 H 838.228 V 0 H 0 Z" transform="translate(-788.47404,-246.6939)"></path></clipPath><clipPath clipPathUnits="userSpaceOnUse"><path d="M 0,422.39 H 838.228 V 0 H 0 Z" transform="translate(-761.67714,-237.29741)"></path></clipPath><clipPath clipPathUnits="userSpaceOnUse"><path d="M 0,422.39 H 838.228 V 0 H 0 Z" transform="translate(-786.58734,-239.4375)"></path></clipPath><clipPath clipPathUnits="userSpaceOnUse"><path d="M 0,422.39 H 838.228 V 0 H 0 Z" transform="translate(-788.93694,-230.9175)"></path></clipPath><clipPath clipPathUnits="userSpaceOnUse"><path d="M 0,422.39 H 838.228 V 0 H 0 Z" transform="translate(-645.02092,-192.38681)"></path></clipPath><clipPath clipPathUnits="userSpaceOnUse"><path d="M 0,422.39 H 838.228 V 0 H 0 Z" transform="translate(-655.47112,-172.3145)"></path></clipPath><clipPath clipPathUnits="userSpaceOnUse"><path d="M 0,422.39 H 838.228 V 0 H 0 Z" transform="translate(-662.12051,-172.3145)"></path></clipPath><clipPath clipPathUnits="userSpaceOnUse"><path d="M 0,422.39 H 838.228 V 0 H 0 Z" transform="translate(-648.82172,-172.3145)"></path></clipPath><clipPath clipPathUnits="userSpaceOnUse"><path d="M 0,422.39 H 838.228 V 0 H 0 Z" transform="translate(-651.22202,-184.4537)"></path></clipPath><clipPath clipPathUnits="userSpaceOnUse"><path d="M 0,422.39 H 838.228 V 0 H 0 Z" transform="translate(-657.87152,-175.3409)"></path></clipPath><clipPath clipPathUnits="userSpaceOnUse"><path d="M 0,422.39 H 838.228 V 0 H 0 Z" transform="translate(-664.52092,-179.9307)"></path></clipPath><clipPath clipPathUnits="userSpaceOnUse"><path d="M 0,422.39 H 838.228 V 0 H 0 Z"></path></clipPath><clipPath clipPathUnits="userSpaceOnUse"><path d="M 0,422.39 H 838.228 V 0 H 0 Z" transform="translate(-701.43202,-176.82521)"></path></clipPath><clipPath clipPathUnits="userSpaceOnUse"><path d="M 0,422.39 H 838.228 V 0 H 0 Z"></path></clipPath><clipPath clipPathUnits="userSpaceOnUse"><path d="M 0,422.39 H 838.228 V 0 H 0 Z" transform="translate(-725.03262,-166.95071)"></path></clipPath><clipPath clipPathUnits="userSpaceOnUse"><path d="M 0,422.39 H 838.228 V 0 H 0 Z" transform="translate(-762.57849,-188.709)"></path></clipPath><clipPath clipPathUnits="userSpaceOnUse"><path d="M 0,422.39 H 838.228 V 0 H 0 Z" transform="translate(-763.36464,-191.313)"></path></clipPath><clipPath clipPathUnits="userSpaceOnUse"><path d="M 0,422.39 H 838.228 V 0 H 0 Z" transform="translate(-771.62154,-179.9307)"></path></clipPath><clipPath clipPathUnits="userSpaceOnUse"><path d="M 0,422.39 H 838.228 V 0 H 0 Z" transform="translate(-774.24744,-179.9307)"></path></clipPath><clipPath clipPathUnits="userSpaceOnUse"><path d="M 0,422.39 H 838.228 V 0 H 0 Z" transform="translate(-764.32359,-185.28131)"></path></clipPath><clipPath clipPathUnits="userSpaceOnUse"><path d="M 0,422.39 H 838.228 V 0 H 0 Z"></path></clipPath><clipPath clipPathUnits="userSpaceOnUse"><path d="M 0,422.39 H 838.228 V 0 H 0 Z" transform="translate(-640.45352,-124.6734)"></path></clipPath><clipPath clipPathUnits="userSpaceOnUse"><path d="M 0,422.39 H 838.228 V 0 H 0 Z" transform="translate(-640.45352,-120.3243)"></path></clipPath><clipPath clipPathUnits="userSpaceOnUse"><path d="M 0,422.39 H 838.228 V 0 H 0 Z" transform="translate(-640.45352,-115.97561)"></path></clipPath><clipPath clipPathUnits="userSpaceOnUse"><path d="M 0,422.39 H 838.228 V 0 H 0 Z" transform="translate(-640.45352,-111.626)"></path></clipPath><clipPath clipPathUnits="userSpaceOnUse"><path d="M 0,422.39 H 838.228 V 0 H 0 Z" transform="translate(-665.04431,-124.6734)"></path></clipPath><clipPath clipPathUnits="userSpaceOnUse"><path d="M 0,422.39 H 838.228 V 0 H 0 Z" transform="translate(-665.04431,-120.3243)"></path></clipPath><clipPath clipPathUnits="userSpaceOnUse"><path d="M 0,422.39 H 838.228 V 0 H 0 Z" transform="translate(-665.04431,-115.97561)"></path></clipPath><clipPath clipPathUnits="userSpaceOnUse"><path d="M 0,422.39 H 838.228 V 0 H 0 Z" transform="translate(-665.04431,-111.626)"></path></clipPath><clipPath clipPathUnits="userSpaceOnUse"><path d="M 0,422.39 H 838.228 V 0 H 0 Z" transform="translate(-645.89782,-129.0225)"></path></clipPath><clipPath clipPathUnits="userSpaceOnUse"><path d="M 0,422.39 H 838.228 V 0 H 0 Z" transform="translate(-665.04431,-129.0225)"></path></clipPath><clipPath clipPathUnits="userSpaceOnUse"><path d="M 0,422.39 H 838.228 V 0 H 0 Z" transform="translate(-660.51212,-118.1495)"></path></clipPath><clipPath clipPathUnits="userSpaceOnUse"><path d="M 0,422.39 H 838.228 V 0 H 0 Z" transform="translate(-522.63712,-50.566499)"></path></clipPath><clipPath clipPathUnits="userSpaceOnUse"><path d="M 0,422.39 H 838.228 V 0 H 0 Z" transform="translate(-540.45641,-57.624104)"></path></clipPath><clipPath clipPathUnits="userSpaceOnUse"><path d="M 0,422.39 H 838.228 V 0 H 0 Z" transform="translate(-528.85781,-57.624104)"></path></clipPath><clipPath clipPathUnits="userSpaceOnUse"><path d="M 0,422.39 H 838.228 V 0 H 0 Z" transform="translate(-530.30212,-57.624104)"></path></clipPath><clipPath clipPathUnits="userSpaceOnUse"><path d="M 0,422.39 H 838.228 V 0 H 0 Z" transform="translate(-541.40761,-57.624104)"></path></clipPath><clipPath clipPathUnits="userSpaceOnUse"><path d="M 0,422.39 H 838.228 V 0 H 0 Z" transform="translate(-521.11171,-58.416104)"></path></clipPath><clipPath clipPathUnits="userSpaceOnUse"><path d="M 0,422.39 H 838.228 V 0 H 0 Z" transform="translate(-547.54721,-58.416104)"></path></clipPath><clipPath clipPathUnits="userSpaceOnUse"><path d="M 0,422.39 H 838.228 V 0 H 0 Z" transform="translate(-602.37632,-68.296004)"></path></clipPath><clipPath clipPathUnits="userSpaceOnUse"><path d="M 0,422.39 H 838.228 V 0 H 0 Z" transform="translate(-613.26401,-61.990304)"></path></clipPath><clipPath clipPathUnits="userSpaceOnUse" id="g"><path d="M 0,422.39 H 838.228 V 0 H 0 Z" transform="translate(-655.10291,-41.203199)"></path></clipPath><clipPath clipPathUnits="userSpaceOnUse" id="h"><path d="M 0,422.39 H 838.228 V 0 H 0 Z" transform="translate(-655.10291,-51.217799)"></path></clipPath><clipPath clipPathUnits="userSpaceOnUse"><path d="M 0,422.39 H 838.228 V 0 H 0 Z" transform="translate(-721.26702,-70.788104)"></path></clipPath><clipPath clipPathUnits="userSpaceOnUse"><path d="M 0,422.39 H 838.228 V 0 H 0 Z" transform="translate(-728.34802,-63.707099)"></path></clipPath><clipPath clipPathUnits="userSpaceOnUse"><path d="M 0,422.39 H 838.228 V 0 H 0 Z" transform="translate(-709.26702,-43.625999)"></path></clipPath><clipPath clipPathUnits="userSpaceOnUse"><path d="M 0,422.39 H 838.228 V 0 H 0 Z" transform="translate(-702.18592,-50.707101)"></path></clipPath><clipPath clipPathUnits="userSpaceOnUse"><path d="M 0,422.39 H 838.228 V 0 H 0 Z" transform="translate(-767.02479,-51.713001)"></path></clipPath><clipPath clipPathUnits="userSpaceOnUse"><path d="M 0,422.39 H 838.228 V 0 H 0 Z"></path></clipPath><clipPath clipPathUnits="userSpaceOnUse"><path d="M 0,422.39 H 838.228 V 0 H 0 Z" transform="translate(-778.59804,-39.778401)"></path></clipPath><clipPath clipPathUnits="userSpaceOnUse"><path d="M 0,422.39 H 838.228 V 0 H 0 Z" transform="translate(-777.80904,-51.713001)"></path></clipPath><clipPath clipPathUnits="userSpaceOnUse"><path d="M 0,422.39 H 838.228 V 0 H 0 Z" transform="translate(-776.48282,-59.501001)"></path></clipPath><clipPath clipPathUnits="userSpaceOnUse"><path d="M 0,422.39 H 838.228 V 0 H 0 Z" transform="translate(-762.97014,-59.995199)"></path></clipPath><clipPath clipPathUnits="userSpaceOnUse"><path d="M 0,422.39 H 838.228 V 0 H 0 Z" transform="translate(-789.94674,-59.995199)"></path></clipPath><clipPath clipPathUnits="userSpaceOnUse"><path d="M 0,422.39 H 838.228 V 0 H 0 Z" transform="translate(-785.22692,-70.401404)"></path></clipPath><clipPath clipPathUnits="userSpaceOnUse"><path d="M 0,422.39 H 838.228 V 0 H 0 Z" transform="translate(-766.15172,-67.676804)"></path></clipPath><clipPath clipPathUnits="userSpaceOnUse"><path d="M 0,422.39 H 838.228 V 0 H 0 Z" transform="translate(-774.53162,-74.394599)"></path></clipPath><clipPath clipPathUnits="userSpaceOnUse"><path d="M 0,422.39 H 838.228 V 0 H 0 Z" transform="translate(-764.81769,-116.712)"></path></clipPath><clipPath clipPathUnits="userSpaceOnUse"><path d="M 0,422.39 H 838.228 V 0 H 0 Z" transform="translate(-773.11172,-124.36331)"></path></clipPath><clipPath clipPathUnits="userSpaceOnUse"><path d="M 0,422.39 H 838.228 V 0 H 0 Z" transform="translate(-781.58042,-124.5894)"></path></clipPath><clipPath clipPathUnits="userSpaceOnUse"><path d="M 0,422.39 H 838.228 V 0 H 0 Z" transform="translate(-704.36462,-124.4166)"></path></clipPath><clipPath clipPathUnits="userSpaceOnUse"><path d="M 0,422.39 H 838.228 V 0 H 0 Z" transform="translate(-705.90662,-120.8633)"></path></clipPath><clipPath clipPathUnits="userSpaceOnUse"><path d="M 0,422.39 H 838.228 V 0 H 0 Z" transform="translate(-724.60782,-113.046)"></path></clipPath><clipPath clipPathUnits="userSpaceOnUse"><path d="M 0,422.39 H 838.228 V 0 H 0 Z" transform="translate(-702.72112,-129.28721)"></path></clipPath><clipPath clipPathUnits="userSpaceOnUse"><path d="M 0,422.39 H 838.228 V 0 H 0 Z" transform="translate(-712.65762,-129.28721)"></path></clipPath></defs><g transform="translate(-839.8016,-452.9368)"><g class="icon"><path d="m 0,0 c 0,-13.873 -11.247,-25.12 -25.12,-25.12 -13.874,0 -25.12,11.247 -25.12,25.12 0,13.873 11.246,25.12 25.12,25.12 C -11.247,25.12 0,13.873 0,0 Z" transform="matrix(1.3333333,0,0,-1.3333333,907.45493,487.0968)" clip-path="url(#a)" fill="none" stroke="currentColor" stroke-width="1" stroke-linecap="butt" stroke-linejoin="miter" stroke-miterlimit="10" stroke-dasharray="none" stroke-opacity="1" class="icon-circle"></path><path d="M 0,0 C 0,1.923 1.558,3.481 3.48,3.481 5.403,3.481 6.962,1.923 6.962,0 6.962,-1.922 5.403,-3.48 3.48,-3.48 1.558,-3.48 0,-1.922 0,0 Z" transform="matrix(1.3333333,0,0,-1.3333333,879.15547,478.68013)" clip-path="url(#b)" fill="none" stroke="currentColor" stroke-width="1" stroke-linecap="round" stroke-linejoin="round" stroke-miterlimit="10" stroke-dasharray="none" stroke-opacity="1"></path><path d="m 0,0 c 0.662,0.512 1.492,0.816 2.395,0.816 h 5.57 c 2.166,0 3.921,-1.755 3.921,-3.92 V -8.998 H 5.565" transform="matrix(1.3333333,0,0,-1.3333333,876.88987,487.2504)" clip-path="url(#c)" fill="none" stroke="currentColor" stroke-width="1" stroke-linecap="round" stroke-linejoin="round" stroke-miterlimit="10" stroke-dasharray="none" stroke-opacity="1"></path><path d="m 0,0 h -10.92 v 6.464 c 0,2.739 2.22,4.959 4.959,4.959 h 7.06 c 1.711,0 3.22,-0.867 4.111,-2.186" transform="matrix(1.3333333,0,0,-1.3333333,869.74533,499.24773)" clip-path="url(#d)" fill="none" stroke="currentColor" stroke-width="1" stroke-linecap="round" stroke-linejoin="round" stroke-miterlimit="10" stroke-dasharray="none" stroke-opacity="1"></path><path d="M 0,0 C 0.535,-0.792 0.848,-1.746 0.848,-2.773" transform="matrix(1.3333333,0,0,-1.3333333,876.69187,486.93133)" clip-path="url(#e)" fill="none" stroke="currentColor" stroke-width="1" stroke-linecap="round" stroke-linejoin="round" stroke-miterlimit="10" stroke-dasharray="none" stroke-opacity="1"></path><path d="M 0,0 C 0,2.387 1.936,4.322 4.322,4.322 6.709,4.322 8.645,2.387 8.645,0 8.645,-2.387 6.709,-4.322 4.322,-4.322 1.936,-4.322 0,-2.387 0,0 Z" transform="matrix(1.3333333,0,0,-1.3333333,860.74013,474.7192)" clip-path="url(#f)" fill="none" stroke="currentColor" stroke-width="1" stroke-linecap="round" stroke-linejoin="round" stroke-miterlimit="10" stroke-dasharray="none" stroke-opacity="1"></path><path d="M 0,0 V 10.015 H 10.015" transform="matrix(1.3333333,0,0,-1.3333333,873.47053,508.24907)" clip-path="url(#g)" fill="none" stroke="currentColor" stroke-width="1" stroke-linecap="round" stroke-linejoin="round" stroke-miterlimit="10" stroke-dasharray="none" stroke-opacity="1"></path><path d="M 0,0 10.015,-10.015" transform="matrix(1.3333333,0,0,-1.3333333,873.47053,494.89627)" clip-path="url(#h)" fill="none" stroke="currentColor" stroke-width="1" stroke-linecap="round" stroke-linejoin="round" stroke-miterlimit="10" stroke-dasharray="none" stroke-opacity="1"></path></g></g></svg>