<?xml version="1.0" encoding="UTF-8" standalone="no"?>
<!-- Created with Inkscape (http://www.inkscape.org/) -->

<svg
   version="1.1"
   id="svg1"
   width="68.320007"
   height="68.320007"
   viewBox="0 0 68.320006 68.320008"
   xmlns="http://www.w3.org/2000/svg"
   xmlns:svg="http://www.w3.org/2000/svg">
  <defs
     id="defs1">
    <clipPath
       clipPathUnits="userSpaceOnUse"
       id="clipPath92">
      <path
         d="M 0,422.39 H 838.228 V 0 H 0 Z"
         transform="translate(-193.9833,-203.41791)"
         id="path92" />
    </clipPath>
    <clipPath
       clipPathUnits="userSpaceOnUse"
       id="clipPath95">
      <path
         d="M 0,422.39 H 838.228 V 0 H 0 Z"
         transform="translate(-198.18351,-180.0674)"
         id="path95" />
    </clipPath>
    <clipPath
       clipPathUnits="userSpaceOnUse"
       id="clipPath97">
      <path
         d="M 0,422.39 H 838.228 V 0 H 0 Z"
         transform="translate(-195.0751,-172.66991)"
         id="path97" />
    </clipPath>
    <clipPath
       clipPathUnits="userSpaceOnUse"
       id="clipPath99">
      <path
         d="M 0,422.39 H 838.228 V 0 H 0 Z"
         transform="translate(-192.65811,-190.8662)"
         id="path99" />
    </clipPath>
    <clipPath
       clipPathUnits="userSpaceOnUse"
       id="clipPath101">
      <path
         d="M 0,422.39 H 838.228 V 0 H 0 Z"
         transform="translate(-189.9423,-189.2978)"
         id="path101" />
    </clipPath>
    <clipPath
       clipPathUnits="userSpaceOnUse"
       id="clipPath103">
      <path
         d="M 0,422.39 H 838.228 V 0 H 0 Z"
         transform="translate(-186.24111,-187.16111)"
         id="path103" />
    </clipPath>
    <clipPath
       clipPathUnits="userSpaceOnUse"
       id="clipPath105">
      <path
         d="M 0,422.39 H 838.228 V 0 H 0 Z"
         transform="translate(-202.70691,-186.6572)"
         id="path105" />
    </clipPath>
    <clipPath
       clipPathUnits="userSpaceOnUse"
       id="clipPath107">
      <path
         d="M 0,422.39 H 838.228 V 0 H 0 Z"
         transform="translate(-199.9882,-188.2265)"
         id="path107" />
    </clipPath>
    <clipPath
       clipPathUnits="userSpaceOnUse"
       id="clipPath109">
      <path
         d="M 0,422.39 H 838.228 V 0 H 0 Z"
         transform="translate(-196.2831,-190.3662)"
         id="path109" />
    </clipPath>
    <clipPath
       clipPathUnits="userSpaceOnUse"
       id="clipPath111">
      <path
         d="M 0,422.39 H 838.228 V 0 H 0 Z"
         transform="translate(-204.079,-175.8681)"
         id="path111" />
    </clipPath>
    <clipPath
       clipPathUnits="userSpaceOnUse"
       id="clipPath113">
      <path
         d="M 0,422.39 H 838.228 V 0 H 0 Z"
         transform="translate(-204.079,-179.0009)"
         id="path113" />
    </clipPath>
    <clipPath
       clipPathUnits="userSpaceOnUse"
       id="clipPath115">
      <path
         d="M 0,422.39 H 838.228 V 0 H 0 Z"
         transform="translate(-204.079,-183.2666)"
         id="path115" />
    </clipPath>
    <clipPath
       clipPathUnits="userSpaceOnUse"
       id="clipPath117">
      <path
         d="M 0,422.39 H 838.228 V 0 H 0 Z"
         transform="translate(-183.996,-184.2666)"
         id="path117" />
    </clipPath>
    <clipPath
       clipPathUnits="userSpaceOnUse"
       id="clipPath119">
      <path
         d="M 0,422.39 H 838.228 V 0 H 0 Z"
         transform="translate(-183.996,-181.1513)"
         id="path119" />
    </clipPath>
    <clipPath
       clipPathUnits="userSpaceOnUse"
       id="clipPath121">
      <path
         d="M 0,422.39 H 838.228 V 0 H 0 Z"
         transform="translate(-183.996,-176.92091)"
         id="path121" />
    </clipPath>
    <clipPath
       clipPathUnits="userSpaceOnUse"
       id="clipPath123">
      <path
         d="M 0,422.39 H 838.228 V 0 H 0 Z"
         transform="translate(-185.59461,-174.26951)"
         id="path123" />
    </clipPath>
    <clipPath
       clipPathUnits="userSpaceOnUse"
       id="clipPath125">
      <path
         d="M 0,422.39 H 838.228 V 0 H 0 Z"
         transform="translate(-185.3788,-175.0683)"
         id="path125" />
    </clipPath>
    <clipPath
       clipPathUnits="userSpaceOnUse"
       id="clipPath127">
      <path
         d="M 0,422.39 H 838.228 V 0 H 0 Z"
         transform="translate(-185.59461,-174.26951)"
         id="path127" />
    </clipPath>
    <clipPath
       clipPathUnits="userSpaceOnUse"
       id="clipPath129">
      <path
         d="M 0,422.39 H 838.228 V 0 H 0 Z"
         transform="translate(-185.59461,-185.8652)"
         id="path129" />
    </clipPath>
    <clipPath
       clipPathUnits="userSpaceOnUse"
       id="clipPath131">
      <path
         d="M 0,422.39 H 838.228 V 0 H 0 Z"
         transform="translate(-195.6366,-191.6621)"
         id="path131" />
    </clipPath>
    <clipPath
       clipPathUnits="userSpaceOnUse"
       id="clipPath133">
      <path
         d="M 0,422.39 H 838.228 V 0 H 0 Z"
         transform="translate(-185.3788,-175.0683)"
         id="path133" />
    </clipPath>
    <clipPath
       clipPathUnits="userSpaceOnUse"
       id="clipPath135">
      <path
         d="M 0,422.39 H 838.228 V 0 H 0 Z"
         transform="translate(-185.1415,-185.2041)"
         id="path135" />
    </clipPath>
    <clipPath
       clipPathUnits="userSpaceOnUse"
       id="clipPath137">
      <path
         d="M 0,422.39 H 838.228 V 0 H 0 Z"
         transform="translate(-202.49691,-174.26951)"
         id="path137" />
    </clipPath>
    <clipPath
       clipPathUnits="userSpaceOnUse"
       id="clipPath139">
      <path
         d="M 0,422.39 H 838.228 V 0 H 0 Z"
         transform="translate(-202.49691,-185.8652)"
         id="path139" />
    </clipPath>
    <clipPath
       clipPathUnits="userSpaceOnUse"
       id="clipPath141">
      <path
         d="M 0,422.39 H 838.228 V 0 H 0 Z"
         transform="translate(-202.7128,-175.0683)"
         id="path141" />
    </clipPath>
    <clipPath
       clipPathUnits="userSpaceOnUse"
       id="clipPath143">
      <path
         d="M 0,422.39 H 838.228 V 0 H 0 Z"
         transform="translate(-202.9501,-185.2041)"
         id="path143" />
    </clipPath>
    <clipPath
       clipPathUnits="userSpaceOnUse"
       id="clipPath145">
      <path
         d="M 0,422.39 H 838.228 V 0 H 0 Z"
         transform="translate(-194.038,-190.0634)"
         id="path145" />
    </clipPath>
  </defs>
  <g
     id="layer-MC0"
     transform="translate(-224.48441,-291.9628)">
    <path
       id="path91"
       d="m 0,0 c -14.149,0 -25.62,-11.471 -25.62,-25.62 0,-14.15 11.471,-25.62 25.62,-25.62 14.149,0 25.62,11.47 25.62,25.62 C 25.62,-11.471 14.149,0 0,0 m 0,-1 c 13.575,0 24.62,-11.045 24.62,-24.62 0,-13.576 -11.045,-24.62 -24.62,-24.62 -13.576,0 -24.62,11.044 -24.62,24.62 C -24.62,-12.045 -13.576,-1 0,-1"
       style="fill:#254aa5;fill-opacity:1;fill-rule:nonzero;stroke:none"
       transform="matrix(1.3333333,0,0,-1.3333333,258.6444,291.9628)"
       clip-path="url(#clipPath92)" />
    <path
       id="path94"
       d="m 0,0 c 0,-2.29 -1.856,-4.146 -4.146,-4.146 -2.29,0 -4.145,1.856 -4.145,4.146 0,2.289 1.855,4.146 4.145,4.146 C -1.856,4.146 0,2.289 0,0 Z"
       style="fill:none;stroke:#254aa5;stroke-width:1;stroke-linecap:butt;stroke-linejoin:miter;stroke-miterlimit:10;stroke-dasharray:none;stroke-opacity:1"
       transform="matrix(1.3333333,0,0,-1.3333333,264.24467,323.0968)"
       clip-path="url(#clipPath95)" />
    <path
       id="path96"
       d="m 0,0 h -1.725 c -3.004,0 -5.44,-2.436 -5.44,-5.44 V -8.896 H 5.44 V -5.44 C 5.44,-2.436 3.005,0 0,0 Z"
       style="fill:none;stroke:#254aa5;stroke-width:1;stroke-linecap:butt;stroke-linejoin:miter;stroke-miterlimit:10;stroke-dasharray:none;stroke-opacity:1"
       transform="matrix(1.3333333,0,0,-1.3333333,260.10013,332.96013)"
       clip-path="url(#clipPath97)" />
    <path
       id="path98"
       d="M 0,0 -0.865,-0.5"
       style="fill:none;stroke:#254aa5;stroke-width:1;stroke-linecap:butt;stroke-linejoin:miter;stroke-miterlimit:10;stroke-dasharray:none;stroke-opacity:1"
       transform="matrix(1.3333333,0,0,-1.3333333,256.87747,308.6984)"
       clip-path="url(#clipPath99)" />
    <path
       id="path100"
       d="M 0,0 -2.775,-1.603"
       style="fill:none;stroke:#254aa5;stroke-width:1;stroke-linecap:butt;stroke-linejoin:miter;stroke-miterlimit:10;stroke-dasharray:2.137, 2.137;stroke-dashoffset:0;stroke-opacity:1"
       transform="matrix(1.3333333,0,0,-1.3333333,253.2564,310.7896)"
       clip-path="url(#clipPath101)" />
    <path
       id="path102"
       d="M 0,0 -0.866,-0.5"
       style="fill:none;stroke:#254aa5;stroke-width:1;stroke-linecap:butt;stroke-linejoin:miter;stroke-miterlimit:10;stroke-dasharray:none;stroke-opacity:1"
       transform="matrix(1.3333333,0,0,-1.3333333,248.32147,313.63853)"
       clip-path="url(#clipPath103)" />
    <path
       id="path104"
       d="M 0,0 -0.866,0.5"
       style="fill:none;stroke:#254aa5;stroke-width:1;stroke-linecap:butt;stroke-linejoin:miter;stroke-miterlimit:10;stroke-dasharray:none;stroke-opacity:1"
       transform="matrix(1.3333333,0,0,-1.3333333,270.27587,314.3104)"
       clip-path="url(#clipPath105)" />
    <path
       id="path106"
       d="M 0,0 -2.779,1.604"
       style="fill:none;stroke:#254aa5;stroke-width:1;stroke-linecap:butt;stroke-linejoin:miter;stroke-miterlimit:10;stroke-dasharray:2.139, 2.139;stroke-dashoffset:0;stroke-opacity:1"
       transform="matrix(1.3333333,0,0,-1.3333333,266.65093,312.218)"
       clip-path="url(#clipPath107)" />
    <path
       id="path108"
       d="M 0,0 -0.866,0.5"
       style="fill:none;stroke:#254aa5;stroke-width:1;stroke-linecap:butt;stroke-linejoin:miter;stroke-miterlimit:10;stroke-dasharray:none;stroke-opacity:1"
       transform="matrix(1.3333333,0,0,-1.3333333,261.7108,309.36507)"
       clip-path="url(#clipPath109)" />
    <path
       id="path110"
       d="M 0,0 V 1"
       style="fill:none;stroke:#254aa5;stroke-width:1;stroke-linecap:butt;stroke-linejoin:miter;stroke-miterlimit:10;stroke-dasharray:none;stroke-opacity:1"
       transform="matrix(1.3333333,0,0,-1.3333333,272.10533,328.69587)"
       clip-path="url(#clipPath111)" />
    <path
       id="path112"
       d="M 0,0 V 3.199"
       style="fill:none;stroke:#254aa5;stroke-width:1;stroke-linecap:butt;stroke-linejoin:miter;stroke-miterlimit:10;stroke-dasharray:2.133, 2.133;stroke-dashoffset:0;stroke-opacity:1"
       transform="matrix(1.3333333,0,0,-1.3333333,272.10533,324.5188)"
       clip-path="url(#clipPath113)" />
    <path
       id="path114"
       d="M 0,0 V 1"
       style="fill:none;stroke:#254aa5;stroke-width:1;stroke-linecap:butt;stroke-linejoin:miter;stroke-miterlimit:10;stroke-dasharray:none;stroke-opacity:1"
       transform="matrix(1.3333333,0,0,-1.3333333,272.10533,318.8312)"
       clip-path="url(#clipPath115)" />
    <path
       id="path116"
       d="M 0,0 V -1"
       style="fill:none;stroke:#254aa5;stroke-width:1;stroke-linecap:butt;stroke-linejoin:miter;stroke-miterlimit:10;stroke-dasharray:none;stroke-opacity:1"
       transform="matrix(1.3333333,0,0,-1.3333333,245.328,317.49787)"
       clip-path="url(#clipPath117)" />
    <path
       id="path118"
       d="M 0,0 V -3.173"
       style="fill:none;stroke:#254aa5;stroke-width:1;stroke-linecap:butt;stroke-linejoin:miter;stroke-miterlimit:10;stroke-dasharray:2.115, 2.115;stroke-dashoffset:0;stroke-opacity:1"
       transform="matrix(1.3333333,0,0,-1.3333333,245.328,321.6516)"
       clip-path="url(#clipPath119)" />
    <path
       id="path120"
       d="M 0,0 V -1"
       style="fill:none;stroke:#254aa5;stroke-width:1;stroke-linecap:butt;stroke-linejoin:miter;stroke-miterlimit:10;stroke-dasharray:none;stroke-opacity:1"
       transform="matrix(1.3333333,0,0,-1.3333333,245.328,327.29213)"
       clip-path="url(#clipPath121)" />
    <path
       id="path122"
       d="m 0,0 c 0,-0.884 -0.716,-1.6 -1.599,-1.6 -0.883,0 -1.599,0.716 -1.599,1.6 0,0.883 0.716,1.599 1.599,1.599 C -0.716,1.599 0,0.883 0,0 Z"
       style="fill:none;stroke:#254aa5;stroke-width:1;stroke-linecap:butt;stroke-linejoin:miter;stroke-miterlimit:10;stroke-dasharray:none;stroke-opacity:1"
       transform="matrix(1.3333333,0,0,-1.3333333,247.45947,330.82733)"
       clip-path="url(#clipPath123)" />
    <path
       id="path124"
       d="M 0,0 4.063,2.346"
       style="fill:none;stroke:#254aa5;stroke-width:1;stroke-linecap:butt;stroke-linejoin:miter;stroke-miterlimit:10;stroke-dasharray:none;stroke-opacity:1"
       transform="matrix(1.3333333,0,0,-1.3333333,247.17173,329.76227)"
       clip-path="url(#clipPath125)" />
    <path
       id="path126"
       d="m 0,0 c 0,-0.884 -0.716,-1.6 -1.599,-1.6 -0.883,0 -1.599,0.716 -1.599,1.6 0,0.883 0.716,1.599 1.599,1.599 C -0.716,1.599 0,0.883 0,0 Z"
       style="fill:none;stroke:#254aa5;stroke-width:1;stroke-linecap:butt;stroke-linejoin:miter;stroke-miterlimit:10;stroke-dasharray:none;stroke-opacity:1"
       transform="matrix(1.3333333,0,0,-1.3333333,247.45947,330.82733)"
       clip-path="url(#clipPath127)" />
    <path
       id="path128"
       d="m 0,0 c 0,-0.883 -0.716,-1.599 -1.599,-1.599 -0.883,0 -1.599,0.716 -1.599,1.599 0,0.883 0.716,1.6 1.599,1.6 C -0.716,1.6 0,0.883 0,0 Z"
       style="fill:none;stroke:#254aa5;stroke-width:1;stroke-linecap:butt;stroke-linejoin:miter;stroke-miterlimit:10;stroke-dasharray:none;stroke-opacity:1"
       transform="matrix(1.3333333,0,0,-1.3333333,247.45947,315.3664)"
       clip-path="url(#clipPath129)" />
    <path
       id="path130"
       d="m 0,0 c 0,-0.883 -0.716,-1.599 -1.599,-1.599 -0.883,0 -1.599,0.716 -1.599,1.599 0,0.883 0.716,1.6 1.599,1.6 C -0.716,1.6 0,0.883 0,0 Z"
       style="fill:none;stroke:#254aa5;stroke-width:1;stroke-linecap:butt;stroke-linejoin:miter;stroke-miterlimit:10;stroke-dasharray:none;stroke-opacity:1"
       transform="matrix(1.3333333,0,0,-1.3333333,260.8488,307.6372)"
       clip-path="url(#clipPath131)" />
    <path
       id="path132"
       d="M 0,0 4.063,2.346"
       style="fill:none;stroke:#254aa5;stroke-width:1;stroke-linecap:butt;stroke-linejoin:miter;stroke-miterlimit:10;stroke-dasharray:none;stroke-opacity:1"
       transform="matrix(1.3333333,0,0,-1.3333333,247.17173,329.76227)"
       clip-path="url(#clipPath133)" />
    <path
       id="path134"
       d="M 0,0 4.327,-2.499"
       style="fill:none;stroke:#254aa5;stroke-width:1;stroke-linecap:butt;stroke-linejoin:miter;stroke-miterlimit:10;stroke-dasharray:none;stroke-opacity:1"
       transform="matrix(1.3333333,0,0,-1.3333333,246.85533,316.24787)"
       clip-path="url(#clipPath135)" />
    <path
       id="path136"
       d="m 0,0 c 0,-0.884 0.716,-1.6 1.599,-1.6 0.883,0 1.599,0.716 1.599,1.6 0,0.883 -0.716,1.599 -1.599,1.599 C 0.716,1.599 0,0.883 0,0 Z"
       style="fill:none;stroke:#254aa5;stroke-width:1;stroke-linecap:butt;stroke-linejoin:miter;stroke-miterlimit:10;stroke-dasharray:none;stroke-opacity:1"
       transform="matrix(1.3333333,0,0,-1.3333333,269.99587,330.82733)"
       clip-path="url(#clipPath137)" />
    <path
       id="path138"
       d="m 0,0 c 0,-0.883 0.716,-1.599 1.599,-1.599 0.883,0 1.599,0.716 1.599,1.599 0,0.883 -0.716,1.6 -1.599,1.6 C 0.716,1.6 0,0.883 0,0 Z"
       style="fill:none;stroke:#254aa5;stroke-width:1;stroke-linecap:butt;stroke-linejoin:miter;stroke-miterlimit:10;stroke-dasharray:none;stroke-opacity:1"
       transform="matrix(1.3333333,0,0,-1.3333333,269.99587,315.3664)"
       clip-path="url(#clipPath139)" />
    <path
       id="path140"
       d="M 0,0 -4.063,2.346"
       style="fill:none;stroke:#254aa5;stroke-width:1;stroke-linecap:butt;stroke-linejoin:miter;stroke-miterlimit:10;stroke-dasharray:none;stroke-opacity:1"
       transform="matrix(1.3333333,0,0,-1.3333333,270.28373,329.76227)"
       clip-path="url(#clipPath141)" />
    <path
       id="path142"
       d="M 0,0 -4.327,-2.499"
       style="fill:none;stroke:#254aa5;stroke-width:1;stroke-linecap:butt;stroke-linejoin:miter;stroke-miterlimit:10;stroke-dasharray:none;stroke-opacity:1"
       transform="matrix(1.3333333,0,0,-1.3333333,270.60013,316.24787)"
       clip-path="url(#clipPath143)" />
    <path
       id="path144"
       d="M 0,0 V -4.69"
       style="fill:none;stroke:#254aa5;stroke-width:1;stroke-linecap:butt;stroke-linejoin:miter;stroke-miterlimit:10;stroke-dasharray:none;stroke-opacity:1"
       transform="matrix(1.3333333,0,0,-1.3333333,258.71733,309.7688)"
       clip-path="url(#clipPath145)" />
  </g>
</svg>
