<svg version="1.1" viewBox="0 0 68.320006 68.320008" xmlns="http://www.w3.org/2000/svg"><defs><clipPath clipPathUnits="userSpaceOnUse" id="a"><path d="M 0,422.39 H 838.228 V 0 H 0 Z" transform="translate(-193.9833,-203.41791)"></path></clipPath><clipPath clipPathUnits="userSpaceOnUse" id="b"><path d="M 0,422.39 H 838.228 V 0 H 0 Z" transform="translate(-198.18351,-180.0674)"></path></clipPath><clipPath clipPathUnits="userSpaceOnUse" id="c"><path d="M 0,422.39 H 838.228 V 0 H 0 Z" transform="translate(-195.0751,-172.66991)"></path></clipPath><clipPath clipPathUnits="userSpaceOnUse" id="d"><path d="M 0,422.39 H 838.228 V 0 H 0 Z" transform="translate(-192.65811,-190.8662)"></path></clipPath><clipPath clipPathUnits="userSpaceOnUse" id="e"><path d="M 0,422.39 H 838.228 V 0 H 0 Z" transform="translate(-189.9423,-189.2978)"></path></clipPath><clipPath clipPathUnits="userSpaceOnUse" id="f"><path d="M 0,422.39 H 838.228 V 0 H 0 Z" transform="translate(-186.24111,-187.16111)"></path></clipPath><clipPath clipPathUnits="userSpaceOnUse" id="g"><path d="M 0,422.39 H 838.228 V 0 H 0 Z" transform="translate(-202.70691,-186.6572)"></path></clipPath><clipPath clipPathUnits="userSpaceOnUse" id="h"><path d="M 0,422.39 H 838.228 V 0 H 0 Z" transform="translate(-199.9882,-188.2265)"></path></clipPath><clipPath clipPathUnits="userSpaceOnUse" id="i"><path d="M 0,422.39 H 838.228 V 0 H 0 Z" transform="translate(-196.2831,-190.3662)"></path></clipPath><clipPath clipPathUnits="userSpaceOnUse" id="j"><path d="M 0,422.39 H 838.228 V 0 H 0 Z" transform="translate(-204.079,-175.8681)"></path></clipPath><clipPath clipPathUnits="userSpaceOnUse" id="k"><path d="M 0,422.39 H 838.228 V 0 H 0 Z" transform="translate(-204.079,-179.0009)"></path></clipPath><clipPath clipPathUnits="userSpaceOnUse" id="l"><path d="M 0,422.39 H 838.228 V 0 H 0 Z" transform="translate(-204.079,-183.2666)"></path></clipPath><clipPath clipPathUnits="userSpaceOnUse" id="m"><path d="M 0,422.39 H 838.228 V 0 H 0 Z" transform="translate(-183.996,-184.2666)"></path></clipPath><clipPath clipPathUnits="userSpaceOnUse" id="n"><path d="M 0,422.39 H 838.228 V 0 H 0 Z" transform="translate(-183.996,-181.1513)"></path></clipPath><clipPath clipPathUnits="userSpaceOnUse" id="o"><path d="M 0,422.39 H 838.228 V 0 H 0 Z" transform="translate(-183.996,-176.92091)"></path></clipPath><clipPath clipPathUnits="userSpaceOnUse" id="p"><path d="M 0,422.39 H 838.228 V 0 H 0 Z" transform="translate(-185.59461,-174.26951)"></path></clipPath><clipPath clipPathUnits="userSpaceOnUse" id="q"><path d="M 0,422.39 H 838.228 V 0 H 0 Z" transform="translate(-185.3788,-175.0683)"></path></clipPath><clipPath clipPathUnits="userSpaceOnUse" id="r"><path d="M 0,422.39 H 838.228 V 0 H 0 Z" transform="translate(-185.59461,-174.26951)"></path></clipPath><clipPath clipPathUnits="userSpaceOnUse" id="s"><path d="M 0,422.39 H 838.228 V 0 H 0 Z" transform="translate(-185.59461,-185.8652)"></path></clipPath><clipPath clipPathUnits="userSpaceOnUse" id="t"><path d="M 0,422.39 H 838.228 V 0 H 0 Z" transform="translate(-195.6366,-191.6621)"></path></clipPath><clipPath clipPathUnits="userSpaceOnUse" id="u"><path d="M 0,422.39 H 838.228 V 0 H 0 Z" transform="translate(-185.3788,-175.0683)"></path></clipPath><clipPath clipPathUnits="userSpaceOnUse" id="v"><path d="M 0,422.39 H 838.228 V 0 H 0 Z" transform="translate(-185.1415,-185.2041)"></path></clipPath><clipPath clipPathUnits="userSpaceOnUse" id="w"><path d="M 0,422.39 H 838.228 V 0 H 0 Z" transform="translate(-202.49691,-174.26951)"></path></clipPath><clipPath clipPathUnits="userSpaceOnUse" id="x"><path d="M 0,422.39 H 838.228 V 0 H 0 Z" transform="translate(-202.49691,-185.8652)"></path></clipPath><clipPath clipPathUnits="userSpaceOnUse" id="y"><path d="M 0,422.39 H 838.228 V 0 H 0 Z" transform="translate(-202.7128,-175.0683)"></path></clipPath><clipPath clipPathUnits="userSpaceOnUse" id="z"><path d="M 0,422.39 H 838.228 V 0 H 0 Z" transform="translate(-202.9501,-185.2041)"></path></clipPath><clipPath clipPathUnits="userSpaceOnUse" id="A"><path d="M 0,422.39 H 838.228 V 0 H 0 Z" transform="translate(-194.038,-190.0634)"></path></clipPath></defs><g transform="translate(-224.48441,-291.9628)"><path d="m 0,0 c -14.149,0 -25.62,-11.471 -25.62,-25.62 0,-14.15 11.471,-25.62 25.62,-25.62 14.149,0 25.62,11.47 25.62,25.62 C 25.62,-11.471 14.149,0 0,0 m 0,-1 c 13.575,0 24.62,-11.045 24.62,-24.62 0,-13.576 -11.045,-24.62 -24.62,-24.62 -13.576,0 -24.62,11.044 -24.62,24.62 C -24.62,-12.045 -13.576,-1 0,-1" transform="matrix(1.3333333,0,0,-1.3333333,258.6444,291.9628)" clip-path="url(#a)" fill="currentColor" fill-opacity="1" fill-rule="nonzero" stroke="none" class="selected icon-bg"></path><path d="m 0,0 c 0,-2.29 -1.856,-4.146 -4.146,-4.146 -2.29,0 -4.145,1.856 -4.145,4.146 0,2.289 1.855,4.146 4.145,4.146 C -1.856,4.146 0,2.289 0,0 Z" transform="matrix(1.3333333,0,0,-1.3333333,264.24467,323.0968)" clip-path="url(#b)" fill="none" stroke="currentColor" stroke-width="1" stroke-linecap="butt" stroke-linejoin="miter" stroke-miterlimit="10" stroke-dasharray="none" stroke-opacity="1"></path><path d="m 0,0 h -1.725 c -3.004,0 -5.44,-2.436 -5.44,-5.44 V -8.896 H 5.44 V -5.44 C 5.44,-2.436 3.005,0 0,0 Z" transform="matrix(1.3333333,0,0,-1.3333333,260.10013,332.96013)" clip-path="url(#c)" fill="none" stroke="currentColor" stroke-width="1" stroke-linecap="butt" stroke-linejoin="miter" stroke-miterlimit="10" stroke-dasharray="none" stroke-opacity="1"></path><path d="M 0,0 -0.865,-0.5" transform="matrix(1.3333333,0,0,-1.3333333,256.87747,308.6984)" clip-path="url(#d)" fill="none" stroke="currentColor" stroke-width="1" stroke-linecap="butt" stroke-linejoin="miter" stroke-miterlimit="10" stroke-dasharray="none" stroke-opacity="1"></path><path d="M 0,0 -2.775,-1.603" transform="matrix(1.3333333,0,0,-1.3333333,253.2564,310.7896)" clip-path="url(#e)" fill="none" stroke="currentColor" stroke-width="1" stroke-linecap="butt" stroke-linejoin="miter" stroke-miterlimit="10" stroke-dasharray="2.137, 2.137" stroke-dashoffset="0" stroke-opacity="1"></path><path d="M 0,0 -0.866,-0.5" transform="matrix(1.3333333,0,0,-1.3333333,248.32147,313.63853)" clip-path="url(#f)" fill="none" stroke="currentColor" stroke-width="1" stroke-linecap="butt" stroke-linejoin="miter" stroke-miterlimit="10" stroke-dasharray="none" stroke-opacity="1"></path><path d="M 0,0 -0.866,0.5" transform="matrix(1.3333333,0,0,-1.3333333,270.27587,314.3104)" clip-path="url(#g)" fill="none" stroke="currentColor" stroke-width="1" stroke-linecap="butt" stroke-linejoin="miter" stroke-miterlimit="10" stroke-dasharray="none" stroke-opacity="1"></path><path d="M 0,0 -2.779,1.604" transform="matrix(1.3333333,0,0,-1.3333333,266.65093,312.218)" clip-path="url(#h)" fill="none" stroke="currentColor" stroke-width="1" stroke-linecap="butt" stroke-linejoin="miter" stroke-miterlimit="10" stroke-dasharray="2.139, 2.139" stroke-dashoffset="0" stroke-opacity="1"></path><path d="M 0,0 -0.866,0.5" transform="matrix(1.3333333,0,0,-1.3333333,261.7108,309.36507)" clip-path="url(#i)" fill="none" stroke="currentColor" stroke-width="1" stroke-linecap="butt" stroke-linejoin="miter" stroke-miterlimit="10" stroke-dasharray="none" stroke-opacity="1"></path><path d="M 0,0 V 1" transform="matrix(1.3333333,0,0,-1.3333333,272.10533,328.69587)" clip-path="url(#j)" fill="none" stroke="currentColor" stroke-width="1" stroke-linecap="butt" stroke-linejoin="miter" stroke-miterlimit="10" stroke-dasharray="none" stroke-opacity="1"></path><path d="M 0,0 V 3.199" transform="matrix(1.3333333,0,0,-1.3333333,272.10533,324.5188)" clip-path="url(#k)" fill="none" stroke="currentColor" stroke-width="1" stroke-linecap="butt" stroke-linejoin="miter" stroke-miterlimit="10" stroke-dasharray="2.133, 2.133" stroke-dashoffset="0" stroke-opacity="1"></path><path d="M 0,0 V 1" transform="matrix(1.3333333,0,0,-1.3333333,272.10533,318.8312)" clip-path="url(#l)" fill="none" stroke="currentColor" stroke-width="1" stroke-linecap="butt" stroke-linejoin="miter" stroke-miterlimit="10" stroke-dasharray="none" stroke-opacity="1"></path><path d="M 0,0 V -1" transform="matrix(1.3333333,0,0,-1.3333333,245.328,317.49787)" clip-path="url(#m)" fill="none" stroke="currentColor" stroke-width="1" stroke-linecap="butt" stroke-linejoin="miter" stroke-miterlimit="10" stroke-dasharray="none" stroke-opacity="1"></path><path d="M 0,0 V -3.173" transform="matrix(1.3333333,0,0,-1.3333333,245.328,321.6516)" clip-path="url(#n)" fill="none" stroke="currentColor" stroke-width="1" stroke-linecap="butt" stroke-linejoin="miter" stroke-miterlimit="10" stroke-dasharray="2.115, 2.115" stroke-dashoffset="0" stroke-opacity="1"></path><path d="M 0,0 V -1" transform="matrix(1.3333333,0,0,-1.3333333,245.328,327.29213)" clip-path="url(#o)" fill="none" stroke="currentColor" stroke-width="1" stroke-linecap="butt" stroke-linejoin="miter" stroke-miterlimit="10" stroke-dasharray="none" stroke-opacity="1"></path><path d="m 0,0 c 0,-0.884 -0.716,-1.6 -1.599,-1.6 -0.883,0 -1.599,0.716 -1.599,1.6 0,0.883 0.716,1.599 1.599,1.599 C -0.716,1.599 0,0.883 0,0 Z" transform="matrix(1.3333333,0,0,-1.3333333,247.45947,330.82733)" clip-path="url(#p)" fill="none" stroke="currentColor" stroke-width="1" stroke-linecap="butt" stroke-linejoin="miter" stroke-miterlimit="10" stroke-dasharray="none" stroke-opacity="1"></path><path d="M 0,0 4.063,2.346" transform="matrix(1.3333333,0,0,-1.3333333,247.17173,329.76227)" clip-path="url(#q)" fill="none" stroke="currentColor" stroke-width="1" stroke-linecap="butt" stroke-linejoin="miter" stroke-miterlimit="10" stroke-dasharray="none" stroke-opacity="1"></path><path d="m 0,0 c 0,-0.884 -0.716,-1.6 -1.599,-1.6 -0.883,0 -1.599,0.716 -1.599,1.6 0,0.883 0.716,1.599 1.599,1.599 C -0.716,1.599 0,0.883 0,0 Z" transform="matrix(1.3333333,0,0,-1.3333333,247.45947,330.82733)" clip-path="url(#r)" fill="none" stroke="currentColor" stroke-width="1" stroke-linecap="butt" stroke-linejoin="miter" stroke-miterlimit="10" stroke-dasharray="none" stroke-opacity="1"></path><path d="m 0,0 c 0,-0.883 -0.716,-1.599 -1.599,-1.599 -0.883,0 -1.599,0.716 -1.599,1.599 0,0.883 0.716,1.6 1.599,1.6 C -0.716,1.6 0,0.883 0,0 Z" transform="matrix(1.3333333,0,0,-1.3333333,247.45947,315.3664)" clip-path="url(#s)" fill="none" stroke="currentColor" stroke-width="1" stroke-linecap="butt" stroke-linejoin="miter" stroke-miterlimit="10" stroke-dasharray="none" stroke-opacity="1"></path><path d="m 0,0 c 0,-0.883 -0.716,-1.599 -1.599,-1.599 -0.883,0 -1.599,0.716 -1.599,1.599 0,0.883 0.716,1.6 1.599,1.6 C -0.716,1.6 0,0.883 0,0 Z" transform="matrix(1.3333333,0,0,-1.3333333,260.8488,307.6372)" clip-path="url(#t)" fill="none" stroke="currentColor" stroke-width="1" stroke-linecap="butt" stroke-linejoin="miter" stroke-miterlimit="10" stroke-dasharray="none" stroke-opacity="1"></path><path d="M 0,0 4.063,2.346" transform="matrix(1.3333333,0,0,-1.3333333,247.17173,329.76227)" clip-path="url(#u)" fill="none" stroke="currentColor" stroke-width="1" stroke-linecap="butt" stroke-linejoin="miter" stroke-miterlimit="10" stroke-dasharray="none" stroke-opacity="1"></path><path d="M 0,0 4.327,-2.499" transform="matrix(1.3333333,0,0,-1.3333333,246.85533,316.24787)" clip-path="url(#v)" fill="none" stroke="currentColor" stroke-width="1" stroke-linecap="butt" stroke-linejoin="miter" stroke-miterlimit="10" stroke-dasharray="none" stroke-opacity="1"></path><path d="m 0,0 c 0,-0.884 0.716,-1.6 1.599,-1.6 0.883,0 1.599,0.716 1.599,1.6 0,0.883 -0.716,1.599 -1.599,1.599 C 0.716,1.599 0,0.883 0,0 Z" transform="matrix(1.3333333,0,0,-1.3333333,269.99587,330.82733)" clip-path="url(#w)" fill="none" stroke="currentColor" stroke-width="1" stroke-linecap="butt" stroke-linejoin="miter" stroke-miterlimit="10" stroke-dasharray="none" stroke-opacity="1"></path><path d="m 0,0 c 0,-0.883 0.716,-1.599 1.599,-1.599 0.883,0 1.599,0.716 1.599,1.599 0,0.883 -0.716,1.6 -1.599,1.6 C 0.716,1.6 0,0.883 0,0 Z" transform="matrix(1.3333333,0,0,-1.3333333,269.99587,315.3664)" clip-path="url(#x)" fill="none" stroke="currentColor" stroke-width="1" stroke-linecap="butt" stroke-linejoin="miter" stroke-miterlimit="10" stroke-dasharray="none" stroke-opacity="1"></path><path d="M 0,0 -4.063,2.346" transform="matrix(1.3333333,0,0,-1.3333333,270.28373,329.76227)" clip-path="url(#y)" fill="none" stroke="currentColor" stroke-width="1" stroke-linecap="butt" stroke-linejoin="miter" stroke-miterlimit="10" stroke-dasharray="none" stroke-opacity="1"></path><path d="M 0,0 -4.327,-2.499" transform="matrix(1.3333333,0,0,-1.3333333,270.60013,316.24787)" clip-path="url(#z)" fill="none" stroke="currentColor" stroke-width="1" stroke-linecap="butt" stroke-linejoin="miter" stroke-miterlimit="10" stroke-dasharray="none" stroke-opacity="1"></path><path d="M 0,0 V -4.69" transform="matrix(1.3333333,0,0,-1.3333333,258.71733,309.7688)" clip-path="url(#A)" fill="none" stroke="currentColor" stroke-width="1" stroke-linecap="butt" stroke-linejoin="miter" stroke-miterlimit="10" stroke-dasharray="none" stroke-opacity="1"></path></g></svg>