<svg version="1.1" viewBox="0 0 68.320006 68.320008" xmlns="http://www.w3.org/2000/svg"><defs><clipPath clipPathUnits="userSpaceOnUse" id="a"><path d="M 0,422.39 H 838.228 V 0 H 0 Z" transform="translate(-438.72061,-203.41791)"></path></clipPath><clipPath clipPathUnits="userSpaceOnUse" id="b"><path d="M 0,422.39 H 838.228 V 0 H 0 Z" transform="translate(-444.48621,-177.8213)"></path></clipPath><clipPath clipPathUnits="userSpaceOnUse" id="c"><path d="M 0,422.39 H 838.228 V 0 H 0 Z" transform="translate(-434.69911,-191.6621)"></path></clipPath><clipPath clipPathUnits="userSpaceOnUse" id="d"><path d="M 0,422.39 H 838.228 V 0 H 0 Z" transform="translate(-432.35441,-190.3086)"></path></clipPath><clipPath clipPathUnits="userSpaceOnUse" id="e"><path d="M 0,422.39 H 838.228 V 0 H 0 Z" transform="translate(-429.39731,-188.6015)"></path></clipPath><clipPath clipPathUnits="userSpaceOnUse" id="f"><path d="M 0,422.39 H 838.228 V 0 H 0 Z" transform="translate(-448.86611,-188.11421)"></path></clipPath><clipPath clipPathUnits="userSpaceOnUse" id="g"><path d="M 0,422.39 H 838.228 V 0 H 0 Z" transform="translate(-446.47841,-189.4922)"></path></clipPath><clipPath clipPathUnits="userSpaceOnUse" id="h"><path d="M 0,422.39 H 838.228 V 0 H 0 Z" transform="translate(-443.43441,-191.25)"></path></clipPath><clipPath clipPathUnits="userSpaceOnUse" id="i"><path d="M 0,422.39 H 838.228 V 0 H 0 Z" transform="translate(-452.70201,-174.34181)"></path></clipPath><clipPath clipPathUnits="userSpaceOnUse" id="j"><path d="M 0,422.39 H 838.228 V 0 H 0 Z" transform="translate(-452.70201,-176.9951)"></path></clipPath><clipPath clipPathUnits="userSpaceOnUse" id="k"><path d="M 0,422.39 H 838.228 V 0 H 0 Z" transform="translate(-452.70201,-180.3017)"></path></clipPath><clipPath clipPathUnits="userSpaceOnUse" id="l"><path d="M 0,422.39 H 838.228 V 0 H 0 Z" transform="translate(-424.71771,-181.3017)"></path></clipPath><clipPath clipPathUnits="userSpaceOnUse" id="m"><path d="M 0,422.39 H 838.228 V 0 H 0 Z" transform="translate(-424.71771,-178.6484)"></path></clipPath><clipPath clipPathUnits="userSpaceOnUse" id="n"><path d="M 0,422.39 H 838.228 V 0 H 0 Z" transform="translate(-424.71771,-175.3418)"></path></clipPath><clipPath clipPathUnits="userSpaceOnUse" id="o"><path d="M 0,422.39 H 838.228 V 0 H 0 Z" transform="translate(-428.74111,-172.0664)"></path></clipPath><clipPath clipPathUnits="userSpaceOnUse" id="p"><path d="M 0,422.39 H 838.228 V 0 H 0 Z" transform="translate(-428.53211,-183.69821)"></path></clipPath><clipPath clipPathUnits="userSpaceOnUse" id="q"><path d="M 0,422.39 H 838.228 V 0 H 0 Z" transform="translate(-448.12591,-169.74311)"></path></clipPath><clipPath clipPathUnits="userSpaceOnUse" id="r"><path d="M 0,422.39 H 838.228 V 0 H 0 Z" transform="translate(-448.86511,-171.9707)"></path></clipPath><clipPath clipPathUnits="userSpaceOnUse" id="s"><path d="M 0,422.39 H 838.228 V 0 H 0 Z" transform="translate(-448.86611,-183.6728)"></path></clipPath><clipPath clipPathUnits="userSpaceOnUse" id="t"><path d="M 0,422.39 H 838.228 V 0 H 0 Z" transform="translate(-438.70981,-189.3789)"></path></clipPath><clipPath clipPathUnits="userSpaceOnUse" id="u"><path d="M 0,422.39 H 838.228 V 0 H 0 Z" transform="translate(-454.08581,-170.8193)"></path></clipPath><clipPath clipPathUnits="userSpaceOnUse" id="v"><path d="M 0,422.39 H 838.228 V 0 H 0 Z" transform="translate(-455.22941,-165.8193)"></path></clipPath><clipPath clipPathUnits="userSpaceOnUse" id="w"><path d="M 0,422.39 H 838.228 V 0 H 0 Z" transform="translate(-420.11901,-169.74311)"></path></clipPath><clipPath clipPathUnits="userSpaceOnUse" id="x"><path d="M 0,422.39 H 838.228 V 0 H 0 Z" transform="translate(-426.07901,-170.8193)"></path></clipPath><clipPath clipPathUnits="userSpaceOnUse" id="y"><path d="M 0,422.39 H 838.228 V 0 H 0 Z" transform="translate(-427.22251,-165.8193)"></path></clipPath><clipPath clipPathUnits="userSpaceOnUse" id="z"><path d="M 0,422.39 H 838.228 V 0 H 0 Z" transform="translate(-448.12591,-185.9004)"></path></clipPath><clipPath clipPathUnits="userSpaceOnUse" id="A"><path d="M 0,422.39 H 838.228 V 0 H 0 Z" transform="translate(-454.08581,-186.97751)"></path></clipPath><clipPath clipPathUnits="userSpaceOnUse" id="B"><path d="M 0,422.39 H 838.228 V 0 H 0 Z" transform="translate(-455.22941,-181.9775)"></path></clipPath><clipPath clipPathUnits="userSpaceOnUse" id="C"><path d="M 0,422.39 H 838.228 V 0 H 0 Z" transform="translate(-420.11901,-185.9004)"></path></clipPath><clipPath clipPathUnits="userSpaceOnUse" id="D"><path d="M 0,422.39 H 838.228 V 0 H 0 Z" transform="translate(-426.07901,-186.97751)"></path></clipPath><clipPath clipPathUnits="userSpaceOnUse" id="E"><path d="M 0,422.39 H 838.228 V 0 H 0 Z" transform="translate(-427.22251,-181.9775)"></path></clipPath><clipPath clipPathUnits="userSpaceOnUse" id="F"><path d="M 0,422.39 H 838.228 V 0 H 0 Z" transform="translate(-434.12191,-193.9775)"></path></clipPath><clipPath clipPathUnits="userSpaceOnUse" id="G"><path d="M 0,422.39 H 838.228 V 0 H 0 Z" transform="translate(-440.08291,-195.05471)"></path></clipPath><clipPath clipPathUnits="userSpaceOnUse" id="H"><path d="M 0,422.39 H 838.228 V 0 H 0 Z" transform="translate(-441.22551,-190.0547)"></path></clipPath><clipPath clipPathUnits="userSpaceOnUse" id="I"><path d="M 0,422.39 H 838.228 V 0 H 0 Z" transform="translate(-442.69911,-163.9326)"></path></clipPath><clipPath clipPathUnits="userSpaceOnUse" id="J"><path d="M 0,422.39 H 838.228 V 0 H 0 Z" transform="translate(-445.04381,-165.2861)"></path></clipPath><clipPath clipPathUnits="userSpaceOnUse" id="K"><path d="M 0,422.39 H 838.228 V 0 H 0 Z" transform="translate(-447.99991,-166.9931)"></path></clipPath><clipPath clipPathUnits="userSpaceOnUse" id="L"><path d="M 0,422.39 H 838.228 V 0 H 0 Z" transform="translate(-428.53211,-167.48141)"></path></clipPath><clipPath clipPathUnits="userSpaceOnUse" id="M"><path d="M 0,422.39 H 838.228 V 0 H 0 Z" transform="translate(-430.91981,-166.1025)"></path></clipPath><clipPath clipPathUnits="userSpaceOnUse" id="N"><path d="M 0,422.39 H 838.228 V 0 H 0 Z" transform="translate(-433.96281,-164.3457)"></path></clipPath><clipPath clipPathUnits="userSpaceOnUse" id="O"><path d="M 0,422.39 H 838.228 V 0 H 0 Z" transform="translate(-438.68841,-166.2158)"></path></clipPath><clipPath clipPathUnits="userSpaceOnUse" id="P"><path d="M 0,422.39 H 838.228 V 0 H 0 Z" transform="translate(-434.07801,-161.6172)"></path></clipPath><clipPath clipPathUnits="userSpaceOnUse" id="Q"><path d="M 0,422.39 H 838.228 V 0 H 0 Z" transform="translate(-440.03801,-162.69431)"></path></clipPath><clipPath clipPathUnits="userSpaceOnUse" id="R"><path d="M 0,422.39 H 838.228 V 0 H 0 Z" transform="translate(-441.18151,-157.6943)"></path></clipPath><clipPath clipPathUnits="userSpaceOnUse" id="S"><path d="M 0,422.39 H 838.228 V 0 H 0 Z" transform="translate(-441.22551,-177.8213)"></path></clipPath></defs><g transform="translate(-550.8008,-291.9628)"><path d="m 0,0 c -14.149,0 -25.62,-11.471 -25.62,-25.62 0,-14.15 11.471,-25.62 25.62,-25.62 14.15,0 25.62,11.47 25.62,25.62 C 25.62,-11.471 14.15,0 0,0 m 0,-1 c 13.576,0 24.62,-11.045 24.62,-24.62 0,-13.576 -11.044,-24.62 -24.62,-24.62 -13.575,0 -24.62,11.044 -24.62,24.62 C -24.62,-12.045 -13.575,-1 0,-1" transform="matrix(1.3333333,0,0,-1.3333333,584.9608,291.9628)" clip-path="url(#a)" fill="currentColor" fill-opacity="1" fill-rule="nonzero" stroke="none" class="selected icon-bg"></path><path d="m 0,0 c 0,-3.19 -2.587,-5.776 -5.776,-5.776 -3.191,0 -5.777,2.586 -5.777,5.776 0,3.19 2.586,5.776 5.777,5.776 C -2.587,5.776 0,3.19 0,0 Z" transform="matrix(1.3333333,0,0,-1.3333333,592.64827,326.0916)" clip-path="url(#b)" fill="none" stroke="currentColor" stroke-width="1" stroke-linecap="butt" stroke-linejoin="miter" stroke-miterlimit="10" stroke-dasharray="none" stroke-opacity="1"></path><path d="M 0,0 -0.866,-0.5" transform="matrix(1.3333333,0,0,-1.3333333,579.5988,307.6372)" clip-path="url(#c)" fill="none" stroke="currentColor" stroke-width="1" stroke-linecap="butt" stroke-linejoin="miter" stroke-miterlimit="10" stroke-dasharray="none" stroke-opacity="1"></path><path d="M 0,0 -2.218,-1.28" transform="matrix(1.3333333,0,0,-1.3333333,576.47253,309.44187)" clip-path="url(#d)" fill="none" stroke="currentColor" stroke-width="1" stroke-linecap="butt" stroke-linejoin="miter" stroke-miterlimit="10" stroke-dasharray="1.707, 1.707" stroke-dashoffset="0" stroke-opacity="1"></path><path d="M 0,0 -0.865,-0.5" transform="matrix(1.3333333,0,0,-1.3333333,572.52973,311.718)" clip-path="url(#e)" fill="none" stroke="currentColor" stroke-width="1" stroke-linecap="butt" stroke-linejoin="miter" stroke-miterlimit="10" stroke-dasharray="none" stroke-opacity="1"></path><path d="M 0,0 -0.866,0.5" transform="matrix(1.3333333,0,0,-1.3333333,598.48813,312.36773)" clip-path="url(#f)" fill="none" stroke="currentColor" stroke-width="1" stroke-linecap="butt" stroke-linejoin="miter" stroke-miterlimit="10" stroke-dasharray="none" stroke-opacity="1"></path><path d="M 0,0 -2.282,1.318" transform="matrix(1.3333333,0,0,-1.3333333,595.30453,310.5304)" clip-path="url(#g)" fill="none" stroke="currentColor" stroke-width="1" stroke-linecap="butt" stroke-linejoin="miter" stroke-miterlimit="10" stroke-dasharray="1.757, 1.757" stroke-dashoffset="0" stroke-opacity="1"></path><path d="M 0,0 -0.865,0.5" transform="matrix(1.3333333,0,0,-1.3333333,591.24587,308.18667)" clip-path="url(#h)" fill="none" stroke="currentColor" stroke-width="1" stroke-linecap="butt" stroke-linejoin="miter" stroke-miterlimit="10" stroke-dasharray="none" stroke-opacity="1"></path><path d="M 0,0 V 1" transform="matrix(1.3333333,0,0,-1.3333333,603.60267,330.73093)" clip-path="url(#i)" fill="none" stroke="currentColor" stroke-width="1" stroke-linecap="butt" stroke-linejoin="miter" stroke-miterlimit="10" stroke-dasharray="none" stroke-opacity="1"></path><path d="M 0,0 V 2.48" transform="matrix(1.3333333,0,0,-1.3333333,603.60267,327.1932)" clip-path="url(#j)" fill="none" stroke="currentColor" stroke-width="1" stroke-linecap="butt" stroke-linejoin="miter" stroke-miterlimit="10" stroke-dasharray="1.653, 1.653" stroke-dashoffset="0" stroke-opacity="1"></path><path d="M 0,0 V 1" transform="matrix(1.3333333,0,0,-1.3333333,603.60267,322.7844)" clip-path="url(#k)" fill="none" stroke="currentColor" stroke-width="1" stroke-linecap="butt" stroke-linejoin="miter" stroke-miterlimit="10" stroke-dasharray="none" stroke-opacity="1"></path><path d="M 0,0 V -1" transform="matrix(1.3333333,0,0,-1.3333333,566.29027,321.45107)" clip-path="url(#l)" fill="none" stroke="currentColor" stroke-width="1" stroke-linecap="butt" stroke-linejoin="miter" stroke-miterlimit="10" stroke-dasharray="none" stroke-opacity="1"></path><path d="M 0,0 V -2.48" transform="matrix(1.3333333,0,0,-1.3333333,566.29027,324.9888)" clip-path="url(#m)" fill="none" stroke="currentColor" stroke-width="1" stroke-linecap="butt" stroke-linejoin="miter" stroke-miterlimit="10" stroke-dasharray="1.653, 1.653" stroke-dashoffset="0" stroke-opacity="1"></path><path d="M 0,0 V -1" transform="matrix(1.3333333,0,0,-1.3333333,566.29027,329.3976)" clip-path="url(#n)" fill="none" stroke="currentColor" stroke-width="1" stroke-linecap="butt" stroke-linejoin="miter" stroke-miterlimit="10" stroke-dasharray="none" stroke-opacity="1"></path><path d="M 0,0 3.565,2.058" transform="matrix(1.3333333,0,0,-1.3333333,571.6548,333.7648)" clip-path="url(#o)" fill="none" stroke="currentColor" stroke-width="1" stroke-linecap="butt" stroke-linejoin="miter" stroke-miterlimit="10" stroke-dasharray="none" stroke-opacity="1"></path><path d="M 0,0 3.812,-2.201" transform="matrix(1.3333333,0,0,-1.3333333,571.37613,318.25573)" clip-path="url(#p)" fill="none" stroke="currentColor" stroke-width="1" stroke-linecap="butt" stroke-linejoin="miter" stroke-miterlimit="10" stroke-dasharray="none" stroke-opacity="1"></path><path d="m 0,0 c 0,-2.54 2.059,-4.599 4.599,-4.599 2.54,0 4.598,2.059 4.598,4.599 0,2.539 -2.058,4.599 -4.598,4.599 C 2.059,4.599 0,2.539 0,0 Z" transform="matrix(1.3333333,0,0,-1.3333333,597.5012,336.86253)" clip-path="url(#q)" fill="none" stroke="currentColor" stroke-width="1" stroke-linecap="butt" stroke-linejoin="miter" stroke-miterlimit="10" stroke-dasharray="none" stroke-opacity="1"></path><path d="M 0,0 -3.729,2.153" transform="matrix(1.3333333,0,0,-1.3333333,598.4868,333.8924)" clip-path="url(#r)" fill="none" stroke="currentColor" stroke-width="1" stroke-linecap="butt" stroke-linejoin="miter" stroke-miterlimit="10" stroke-dasharray="none" stroke-opacity="1"></path><path d="M 0,0 -3.768,-2.176" transform="matrix(1.3333333,0,0,-1.3333333,598.48813,318.2896)" clip-path="url(#s)" fill="none" stroke="currentColor" stroke-width="1" stroke-linecap="butt" stroke-linejoin="miter" stroke-miterlimit="10" stroke-dasharray="none" stroke-opacity="1"></path><path d="M 0,0 V -4.165" transform="matrix(1.3333333,0,0,-1.3333333,584.9464,310.68147)" clip-path="url(#t)" fill="none" stroke="currentColor" stroke-width="1" stroke-linecap="butt" stroke-linejoin="miter" stroke-miterlimit="10" stroke-dasharray="none" stroke-opacity="1"></path><path d="m 0,0 c 0,-0.737 -0.598,-1.336 -1.336,-1.336 -0.737,0 -1.336,0.599 -1.336,1.336 0,0.738 0.599,1.336 1.336,1.336 C -0.598,1.336 0,0.738 0,0 Z" transform="matrix(1.3333333,0,0,-1.3333333,605.44773,335.4276)" clip-path="url(#u)" fill="none" stroke="currentColor" stroke-width="1" stroke-linecap="butt" stroke-linejoin="miter" stroke-miterlimit="10" stroke-dasharray="none" stroke-opacity="1"></path><path d="M 0,0 C 0,1.122 -0.909,2.031 -2.031,2.031 H -2.814 C -3.937,2.031 -4.846,1.122 -4.846,0" transform="matrix(1.3333333,0,0,-1.3333333,606.97253,342.09427)" clip-path="url(#v)" fill="none" stroke="currentColor" stroke-width="1" stroke-linecap="butt" stroke-linejoin="miter" stroke-miterlimit="10" stroke-dasharray="none" stroke-opacity="1"></path><path d="m 0,0 c 0,-2.54 2.059,-4.599 4.599,-4.599 2.54,0 4.598,2.059 4.598,4.599 0,2.539 -2.058,4.599 -4.598,4.599 C 2.059,4.599 0,2.539 0,0 Z" transform="matrix(1.3333333,0,0,-1.3333333,560.15867,336.86253)" clip-path="url(#w)" fill="none" stroke="currentColor" stroke-width="1" stroke-linecap="butt" stroke-linejoin="miter" stroke-miterlimit="10" stroke-dasharray="none" stroke-opacity="1"></path><path d="m 0,0 c 0,-0.737 -0.599,-1.336 -1.336,-1.336 -0.738,0 -1.336,0.599 -1.336,1.336 0,0.738 0.598,1.336 1.336,1.336 C -0.599,1.336 0,0.738 0,0 Z" transform="matrix(1.3333333,0,0,-1.3333333,568.10533,335.4276)" clip-path="url(#x)" fill="none" stroke="currentColor" stroke-width="1" stroke-linecap="butt" stroke-linejoin="miter" stroke-miterlimit="10" stroke-dasharray="none" stroke-opacity="1"></path><path d="M 0,0 C 0,1.122 -0.909,2.031 -2.031,2.031 H -2.814 C -3.937,2.031 -4.846,1.122 -4.846,0" transform="matrix(1.3333333,0,0,-1.3333333,569.63,342.09427)" clip-path="url(#y)" fill="none" stroke="currentColor" stroke-width="1" stroke-linecap="butt" stroke-linejoin="miter" stroke-miterlimit="10" stroke-dasharray="none" stroke-opacity="1"></path><path d="m 0,0 c 0,-2.54 2.059,-4.599 4.599,-4.599 2.54,0 4.598,2.059 4.598,4.599 0,2.54 -2.058,4.599 -4.598,4.599 C 2.059,4.599 0,2.54 0,0 Z" transform="matrix(1.3333333,0,0,-1.3333333,597.5012,315.31947)" clip-path="url(#z)" fill="none" stroke="currentColor" stroke-width="1" stroke-linecap="butt" stroke-linejoin="miter" stroke-miterlimit="10" stroke-dasharray="none" stroke-opacity="1"></path><path d="m 0,0 c 0,-0.738 -0.598,-1.336 -1.336,-1.336 -0.737,0 -1.336,0.598 -1.336,1.336 0,0.738 0.599,1.336 1.336,1.336 C -0.598,1.336 0,0.738 0,0 Z" transform="matrix(1.3333333,0,0,-1.3333333,605.44773,313.88333)" clip-path="url(#A)" fill="none" stroke="currentColor" stroke-width="1" stroke-linecap="butt" stroke-linejoin="miter" stroke-miterlimit="10" stroke-dasharray="none" stroke-opacity="1"></path><path d="M 0,0 C 0,1.122 -0.909,2.031 -2.031,2.031 H -2.814 C -3.937,2.031 -4.846,1.122 -4.846,0" transform="matrix(1.3333333,0,0,-1.3333333,606.97253,320.55)" clip-path="url(#B)" fill="none" stroke="currentColor" stroke-width="1" stroke-linecap="butt" stroke-linejoin="miter" stroke-miterlimit="10" stroke-dasharray="none" stroke-opacity="1"></path><path d="m 0,0 c 0,-2.54 2.059,-4.599 4.599,-4.599 2.54,0 4.598,2.059 4.598,4.599 0,2.54 -2.058,4.599 -4.598,4.599 C 2.059,4.599 0,2.54 0,0 Z" transform="matrix(1.3333333,0,0,-1.3333333,560.15867,315.31947)" clip-path="url(#C)" fill="none" stroke="currentColor" stroke-width="1" stroke-linecap="butt" stroke-linejoin="miter" stroke-miterlimit="10" stroke-dasharray="none" stroke-opacity="1"></path><path d="m 0,0 c 0,-0.738 -0.599,-1.336 -1.336,-1.336 -0.738,0 -1.336,0.598 -1.336,1.336 0,0.738 0.598,1.336 1.336,1.336 C -0.599,1.336 0,0.738 0,0 Z" transform="matrix(1.3333333,0,0,-1.3333333,568.10533,313.88333)" clip-path="url(#D)" fill="none" stroke="currentColor" stroke-width="1" stroke-linecap="butt" stroke-linejoin="miter" stroke-miterlimit="10" stroke-dasharray="none" stroke-opacity="1"></path><path d="M 0,0 C 0,1.122 -0.909,2.031 -2.031,2.031 H -2.814 C -3.937,2.031 -4.846,1.122 -4.846,0" transform="matrix(1.3333333,0,0,-1.3333333,569.63,320.55)" clip-path="url(#E)" fill="none" stroke="currentColor" stroke-width="1" stroke-linecap="butt" stroke-linejoin="miter" stroke-miterlimit="10" stroke-dasharray="none" stroke-opacity="1"></path><path d="m 0,0 c 0,-2.539 2.06,-4.599 4.599,-4.599 2.54,0 4.599,2.06 4.599,4.599 0,2.54 -2.059,4.599 -4.599,4.599 C 2.06,4.599 0,2.54 0,0 Z" transform="matrix(1.3333333,0,0,-1.3333333,578.8292,304.55)" clip-path="url(#F)" fill="none" stroke="currentColor" stroke-width="1" stroke-linecap="butt" stroke-linejoin="miter" stroke-miterlimit="10" stroke-dasharray="none" stroke-opacity="1"></path><path d="m 0,0 c 0,-0.737 -0.599,-1.336 -1.336,-1.336 -0.738,0 -1.336,0.599 -1.336,1.336 0,0.738 0.598,1.336 1.336,1.336 C -0.599,1.336 0,0.738 0,0 Z" transform="matrix(1.3333333,0,0,-1.3333333,586.7772,303.11373)" clip-path="url(#G)" fill="none" stroke="currentColor" stroke-width="1" stroke-linecap="butt" stroke-linejoin="miter" stroke-miterlimit="10" stroke-dasharray="none" stroke-opacity="1"></path><path d="M 0,0 C 0,1.122 -0.909,2.031 -2.03,2.031 H -2.814 C -3.936,2.031 -4.846,1.122 -4.846,0" transform="matrix(1.3333333,0,0,-1.3333333,588.30067,309.7804)" clip-path="url(#H)" fill="none" stroke="currentColor" stroke-width="1" stroke-linecap="butt" stroke-linejoin="miter" stroke-miterlimit="10" stroke-dasharray="none" stroke-opacity="1"></path><path d="M 0,0 0.866,0.5" transform="matrix(1.3333333,0,0,-1.3333333,590.26547,344.60987)" clip-path="url(#I)" fill="none" stroke="currentColor" stroke-width="1" stroke-linecap="butt" stroke-linejoin="miter" stroke-miterlimit="10" stroke-dasharray="none" stroke-opacity="1"></path><path d="M 0,0 2.217,1.28" transform="matrix(1.3333333,0,0,-1.3333333,593.39173,342.8052)" clip-path="url(#J)" fill="none" stroke="currentColor" stroke-width="1" stroke-linecap="butt" stroke-linejoin="miter" stroke-miterlimit="10" stroke-dasharray="1.707, 1.707" stroke-dashoffset="0" stroke-opacity="1"></path><path d="M 0,0 0.866,0.5" transform="matrix(1.3333333,0,0,-1.3333333,597.3332,340.5292)" clip-path="url(#K)" fill="none" stroke="currentColor" stroke-width="1" stroke-linecap="butt" stroke-linejoin="miter" stroke-miterlimit="10" stroke-dasharray="none" stroke-opacity="1"></path><path d="M 0,0 0.865,-0.5" transform="matrix(1.3333333,0,0,-1.3333333,571.37613,339.87813)" clip-path="url(#L)" fill="none" stroke="currentColor" stroke-width="1" stroke-linecap="butt" stroke-linejoin="miter" stroke-miterlimit="10" stroke-dasharray="none" stroke-opacity="1"></path><path d="M 0,0 2.282,-1.317" transform="matrix(1.3333333,0,0,-1.3333333,574.55973,341.71667)" clip-path="url(#M)" fill="none" stroke="currentColor" stroke-width="1" stroke-linecap="butt" stroke-linejoin="miter" stroke-miterlimit="10" stroke-dasharray="1.757, 1.757" stroke-dashoffset="0" stroke-opacity="1"></path><path d="M 0,0 0.866,-0.5" transform="matrix(1.3333333,0,0,-1.3333333,578.61707,344.05907)" clip-path="url(#N)" fill="none" stroke="currentColor" stroke-width="1" stroke-linecap="butt" stroke-linejoin="miter" stroke-miterlimit="10" stroke-dasharray="none" stroke-opacity="1"></path><path d="M 0,0 V 4.165" transform="matrix(1.3333333,0,0,-1.3333333,584.91787,341.5656)" clip-path="url(#O)" fill="none" stroke="currentColor" stroke-width="1" stroke-linecap="butt" stroke-linejoin="miter" stroke-miterlimit="10" stroke-dasharray="none" stroke-opacity="1"></path><path d="m 0,0 c 0,-2.54 2.059,-4.599 4.599,-4.599 2.54,0 4.598,2.059 4.598,4.599 0,2.54 -2.058,4.599 -4.598,4.599 C 2.059,4.599 0,2.54 0,0 Z" transform="matrix(1.3333333,0,0,-1.3333333,578.77067,347.69707)" clip-path="url(#P)" fill="none" stroke="currentColor" stroke-width="1" stroke-linecap="butt" stroke-linejoin="miter" stroke-miterlimit="10" stroke-dasharray="none" stroke-opacity="1"></path><path d="m 0,0 c 0,-0.738 -0.598,-1.336 -1.336,-1.336 -0.737,0 -1.336,0.598 -1.336,1.336 0,0.737 0.599,1.336 1.336,1.336 C -0.598,1.336 0,0.737 0,0 Z" transform="matrix(1.3333333,0,0,-1.3333333,586.71733,346.26093)" clip-path="url(#Q)" fill="none" stroke="currentColor" stroke-width="1" stroke-linecap="butt" stroke-linejoin="miter" stroke-miterlimit="10" stroke-dasharray="none" stroke-opacity="1"></path><path d="M 0,0 C 0,1.122 -0.909,2.031 -2.031,2.031 H -2.814 C -3.937,2.031 -4.846,1.122 -4.846,0" transform="matrix(1.3333333,0,0,-1.3333333,588.242,352.9276)" clip-path="url(#R)" fill="none" stroke="currentColor" stroke-width="1" stroke-linecap="butt" stroke-linejoin="miter" stroke-miterlimit="10" stroke-dasharray="none" stroke-opacity="1"></path><path d="m 0,0 c 0,-1.39 -1.126,-2.517 -2.516,-2.517 -1.389,0 -2.516,1.127 -2.516,2.517 0,1.39 1.127,2.516 2.516,2.516 C -1.126,2.516 0,1.39 0,0 Z" transform="matrix(1.3333333,0,0,-1.3333333,588.30067,326.0916)" clip-path="url(#S)" fill="none" stroke="currentColor" stroke-width="1" stroke-linecap="butt" stroke-linejoin="miter" stroke-miterlimit="10" stroke-dasharray="none" stroke-opacity="1"></path></g></svg>