<?xml version="1.0" encoding="UTF-8" standalone="no"?>
<!-- Created with Inkscape (http://www.inkscape.org/) -->

<svg
   version="1.1"
   id="svg1"
   width="68.320007"
   height="68.320007"
   viewBox="0 0 68.320006 68.320008"
   xmlns="http://www.w3.org/2000/svg"
   xmlns:svg="http://www.w3.org/2000/svg">
  <defs
     id="defs1">
    <clipPath
       clipPathUnits="userSpaceOnUse"
       id="clipPath265">
      <path
         d="M 0,422.39 H 838.228 V 0 H 0 Z"
         transform="translate(-438.72061,-203.41791)"
         id="path265" />
    </clipPath>
    <clipPath
       clipPathUnits="userSpaceOnUse"
       id="clipPath267">
      <path
         d="M 0,422.39 H 838.228 V 0 H 0 Z"
         transform="translate(-444.48621,-177.8213)"
         id="path267" />
    </clipPath>
    <clipPath
       clipPathUnits="userSpaceOnUse"
       id="clipPath269">
      <path
         d="M 0,422.39 H 838.228 V 0 H 0 Z"
         transform="translate(-434.69911,-191.6621)"
         id="path269" />
    </clipPath>
    <clipPath
       clipPathUnits="userSpaceOnUse"
       id="clipPath271">
      <path
         d="M 0,422.39 H 838.228 V 0 H 0 Z"
         transform="translate(-432.35441,-190.3086)"
         id="path271" />
    </clipPath>
    <clipPath
       clipPathUnits="userSpaceOnUse"
       id="clipPath273">
      <path
         d="M 0,422.39 H 838.228 V 0 H 0 Z"
         transform="translate(-429.39731,-188.6015)"
         id="path273" />
    </clipPath>
    <clipPath
       clipPathUnits="userSpaceOnUse"
       id="clipPath275">
      <path
         d="M 0,422.39 H 838.228 V 0 H 0 Z"
         transform="translate(-448.86611,-188.11421)"
         id="path275" />
    </clipPath>
    <clipPath
       clipPathUnits="userSpaceOnUse"
       id="clipPath277">
      <path
         d="M 0,422.39 H 838.228 V 0 H 0 Z"
         transform="translate(-446.47841,-189.4922)"
         id="path277" />
    </clipPath>
    <clipPath
       clipPathUnits="userSpaceOnUse"
       id="clipPath279">
      <path
         d="M 0,422.39 H 838.228 V 0 H 0 Z"
         transform="translate(-443.43441,-191.25)"
         id="path279" />
    </clipPath>
    <clipPath
       clipPathUnits="userSpaceOnUse"
       id="clipPath281">
      <path
         d="M 0,422.39 H 838.228 V 0 H 0 Z"
         transform="translate(-452.70201,-174.34181)"
         id="path281" />
    </clipPath>
    <clipPath
       clipPathUnits="userSpaceOnUse"
       id="clipPath283">
      <path
         d="M 0,422.39 H 838.228 V 0 H 0 Z"
         transform="translate(-452.70201,-176.9951)"
         id="path283" />
    </clipPath>
    <clipPath
       clipPathUnits="userSpaceOnUse"
       id="clipPath285">
      <path
         d="M 0,422.39 H 838.228 V 0 H 0 Z"
         transform="translate(-452.70201,-180.3017)"
         id="path285" />
    </clipPath>
    <clipPath
       clipPathUnits="userSpaceOnUse"
       id="clipPath287">
      <path
         d="M 0,422.39 H 838.228 V 0 H 0 Z"
         transform="translate(-424.71771,-181.3017)"
         id="path287" />
    </clipPath>
    <clipPath
       clipPathUnits="userSpaceOnUse"
       id="clipPath289">
      <path
         d="M 0,422.39 H 838.228 V 0 H 0 Z"
         transform="translate(-424.71771,-178.6484)"
         id="path289" />
    </clipPath>
    <clipPath
       clipPathUnits="userSpaceOnUse"
       id="clipPath291">
      <path
         d="M 0,422.39 H 838.228 V 0 H 0 Z"
         transform="translate(-424.71771,-175.3418)"
         id="path291" />
    </clipPath>
    <clipPath
       clipPathUnits="userSpaceOnUse"
       id="clipPath293">
      <path
         d="M 0,422.39 H 838.228 V 0 H 0 Z"
         transform="translate(-428.74111,-172.0664)"
         id="path293" />
    </clipPath>
    <clipPath
       clipPathUnits="userSpaceOnUse"
       id="clipPath295">
      <path
         d="M 0,422.39 H 838.228 V 0 H 0 Z"
         transform="translate(-428.53211,-183.69821)"
         id="path295" />
    </clipPath>
    <clipPath
       clipPathUnits="userSpaceOnUse"
       id="clipPath297">
      <path
         d="M 0,422.39 H 838.228 V 0 H 0 Z"
         transform="translate(-448.12591,-169.74311)"
         id="path297" />
    </clipPath>
    <clipPath
       clipPathUnits="userSpaceOnUse"
       id="clipPath299">
      <path
         d="M 0,422.39 H 838.228 V 0 H 0 Z"
         transform="translate(-448.86511,-171.9707)"
         id="path299" />
    </clipPath>
    <clipPath
       clipPathUnits="userSpaceOnUse"
       id="clipPath301">
      <path
         d="M 0,422.39 H 838.228 V 0 H 0 Z"
         transform="translate(-448.86611,-183.6728)"
         id="path301" />
    </clipPath>
    <clipPath
       clipPathUnits="userSpaceOnUse"
       id="clipPath303">
      <path
         d="M 0,422.39 H 838.228 V 0 H 0 Z"
         transform="translate(-438.70981,-189.3789)"
         id="path303" />
    </clipPath>
    <clipPath
       clipPathUnits="userSpaceOnUse"
       id="clipPath305">
      <path
         d="M 0,422.39 H 838.228 V 0 H 0 Z"
         transform="translate(-454.08581,-170.8193)"
         id="path305" />
    </clipPath>
    <clipPath
       clipPathUnits="userSpaceOnUse"
       id="clipPath307">
      <path
         d="M 0,422.39 H 838.228 V 0 H 0 Z"
         transform="translate(-455.22941,-165.8193)"
         id="path307" />
    </clipPath>
    <clipPath
       clipPathUnits="userSpaceOnUse"
       id="clipPath309">
      <path
         d="M 0,422.39 H 838.228 V 0 H 0 Z"
         transform="translate(-420.11901,-169.74311)"
         id="path309" />
    </clipPath>
    <clipPath
       clipPathUnits="userSpaceOnUse"
       id="clipPath311">
      <path
         d="M 0,422.39 H 838.228 V 0 H 0 Z"
         transform="translate(-426.07901,-170.8193)"
         id="path311" />
    </clipPath>
    <clipPath
       clipPathUnits="userSpaceOnUse"
       id="clipPath313">
      <path
         d="M 0,422.39 H 838.228 V 0 H 0 Z"
         transform="translate(-427.22251,-165.8193)"
         id="path313" />
    </clipPath>
    <clipPath
       clipPathUnits="userSpaceOnUse"
       id="clipPath315">
      <path
         d="M 0,422.39 H 838.228 V 0 H 0 Z"
         transform="translate(-448.12591,-185.9004)"
         id="path315" />
    </clipPath>
    <clipPath
       clipPathUnits="userSpaceOnUse"
       id="clipPath317">
      <path
         d="M 0,422.39 H 838.228 V 0 H 0 Z"
         transform="translate(-454.08581,-186.97751)"
         id="path317" />
    </clipPath>
    <clipPath
       clipPathUnits="userSpaceOnUse"
       id="clipPath319">
      <path
         d="M 0,422.39 H 838.228 V 0 H 0 Z"
         transform="translate(-455.22941,-181.9775)"
         id="path319" />
    </clipPath>
    <clipPath
       clipPathUnits="userSpaceOnUse"
       id="clipPath321">
      <path
         d="M 0,422.39 H 838.228 V 0 H 0 Z"
         transform="translate(-420.11901,-185.9004)"
         id="path321" />
    </clipPath>
    <clipPath
       clipPathUnits="userSpaceOnUse"
       id="clipPath323">
      <path
         d="M 0,422.39 H 838.228 V 0 H 0 Z"
         transform="translate(-426.07901,-186.97751)"
         id="path323" />
    </clipPath>
    <clipPath
       clipPathUnits="userSpaceOnUse"
       id="clipPath325">
      <path
         d="M 0,422.39 H 838.228 V 0 H 0 Z"
         transform="translate(-427.22251,-181.9775)"
         id="path325" />
    </clipPath>
    <clipPath
       clipPathUnits="userSpaceOnUse"
       id="clipPath327">
      <path
         d="M 0,422.39 H 838.228 V 0 H 0 Z"
         transform="translate(-434.12191,-193.9775)"
         id="path327" />
    </clipPath>
    <clipPath
       clipPathUnits="userSpaceOnUse"
       id="clipPath329">
      <path
         d="M 0,422.39 H 838.228 V 0 H 0 Z"
         transform="translate(-440.08291,-195.05471)"
         id="path329" />
    </clipPath>
    <clipPath
       clipPathUnits="userSpaceOnUse"
       id="clipPath331">
      <path
         d="M 0,422.39 H 838.228 V 0 H 0 Z"
         transform="translate(-441.22551,-190.0547)"
         id="path331" />
    </clipPath>
    <clipPath
       clipPathUnits="userSpaceOnUse"
       id="clipPath333">
      <path
         d="M 0,422.39 H 838.228 V 0 H 0 Z"
         transform="translate(-442.69911,-163.9326)"
         id="path333" />
    </clipPath>
    <clipPath
       clipPathUnits="userSpaceOnUse"
       id="clipPath335">
      <path
         d="M 0,422.39 H 838.228 V 0 H 0 Z"
         transform="translate(-445.04381,-165.2861)"
         id="path335" />
    </clipPath>
    <clipPath
       clipPathUnits="userSpaceOnUse"
       id="clipPath337">
      <path
         d="M 0,422.39 H 838.228 V 0 H 0 Z"
         transform="translate(-447.99991,-166.9931)"
         id="path337" />
    </clipPath>
    <clipPath
       clipPathUnits="userSpaceOnUse"
       id="clipPath339">
      <path
         d="M 0,422.39 H 838.228 V 0 H 0 Z"
         transform="translate(-428.53211,-167.48141)"
         id="path339" />
    </clipPath>
    <clipPath
       clipPathUnits="userSpaceOnUse"
       id="clipPath341">
      <path
         d="M 0,422.39 H 838.228 V 0 H 0 Z"
         transform="translate(-430.91981,-166.1025)"
         id="path341" />
    </clipPath>
    <clipPath
       clipPathUnits="userSpaceOnUse"
       id="clipPath343">
      <path
         d="M 0,422.39 H 838.228 V 0 H 0 Z"
         transform="translate(-433.96281,-164.3457)"
         id="path343" />
    </clipPath>
    <clipPath
       clipPathUnits="userSpaceOnUse"
       id="clipPath345">
      <path
         d="M 0,422.39 H 838.228 V 0 H 0 Z"
         transform="translate(-438.68841,-166.2158)"
         id="path345" />
    </clipPath>
    <clipPath
       clipPathUnits="userSpaceOnUse"
       id="clipPath347">
      <path
         d="M 0,422.39 H 838.228 V 0 H 0 Z"
         transform="translate(-434.07801,-161.6172)"
         id="path347" />
    </clipPath>
    <clipPath
       clipPathUnits="userSpaceOnUse"
       id="clipPath349">
      <path
         d="M 0,422.39 H 838.228 V 0 H 0 Z"
         transform="translate(-440.03801,-162.69431)"
         id="path349" />
    </clipPath>
    <clipPath
       clipPathUnits="userSpaceOnUse"
       id="clipPath351">
      <path
         d="M 0,422.39 H 838.228 V 0 H 0 Z"
         transform="translate(-441.18151,-157.6943)"
         id="path351" />
    </clipPath>
    <clipPath
       clipPathUnits="userSpaceOnUse"
       id="clipPath353">
      <path
         d="M 0,422.39 H 838.228 V 0 H 0 Z"
         transform="translate(-441.22551,-177.8213)"
         id="path353" />
    </clipPath>
  </defs>
  <g
     id="layer-MC0"
     transform="translate(-550.8008,-291.9628)">
    <path
       id="path264"
       d="m 0,0 c -14.149,0 -25.62,-11.471 -25.62,-25.62 0,-14.15 11.471,-25.62 25.62,-25.62 14.15,0 25.62,11.47 25.62,25.62 C 25.62,-11.471 14.15,0 0,0 m 0,-1 c 13.576,0 24.62,-11.045 24.62,-24.62 0,-13.576 -11.044,-24.62 -24.62,-24.62 -13.575,0 -24.62,11.044 -24.62,24.62 C -24.62,-12.045 -13.575,-1 0,-1"
       style="fill:#254aa5;fill-opacity:1;fill-rule:nonzero;stroke:none"
       transform="matrix(1.3333333,0,0,-1.3333333,584.9608,291.9628)"
       clip-path="url(#clipPath265)" />
    <path
       id="path266"
       d="m 0,0 c 0,-3.19 -2.587,-5.776 -5.776,-5.776 -3.191,0 -5.777,2.586 -5.777,5.776 0,3.19 2.586,5.776 5.777,5.776 C -2.587,5.776 0,3.19 0,0 Z"
       style="fill:none;stroke:#254aa5;stroke-width:1;stroke-linecap:butt;stroke-linejoin:miter;stroke-miterlimit:10;stroke-dasharray:none;stroke-opacity:1"
       transform="matrix(1.3333333,0,0,-1.3333333,592.64827,326.0916)"
       clip-path="url(#clipPath267)" />
    <path
       id="path268"
       d="M 0,0 -0.866,-0.5"
       style="fill:none;stroke:#254aa5;stroke-width:1;stroke-linecap:butt;stroke-linejoin:miter;stroke-miterlimit:10;stroke-dasharray:none;stroke-opacity:1"
       transform="matrix(1.3333333,0,0,-1.3333333,579.5988,307.6372)"
       clip-path="url(#clipPath269)" />
    <path
       id="path270"
       d="M 0,0 -2.218,-1.28"
       style="fill:none;stroke:#254aa5;stroke-width:1;stroke-linecap:butt;stroke-linejoin:miter;stroke-miterlimit:10;stroke-dasharray:1.707, 1.707;stroke-dashoffset:0;stroke-opacity:1"
       transform="matrix(1.3333333,0,0,-1.3333333,576.47253,309.44187)"
       clip-path="url(#clipPath271)" />
    <path
       id="path272"
       d="M 0,0 -0.865,-0.5"
       style="fill:none;stroke:#254aa5;stroke-width:1;stroke-linecap:butt;stroke-linejoin:miter;stroke-miterlimit:10;stroke-dasharray:none;stroke-opacity:1"
       transform="matrix(1.3333333,0,0,-1.3333333,572.52973,311.718)"
       clip-path="url(#clipPath273)" />
    <path
       id="path274"
       d="M 0,0 -0.866,0.5"
       style="fill:none;stroke:#254aa5;stroke-width:1;stroke-linecap:butt;stroke-linejoin:miter;stroke-miterlimit:10;stroke-dasharray:none;stroke-opacity:1"
       transform="matrix(1.3333333,0,0,-1.3333333,598.48813,312.36773)"
       clip-path="url(#clipPath275)" />
    <path
       id="path276"
       d="M 0,0 -2.282,1.318"
       style="fill:none;stroke:#254aa5;stroke-width:1;stroke-linecap:butt;stroke-linejoin:miter;stroke-miterlimit:10;stroke-dasharray:1.757, 1.757;stroke-dashoffset:0;stroke-opacity:1"
       transform="matrix(1.3333333,0,0,-1.3333333,595.30453,310.5304)"
       clip-path="url(#clipPath277)" />
    <path
       id="path278"
       d="M 0,0 -0.865,0.5"
       style="fill:none;stroke:#254aa5;stroke-width:1;stroke-linecap:butt;stroke-linejoin:miter;stroke-miterlimit:10;stroke-dasharray:none;stroke-opacity:1"
       transform="matrix(1.3333333,0,0,-1.3333333,591.24587,308.18667)"
       clip-path="url(#clipPath279)" />
    <path
       id="path280"
       d="M 0,0 V 1"
       style="fill:none;stroke:#254aa5;stroke-width:1;stroke-linecap:butt;stroke-linejoin:miter;stroke-miterlimit:10;stroke-dasharray:none;stroke-opacity:1"
       transform="matrix(1.3333333,0,0,-1.3333333,603.60267,330.73093)"
       clip-path="url(#clipPath281)" />
    <path
       id="path282"
       d="M 0,0 V 2.48"
       style="fill:none;stroke:#254aa5;stroke-width:1;stroke-linecap:butt;stroke-linejoin:miter;stroke-miterlimit:10;stroke-dasharray:1.653, 1.653;stroke-dashoffset:0;stroke-opacity:1"
       transform="matrix(1.3333333,0,0,-1.3333333,603.60267,327.1932)"
       clip-path="url(#clipPath283)" />
    <path
       id="path284"
       d="M 0,0 V 1"
       style="fill:none;stroke:#254aa5;stroke-width:1;stroke-linecap:butt;stroke-linejoin:miter;stroke-miterlimit:10;stroke-dasharray:none;stroke-opacity:1"
       transform="matrix(1.3333333,0,0,-1.3333333,603.60267,322.7844)"
       clip-path="url(#clipPath285)" />
    <path
       id="path286"
       d="M 0,0 V -1"
       style="fill:none;stroke:#254aa5;stroke-width:1;stroke-linecap:butt;stroke-linejoin:miter;stroke-miterlimit:10;stroke-dasharray:none;stroke-opacity:1"
       transform="matrix(1.3333333,0,0,-1.3333333,566.29027,321.45107)"
       clip-path="url(#clipPath287)" />
    <path
       id="path288"
       d="M 0,0 V -2.48"
       style="fill:none;stroke:#254aa5;stroke-width:1;stroke-linecap:butt;stroke-linejoin:miter;stroke-miterlimit:10;stroke-dasharray:1.653, 1.653;stroke-dashoffset:0;stroke-opacity:1"
       transform="matrix(1.3333333,0,0,-1.3333333,566.29027,324.9888)"
       clip-path="url(#clipPath289)" />
    <path
       id="path290"
       d="M 0,0 V -1"
       style="fill:none;stroke:#254aa5;stroke-width:1;stroke-linecap:butt;stroke-linejoin:miter;stroke-miterlimit:10;stroke-dasharray:none;stroke-opacity:1"
       transform="matrix(1.3333333,0,0,-1.3333333,566.29027,329.3976)"
       clip-path="url(#clipPath291)" />
    <path
       id="path292"
       d="M 0,0 3.565,2.058"
       style="fill:none;stroke:#254aa5;stroke-width:1;stroke-linecap:butt;stroke-linejoin:miter;stroke-miterlimit:10;stroke-dasharray:none;stroke-opacity:1"
       transform="matrix(1.3333333,0,0,-1.3333333,571.6548,333.7648)"
       clip-path="url(#clipPath293)" />
    <path
       id="path294"
       d="M 0,0 3.812,-2.201"
       style="fill:none;stroke:#254aa5;stroke-width:1;stroke-linecap:butt;stroke-linejoin:miter;stroke-miterlimit:10;stroke-dasharray:none;stroke-opacity:1"
       transform="matrix(1.3333333,0,0,-1.3333333,571.37613,318.25573)"
       clip-path="url(#clipPath295)" />
    <path
       id="path296"
       d="m 0,0 c 0,-2.54 2.059,-4.599 4.599,-4.599 2.54,0 4.598,2.059 4.598,4.599 0,2.539 -2.058,4.599 -4.598,4.599 C 2.059,4.599 0,2.539 0,0 Z"
       style="fill:none;stroke:#254aa5;stroke-width:1;stroke-linecap:butt;stroke-linejoin:miter;stroke-miterlimit:10;stroke-dasharray:none;stroke-opacity:1"
       transform="matrix(1.3333333,0,0,-1.3333333,597.5012,336.86253)"
       clip-path="url(#clipPath297)" />
    <path
       id="path298"
       d="M 0,0 -3.729,2.153"
       style="fill:none;stroke:#254aa5;stroke-width:1;stroke-linecap:butt;stroke-linejoin:miter;stroke-miterlimit:10;stroke-dasharray:none;stroke-opacity:1"
       transform="matrix(1.3333333,0,0,-1.3333333,598.4868,333.8924)"
       clip-path="url(#clipPath299)" />
    <path
       id="path300"
       d="M 0,0 -3.768,-2.176"
       style="fill:none;stroke:#254aa5;stroke-width:1;stroke-linecap:butt;stroke-linejoin:miter;stroke-miterlimit:10;stroke-dasharray:none;stroke-opacity:1"
       transform="matrix(1.3333333,0,0,-1.3333333,598.48813,318.2896)"
       clip-path="url(#clipPath301)" />
    <path
       id="path302"
       d="M 0,0 V -4.165"
       style="fill:none;stroke:#254aa5;stroke-width:1;stroke-linecap:butt;stroke-linejoin:miter;stroke-miterlimit:10;stroke-dasharray:none;stroke-opacity:1"
       transform="matrix(1.3333333,0,0,-1.3333333,584.9464,310.68147)"
       clip-path="url(#clipPath303)" />
    <path
       id="path304"
       d="m 0,0 c 0,-0.737 -0.598,-1.336 -1.336,-1.336 -0.737,0 -1.336,0.599 -1.336,1.336 0,0.738 0.599,1.336 1.336,1.336 C -0.598,1.336 0,0.738 0,0 Z"
       style="fill:none;stroke:#254aa5;stroke-width:1;stroke-linecap:butt;stroke-linejoin:miter;stroke-miterlimit:10;stroke-dasharray:none;stroke-opacity:1"
       transform="matrix(1.3333333,0,0,-1.3333333,605.44773,335.4276)"
       clip-path="url(#clipPath305)" />
    <path
       id="path306"
       d="M 0,0 C 0,1.122 -0.909,2.031 -2.031,2.031 H -2.814 C -3.937,2.031 -4.846,1.122 -4.846,0"
       style="fill:none;stroke:#254aa5;stroke-width:1;stroke-linecap:butt;stroke-linejoin:miter;stroke-miterlimit:10;stroke-dasharray:none;stroke-opacity:1"
       transform="matrix(1.3333333,0,0,-1.3333333,606.97253,342.09427)"
       clip-path="url(#clipPath307)" />
    <path
       id="path308"
       d="m 0,0 c 0,-2.54 2.059,-4.599 4.599,-4.599 2.54,0 4.598,2.059 4.598,4.599 0,2.539 -2.058,4.599 -4.598,4.599 C 2.059,4.599 0,2.539 0,0 Z"
       style="fill:none;stroke:#254aa5;stroke-width:1;stroke-linecap:butt;stroke-linejoin:miter;stroke-miterlimit:10;stroke-dasharray:none;stroke-opacity:1"
       transform="matrix(1.3333333,0,0,-1.3333333,560.15867,336.86253)"
       clip-path="url(#clipPath309)" />
    <path
       id="path310"
       d="m 0,0 c 0,-0.737 -0.599,-1.336 -1.336,-1.336 -0.738,0 -1.336,0.599 -1.336,1.336 0,0.738 0.598,1.336 1.336,1.336 C -0.599,1.336 0,0.738 0,0 Z"
       style="fill:none;stroke:#254aa5;stroke-width:1;stroke-linecap:butt;stroke-linejoin:miter;stroke-miterlimit:10;stroke-dasharray:none;stroke-opacity:1"
       transform="matrix(1.3333333,0,0,-1.3333333,568.10533,335.4276)"
       clip-path="url(#clipPath311)" />
    <path
       id="path312"
       d="M 0,0 C 0,1.122 -0.909,2.031 -2.031,2.031 H -2.814 C -3.937,2.031 -4.846,1.122 -4.846,0"
       style="fill:none;stroke:#254aa5;stroke-width:1;stroke-linecap:butt;stroke-linejoin:miter;stroke-miterlimit:10;stroke-dasharray:none;stroke-opacity:1"
       transform="matrix(1.3333333,0,0,-1.3333333,569.63,342.09427)"
       clip-path="url(#clipPath313)" />
    <path
       id="path314"
       d="m 0,0 c 0,-2.54 2.059,-4.599 4.599,-4.599 2.54,0 4.598,2.059 4.598,4.599 0,2.54 -2.058,4.599 -4.598,4.599 C 2.059,4.599 0,2.54 0,0 Z"
       style="fill:none;stroke:#254aa5;stroke-width:1;stroke-linecap:butt;stroke-linejoin:miter;stroke-miterlimit:10;stroke-dasharray:none;stroke-opacity:1"
       transform="matrix(1.3333333,0,0,-1.3333333,597.5012,315.31947)"
       clip-path="url(#clipPath315)" />
    <path
       id="path316"
       d="m 0,0 c 0,-0.738 -0.598,-1.336 -1.336,-1.336 -0.737,0 -1.336,0.598 -1.336,1.336 0,0.738 0.599,1.336 1.336,1.336 C -0.598,1.336 0,0.738 0,0 Z"
       style="fill:none;stroke:#254aa5;stroke-width:1;stroke-linecap:butt;stroke-linejoin:miter;stroke-miterlimit:10;stroke-dasharray:none;stroke-opacity:1"
       transform="matrix(1.3333333,0,0,-1.3333333,605.44773,313.88333)"
       clip-path="url(#clipPath317)" />
    <path
       id="path318"
       d="M 0,0 C 0,1.122 -0.909,2.031 -2.031,2.031 H -2.814 C -3.937,2.031 -4.846,1.122 -4.846,0"
       style="fill:none;stroke:#254aa5;stroke-width:1;stroke-linecap:butt;stroke-linejoin:miter;stroke-miterlimit:10;stroke-dasharray:none;stroke-opacity:1"
       transform="matrix(1.3333333,0,0,-1.3333333,606.97253,320.55)"
       clip-path="url(#clipPath319)" />
    <path
       id="path320"
       d="m 0,0 c 0,-2.54 2.059,-4.599 4.599,-4.599 2.54,0 4.598,2.059 4.598,4.599 0,2.54 -2.058,4.599 -4.598,4.599 C 2.059,4.599 0,2.54 0,0 Z"
       style="fill:none;stroke:#254aa5;stroke-width:1;stroke-linecap:butt;stroke-linejoin:miter;stroke-miterlimit:10;stroke-dasharray:none;stroke-opacity:1"
       transform="matrix(1.3333333,0,0,-1.3333333,560.15867,315.31947)"
       clip-path="url(#clipPath321)" />
    <path
       id="path322"
       d="m 0,0 c 0,-0.738 -0.599,-1.336 -1.336,-1.336 -0.738,0 -1.336,0.598 -1.336,1.336 0,0.738 0.598,1.336 1.336,1.336 C -0.599,1.336 0,0.738 0,0 Z"
       style="fill:none;stroke:#254aa5;stroke-width:1;stroke-linecap:butt;stroke-linejoin:miter;stroke-miterlimit:10;stroke-dasharray:none;stroke-opacity:1"
       transform="matrix(1.3333333,0,0,-1.3333333,568.10533,313.88333)"
       clip-path="url(#clipPath323)" />
    <path
       id="path324"
       d="M 0,0 C 0,1.122 -0.909,2.031 -2.031,2.031 H -2.814 C -3.937,2.031 -4.846,1.122 -4.846,0"
       style="fill:none;stroke:#254aa5;stroke-width:1;stroke-linecap:butt;stroke-linejoin:miter;stroke-miterlimit:10;stroke-dasharray:none;stroke-opacity:1"
       transform="matrix(1.3333333,0,0,-1.3333333,569.63,320.55)"
       clip-path="url(#clipPath325)" />
    <path
       id="path326"
       d="m 0,0 c 0,-2.539 2.06,-4.599 4.599,-4.599 2.54,0 4.599,2.06 4.599,4.599 0,2.54 -2.059,4.599 -4.599,4.599 C 2.06,4.599 0,2.54 0,0 Z"
       style="fill:none;stroke:#254aa5;stroke-width:1;stroke-linecap:butt;stroke-linejoin:miter;stroke-miterlimit:10;stroke-dasharray:none;stroke-opacity:1"
       transform="matrix(1.3333333,0,0,-1.3333333,578.8292,304.55)"
       clip-path="url(#clipPath327)" />
    <path
       id="path328"
       d="m 0,0 c 0,-0.737 -0.599,-1.336 -1.336,-1.336 -0.738,0 -1.336,0.599 -1.336,1.336 0,0.738 0.598,1.336 1.336,1.336 C -0.599,1.336 0,0.738 0,0 Z"
       style="fill:none;stroke:#254aa5;stroke-width:1;stroke-linecap:butt;stroke-linejoin:miter;stroke-miterlimit:10;stroke-dasharray:none;stroke-opacity:1"
       transform="matrix(1.3333333,0,0,-1.3333333,586.7772,303.11373)"
       clip-path="url(#clipPath329)" />
    <path
       id="path330"
       d="M 0,0 C 0,1.122 -0.909,2.031 -2.03,2.031 H -2.814 C -3.936,2.031 -4.846,1.122 -4.846,0"
       style="fill:none;stroke:#254aa5;stroke-width:1;stroke-linecap:butt;stroke-linejoin:miter;stroke-miterlimit:10;stroke-dasharray:none;stroke-opacity:1"
       transform="matrix(1.3333333,0,0,-1.3333333,588.30067,309.7804)"
       clip-path="url(#clipPath331)" />
    <path
       id="path332"
       d="M 0,0 0.866,0.5"
       style="fill:none;stroke:#254aa5;stroke-width:1;stroke-linecap:butt;stroke-linejoin:miter;stroke-miterlimit:10;stroke-dasharray:none;stroke-opacity:1"
       transform="matrix(1.3333333,0,0,-1.3333333,590.26547,344.60987)"
       clip-path="url(#clipPath333)" />
    <path
       id="path334"
       d="M 0,0 2.217,1.28"
       style="fill:none;stroke:#254aa5;stroke-width:1;stroke-linecap:butt;stroke-linejoin:miter;stroke-miterlimit:10;stroke-dasharray:1.707, 1.707;stroke-dashoffset:0;stroke-opacity:1"
       transform="matrix(1.3333333,0,0,-1.3333333,593.39173,342.8052)"
       clip-path="url(#clipPath335)" />
    <path
       id="path336"
       d="M 0,0 0.866,0.5"
       style="fill:none;stroke:#254aa5;stroke-width:1;stroke-linecap:butt;stroke-linejoin:miter;stroke-miterlimit:10;stroke-dasharray:none;stroke-opacity:1"
       transform="matrix(1.3333333,0,0,-1.3333333,597.3332,340.5292)"
       clip-path="url(#clipPath337)" />
    <path
       id="path338"
       d="M 0,0 0.865,-0.5"
       style="fill:none;stroke:#254aa5;stroke-width:1;stroke-linecap:butt;stroke-linejoin:miter;stroke-miterlimit:10;stroke-dasharray:none;stroke-opacity:1"
       transform="matrix(1.3333333,0,0,-1.3333333,571.37613,339.87813)"
       clip-path="url(#clipPath339)" />
    <path
       id="path340"
       d="M 0,0 2.282,-1.317"
       style="fill:none;stroke:#254aa5;stroke-width:1;stroke-linecap:butt;stroke-linejoin:miter;stroke-miterlimit:10;stroke-dasharray:1.757, 1.757;stroke-dashoffset:0;stroke-opacity:1"
       transform="matrix(1.3333333,0,0,-1.3333333,574.55973,341.71667)"
       clip-path="url(#clipPath341)" />
    <path
       id="path342"
       d="M 0,0 0.866,-0.5"
       style="fill:none;stroke:#254aa5;stroke-width:1;stroke-linecap:butt;stroke-linejoin:miter;stroke-miterlimit:10;stroke-dasharray:none;stroke-opacity:1"
       transform="matrix(1.3333333,0,0,-1.3333333,578.61707,344.05907)"
       clip-path="url(#clipPath343)" />
    <path
       id="path344"
       d="M 0,0 V 4.165"
       style="fill:none;stroke:#254aa5;stroke-width:1;stroke-linecap:butt;stroke-linejoin:miter;stroke-miterlimit:10;stroke-dasharray:none;stroke-opacity:1"
       transform="matrix(1.3333333,0,0,-1.3333333,584.91787,341.5656)"
       clip-path="url(#clipPath345)" />
    <path
       id="path346"
       d="m 0,0 c 0,-2.54 2.059,-4.599 4.599,-4.599 2.54,0 4.598,2.059 4.598,4.599 0,2.54 -2.058,4.599 -4.598,4.599 C 2.059,4.599 0,2.54 0,0 Z"
       style="fill:none;stroke:#254aa5;stroke-width:1;stroke-linecap:butt;stroke-linejoin:miter;stroke-miterlimit:10;stroke-dasharray:none;stroke-opacity:1"
       transform="matrix(1.3333333,0,0,-1.3333333,578.77067,347.69707)"
       clip-path="url(#clipPath347)" />
    <path
       id="path348"
       d="m 0,0 c 0,-0.738 -0.598,-1.336 -1.336,-1.336 -0.737,0 -1.336,0.598 -1.336,1.336 0,0.737 0.599,1.336 1.336,1.336 C -0.598,1.336 0,0.737 0,0 Z"
       style="fill:none;stroke:#254aa5;stroke-width:1;stroke-linecap:butt;stroke-linejoin:miter;stroke-miterlimit:10;stroke-dasharray:none;stroke-opacity:1"
       transform="matrix(1.3333333,0,0,-1.3333333,586.71733,346.26093)"
       clip-path="url(#clipPath349)" />
    <path
       id="path350"
       d="M 0,0 C 0,1.122 -0.909,2.031 -2.031,2.031 H -2.814 C -3.937,2.031 -4.846,1.122 -4.846,0"
       style="fill:none;stroke:#254aa5;stroke-width:1;stroke-linecap:butt;stroke-linejoin:miter;stroke-miterlimit:10;stroke-dasharray:none;stroke-opacity:1"
       transform="matrix(1.3333333,0,0,-1.3333333,588.242,352.9276)"
       clip-path="url(#clipPath351)" />
    <path
       id="path352"
       d="m 0,0 c 0,-1.39 -1.126,-2.517 -2.516,-2.517 -1.389,0 -2.516,1.127 -2.516,2.517 0,1.39 1.127,2.516 2.516,2.516 C -1.126,2.516 0,1.39 0,0 Z"
       style="fill:none;stroke:#254aa5;stroke-width:1;stroke-linecap:butt;stroke-linejoin:miter;stroke-miterlimit:10;stroke-dasharray:none;stroke-opacity:1"
       transform="matrix(1.3333333,0,0,-1.3333333,588.30067,326.0916)"
       clip-path="url(#clipPath353)" />
  </g>
</svg>
