<?xml version="1.0" encoding="UTF-8" standalone="no"?>
<!-- Created with Inkscape (http://www.inkscape.org/) -->

<svg
   version="1.1"
   id="svg1"
   width="68.320007"
   height="68.320007"
   viewBox="0 0 68.320006 68.320008"
   xmlns="http://www.w3.org/2000/svg"
   xmlns:svg="http://www.w3.org/2000/svg">
  <defs
     id="defs1">
    <clipPath
       clipPathUnits="userSpaceOnUse"
       id="clipPath156">
      <path
         d="M 0,422.39 H 838.228 V 0 H 0 Z"
         transform="translate(-497.13851,-203.41791)"
         id="path156" />
    </clipPath>
    <clipPath
       clipPathUnits="userSpaceOnUse"
       id="clipPath225">
      <path
         d="M 0,422.39 H 838.228 V 0 H 0 Z"
         transform="translate(-502.25281,-183.6777)"
         id="path225" />
    </clipPath>
    <clipPath
       clipPathUnits="userSpaceOnUse"
       id="clipPath227">
      <path
         d="M 0,422.39 H 838.228 V 0 H 0 Z"
         transform="translate(-493.80161,-190.5879)"
         id="path227" />
    </clipPath>
    <clipPath
       clipPathUnits="userSpaceOnUse"
       id="clipPath229">
      <path
         d="M 0,422.39 H 838.228 V 0 H 0 Z"
         transform="translate(-496.60441,-176.9258)"
         id="path229" />
    </clipPath>
    <clipPath
       clipPathUnits="userSpaceOnUse"
       id="clipPath231">
      <path
         d="M 0,422.39 H 838.228 V 0 H 0 Z"
         transform="translate(-499.04191,-189.5781)"
         id="path231" />
    </clipPath>
    <clipPath
       clipPathUnits="userSpaceOnUse"
       id="clipPath233">
      <path
         d="M 0,422.39 H 838.228 V 0 H 0 Z"
         transform="translate(-491.36321,-177.9345)"
         id="path233" />
    </clipPath>
    <clipPath
       clipPathUnits="userSpaceOnUse"
       id="clipPath235">
      <path
         d="M 0,422.39 H 838.228 V 0 H 0 Z"
         transform="translate(-502.03411,-185.1582)"
         id="path235" />
    </clipPath>
    <clipPath
       clipPathUnits="userSpaceOnUse"
       id="clipPath237">
      <path
         d="M 0,422.39 H 838.228 V 0 H 0 Z"
         transform="translate(-488.37191,-182.35451)"
         id="path237" />
    </clipPath>
    <clipPath
       clipPathUnits="userSpaceOnUse"
       id="clipPath239">
      <path
         d="M 0,422.39 H 838.228 V 0 H 0 Z"
         transform="translate(-501.02431,-179.91701)"
         id="path239" />
    </clipPath>
    <clipPath
       clipPathUnits="userSpaceOnUse"
       id="clipPath241">
      <path
         d="M 0,422.39 H 838.228 V 0 H 0 Z"
         transform="translate(-489.38171,-187.5957)"
         id="path241" />
    </clipPath>
    <clipPath
       clipPathUnits="userSpaceOnUse"
       id="clipPath243">
      <path
         d="M 0,422.39 H 838.228 V 0 H 0 Z"
         transform="translate(-497.60531,-183.6777)"
         id="path243" />
    </clipPath>
    <clipPath
       clipPathUnits="userSpaceOnUse"
       id="clipPath245">
      <path
         d="M 0,422.39 H 838.228 V 0 H 0 Z"
         transform="translate(-506.21771,-166.4814)"
         id="path245" />
    </clipPath>
    <clipPath
       clipPathUnits="userSpaceOnUse"
       id="clipPath247">
      <path
         d="M 0,422.39 H 838.228 V 0 H 0 Z"
         transform="translate(-502.63852,-172.97561)"
         id="path247" />
    </clipPath>
    <clipPath
       clipPathUnits="userSpaceOnUse"
       id="clipPath249">
      <path
         d="M 0,422.39 H 838.228 V 0 H 0 Z"
         transform="translate(-500.94811,-163.65521)"
         id="path249" />
    </clipPath>
    <clipPath
       clipPathUnits="userSpaceOnUse"
       id="clipPath251">
      <path
         d="M 0,422.39 H 838.228 V 0 H 0 Z"
         transform="translate(-505.68641,-171.01361)"
         id="path251" />
    </clipPath>
    <clipPath
       clipPathUnits="userSpaceOnUse"
       id="clipPath253">
      <path
         d="M 0,422.39 H 838.228 V 0 H 0 Z"
         transform="translate(-497.90031,-165.61721)"
         id="path253" />
    </clipPath>
    <clipPath
       clipPathUnits="userSpaceOnUse"
       id="clipPath255">
      <path
         d="M 0,422.39 H 838.228 V 0 H 0 Z"
         transform="translate(-506.45401,-167.4707)"
         id="path255" />
    </clipPath>
    <clipPath
       clipPathUnits="userSpaceOnUse"
       id="clipPath257">
      <path
         d="M 0,422.39 H 838.228 V 0 H 0 Z"
         transform="translate(-497.13271,-169.1601)"
         id="path257" />
    </clipPath>
    <clipPath
       clipPathUnits="userSpaceOnUse"
       id="clipPath259">
      <path
         d="M 0,422.39 H 838.228 V 0 H 0 Z"
         transform="translate(-504.49111,-164.4228)"
         id="path259" />
    </clipPath>
    <clipPath
       clipPathUnits="userSpaceOnUse"
       id="clipPath261">
      <path
         d="M 0,422.39 H 838.228 V 0 H 0 Z"
         transform="translate(-499.09561,-172.208)"
         id="path261" />
    </clipPath>
    <clipPath
       clipPathUnits="userSpaceOnUse"
       id="clipPath263">
      <path
         d="M 0,422.39 H 838.228 V 0 H 0 Z"
         transform="translate(-503.28802,-167.65721)"
         id="path263" />
    </clipPath>
  </defs>
  <g
     id="layer-MC0"
     transform="translate(-628.69136,-291.9628)">
    <path
       id="path155"
       d="m 0,0 c -14.149,0 -25.62,-11.471 -25.62,-25.62 0,-14.15 11.471,-25.62 25.62,-25.62 14.149,0 25.62,11.47 25.62,25.62 C 25.62,-11.471 14.149,0 0,0 m 0,-1 c 13.575,0 24.62,-11.045 24.62,-24.62 0,-13.576 -11.045,-24.62 -24.62,-24.62 -13.576,0 -24.62,11.044 -24.62,24.62 C -24.62,-12.045 -13.576,-1 0,-1"
       style="fill:#254aa5;fill-opacity:1;fill-rule:nonzero;stroke:none"
       transform="matrix(1.3333333,0,0,-1.3333333,662.85133,291.9628)"
       clip-path="url(#clipPath156)" />
    <path
       id="path224"
       d="m 0,0 c 0,-3.894 -3.156,-7.05 -7.05,-7.05 -3.893,0 -7.05,3.156 -7.05,7.05 0,3.894 3.157,7.05 7.05,7.05 C -3.156,7.05 0,3.894 0,0 Z"
       style="fill:none;stroke:#254aa5;stroke-width:1;stroke-linecap:butt;stroke-linejoin:miter;stroke-miterlimit:10;stroke-dasharray:none;stroke-opacity:1"
       transform="matrix(1.3333333,0,0,-1.3333333,669.6704,318.28307)"
       clip-path="url(#clipPath225)" />
    <path
       id="path226"
       d="m 0,0 v 2.668 c 0,0.353 0.285,0.638 0.638,0.638 h 1.527 c 0.353,0 0.638,-0.285 0.638,-0.638 V 0"
       style="fill:none;stroke:#254aa5;stroke-width:1;stroke-linecap:butt;stroke-linejoin:miter;stroke-miterlimit:10;stroke-dasharray:none;stroke-opacity:1"
       transform="matrix(1.3333333,0,0,-1.3333333,658.40213,309.06947)"
       clip-path="url(#clipPath227)" />
    <path
       id="path228"
       d="m 0,0 v -2.668 c 0,-0.353 -0.285,-0.639 -0.638,-0.639 h -1.527 c -0.353,0 -0.638,0.286 -0.638,0.639 V 0"
       style="fill:none;stroke:#254aa5;stroke-width:1;stroke-linecap:butt;stroke-linejoin:miter;stroke-miterlimit:10;stroke-dasharray:none;stroke-opacity:1"
       transform="matrix(1.3333333,0,0,-1.3333333,662.1392,327.2856)"
       clip-path="url(#clipPath229)" />
    <path
       id="path230"
       d="m 0,0 1.887,1.887 c 0.249,0.249 0.653,0.249 0.902,0 l 1.08,-1.08 c 0.249,-0.249 0.249,-0.654 0,-0.903 L 1.982,-1.982"
       style="fill:none;stroke:#254aa5;stroke-width:1;stroke-linecap:butt;stroke-linejoin:miter;stroke-miterlimit:10;stroke-dasharray:none;stroke-opacity:1"
       transform="matrix(1.3333333,0,0,-1.3333333,665.3892,310.41587)"
       clip-path="url(#clipPath231)" />
    <path
       id="path232"
       d="m 0,0 -1.886,-1.886 c -0.249,-0.249 -0.653,-0.249 -0.902,0 l -1.08,1.08 c -0.249,0.249 -0.249,0.653 0,0.903 l 1.887,1.885"
       style="fill:none;stroke:#254aa5;stroke-width:1;stroke-linecap:butt;stroke-linejoin:miter;stroke-miterlimit:10;stroke-dasharray:none;stroke-opacity:1"
       transform="matrix(1.3333333,0,0,-1.3333333,655.15093,325.94067)"
       clip-path="url(#clipPath233)" />
    <path
       id="path234"
       d="m 0,0 h 2.668 c 0.353,0 0.639,-0.285 0.639,-0.638 v -1.527 c 0,-0.353 -0.286,-0.639 -0.639,-0.639 H 0"
       style="fill:none;stroke:#254aa5;stroke-width:1;stroke-linecap:butt;stroke-linejoin:miter;stroke-miterlimit:10;stroke-dasharray:none;stroke-opacity:1"
       transform="matrix(1.3333333,0,0,-1.3333333,669.3788,316.30907)"
       clip-path="url(#clipPath235)" />
    <path
       id="path236"
       d="m 0,0 h -2.668 c -0.353,0 -0.639,0.286 -0.639,0.639 v 1.527 c 0,0.353 0.286,0.638 0.639,0.638 H 0"
       style="fill:none;stroke:#254aa5;stroke-width:1;stroke-linecap:butt;stroke-linejoin:miter;stroke-miterlimit:10;stroke-dasharray:none;stroke-opacity:1"
       transform="matrix(1.3333333,0,0,-1.3333333,651.16253,320.04733)"
       clip-path="url(#clipPath237)" />
    <path
       id="path238"
       d="m 0,0 1.887,-1.886 c 0.249,-0.25 0.249,-0.653 0,-0.902 l -1.08,-1.08 c -0.249,-0.249 -0.654,-0.249 -0.903,0 l -1.886,1.886"
       style="fill:none;stroke:#254aa5;stroke-width:1;stroke-linecap:butt;stroke-linejoin:miter;stroke-miterlimit:10;stroke-dasharray:none;stroke-opacity:1"
       transform="matrix(1.3333333,0,0,-1.3333333,668.0324,323.29733)"
       clip-path="url(#clipPath239)" />
    <path
       id="path240"
       d="m 0,0 -1.887,1.887 c -0.249,0.249 -0.249,0.653 0,0.902 l 1.08,1.08 c 0.249,0.249 0.654,0.249 0.903,0 L 1.981,1.982"
       style="fill:none;stroke:#254aa5;stroke-width:1;stroke-linecap:butt;stroke-linejoin:miter;stroke-miterlimit:10;stroke-dasharray:none;stroke-opacity:1"
       transform="matrix(1.3333333,0,0,-1.3333333,652.50893,313.05907)"
       clip-path="url(#clipPath241)" />
    <path
       id="path242"
       d="m 0,0 c 0,-1.327 -1.075,-2.403 -2.402,-2.403 -1.327,0 -2.404,1.076 -2.404,2.403 0,1.327 1.077,2.402 2.404,2.402 C -1.075,2.402 0,1.327 0,0 Z"
       style="fill:none;stroke:#254aa5;stroke-width:1;stroke-linecap:butt;stroke-linejoin:miter;stroke-miterlimit:10;stroke-dasharray:none;stroke-opacity:1"
       transform="matrix(1.3333333,0,0,-1.3333333,663.47373,318.28307)"
       clip-path="url(#clipPath243)" />
    <path
       id="path244"
       d="m 0,0 c -0.985,-2.454 -3.773,-3.645 -6.228,-2.66 -2.455,0.985 -3.645,3.773 -2.66,6.228 0.985,2.454 3.773,3.645 6.228,2.66 C -0.206,5.243 0.984,2.455 0,0 Z"
       style="fill:none;stroke:#254aa5;stroke-width:1;stroke-linecap:butt;stroke-linejoin:miter;stroke-miterlimit:10;stroke-dasharray:none;stroke-opacity:1"
       transform="matrix(1.3333333,0,0,-1.3333333,674.95693,341.21147)"
       clip-path="url(#clipPath245)" />
    <path
       id="path246"
       d="m 0,0 0.675,1.682 c 0.089,0.222 0.342,0.33 0.563,0.241 L 2.201,1.536 C 2.423,1.447 2.531,1.194 2.441,0.973 L 1.767,-0.709"
       style="fill:none;stroke:#254aa5;stroke-width:1;stroke-linecap:butt;stroke-linejoin:miter;stroke-miterlimit:10;stroke-dasharray:none;stroke-opacity:1"
       transform="matrix(1.3333333,0,0,-1.3333333,670.18467,332.55253)"
       clip-path="url(#clipPath247)" />
    <path
       id="path248"
       d="m 0,0 -0.675,-1.682 c -0.089,-0.222 -0.342,-0.33 -0.563,-0.241 l -0.963,0.387 c -0.222,0.089 -0.33,0.341 -0.24,0.563 l 0.674,1.682"
       style="fill:none;stroke:#254aa5;stroke-width:1;stroke-linecap:butt;stroke-linejoin:miter;stroke-miterlimit:10;stroke-dasharray:none;stroke-opacity:1"
       transform="matrix(1.3333333,0,0,-1.3333333,667.9308,344.97973)"
       clip-path="url(#clipPath249)" />
    <path
       id="path250"
       d="M 0,0 1.666,0.712 C 1.887,0.806 2.141,0.703 2.235,0.483 L 2.643,-0.471 C 2.736,-0.69 2.635,-0.945 2.414,-1.039 L 0.748,-1.751"
       style="fill:none;stroke:#254aa5;stroke-width:1;stroke-linecap:butt;stroke-linejoin:miter;stroke-miterlimit:10;stroke-dasharray:none;stroke-opacity:1"
       transform="matrix(1.3333333,0,0,-1.3333333,674.24853,335.16853)"
       clip-path="url(#clipPath251)" />
    <path
       id="path252"
       d="m 0,0 -1.666,-0.712 c -0.221,-0.094 -0.475,0.009 -0.569,0.229 l -0.408,0.954 c -0.093,0.219 0.009,0.474 0.229,0.568 l 1.666,0.712"
       style="fill:none;stroke:#254aa5;stroke-width:1;stroke-linecap:butt;stroke-linejoin:miter;stroke-miterlimit:10;stroke-dasharray:none;stroke-opacity:1"
       transform="matrix(1.3333333,0,0,-1.3333333,663.86707,342.36373)"
       clip-path="url(#clipPath253)" />
    <path
       id="path254"
       d="m 0,0 1.682,-0.675 c 0.221,-0.09 0.33,-0.342 0.24,-0.564 L 1.536,-2.201 C 1.446,-2.424 1.194,-2.531 0.973,-2.442 l -1.682,0.674"
       style="fill:none;stroke:#254aa5;stroke-width:1;stroke-linecap:butt;stroke-linejoin:miter;stroke-miterlimit:10;stroke-dasharray:none;stroke-opacity:1"
       transform="matrix(1.3333333,0,0,-1.3333333,675.272,339.8924)"
       clip-path="url(#clipPath255)" />
    <path
       id="path256"
       d="m 0,0 -1.682,0.675 c -0.221,0.09 -0.33,0.342 -0.24,0.563 l 0.386,0.963 c 0.09,0.223 0.342,0.33 0.564,0.241 L 0.709,1.767"
       style="fill:none;stroke:#254aa5;stroke-width:1;stroke-linecap:butt;stroke-linejoin:miter;stroke-miterlimit:10;stroke-dasharray:none;stroke-opacity:1"
       transform="matrix(1.3333333,0,0,-1.3333333,662.8436,337.63987)"
       clip-path="url(#clipPath257)" />
    <path
       id="path258"
       d="M 0,0 0.712,-1.667 C 0.807,-1.887 0.704,-2.142 0.483,-2.235 L -0.47,-2.643 c -0.22,-0.094 -0.475,0.008 -0.569,0.228 l -0.712,1.667"
       style="fill:none;stroke:#254aa5;stroke-width:1;stroke-linecap:butt;stroke-linejoin:miter;stroke-miterlimit:10;stroke-dasharray:none;stroke-opacity:1"
       transform="matrix(1.3333333,0,0,-1.3333333,672.6548,343.95627)"
       clip-path="url(#clipPath259)" />
    <path
       id="path260"
       d="m 0,0 -0.712,1.667 c -0.094,0.22 0.008,0.475 0.229,0.568 L 0.47,2.643 C 0.69,2.737 0.945,2.635 1.039,2.414 L 1.751,0.748"
       style="fill:none;stroke:#254aa5;stroke-width:1;stroke-linecap:butt;stroke-linejoin:miter;stroke-miterlimit:10;stroke-dasharray:none;stroke-opacity:1"
       transform="matrix(1.3333333,0,0,-1.3333333,665.4608,333.576)"
       clip-path="url(#clipPath261)" />
    <path
       id="path262"
       d="M 0,0 C -0.336,-0.836 -1.286,-1.242 -2.122,-0.906 -2.959,-0.57 -3.365,0.38 -3.029,1.216 -2.693,2.053 -1.743,2.459 -0.906,2.123 -0.07,1.787 0.336,0.837 0,0 Z"
       style="fill:none;stroke:#254aa5;stroke-width:1;stroke-linecap:butt;stroke-linejoin:miter;stroke-miterlimit:10;stroke-dasharray:none;stroke-opacity:1"
       transform="matrix(1.3333333,0,0,-1.3333333,671.05067,339.64373)"
       clip-path="url(#clipPath263)" />
  </g>
</svg>
