<svg version="1.1" viewBox="0 0 68.318663 68.320008" sodipodi:docname="23.EIT-Icons.ai" inkscape:version="1.4.2 (ebf0e940, 2025-05-08)" xmlns:inkscape="http://www.inkscape.org/namespaces/inkscape" xmlns:sodipodi="http://sodipodi.sourceforge.net/DTD/sodipodi-0.dtd" xmlns="http://www.w3.org/2000/svg"><defs><clipPath clipPathUnits="userSpaceOnUse" id="a"><path d="M 0,422.39 H 838.228 V 0 H 0 Z" transform="translate(-800.1049,-241.1724)"></path></clipPath><clipPath clipPathUnits="userSpaceOnUse" id="b"><path d="M 0,422.39 H 838.228 V 0 H 0 Z" transform="translate(-783.57654,-236.4273)"></path></clipPath><clipPath clipPathUnits="userSpaceOnUse" id="c"><path d="M 0,422.39 H 838.228 V 0 H 0 Z" transform="translate(-775.06682,-227.8374)"></path></clipPath><clipPath clipPathUnits="userSpaceOnUse" id="d"><path d="M 0,422.39 H 838.228 V 0 H 0 Z" transform="translate(-781.90659,-236.92731)"></path></clipPath><clipPath clipPathUnits="userSpaceOnUse" id="e"><path d="M 0,422.39 H 838.228 V 0 H 0 Z" transform="translate(-775.06382,-256.2261)"></path></clipPath><clipPath clipPathUnits="userSpaceOnUse" id="f"><path d="M 0,422.39 H 838.228 V 0 H 0 Z" transform="translate(-788.47404,-246.6939)"></path></clipPath><clipPath clipPathUnits="userSpaceOnUse" id="g"><path d="M 0,422.39 H 838.228 V 0 H 0 Z" transform="translate(-761.67714,-237.29741)"></path></clipPath><clipPath clipPathUnits="userSpaceOnUse" id="h"><path d="M 0,422.39 H 838.228 V 0 H 0 Z" transform="translate(-786.58734,-239.4375)"></path></clipPath><clipPath clipPathUnits="userSpaceOnUse" id="i"><path d="M 0,422.39 H 838.228 V 0 H 0 Z" transform="translate(-788.93694,-230.9175)"></path></clipPath></defs><sodipodi:namedview pagecolor="#ffffff" bordercolor="#000000" borderopacity="0.25" inkscape:showpageshadow="2" inkscape:pageopacity="0.0" inkscape:pagecheckerboard="0" inkscape:deskcolor="#d1d1d1" showguides="true" inkscape:zoom="0.5" inkscape:cx="585" inkscape:cy="294" inkscape:window-width="1920" inkscape:window-height="1027" inkscape:window-x="0" inkscape:window-y="25" inkscape:window-maximized="0" inkscape:current-layer="layer-MC0"><inkscape:page x="0" y="0" width="68.318665" height="68.320007" margin="0" bleed="0"></inkscape:page></sodipodi:namedview><g inkscape:groupmode="layer" inkscape:label="Capa 1" transform="translate(-999.15465,-207.46347)"><path d="m 0,0 c 0,-13.873 -11.246,-25.12 -25.119,-25.12 -13.874,0 -25.12,11.247 -25.12,25.12 0,13.874 11.246,25.12 25.12,25.12 C -11.246,25.12 0,13.874 0,0 Z" transform="matrix(1.3333333,0,0,-1.3333333,1066.8065,241.62347)" clip-path="url(#a)" fill="none" stroke="currentColor" stroke-width="1" stroke-linecap="butt" stroke-linejoin="miter" stroke-miterlimit="10" stroke-dasharray="none" stroke-opacity="1" class="selected icon-bg"></path><g><path d="M 0,0 C -0.619,0 -1.189,0.19 -1.67,0.5 -1.829,0.62 -1.979,0.74 -2.119,0.87 -2.67,1.42 -3.01,2.18 -3.01,3.01 c 0,1.24 0.75,2.31 1.83,2.76 V 5.78 C -0.819,5.93 -0.42,6.02 0,6.02 1.671,6.02 3.011,4.67 3.011,3.01 3.011,1.35 1.671,0 0,0 Z M 4.891,10.27 C 3,15.72 -2.13,19.67 -8.21,19.79 c -0.1,0.01 -0.199,0.01 -0.3,0.01 -0.099,0 -0.2,0 -0.3,-0.01 -6.08,-0.12 -11.219,-4.07 -13.11,-9.52 -0.51,-1.46 -0.79,-3.03 -0.79,-4.66 0,-1.66 0.29,-3.26 0.811,-4.74 1.92,-5.42 7.04,-9.33 13.089,-9.45 0.1,-0.01 0.201,-0.01 0.3,-0.01 1.09,0 2.141,0.12 3.16,0.36 v 2.72 c 0,1.9 1.35,3.48 3.13,3.84 0.26,0.05 0.521,0.08 0.79,0.08 h 2.87 c 0.71,0 1.38,-0.19 1.96,-0.52 1.441,2.22 2.281,4.87 2.281,7.72 0,1.63 -0.281,3.2 -0.79,4.66 z" transform="matrix(1.3333333,0,0,-1.3333333,1044.7687,247.95027)" clip-path="url(#b)" fill="none" stroke="currentColor" stroke-width="1" stroke-linecap="round" stroke-linejoin="round" stroke-miterlimit="10" stroke-dasharray="none" stroke-opacity="1"></path><path d="m 0,0 c -0.1,0 -0.2,0 -0.3,0.01 -3.059,0.24 -5.63,4.11 -6.61,9.45 -0.27,1.48 -0.42,3.08 -0.42,4.74 0,1.63 0.141,3.2 0.4,4.66 0.97,5.37 3.55,9.28 6.63,9.52 0.1,0.01 0.2,0.01 0.3,0.01 0.101,0 0.2,0 0.3,-0.01 3.07,-0.24 5.66,-4.15 6.631,-9.52 0.25,-1.41 0.389,-2.91 0.399,-4.49" transform="matrix(1.3333333,0,0,-1.3333333,1033.4224,259.40347)" clip-path="url(#c)" fill="none" stroke="currentColor" stroke-width="1" stroke-linecap="round" stroke-linejoin="round" stroke-miterlimit="10" stroke-dasharray="none" stroke-opacity="1"></path><path d="M 0,0 C -0.149,-0.76 -0.34,-1.49 -0.55,-2.17" transform="matrix(1.3333333,0,0,-1.3333333,1042.5421,247.2836)" clip-path="url(#d)" fill="none" stroke="currentColor" stroke-width="1" stroke-linecap="round" stroke-linejoin="round" stroke-miterlimit="10" stroke-dasharray="none" stroke-opacity="1"></path><path d="M 0,0 V -28.386" transform="matrix(1.3333333,0,0,-1.3333333,1033.4184,221.55187)" clip-path="url(#e)" fill="none" stroke="currentColor" stroke-width="1" stroke-linecap="round" stroke-linejoin="round" stroke-miterlimit="10" stroke-dasharray="none" stroke-opacity="1"></path><path d="M 0,0 H -26.82" transform="matrix(1.3333333,0,0,-1.3333333,1051.2987,234.26147)" clip-path="url(#f)" fill="none" stroke="currentColor" stroke-width="1" stroke-linecap="round" stroke-linejoin="round" stroke-miterlimit="10" stroke-dasharray="none" stroke-opacity="1"></path><path d="m 0,0 h 6.479 6.911 6.39" transform="matrix(1.3333333,0,0,-1.3333333,1015.5695,246.79013)" clip-path="url(#g)" fill="none" stroke="currentColor" stroke-width="1" stroke-linecap="round" stroke-linejoin="round" stroke-miterlimit="10" stroke-dasharray="none" stroke-opacity="1"></path><path d="m 0,0 c 0,-1.66 -1.34,-3.01 -3.011,-3.01 -0.619,0 -1.189,0.19 -1.67,0.5 -0.159,0.12 -0.309,0.24 -0.449,0.37 -0.551,0.55 -0.891,1.31 -0.891,2.14 0,1.24 0.75,2.31 1.831,2.76 v 0.01 c 0.36,0.15 0.759,0.24 1.179,0.24 C -1.34,3.01 0,1.66 0,0 Z" transform="matrix(1.3333333,0,0,-1.3333333,1048.7831,243.93667)" clip-path="url(#h)" fill="none" stroke="currentColor" stroke-width="1" stroke-linecap="round" stroke-linejoin="round" stroke-miterlimit="10" stroke-dasharray="none" stroke-opacity="1"></path><path d="M 0,0 V -4.87 H -10.71 V 0 c 0,1.9 1.35,3.48 3.13,3.84 0.26,0.05 0.52,0.08 0.79,0.08 h 2.87 c 0.71,0 1.38,-0.19 1.96,-0.52 C -0.79,2.72 0,1.45 0,0 Z" transform="matrix(1.3333333,0,0,-1.3333333,1051.9159,255.29667)" clip-path="url(#i)" fill="none" stroke="currentColor" stroke-width="1" stroke-linecap="round" stroke-linejoin="round" stroke-miterlimit="10" stroke-dasharray="none" stroke-opacity="1"></path></g></g></svg>